<?xml version="1.0" encoding="utf-8"?>
<!-- Generator: Adobe Illustrator 22.0.1, SVG Export Plug-In . SVG Version: 6.00 Build 0)  -->
<svg version="1.1" id="Layer_1" xmlns="http://www.w3.org/2000/svg" xmlns:xlink="http://www.w3.org/1999/xlink" x="0px" y="0px"
	 viewBox="0 0 377.3 729.2" style="enable-background:new 0 0 377.3 729.2;" xml:space="preserve">
<style type="text/css">
	.st0{fill:#393837;}
</style>
<path class="st0" d="M310.3,0H67C30,0,0,30,0,67v595.1c0,37,30,67,67,67h243.3c37,0,67-30,67-67V67C377.3,30,347.3,0,310.3,0z
	 M291.5,32c5.2,0,9.3,4.2,9.3,9.3c0,5.2-4.2,9.3-9.3,9.3c-5.2,0-9.3-4.2-9.3-9.3C282.1,36.2,286.3,32,291.5,32z M147.9,32.2h81.6
	c2.5,0,4.8,1,6.5,2.7c1.7,1.7,2.7,3.9,2.7,6.5c0,5-4.1,9.1-9.1,9.1h-81.6c-2.5,0-4.8-1-6.5-2.7c-1.6-1.7-2.7-3.9-2.7-6.5
	C138.7,36.4,142.9,32.2,147.9,32.2z M188.7,716.3c-16.6,0-30.1-13.5-30.1-30.1c0-16.6,13.5-30.1,30.1-30.1
	c16.6,0,30.1,13.5,30.1,30.1C218.7,702.8,205.3,716.3,188.7,716.3z M361.5,644.1H15.8V70.6h345.8V644.1z"/>
</svg>
