<?xml version="1.0" encoding="utf-8"?>
<!-- Generator: Adobe Illustrator 22.1.0, SVG Export Plug-In . SVG Version: 6.00 Build 0)  -->
<svg version="1.1" id="Layer_1" xmlns="http://www.w3.org/2000/svg" xmlns:xlink="http://www.w3.org/1999/xlink" x="0px" y="0px"
	 viewBox="0 0 80.1 58.9" style="enable-background:new 0 0 80.1 58.9;" xml:space="preserve">
<style type="text/css">
	.st0{fill:#FEDE02;}
	.st1{fill:#EEEFEA;stroke:#28373A;stroke-width:2;stroke-miterlimit:10;}
	.st2{fill:#D3D7C8;}
	.st3{fill:#E8BB22;}
</style>
<g>
	<path class="st0" d="M42.1,41.5c-0.3,0-0.6,0-0.9,0c-8.1,0.4-15-4.2-15.8-10.5c-0.8-6,4.8-11.5,12.7-12.4c1.4-0.2,2.8-0.3,4.2,0
		c5.6,0.2,11.1,4,12.5,8.7C57,34,50.9,40.7,42.1,41.5z"/>
	<path class="st1" d="M78.7,27c-1-4.7-4-8.6-8.6-11.8c-4.7-3.3-9.6-6.4-14.1-9.9c-1.7-1.3-3.8-2.4-6.2-2.9c-9.1-3.1-20.8-0.6-27,5.8
		C21,10,19,11.6,16.2,12.6c-2,0.7-3.9,1.4-5.8,2.2c-6.7,2.9-10.2,8.4-9.2,14.3c0.5,2.8,2.1,5.2,4,7.6c2,2.4,3.6,4.9,4.6,7.7
		c3.2,8.8,15.4,14.7,27.1,13.3c5-0.1,9.4-1.8,13.3-4.1c4.1-2.4,8.5-4,13.5-5c5.1-1,9.2-3.4,11.8-6.9C78.8,37.1,79.8,32.2,78.7,27z
		 M42.1,41.5c-0.3,0-0.6,0-0.9,0c-8.1,0.4-15-4.2-15.8-10.5c-0.8-6,4.8-11.5,12.7-12.4c1.4-0.2,2.8-0.3,4.2,0
		c5.6,0.2,11.1,4,12.5,8.7C57,34,50.9,40.7,42.1,41.5z"/>
	<path class="st2" d="M73.9,39.5c-2.2,2.9-5.5,4.8-9.7,5.7c-4.1,0.8-7.7,2.1-11.1,4.1c-3.2,1.9-6.7,3.2-10.9,3.3
		c0.2-0.3,0.6-0.4,1-0.4c3.8-0.5,6.7-1.9,8.3-4.7c1.2-2.2,3.4-3.7,5.7-5.3c4.1-2.6,6.6-6,7.2-10.2c0.8-4.8-0.9-9.2-3.7-13.5
		c-1.3-1.9-2.4-3.9-3.1-6c-0.6-1.8-2.2-3.1-3.9-4.3c-0.5-0.3-1.1-0.6-0.9-1.2c2,0.5,3.7,1.3,5.1,2.4c3.7,2.9,7.7,5.4,11.6,8.2
		c3.7,2.6,6.2,5.8,7,9.7C77.5,31.7,76.7,35.8,73.9,39.5z"/>
	<path class="st3" d="M42,39.8c-0.2,0-0.5,0-0.7,0c0-0.3,0.4-0.5,0.7-0.6c3.2-1.7,4.6-4.2,5.2-7c0.7-3.2,0-6.2-1.9-9.1
		c-0.8-1.2-1.9-2.1-3-3.1c4.8,0.2,9.6,3.5,10.8,7.5C55,33.3,49.7,39.2,42,39.8z"/>
</g>
</svg>
