<?xml version="1.0" encoding="utf-8"?>
<!-- Generator: Adobe Illustrator 22.1.0, SVG Export Plug-In . SVG Version: 6.00 Build 0)  -->
<svg version="1.1" id="Layer_1" xmlns="http://www.w3.org/2000/svg" xmlns:xlink="http://www.w3.org/1999/xlink" x="0px" y="0px"
	 viewBox="0 0 81.3 80.4" style="enable-background:new 0 0 81.3 80.4;" xml:space="preserve">
<style type="text/css">
	.st0{fill:#C2C1C0;stroke:#28373A;stroke-width:2;stroke-miterlimit:10;}
	.st1{fill:#EDEDED;stroke:#28373A;stroke-width:2;stroke-miterlimit:10;}
	.st2{fill:#D2D2D1;}
</style>
<g>
	<path class="st0" d="M9.5,8.6l-5,10.1C2.3,23.2,1.1,28,1.1,32.9l0,11.1c-1.4,3.2,11,0.3,16.7,3.4L29.2,43
		c2.6-6,14.2-12.5,11.2-14.1L31.7,20c-3.3-3.4-7.4-6-11.9-7.6L9.5,8.6z"/>
	<path class="st1" d="M28.8,63.4c1.9,4.8-0.3,10.3-5,12.3c-0.8,0.3-1.6,0.6-2.4,0.7c-1.2,0.2-2.4-0.7-2.5-2l0-0.3
		c-0.2-1.3,0.7-2.4,2-2.6c0.3,0,0.6-0.1,0.9-0.2c2.5-1,3.5-4.5,2.1-7.9l-4.7-12.1c-0.5-1.2,0.1-2.5,1.3-3l0,0c1.2-0.5,2.5,0.1,3,1.3
		L28.8,63.4z"/>
	<path class="st1" d="M32.9,61.8c1.9,4.8,7.1,7.4,12,5.7c0.8-0.3,1.5-0.7,2.2-1.1c1-0.7,1.3-2.1,0.5-3.2L47.5,63
		c-0.7-1-2.2-1.3-3.2-0.5c-0.2,0.2-0.5,0.3-0.8,0.4c-2.5,1-5.6-1-7-4.4l-4.7-12.1c-0.5-1.2-1.8-1.8-3-1.3l0,0
		c-1.2,0.5-1.8,1.8-1.3,3L32.9,61.8z"/>
	<path class="st1" d="M32.3,66.4c1.9,4.8-0.3,10.3-5,12.3c-0.8,0.3-1.6,0.6-2.4,0.7c-1.2,0.2-2.4-0.7-2.5-2l0-0.3
		c-0.2-1.3,0.7-2.4,2-2.6c0.3,0,0.6-0.1,0.9-0.2c2.5-1,3.5-4.5,2.1-7.9l-4.7-12.1c-0.5-1.2,0.1-2.5,1.3-3l0,0c1.2-0.5,2.5,0.1,3,1.3
		L32.3,66.4z"/>
	<path class="st1" d="M32.3,66.4c1.9,4.8,7.1,7.4,12,5.7c0.8-0.3,1.5-0.7,2.2-1.1c1-0.7,1.3-2.1,0.5-3.2l-0.2-0.3
		c-0.7-1-2.2-1.3-3.2-0.5c-0.2,0.2-0.5,0.3-0.8,0.4c-2.5,1-5.6-1-7-4.4L31.2,51c-0.5-1.2-1.8-1.8-3-1.3h0c-1.2,0.5-1.8,1.8-1.3,3
		L32.3,66.4z"/>
	<path class="st1" d="M28.5,43.3l-9.1,3.5c-2.8,1.1-7.6-4.1-9.4-7.3c-1.3-2.2-2.1-4.8-2.4-7.9c-0.2-1.9-0.2-3.8,0-5.7l2-17.3
		l13,10.6c1.4,1.2,2.8,2.6,4,4.2c2.2,2.9,3.5,5.6,4.1,8.3C31.4,35.2,31.3,42.2,28.5,43.3z"/>
	<path class="st1" d="M28.4,43.3l-8.7,3.4c-2.2,0.8-3.2,3.3-2.4,5.4l0,0c0.8,2.2,3.3,3.2,5.4,2.4l8.7-3.4c2.2-0.8,3.2-3.3,2.4-5.4
		l0,0C33,43.6,30.5,42.5,28.4,43.3z"/>
	<path class="st2" d="M15.2,16.2c0,0,8.8,6.4,11.6,11.4s-2.1,4.1-2.6,2.4C23.6,28.3,15.2,16.2,15.2,16.2z"/>
</g>
<g>
	<path class="st0" d="M8.3,5.3l1.8,12.1C11,22.7,13,27.7,16,32.1l6.9,9.9c0.8,3.7,9.9-6.6,17-7.4l7.4-11.1c-1.5-7,4.8-20,1.1-19.5
		L35.1,1.6C30,0.6,24.8,0.8,19.8,2.2L8.3,5.3z"/>
	<path class="st1" d="M59.6,42c4.6,3.1,6.2,9.3,3.3,14c-0.5,0.8-1.1,1.5-1.7,2.1c-1,0.9-2.6,0.8-3.5-0.2l-0.2-0.2
		c-0.9-1-0.9-2.6,0.2-3.5c0.2-0.2,0.5-0.5,0.7-0.7c1.6-2.4,0.3-6.2-3-8.4l-11.7-7.8c-1.1-0.8-1.4-2.3-0.7-3.4l0,0
		c0.8-1.1,2.3-1.4,3.4-0.7L59.6,42z"/>
	<path class="st1" d="M62.3,37.9c4.6,3.1,11,2.1,14.2-2.4c0.5-0.8,1-1.6,1.3-2.4c0.5-1.3-0.2-2.7-1.5-3.2L76,29.9
		c-1.3-0.5-2.7,0.2-3.2,1.5c-0.1,0.3-0.3,0.6-0.4,0.9c-1.6,2.4-5.6,2.6-8.9,0.4l-11.7-7.8c-1.1-0.8-2.7-0.5-3.4,0.7l0,0
		c-0.8,1.1-0.5,2.7,0.7,3.4L62.3,37.9z"/>
	<path class="st1" d="M64.6,42.4c4.6,3.1,6.2,9.3,3.3,14c-0.5,0.8-1.1,1.5-1.7,2.1c-1,0.9-2.6,0.8-3.5-0.2l-0.2-0.2
		c-0.9-1-0.9-2.6,0.2-3.5c0.2-0.2,0.5-0.5,0.7-0.7c1.6-2.4,0.3-6.2-3-8.4l-11.7-7.8c-1.1-0.8-1.4-2.3-0.7-3.4l0,0
		c0.8-1.1,2.3-1.4,3.4-0.7L64.6,42.4z"/>
	<path class="st1" d="M64.6,42.4c4.6,3.1,11,2.1,14.2-2.4c0.5-0.8,1-1.6,1.3-2.4c0.5-1.3-0.2-2.7-1.5-3.2l-0.3-0.1
		c-1.3-0.5-2.7,0.2-3.2,1.5c-0.1,0.3-0.3,0.6-0.4,0.9c-1.6,2.4-5.6,2.6-8.9,0.4L54,29.4c-1.1-0.8-2.7-0.5-3.4,0.7l0,0
		c-0.8,1.1-0.5,2.7,0.7,3.4L64.6,42.4z"/>
	<path class="st1" d="M46.8,24.2L41,33c-1.8,2.7-9.3,1.1-12.9-0.6c-2.5-1.1-4.8-3-7.1-5.5c-1.4-1.6-2.5-3.3-3.6-5l-9-16.6l18.2,1.3
		c2,0.2,4.1,0.6,6.1,1.2c3.7,1.2,6.6,2.8,8.8,4.9C44.3,15.2,48.6,21.5,46.8,24.2z"/>
	<path class="st1" d="M46.7,24.4l-5.6,8.5c-1.4,2.1-0.8,4.9,1.3,6.3l0,0c2.1,1.4,4.9,0.8,6.3-1.3l5.6-8.5c1.4-2.1,0.8-4.9-1.3-6.3
		l0,0C51,21.7,48.1,22.3,46.7,24.4z"/>
	<path class="st2" d="M18.1,8.4c0,0,11.9,0.2,17.4,2.9s0.7,5-0.8,3.8S18.1,8.4,18.1,8.4z"/>
</g>
<g>
	<path class="st0" d="M16.4,22.2l-0.1,11.2c-0.1,4.9,1,9.7,3.1,14.1l4.8,9.9c0.1,3.4,9.9-4.5,16.3-4.2l8.2-8.9
		c-0.3-6.5,7.2-17.3,3.9-17.3L41,22.8c-4.4-1.6-9.2-2.2-13.9-1.7L16.4,22.2z"/>
	<path class="st1" d="M57.1,62.7c3.7,3.5,4.2,9.3,0.9,13.1c-0.6,0.6-1.2,1.2-1.8,1.6c-1,0.7-2.4,0.4-3.1-0.7l-0.2-0.3
		c-0.7-1.1-0.4-2.5,0.7-3.1c0.3-0.2,0.5-0.4,0.7-0.6c1.8-2,1.1-5.5-1.5-8L43.3,56c-0.9-0.8-1-2.3-0.1-3.2l0,0c0.8-0.9,2.3-1,3.2-0.1
		L57.1,62.7z"/>
	<path class="st1" d="M60.1,59.4c3.7,3.5,9.5,3.5,13.1-0.1c0.6-0.6,1.1-1.3,1.5-1.9c0.6-1.1,0.2-2.4-0.9-3l-0.3-0.1
		c-1.1-0.6-2.5-0.2-3.1,0.9c-0.1,0.3-0.3,0.5-0.5,0.7c-1.8,2-5.4,1.5-8.1-0.9l-9.4-8.7c-0.9-0.8-2.3-0.8-3.2,0.1v0
		c-0.8,0.9-0.8,2.3,0.1,3.2L60.1,59.4z"/>
	<path class="st1" d="M61.5,63.8c3.7,3.5,4.2,9.3,0.9,13.1c-0.6,0.6-1.2,1.2-1.8,1.6c-1,0.7-2.4,0.4-3.1-0.7l-0.2-0.3
		c-0.7-1.1-0.4-2.5,0.7-3.1c0.3-0.2,0.5-0.4,0.7-0.6c1.8-2,1.1-5.5-1.5-8l-9.4-8.7c-0.9-0.8-1-2.3-0.1-3.2h0c0.8-0.9,2.3-1,3.2-0.1
		L61.5,63.8z"/>
	<path class="st1" d="M61.5,63.8c3.7,3.5,9.5,3.5,13.1-0.1c0.6-0.6,1.1-1.3,1.5-1.9c0.6-1.1,0.2-2.4-0.9-3L75,58.5
		c-1.1-0.6-2.5-0.2-3.1,0.9c-0.1,0.3-0.3,0.5-0.5,0.7c-1.8,2-5.4,1.5-8.1-0.9l-9.4-8.7c-0.9-0.8-2.3-0.8-3.2,0.1l0,0
		c-0.8,0.9-0.8,2.3,0.1,3.2L61.5,63.8z"/>
	<path class="st1" d="M48.2,44.8l-6.6,7.1c-2,2.2-8.5-0.4-11.5-2.4c-2-1.4-3.9-3.4-5.6-6c-1-1.6-1.8-3.3-2.5-5l-5.7-16.3L32.5,26
		c1.8,0.5,3.6,1.1,5.3,2c3.2,1.6,5.5,3.5,7.2,5.7C47.3,36.4,50.2,42.7,48.2,44.8z"/>
	<path class="st1" d="M48.1,44.9l-6.3,6.8c-1.6,1.7-1.5,4.3,0.2,5.9l0,0c1.7,1.6,4.3,1.5,5.9-0.2l6.3-6.8c1.6-1.7,1.5-4.3-0.2-5.9
		l0,0C52.3,43.2,49.6,43.3,48.1,44.9z"/>
	<path class="st2" d="M24.6,26.4c0,0,10.6,1.9,15.2,5.2s-0.1,4.6-1.3,3.3S24.6,26.4,24.6,26.4z"/>
</g>
</svg>
