<?xml version="1.0" encoding="utf-8"?>
<!-- Generator: Adobe Illustrator 22.1.0, SVG Export Plug-In . SVG Version: 6.00 Build 0)  -->
<svg version="1.1" id="Layer_1" xmlns="http://www.w3.org/2000/svg" xmlns:xlink="http://www.w3.org/1999/xlink" x="0px" y="0px"
	 viewBox="0 0 112.5 60.1" style="enable-background:new 0 0 112.5 60.1;" xml:space="preserve">
<style type="text/css">
	.st0{fill:#DAEDF1;}
	.st1{fill:#28373A;}
	.st2{fill:#C6DDE5;}
</style>
<g>
	<path class="st0" d="M79,47.9H25.2c-7.6,0-10.4-4.5-10.4-10.1c0,0,11.3-36.6,31.2-36.6h14.5c19.7,0,28.9,36.6,28.9,36.6
		C89.4,43.3,86.6,47.9,79,47.9z"/>
	<path class="st1" d="M79,47.9v-1.2H25.2c-1.8,0-3.3-0.3-4.4-0.7c-1.8-0.7-2.9-1.8-3.7-3.1c-0.8-1.4-1.1-3.1-1.1-5.1h-1.2l1.1,0.3
		l0-0.1c0.3-1,3.3-10.1,8.5-18.8c2.6-4.4,5.8-8.6,9.4-11.8c3.6-3.1,7.7-5.1,12.2-5.1h14.5c4.5,0,8.5,2.1,12,5.4
		c5.2,4.9,9.2,12.5,11.9,18.9c1.3,3.2,2.3,6,2.9,8.1c0.3,1,0.6,1.9,0.7,2.4c0.1,0.3,0.1,0.5,0.2,0.7c0,0.1,0.1,0.2,0.1,0.2l1.1-0.3
		h-1.2c0,2.6-0.6,4.8-2,6.4c-0.7,0.8-1.6,1.4-2.8,1.9c-1.2,0.5-2.6,0.7-4.4,0.7V47.9V49c2,0,3.8-0.3,5.3-0.9
		c2.2-0.9,3.9-2.4,4.9-4.2c1-1.8,1.4-4,1.4-6.2v-0.1l0-0.1c0,0-2.3-9.3-7.2-18.6c-2.4-4.6-5.5-9.3-9.3-12.9c-3.8-3.6-8.3-6-13.6-6
		H46C40.7,0,36,2.5,32,6c-6,5.3-10.5,13.2-13.6,19.7c-3.1,6.5-4.7,11.7-4.7,11.7l-0.1,0.2v0.2c0,3,0.7,5.8,2.6,7.9
		c0.9,1.1,2.2,1.9,3.7,2.5c1.5,0.6,3.2,0.9,5.3,0.9H79V47.9z"/>
	<path class="st2" d="M67.5,8c9.6,8.8,18.8,27.3,16.9,29.2c-1.9,1.9-15-22.7-18.8-25.6C61.7,8.8,67.5,8,67.5,8z"/>
	<path class="st0" d="M11.6,52.4H3.4c-1.3,0-2.3-1-2.3-2.3c0-1.3,1-2.3,2.3-2.3h8.1c1.3,0,2.3,1,2.3,2.3
		C13.8,51.4,12.8,52.4,11.6,52.4z"/>
	<path class="st1" d="M11.6,52.4v-1.2H3.4c-0.3,0-0.6-0.1-0.8-0.3c-0.2-0.2-0.3-0.5-0.3-0.8c0-0.3,0.1-0.6,0.3-0.8
		C2.9,49.1,3.1,49,3.4,49h8.1c0.3,0,0.6,0.1,0.8,0.3c0.2,0.2,0.3,0.5,0.3,0.8c0,0.3-0.1,0.6-0.3,0.8c-0.2,0.2-0.5,0.3-0.8,0.3V52.4
		v1.2c1.9,0,3.4-1.5,3.4-3.4c0-1.9-1.5-3.4-3.4-3.4H3.4c-1.9,0-3.4,1.5-3.4,3.4c0,1.9,1.5,3.4,3.4,3.4h8.1V52.4z"/>
	<path class="st0" d="M54.2,59H21.7c-1.3,0-2.4-1.1-2.4-2.4c0-1.3,1.1-2.4,2.4-2.4h32.5c1.3,0,2.4,1.1,2.4,2.4
		C56.6,57.9,55.6,59,54.2,59z"/>
	<path class="st1" d="M54.2,59v-1.2H21.7c-0.3,0-0.6-0.1-0.9-0.4c-0.2-0.2-0.4-0.5-0.4-0.9c0-0.3,0.1-0.6,0.4-0.9
		c0.2-0.2,0.5-0.4,0.9-0.4h32.5c0.3,0,0.7,0.1,0.9,0.4c0.2,0.2,0.4,0.5,0.4,0.9c0,0.3-0.1,0.6-0.4,0.9c-0.2,0.2-0.5,0.4-0.9,0.4V59
		v1.2c2,0,3.6-1.6,3.6-3.6c0-2-1.6-3.6-3.6-3.6H21.7c-2,0-3.6,1.6-3.6,3.6c0,2,1.6,3.6,3.6,3.6h32.5V59z"/>
	<path class="st0" d="M109.1,47.8h-8.1c-1.3,0-2.3-1-2.3-2.3c0-1.3,1-2.3,2.3-2.3h8.1c1.3,0,2.3,1,2.3,2.3
		C111.3,46.8,110.3,47.8,109.1,47.8z"/>
	<path class="st1" d="M109.1,47.8v-1.2h-8.1c-0.3,0-0.6-0.1-0.8-0.3c-0.2-0.2-0.3-0.5-0.3-0.8c0-0.3,0.1-0.6,0.3-0.8
		c0.2-0.2,0.5-0.3,0.8-0.3h8.1c0.3,0,0.6,0.1,0.8,0.3c0.2,0.2,0.3,0.5,0.3,0.8c0,0.3-0.1,0.6-0.3,0.8c-0.2,0.2-0.5,0.3-0.8,0.3V47.8
		V49c1.9,0,3.4-1.5,3.4-3.4c0-1.9-1.5-3.4-3.4-3.4h-8.1c-1.9,0-3.4,1.5-3.4,3.4c0,1.9,1.5,3.4,3.4,3.4h8.1V47.8z"/>
	<path class="st0" d="M99,54.5H70.3c-4.1,0-5.5-2.1-5.5-4.7c0,0,6-17,16.6-17h7.7c10.5,0,15.4,17,15.4,17
		C104.6,52.4,103.1,54.5,99,54.5z"/>
	<path class="st1" d="M105.7,49.5c0-0.1-1.3-4.4-3.9-8.8c-1.3-2.2-3-4.4-5.1-6.1c-2.1-1.7-4.6-2.9-7.6-2.9h-7.7
		c-3,0-5.6,1.2-7.8,2.9c-3.3,2.6-5.7,6.3-7.4,9.3c-1.7,3.1-2.5,5.5-2.5,5.5l-0.1,0.2v0.2c0,0.7,0.1,1.5,0.4,2.2
		c0.4,1.1,1.1,2,2.2,2.7c1.1,0.6,2.5,1,4.1,1H99c1.1,0,2.1-0.1,2.9-0.4c1.3-0.4,2.3-1.2,2.9-2.2c0.6-1,0.9-2.1,0.9-3.2v-0.2
		L105.7,49.5z M103.2,51.2c-0.2,0.6-0.6,1.1-1.2,1.5c-0.6,0.4-1.6,0.6-3,0.6H70.3c-0.9,0-1.6-0.1-2.2-0.3c-0.9-0.3-1.3-0.7-1.7-1.2
		C66.2,51.3,66,50.7,66,50c0.3-0.9,1.9-4.8,4.4-8.4c1.4-2,3-3.9,4.9-5.3c1.9-1.4,3.9-2.3,6.2-2.3h7.7c2.3,0,4.3,0.9,6.1,2.4
		c2.7,2.2,4.8,5.7,6.2,8.6c0.7,1.5,1.2,2.8,1.5,3.7c0.2,0.5,0.3,0.8,0.4,1.1c0,0.1,0.1,0.2,0.1,0.2
		C103.4,50.4,103.3,50.9,103.2,51.2z"/>
	<path class="st2" d="M31,39.5c0,1.2-1.3,2.1-2.9,2.1c-1.6,0-2.9-0.9-2.9-2.1s1.3-2.1,2.9-2.1C29.7,37.4,31,38.3,31,39.5z"/>
	<path class="st2" d="M91.4,36.4c5.8,4.1,11.4,12.8,10.2,13.7c-1.2,0.9-9.1-10.6-11.4-12C87.9,36.8,91.4,36.4,91.4,36.4z"/>
	<path class="st2" d="M27.4,33c0,0.6-0.5,1.1-1.1,1.1s-1.1-0.5-1.1-1.1c0-0.6,0.5-1.1,1.1-1.1S27.4,32.4,27.4,33z"/>
	<path class="st2" d="M36,28.5c0,0.8-1.3,1.5-3,1.5c-1.6,0-3-0.7-3-1.5c0-0.8,1.3-1.5,3-1.5C34.6,26.9,36,27.6,36,28.5z"/>
	<ellipse class="st2" cx="73" cy="49" rx="3.2" ry="1.2"/>
	<path class="st2" d="M74.5,43c0-0.4,0.6-0.7,1.4-0.7s1.4,0.3,1.4,0.7c0,0.4-0.6,0.7-1.4,0.7S74.5,43.3,74.5,43z"/>
	<circle class="st2" cx="28.7" cy="21.4" r="1.3"/>
	<circle class="st2" cx="79.9" cy="46.6" r="1.1"/>
</g>
</svg>
