<?xml version="1.0" encoding="utf-8"?>
<!-- Generator: Adobe Illustrator 22.1.0, SVG Export Plug-In . SVG Version: 6.00 Build 0)  -->
<svg version="1.1" id="Layer_1" xmlns="http://www.w3.org/2000/svg" xmlns:xlink="http://www.w3.org/1999/xlink" x="0px" y="0px"
	 viewBox="0 0 50.3 50.3" style="enable-background:new 0 0 50.3 50.3;" xml:space="preserve">
<style type="text/css">
	.st0{fill:#FFFFFF;}
</style>
<path class="st0" d="M25.1,0L25.1,0c-2,0-3.7,1.6-3.7,3.7v43c0,2,1.6,3.7,3.7,3.7h0c2,0,3.7-1.7,3.7-3.7v-43C28.8,1.6,27.2,0,25.1,0
	z"/>
<path class="st0" d="M0,25.1L0,25.1c0,2,1.6,3.7,3.7,3.7h43c2,0,3.7-1.6,3.7-3.7v0c0-2-1.7-3.7-3.7-3.7h-43C1.6,21.5,0,23.1,0,25.1z
	"/>
</svg>
