<?xml version="1.0" encoding="utf-8"?>
<!-- Generator: Adobe Illustrator 22.1.0, SVG Export Plug-In . SVG Version: 6.00 Build 0)  -->
<svg version="1.1" id="Layer_1" xmlns="http://www.w3.org/2000/svg" xmlns:xlink="http://www.w3.org/1999/xlink" x="0px" y="0px"
	 viewBox="0 0 139.3 53.4" style="enable-background:new 0 0 139.3 53.4;" xml:space="preserve">
<style type="text/css">
	.st0{fill:#DAEDF1;stroke:#28373A;stroke-miterlimit:10;}
	.st1{fill:#EE3232;stroke:#5C903F;stroke-miterlimit:10;}
	.st2{fill:#62BC46;}
	.st3{fill:#EE3232;}
	.st4{fill:#F15C5D;}
	.st5{fill:#76C043;}
	.st6{fill:#CEECF3;}
	.st7{fill:#F89B4D;}
</style>
<g>
	<path class="st0" d="M44.5,6.3c0,3.2-9.8,5.8-22,5.8c-12.1,0-22-2.6-22-5.8c0-3.2,9.8-5.8,22-5.8C34.6,0.5,44.5,3.1,44.5,6.3z"/>
	<path class="st0" d="M44.5,6.3v24.5c0,3.2-9.8,5.8-22,5.8c-12.1,0-22-2.6-22-5.8V6.3c0,3.2,9.8,5.8,22,5.8
		C34.6,12,44.5,9.4,44.5,6.3z"/>
	<ellipse class="st1" cx="22.5" cy="6.2" rx="18.2" ry="3.6"/>
	<g>
		<path class="st2" d="M29.3,2.9l-1.5,2.8l-3.1-0.6l-2.2,1.1L5.9,4.7c2.9-1.2,9.2-2.1,16.6-2.1C24.9,2.6,27.2,2.7,29.3,2.9z"/>
		<polygon class="st3" points="26.2,8.8 18.9,7.3 19.4,7.1 		"/>
		<path class="st3" d="M40.2,7c-0.2,0.1-0.4,0.3-0.6,0.4l-9.5-1.3l-2.2-0.5L40.2,7z"/>
		<path class="st3" d="M22.5,6.2l-3.1,0.9l-0.5,0.2h0l-6.2,1.9h0c-5-0.6-8.3-1.7-8.3-3c0-0.5,0.6-1,1.7-1.5h0L22.5,6.2z"/>
		<path class="st4" d="M29.5,9.4c-2.1,0.2-4.5,0.3-7,0.3c-3.6,0-7-0.2-9.9-0.6l6.2-1.9h0l7.4,1.5l0,0L29.5,9.4z"/>
		<polygon class="st5" points="30.3,6 26.3,8.8 26.2,8.8 18.9,7.3 22.5,6.2 24.7,5.1 27.8,5.7 		"/>
		<path class="st6" d="M39.6,7.4c-1.8,0.9-5.4,1.7-10.1,2l-3.2-0.7l3.8-2.6L39.6,7.4z"/>
		<path class="st7" d="M40.7,6.2c0,0.3-0.2,0.6-0.5,0.9L27.8,5.7l1.5-2.8C36,3.4,40.7,4.7,40.7,6.2z"/>
	</g>
</g>
<g>
	<path class="st0" d="M91.7,6.3c0,3.2-9.8,5.8-22,5.8c-12.1,0-22-2.6-22-5.8c0-3.2,9.8-5.8,22-5.8C81.8,0.5,91.7,3.1,91.7,6.3z"/>
	<path class="st0" d="M91.7,6.3v24.5c0,3.2-9.8,5.8-22,5.8c-12.1,0-22-2.6-22-5.8V6.3c0,3.2,9.8,5.8,22,5.8
		C81.8,12,91.7,9.4,91.7,6.3z"/>
	<ellipse class="st1" cx="69.7" cy="6.2" rx="18.2" ry="3.6"/>
	<g>
		<path class="st2" d="M76.5,2.9L75,5.7l-3.1-0.6l-2.2,1.1L53.1,4.7c2.9-1.2,9.2-2.1,16.6-2.1C72.1,2.6,74.4,2.7,76.5,2.9z"/>
		<polygon class="st3" points="73.4,8.8 66,7.3 66.6,7.1 		"/>
		<path class="st3" d="M87.4,7c-0.2,0.1-0.4,0.3-0.6,0.4l-9.5-1.3L75,5.7L87.4,7z"/>
		<path class="st3" d="M69.7,6.2l-3.1,0.9L66,7.3h0l-6.2,1.9h0c-5-0.6-8.3-1.7-8.3-3c0-0.5,0.6-1,1.7-1.5h0L69.7,6.2z"/>
		<path class="st4" d="M76.6,9.4c-2.1,0.2-4.5,0.3-7,0.3c-3.6,0-7-0.2-9.9-0.6L66,7.3h0l7.4,1.5l0,0L76.6,9.4z"/>
		<polygon class="st5" points="77.5,6 73.4,8.8 73.4,8.8 66,7.3 69.7,6.2 71.9,5.1 75,5.7 		"/>
		<path class="st6" d="M86.7,7.4c-1.8,0.9-5.4,1.7-10.1,2l-3.2-0.7l3.8-2.6L86.7,7.4z"/>
		<path class="st7" d="M87.9,6.2c0,0.3-0.2,0.6-0.5,0.9L75,5.7l1.5-2.8C83.2,3.4,87.9,4.7,87.9,6.2z"/>
	</g>
</g>
<g>
	<path class="st0" d="M138.8,6.3c0,3.2-9.8,5.8-22,5.8c-12.1,0-22-2.6-22-5.8c0-3.2,9.8-5.8,22-5.8C129,0.5,138.8,3.1,138.8,6.3z"/>
	<path class="st0" d="M138.8,6.3v24.5c0,3.2-9.8,5.8-22,5.8c-12.1,0-22-2.6-22-5.8V6.3c0,3.2,9.8,5.8,22,5.8
		C129,12,138.8,9.4,138.8,6.3z"/>
	<ellipse class="st1" cx="116.8" cy="6.2" rx="18.2" ry="3.6"/>
	<g>
		<path class="st2" d="M123.6,2.9l-1.5,2.8L119,5.1l-2.2,1.1l-16.6-1.5c2.9-1.2,9.2-2.1,16.6-2.1C119.2,2.6,121.5,2.7,123.6,2.9z"/>
		<polygon class="st3" points="120.6,8.8 113.2,7.3 113.7,7.1 		"/>
		<path class="st3" d="M134.5,7c-0.2,0.1-0.4,0.3-0.6,0.4l-9.5-1.3l-2.2-0.5L134.5,7z"/>
		<path class="st3" d="M116.8,6.2l-3.1,0.9l-0.5,0.2h0L107,9.1h0c-5-0.6-8.3-1.7-8.3-3c0-0.5,0.6-1,1.7-1.5h0L116.8,6.2z"/>
		<path class="st4" d="M123.8,9.4c-2.1,0.2-4.5,0.3-7,0.3c-3.6,0-7-0.2-9.9-0.6l6.2-1.9h0l7.4,1.5l0,0L123.8,9.4z"/>
		<polygon class="st5" points="124.7,6 120.6,8.8 120.6,8.8 113.2,7.3 116.8,6.2 119,5.1 122.2,5.7 		"/>
		<path class="st6" d="M133.9,7.4c-1.8,0.9-5.4,1.7-10.1,2l-3.2-0.7l3.8-2.6L133.9,7.4z"/>
		<path class="st7" d="M135.1,6.2c0,0.3-0.2,0.6-0.5,0.9l-12.4-1.3l1.5-2.8C130.3,3.4,135.1,4.7,135.1,6.2z"/>
	</g>
</g>
<g>
	<path class="st0" d="M68.1,22.6c0,3.2-9.8,5.8-22,5.8c-12.1,0-22-2.6-22-5.8c0-3.2,9.8-5.8,22-5.8C58.2,16.8,68.1,19.4,68.1,22.6z"
		/>
	<path class="st0" d="M68.1,22.6v24.5c0,3.2-9.8,5.8-22,5.8c-12.1,0-22-2.6-22-5.8V22.6c0,3.2,9.8,5.8,22,5.8
		C58.2,28.3,68.1,25.8,68.1,22.6z"/>
	<ellipse class="st1" cx="46.1" cy="22.5" rx="18.2" ry="3.6"/>
	<g>
		<path class="st2" d="M52.9,19.2L51.4,22l-3.1-0.6l-2.2,1.1L29.5,21c2.9-1.2,9.2-2.1,16.6-2.1C48.5,18.9,50.8,19,52.9,19.2z"/>
		<polygon class="st3" points="49.8,25.1 42.5,23.6 43,23.4 		"/>
		<path class="st3" d="M63.8,23.3c-0.2,0.1-0.4,0.3-0.6,0.4l-9.5-1.3L51.4,22L63.8,23.3z"/>
		<path class="st3" d="M46.1,22.5L43,23.4l-0.5,0.2h0l-6.2,1.9h0c-5-0.6-8.3-1.7-8.3-3c0-0.5,0.6-1,1.7-1.5h0L46.1,22.5z"/>
		<path class="st4" d="M53.1,25.8c-2.1,0.2-4.5,0.3-7,0.3c-3.6,0-7-0.2-9.9-0.6l6.2-1.9h0l7.4,1.5l0,0L53.1,25.8z"/>
		<polygon class="st5" points="53.9,22.3 49.9,25.1 49.8,25.1 42.5,23.6 46.1,22.5 48.3,21.4 51.4,22 		"/>
		<path class="st6" d="M63.1,23.7c-1.8,0.9-5.4,1.7-10.1,2l-3.2-0.7l3.8-2.6L63.1,23.7z"/>
		<path class="st7" d="M64.3,22.5c0,0.3-0.2,0.6-0.5,0.9L51.4,22l1.5-2.8C59.6,19.7,64.3,21,64.3,22.5z"/>
	</g>
</g>
<g>
	<path class="st0" d="M115.2,22.6c0,3.2-9.8,5.8-22,5.8c-12.1,0-22-2.6-22-5.8c0-3.2,9.8-5.8,22-5.8
		C105.4,16.8,115.2,19.4,115.2,22.6z"/>
	<path class="st0" d="M115.2,22.6v24.5c0,3.2-9.8,5.8-22,5.8c-12.1,0-22-2.6-22-5.8V22.6c0,3.2,9.8,5.8,22,5.8
		C105.4,28.3,115.2,25.8,115.2,22.6z"/>
	<ellipse class="st1" cx="93.2" cy="22.5" rx="18.2" ry="3.6"/>
	<g>
		<path class="st2" d="M100,19.2L98.6,22l-3.1-0.6l-2.2,1.1L76.7,21c2.9-1.2,9.2-2.1,16.6-2.1C95.7,18.9,97.9,19,100,19.2z"/>
		<polygon class="st3" points="97,25.1 89.6,23.6 90.1,23.4 		"/>
		<path class="st3" d="M110.9,23.3c-0.2,0.1-0.4,0.3-0.6,0.4l-9.5-1.3L98.6,22L110.9,23.3z"/>
		<path class="st3" d="M93.2,22.5l-3.1,0.9l-0.5,0.2h0l-6.2,1.9h0c-5-0.6-8.3-1.7-8.3-3c0-0.5,0.6-1,1.7-1.5h0L93.2,22.5z"/>
		<path class="st4" d="M100.2,25.8c-2.1,0.2-4.5,0.3-7,0.3c-3.6,0-7-0.2-9.9-0.6l6.2-1.9h0l7.4,1.5l0,0L100.2,25.8z"/>
		<polygon class="st5" points="101.1,22.3 97,25.1 97,25.1 89.6,23.6 93.2,22.5 95.5,21.4 98.6,22 		"/>
		<path class="st6" d="M110.3,23.7c-1.8,0.9-5.4,1.7-10.1,2L97,25.1l3.8-2.6L110.3,23.7z"/>
		<path class="st7" d="M111.5,22.5c0,0.3-0.2,0.6-0.5,0.9L98.6,22l1.5-2.8C106.7,19.7,111.5,21,111.5,22.5z"/>
	</g>
</g>
</svg>
