<?xml version="1.0" encoding="utf-8"?>
<!-- Generator: Adobe Illustrator 22.0.1, SVG Export Plug-In . SVG Version: 6.00 Build 0)  -->
<svg version="1.1" id="Layer_1" xmlns="http://www.w3.org/2000/svg" xmlns:xlink="http://www.w3.org/1999/xlink" x="0px" y="0px"
	 viewBox="0 0 186 66.9" style="enable-background:new 0 0 186 66.9;" xml:space="preserve">
<style type="text/css">
	.st0{fill:#EDEDED;stroke:#28373A;stroke-width:2;stroke-miterlimit:10;}
	.st1{fill:#D8D8D8;}
	.st2{fill:#DAEDF1;}
	.st3{fill:#28373A;}
	.st4{fill:#5C903F;}
	.st5{fill:#D65629;}
	.st6{fill:#77C045;}
</style>
<g id="plate_2_">
	<path class="st0" d="M185,46.6c0,3.2-6.5,6.1-17.6,8.5c-16.7,3.6-43.8,6-74.4,6c-30.6,0-57.7-2.4-74.4-6C7.5,52.8,1,49.8,1,46.6
		c0-8,41.2-14.6,92-14.6S185,38.6,185,46.6z"/>
	<path class="st0" d="M167.4,55.2c-0.1,2.9-1.3,5.5-3.3,7.5c-2,2-4.8,3.3-7.8,3.3H29.6c-6,0-10.9-4.8-11.1-10.7
		c16.7,3.6,43.8,6,74.4,6C123.6,61.2,150.7,58.8,167.4,55.2z"/>
	<ellipse class="st1" cx="93" cy="47.7" rx="56" ry="6"/>
</g>
<g>
	<path class="st2" d="M100.8,21.3c0,2.5-13.8,4.6-30.8,4.6c-17,0-30.8-2.1-30.8-4.6c0-2.5,13.8-4.6,30.8-4.6
		C87.1,16.7,100.8,18.8,100.8,21.3z"/>
	<path class="st3" d="M100.8,21.3h-0.7c0,0,0,0,0,0.1c-0.1,0.1-0.4,0.4-0.9,0.6c-0.9,0.4-2.3,0.9-4.1,1.3c-5.5,1.2-14.7,2-25.1,2
		c-8.5,0-16.1-0.5-21.6-1.3c-2.8-0.4-5-0.9-6.5-1.4c-0.7-0.3-1.3-0.5-1.6-0.8c-0.2-0.1-0.3-0.2-0.3-0.3c0-0.1,0-0.1,0-0.1
		c0,0,0,0,0-0.1c0.1-0.1,0.4-0.4,0.9-0.6c0.9-0.4,2.3-0.9,4.1-1.3c5.5-1.2,14.7-2,25.1-2c8.5,0,16.1,0.5,21.7,1.3
		c2.8,0.4,5,0.9,6.5,1.4c0.7,0.3,1.3,0.5,1.6,0.8c0.2,0.1,0.3,0.2,0.3,0.3c0,0.1,0,0.1,0,0.1H100.8h0.7c0-0.3-0.1-0.6-0.3-0.8
		c-0.3-0.4-0.8-0.8-1.4-1.1c-1-0.5-2.5-1-4.4-1.4c-5.6-1.2-14.9-2-25.4-2c-8.5,0-16.2,0.5-21.8,1.4c-2.8,0.4-5.1,0.9-6.7,1.5
		c-0.8,0.3-1.5,0.6-2,1c-0.2,0.2-0.5,0.4-0.6,0.6c-0.2,0.2-0.3,0.5-0.3,0.8c0,0.3,0.1,0.6,0.3,0.8c0.3,0.4,0.8,0.8,1.4,1.1
		c1,0.5,2.5,1,4.4,1.4c5.6,1.2,14.9,2,25.4,2c8.5,0,16.2-0.5,21.9-1.4c2.8-0.4,5.1-0.9,6.7-1.5c0.8-0.3,1.5-0.6,2-1
		c0.2-0.2,0.5-0.4,0.6-0.6c0.2-0.2,0.3-0.5,0.3-0.8H100.8z"/>
	<path class="st4" d="M100.8,21.3v23.4c0,2.5-13.8,4.6-30.8,4.6c-17,0-30.8-2.1-30.8-4.6V21.3c0,2.5,13.8,4.6,30.8,4.6
		C87.1,25.9,100.8,23.8,100.8,21.3z"/>
	<path class="st3" d="M100.8,21.3h-0.7v23.4c0,0,0,0,0,0.1c-0.1,0.1-0.4,0.4-0.9,0.6c-0.9,0.4-2.3,0.9-4.1,1.3
		c-5.5,1.2-14.7,2-25.1,2c-8.5,0-16.1-0.5-21.6-1.3c-2.8-0.4-5-0.9-6.5-1.4c-0.7-0.3-1.3-0.5-1.6-0.8c-0.2-0.1-0.3-0.2-0.3-0.3
		c0-0.1,0-0.1,0-0.1V21.3h-1.3c0,0.3,0.1,0.6,0.3,0.8c0.3,0.4,0.8,0.8,1.4,1.1c1,0.5,2.5,1,4.4,1.4c5.6,1.2,14.9,2,25.4,2
		c8.5,0,16.2-0.5,21.9-1.4c2.8-0.4,5.1-0.9,6.7-1.5c0.8-0.3,1.5-0.6,2-1c0.2-0.2,0.5-0.4,0.6-0.6c0.2-0.2,0.3-0.5,0.3-0.8h-1.3
		H100.8h-0.7c0,0,0,0,0,0.1c-0.1,0.1-0.4,0.4-0.9,0.6c-0.9,0.4-2.3,0.9-4.1,1.3c-5.5,1.2-14.7,2-25.1,2c-8.5,0-16.1-0.5-21.6-1.3
		c-2.8-0.4-5-0.9-6.5-1.4c-0.7-0.3-1.3-0.5-1.6-0.8c-0.2-0.1-0.3-0.2-0.3-0.3c0-0.1,0-0.1,0-0.1h-1.3v23.4c0,0.3,0.1,0.6,0.3,0.8
		c0.3,0.4,0.8,0.8,1.4,1.1c1,0.5,2.5,1,4.4,1.4c5.6,1.2,14.9,2,25.4,2c8.5,0,16.2-0.5,21.9-1.4c2.8-0.4,5.1-0.9,6.7-1.5
		c0.8-0.3,1.5-0.6,2-1c0.2-0.2,0.5-0.4,0.6-0.6c0.2-0.2,0.3-0.5,0.3-0.8V21.3h-1.3H100.8z"/>
	<circle class="st5" cx="47.5" cy="15.5" r="6.4"/>
	<path class="st3" d="M53.9,15.5h0.7c0-3.9-3.1-7-7-7c-3.9,0-7,3.1-7,7c0,3.9,3.1,7,7,7c3.9,0,7-3.1,7-7H53.9h-0.7
		c0,1.6-0.6,3-1.7,4c-1,1-2.5,1.7-4,1.7c-1.6,0-3-0.6-4-1.7c-1-1-1.7-2.5-1.7-4c0-1.6,0.6-3,1.7-4c1-1,2.5-1.7,4-1.7
		c1.6,0,3,0.6,4,1.7c1,1,1.7,2.5,1.7,4H53.9z"/>
	<circle class="st5" cx="85.8" cy="9.1" r="6.4"/>
	<path class="st3" d="M92.2,9.1h0.7c0-3.9-3.1-7-7-7c-3.9,0-7,3.1-7,7c0,3.9,3.1,7,7,7c3.9,0,7-3.1,7-7H92.2h-0.7c0,1.6-0.6,3-1.7,4
		c-1,1-2.5,1.7-4,1.7c-1.6,0-3-0.6-4-1.7c-1-1-1.7-2.5-1.7-4c0-1.6,0.6-3,1.7-4c1-1,2.5-1.7,4-1.7c1.6,0,3,0.6,4,1.7
		c1,1,1.7,2.5,1.7,4H92.2z"/>
	<circle class="st5" cx="70.1" cy="7" r="6.4"/>
	<path class="st3" d="M76.4,7h0.7c0-3.9-3.1-7-7-7c-3.9,0-7,3.1-7,7c0,3.9,3.1,7,7,7c3.9,0,7-3.1,7-7H76.4h-0.7c0,1.6-0.6,3-1.7,4
		c-1,1-2.5,1.7-4,1.7c-1.6,0-3-0.6-4-1.7c-1-1-1.7-2.5-1.7-4c0-1.6,0.6-3,1.7-4c1-1,2.5-1.7,4-1.7c1.6,0,3,0.6,4,1.7
		c1,1,1.7,2.5,1.7,4H76.4z"/>
	<circle class="st5" cx="58.9" cy="9.8" r="6.4"/>
	<path class="st3" d="M65.3,9.8h0.7c0-3.9-3.1-7-7-7c-3.9,0-7,3.1-7,7c0,3.9,3.1,7,7,7c3.9,0,7-3.1,7-7H65.3h-0.7c0,1.6-0.6,3-1.7,4
		c-1,1-2.5,1.7-4,1.7c-1.6,0-3-0.6-4-1.7c-1-1-1.7-2.5-1.7-4c0-1.6,0.6-3,1.7-4c1-1,2.5-1.7,4-1.7c1.6,0,3,0.6,4,1.7
		c1,1,1.7,2.5,1.7,4H65.3z"/>
	<circle class="st5" cx="94.5" cy="15.5" r="6.4"/>
	<path class="st3" d="M100.8,15.5h0.7c0-3.9-3.1-7-7-7c-3.9,0-7,3.1-7,7c0,3.9,3.1,7,7,7c3.9,0,7-3.1,7-7H100.8h-0.7
		c0,1.6-0.6,3-1.7,4c-1,1-2.5,1.7-4,1.7c-1.6,0-3-0.6-4-1.7c-1-1-1.7-2.5-1.7-4c0-1.6,0.6-3,1.7-4c1-1,2.5-1.7,4-1.7
		c1.6,0,3,0.6,4,1.7c1,1,1.7,2.5,1.7,4H100.8z"/>
	<circle class="st5" cx="85.8" cy="19" r="6.4"/>
	<path class="st3" d="M92.2,19h0.7c0-3.9-3.1-7-7-7c-3.9,0-7,3.1-7,7c0,3.9,3.1,7,7,7c3.9,0,7-3.1,7-7H92.2h-0.7c0,1.6-0.6,3-1.7,4
		c-1,1-2.5,1.7-4,1.7c-1.6,0-3-0.6-4-1.7c-1-1-1.7-2.5-1.7-4c0-1.6,0.6-3,1.7-4c1-1,2.5-1.7,4-1.7c1.6,0,3,0.6,4,1.7
		c1,1,1.7,2.5,1.7,4H92.2z"/>
	<circle class="st5" cx="62.9" cy="12.6" r="6.4"/>
	<path class="st3" d="M69.2,12.6h0.7c0-3.9-3.1-7-7-7c-3.9,0-7,3.1-7,7c0,3.9,3.1,7,7,7c3.9,0,7-3.1,7-7H69.2h-0.7
		c0,1.6-0.6,3-1.7,4c-1,1-2.5,1.7-4,1.7c-1.6,0-3-0.6-4-1.7c-1-1-1.7-2.5-1.7-4c0-1.6,0.6-3,1.7-4c1-1,2.5-1.7,4-1.7
		c1.6,0,3,0.6,4,1.7c1,1,1.7,2.5,1.7,4H69.2z"/>
	<circle class="st5" cx="76.1" cy="12.6" r="6.4"/>
	<path class="st3" d="M82.4,12.6h0.7c0-3.9-3.1-7-7-7c-3.9,0-7,3.1-7,7c0,3.9,3.1,7,7,7c3.9,0,7-3.1,7-7H82.4h-0.7
		c0,1.6-0.6,3-1.7,4c-1,1-2.5,1.7-4,1.7c-1.6,0-3-0.6-4-1.7c-1-1-1.7-2.5-1.7-4c0-1.6,0.6-3,1.7-4c1-1,2.5-1.7,4-1.7
		c1.6,0,3,0.6,4,1.7c1,1,1.7,2.5,1.7,4H82.4z"/>
	<circle class="st5" cx="53.9" cy="18.5" r="6.4"/>
	<path class="st3" d="M60.2,18.5h0.7c0-3.9-3.1-7-7-7c-3.9,0-7,3.1-7,7c0,3.9,3.1,7,7,7c3.9,0,7-3.1,7-7H60.2h-0.7
		c0,1.6-0.6,3-1.7,4c-1,1-2.5,1.7-4,1.7c-1.6,0-3-0.6-4-1.7c-1-1-1.7-2.5-1.7-4c0-1.6,0.6-3,1.7-4c1-1,2.5-1.7,4-1.7
		c1.6,0,3,0.6,4,1.7c1,1,1.7,2.5,1.7,4H60.2z"/>
	<circle class="st5" cx="76.7" cy="19" r="6.4"/>
	<path class="st3" d="M83,19h0.7c0-3.9-3.1-7-7-7c-3.9,0-7,3.1-7,7c0,3.9,3.1,7,7,7c3.9,0,7-3.1,7-7H83h-0.7c0,1.6-0.6,3-1.7,4
		c-1,1-2.5,1.7-4,1.7c-1.6,0-3-0.6-4-1.7c-1-1-1.7-2.5-1.7-4c0-1.6,0.6-3,1.7-4c1-1,2.5-1.7,4-1.7c1.6,0,3,0.6,4,1.7
		c1,1,1.7,2.5,1.7,4H83z"/>
	<circle class="st5" cx="65.3" cy="19" r="6.4"/>
	<path class="st3" d="M71.6,19h0.7c0-3.9-3.1-7-7-7c-3.9,0-7,3.1-7,7c0,3.9,3.1,7,7,7c3.9,0,7-3.1,7-7H71.6H71c0,1.6-0.6,3-1.7,4
		c-1,1-2.5,1.7-4,1.7c-1.6,0-3-0.6-4-1.7c-1-1-1.7-2.5-1.7-4c0-1.6,0.6-3,1.7-4c1-1,2.5-1.7,4-1.7c1.6,0,3,0.6,4,1.7
		c1,1,1.7,2.5,1.7,4H71.6z"/>
	<path class="st6" d="M96.7,33.9c0.3,0,0.6,0.3,0.6,0.6V42c0,1.5-7.9,2.7-17.7,2.7c-0.3,0-0.6-0.3-0.6-0.6c0-0.3,0.3-0.6,0.6-0.6
		c9-0.2,16-1.3,16-2.7v-6.3c0-0.3,0.3-0.6,0.6-0.6H96.7z"/>
</g>
<g>
	<path class="st2" d="M148,26.7c0,2.5-13.8,4.6-30.8,4.6c-17,0-30.8-2.1-30.8-4.6c0-2.5,13.8-4.6,30.8-4.6
		C134.2,22.1,148,24.1,148,26.7z"/>
	<path class="st3" d="M148,26.7h-0.7c0,0,0,0,0,0.1c-0.1,0.1-0.4,0.4-0.9,0.6c-0.9,0.4-2.3,0.9-4.1,1.3c-5.5,1.2-14.7,2-25.1,2
		c-8.5,0-16.1-0.5-21.6-1.3c-2.8-0.4-5-0.9-6.5-1.4c-0.7-0.3-1.3-0.5-1.6-0.8c-0.2-0.1-0.3-0.2-0.3-0.3c0-0.1,0-0.1,0-0.1
		c0,0,0,0,0-0.1c0.1-0.1,0.4-0.4,0.9-0.6c0.9-0.4,2.3-0.9,4.1-1.3c5.5-1.2,14.7-2,25.1-2c8.5,0,16.1,0.5,21.7,1.3
		c2.8,0.4,5,0.9,6.5,1.4c0.7,0.3,1.3,0.5,1.6,0.8c0.2,0.1,0.3,0.2,0.3,0.3c0,0.1,0,0.1,0,0.1H148h0.7c0-0.3-0.1-0.6-0.3-0.8
		c-0.3-0.4-0.8-0.8-1.4-1.1c-1-0.5-2.5-1-4.4-1.4c-5.6-1.2-14.9-2-25.4-2c-8.5,0-16.2,0.5-21.8,1.4c-2.8,0.4-5.1,0.9-6.7,1.5
		c-0.8,0.3-1.5,0.6-2,1c-0.2,0.2-0.5,0.4-0.6,0.6c-0.2,0.2-0.3,0.5-0.3,0.8c0,0.3,0.1,0.6,0.3,0.8c0.3,0.4,0.8,0.8,1.4,1.1
		c1,0.5,2.5,1,4.4,1.4c5.6,1.2,14.9,2,25.4,2c8.5,0,16.2-0.5,21.9-1.4c2.8-0.4,5.1-0.9,6.7-1.5c0.8-0.3,1.5-0.6,2-1
		c0.2-0.2,0.5-0.4,0.6-0.6c0.2-0.2,0.3-0.5,0.3-0.8H148z"/>
	<path class="st4" d="M148,26.7v23.4c0,2.5-13.8,4.6-30.8,4.6c-17,0-30.8-2.1-30.8-4.6V26.7c0,2.5,13.8,4.6,30.8,4.6
		C134.2,31.3,148,29.2,148,26.7z"/>
	<path class="st3" d="M148,26.7h-0.7v23.4c0,0,0,0,0,0.1c-0.1,0.1-0.4,0.4-0.9,0.6c-0.9,0.4-2.3,0.9-4.1,1.3c-5.5,1.2-14.7,2-25.1,2
		c-8.5,0-16.1-0.5-21.6-1.3c-2.8-0.4-5-0.9-6.5-1.4c-0.7-0.3-1.3-0.5-1.6-0.8c-0.2-0.1-0.3-0.2-0.3-0.3c0-0.1,0-0.1,0-0.1V26.7h-1.3
		c0,0.3,0.1,0.6,0.3,0.8c0.3,0.4,0.8,0.8,1.4,1.1c1,0.5,2.5,1,4.4,1.4c5.6,1.2,14.9,2,25.4,2c8.5,0,16.2-0.5,21.9-1.4
		c2.8-0.4,5.1-0.9,6.7-1.5c0.8-0.3,1.5-0.6,2-1c0.2-0.2,0.5-0.4,0.6-0.6c0.2-0.2,0.3-0.5,0.3-0.8h-1.3H148h-0.7c0,0,0,0,0,0.1
		c-0.1,0.1-0.4,0.4-0.9,0.6c-0.9,0.4-2.3,0.9-4.1,1.3c-5.5,1.2-14.7,2-25.1,2c-8.5,0-16.1-0.5-21.6-1.3c-2.8-0.4-5-0.9-6.5-1.4
		c-0.7-0.3-1.3-0.5-1.6-0.8c-0.2-0.1-0.3-0.2-0.3-0.3c0-0.1,0-0.1,0-0.1h-1.3v23.4c0,0.3,0.1,0.6,0.3,0.8c0.3,0.4,0.8,0.8,1.4,1.1
		c1,0.5,2.5,1,4.4,1.4c5.6,1.2,14.9,2,25.4,2c8.5,0,16.2-0.5,21.9-1.4c2.8-0.4,5.1-0.9,6.7-1.5c0.8-0.3,1.5-0.6,2-1
		c0.2-0.2,0.5-0.4,0.6-0.6c0.2-0.2,0.3-0.5,0.3-0.8V26.7h-1.3H148z"/>
	<circle class="st5" cx="94.7" cy="20.9" r="6.4"/>
	<path class="st3" d="M101.1,20.9h0.7c0-3.9-3.1-7-7-7c-3.9,0-7,3.1-7,7c0,3.9,3.1,7,7,7c3.9,0,7-3.1,7-7H101.1h-0.7
		c0,1.6-0.6,3-1.7,4c-1,1-2.5,1.7-4,1.7c-1.6,0-3-0.6-4-1.7c-1-1-1.7-2.5-1.7-4c0-1.6,0.6-3,1.7-4c1-1,2.5-1.7,4-1.7
		c1.6,0,3,0.6,4,1.7c1,1,1.7,2.5,1.7,4H101.1z"/>
	<circle class="st5" cx="133" cy="14.5" r="6.4"/>
	<path class="st3" d="M139.3,14.5h0.7c0-3.9-3.1-7-7-7c-3.9,0-7,3.1-7,7c0,3.9,3.1,7,7,7c3.9,0,7-3.1,7-7H139.3h-0.7
		c0,1.6-0.6,3-1.7,4c-1,1-2.5,1.7-4,1.7c-1.6,0-3-0.6-4-1.7c-1-1-1.7-2.5-1.7-4c0-1.6,0.6-3,1.7-4c1-1,2.5-1.7,4-1.7
		c1.6,0,3,0.6,4,1.7c1,1,1.7,2.5,1.7,4H139.3z"/>
	<circle class="st5" cx="117.2" cy="12.4" r="6.4"/>
	<path class="st3" d="M123.6,12.4h0.7c0-3.9-3.1-7-7-7c-3.9,0-7,3.1-7,7c0,3.9,3.1,7,7,7c3.9,0,7-3.1,7-7H123.6h-0.7
		c0,1.6-0.6,3-1.7,4c-1,1-2.5,1.7-4,1.7c-1.6,0-3-0.6-4-1.7c-1-1-1.7-2.5-1.7-4c0-1.6,0.6-3,1.7-4c1-1,2.5-1.7,4-1.7
		c1.6,0,3,0.6,4,1.7c1,1,1.7,2.5,1.7,4H123.6z"/>
	<circle class="st5" cx="106.1" cy="15.2" r="6.4"/>
	<path class="st3" d="M112.5,15.2h0.7c0-3.9-3.1-7-7-7c-3.9,0-7,3.1-7,7c0,3.9,3.1,7,7,7c3.9,0,7-3.1,7-7H112.5h-0.7
		c0,1.6-0.6,3-1.7,4c-1,1-2.5,1.7-4,1.7c-1.6,0-3-0.6-4-1.7c-1-1-1.7-2.5-1.7-4c0-1.6,0.6-3,1.7-4c1-1,2.5-1.7,4-1.7
		c1.6,0,3,0.6,4,1.7c1,1,1.7,2.5,1.7,4H112.5z"/>
	<circle class="st5" cx="141.6" cy="20.9" r="6.4"/>
	<path class="st3" d="M148,20.9h0.7c0-3.9-3.1-7-7-7c-3.9,0-7,3.1-7,7c0,3.9,3.1,7,7,7c3.9,0,7-3.1,7-7H148h-0.7c0,1.6-0.6,3-1.7,4
		c-1,1-2.5,1.7-4,1.7c-1.6,0-3-0.6-4-1.7c-1-1-1.7-2.5-1.7-4c0-1.6,0.6-3,1.7-4c1-1,2.5-1.7,4-1.7c1.6,0,3,0.6,4,1.7
		c1,1,1.7,2.5,1.7,4H148z"/>
	<circle class="st5" cx="133" cy="24.3" r="6.4"/>
	<path class="st3" d="M139.3,24.3h0.7c0-3.9-3.1-7-7-7c-3.9,0-7,3.1-7,7c0,3.9,3.1,7,7,7c3.9,0,7-3.1,7-7H139.3h-0.7
		c0,1.6-0.6,3-1.7,4c-1,1-2.5,1.7-4,1.7c-1.6,0-3-0.6-4-1.7c-1-1-1.7-2.5-1.7-4c0-1.6,0.6-3,1.7-4c1-1,2.5-1.7,4-1.7
		c1.6,0,3,0.6,4,1.7c1,1,1.7,2.5,1.7,4H139.3z"/>
	<circle class="st5" cx="110.1" cy="18" r="6.4"/>
	<path class="st3" d="M116.4,18h0.7c0-3.9-3.1-7-7-7c-3.9,0-7,3.1-7,7c0,3.9,3.1,7,7,7c3.9,0,7-3.1,7-7H116.4h-0.7
		c0,1.6-0.6,3-1.7,4c-1,1-2.5,1.7-4,1.7c-1.6,0-3-0.6-4-1.7c-1-1-1.7-2.5-1.7-4c0-1.6,0.6-3,1.7-4c1-1,2.5-1.7,4-1.7
		c1.6,0,3,0.6,4,1.7c1,1,1.7,2.5,1.7,4H116.4z"/>
	<circle class="st5" cx="123.3" cy="18" r="6.4"/>
	<path class="st3" d="M129.6,18h0.7c0-3.9-3.1-7-7-7c-3.9,0-7,3.1-7,7c0,3.9,3.1,7,7,7c3.9,0,7-3.1,7-7H129.6H129c0,1.6-0.6,3-1.7,4
		c-1,1-2.5,1.7-4,1.7c-1.6,0-3-0.6-4-1.7c-1-1-1.7-2.5-1.7-4c0-1.6,0.6-3,1.7-4c1-1,2.5-1.7,4-1.7c1.6,0,3,0.6,4,1.7
		c1,1,1.7,2.5,1.7,4H129.6z"/>
	<circle class="st5" cx="101.1" cy="23.9" r="6.4"/>
	<path class="st3" d="M107.4,23.9h0.7c0-3.9-3.1-7-7-7c-3.9,0-7,3.1-7,7c0,3.9,3.1,7,7,7c3.9,0,7-3.1,7-7H107.4h-0.7
		c0,1.6-0.6,3-1.7,4c-1,1-2.5,1.7-4,1.7c-1.6,0-3-0.6-4-1.7c-1-1-1.7-2.5-1.7-4c0-1.6,0.6-3,1.7-4c1-1,2.5-1.7,4-1.7
		c1.6,0,3,0.6,4,1.7c1,1,1.7,2.5,1.7,4H107.4z"/>
	<circle class="st5" cx="123.9" cy="24.3" r="6.4"/>
	<path class="st3" d="M130.2,24.3h0.7c0-3.9-3.1-7-7-7c-3.9,0-7,3.1-7,7c0,3.9,3.1,7,7,7c3.9,0,7-3.1,7-7H130.2h-0.7
		c0,1.6-0.6,3-1.7,4c-1,1-2.5,1.7-4,1.7c-1.6,0-3-0.6-4-1.7c-1-1-1.7-2.5-1.7-4c0-1.6,0.6-3,1.7-4c1-1,2.5-1.7,4-1.7
		c1.6,0,3,0.6,4,1.7c1,1,1.7,2.5,1.7,4H130.2z"/>
	<circle class="st5" cx="112.5" cy="24.3" r="6.4"/>
	<path class="st3" d="M118.8,24.3h0.7c0-3.9-3.1-7-7-7c-3.9,0-7,3.1-7,7c0,3.9,3.1,7,7,7c3.9,0,7-3.1,7-7H118.8h-0.7
		c0,1.6-0.6,3-1.7,4c-1,1-2.5,1.7-4,1.7c-1.6,0-3-0.6-4-1.7c-1-1-1.7-2.5-1.7-4c0-1.6,0.6-3,1.7-4c1-1,2.5-1.7,4-1.7
		c1.6,0,3,0.6,4,1.7c1,1,1.7,2.5,1.7,4H118.8z"/>
	<path class="st6" d="M143.9,39.2c0.3,0,0.6,0.3,0.6,0.6v7.5c0,1.5-7.9,2.7-17.7,2.7c-0.3,0-0.6-0.3-0.6-0.6c0-0.3,0.3-0.6,0.6-0.6
		c9-0.2,16-1.3,16-2.7v-6.3c0-0.3,0.3-0.6,0.6-0.6H143.9z"/>
</g>
</svg>
