<?xml version="1.0" encoding="utf-8"?>
<!-- Generator: Adobe Illustrator 22.1.0, SVG Export Plug-In . SVG Version: 6.00 Build 0)  -->
<svg version="1.1" id="Layer_1" xmlns="http://www.w3.org/2000/svg" xmlns:xlink="http://www.w3.org/1999/xlink" x="0px" y="0px"
	 viewBox="0 0 79.3 66.1" style="enable-background:new 0 0 79.3 66.1;" xml:space="preserve">
<style type="text/css">
	.st0{fill:#4D5A2B;stroke:#28373A;stroke-width:2;stroke-miterlimit:10;}
	.st1{fill:#B9D334;}
	.st2{fill:#969937;}
	.st3{fill:#79461E;stroke:#28373A;stroke-width:2;stroke-miterlimit:10;}
	.st4{fill:#B3812F;}
</style>
<g>
	<path class="st0" d="M31.4,64.6c-7.8,1.5-14.5-0.8-20.6-5.7c-2.6-2.1-4.9-4.5-6.6-7.4C1.5,46.9,0.8,42,1.1,36.8
		c0.2-3.2,0.7-6.3,1.6-9.3c1.3-4.2,2.1-8.6,3.6-12.8c1.3-3.9,3.2-7.4,6.4-10.1c5.3-4.5,14.3-4.8,19.9-0.7c4,2.9,7.2,6.5,9.3,11
		c2,4.3,4.3,8.4,6.2,12.7c1.6,3.7,2.5,7.2,2.9,10.6C52.4,51,43.3,62.4,31.4,64.6z"/>
	<path class="st1" d="M46.5,38.5c0.2,2.8-0.1,5.6-0.9,8.3c-1,3.1-2.7,5.9-4.9,8.3c-2.8,2.9-6.2,4.9-10.1,6.1c-3.5,1-7,1-10.5,0.1
		c-4.6-1.1-8.5-3.5-11.5-7c-2.3-2.7-4-5.8-4.7-9.3c-0.2-0.9-0.3-1.7-0.4-2.6c-0.2-3.1-0.1-6.2,0.5-9.3c0.5-3.3,1.5-6.5,2.4-9.7
		c0.6-2.3,1.1-4.6,1.8-6.9c1.2-4,2.8-7.8,6.1-10.6c1.5-1.3,3.2-2.1,5.1-2.6c2.2-0.5,4.3-0.5,6.5-0.1c2.7,0.5,4.8,2,6.7,3.9
		c2.5,2.6,4.2,5.6,5.7,8.8c1.4,3,2.9,5.9,4.4,8.9c1.4,2.7,2.4,5.6,3.2,8.5C46.1,35.1,46.4,36.8,46.5,38.5z"/>
	<circle class="st2" cx="25.4" cy="38.8" r="12.7"/>
</g>
<g>
	<circle class="st3" cx="56" cy="45.9" r="11"/>
	<path class="st0" d="M78.1,52.6C75,62.7,59.3,69,44.8,62.3c-12.8-5.9-31.9-18.7-28.9-28.7L78.1,52.6z"/>
	<ellipse transform="matrix(0.8831 -0.4693 0.4693 0.8831 -11.9306 29.296)" class="st4" cx="52.8" cy="38.6" rx="2.3" ry="1.8"/>
</g>
</svg>
