<?xml version="1.0" encoding="utf-8"?>
<!-- Generator: Adobe Illustrator 22.1.0, SVG Export Plug-In . SVG Version: 6.00 Build 0)  -->
<svg version="1.1" id="Layer_1" xmlns="http://www.w3.org/2000/svg" xmlns:xlink="http://www.w3.org/1999/xlink" x="0px" y="0px"
	 viewBox="0 0 78 54.6" style="enable-background:new 0 0 78 54.6;" xml:space="preserve">
<style type="text/css">
	.st0{fill:#407839;stroke:#28373A;stroke-width:2;stroke-miterlimit:10;}
	.st1{fill:#2F592B;}
	.st2{fill:#FAF17D;stroke:#28373A;stroke-width:2;stroke-miterlimit:10;}
	.st3{fill:#E5E692;}
	.st4{fill:#FFFFFF;}
</style>
<g>
	<path class="st0" d="M54.5,1.9c10.2-2.8,20.1,0.9,22.1,8.2c2,7.3-4.7,15.5-14.9,18.3c-3.3,0.9-6.6,1.1-9.6,0.8
		c-3.3-0.4-9.1,0.4-12.4,1.3c0,0,0,0,0,0C17.8,36.4,10.4,33.8,9,28.5c-1.4-5.3,3.6-11.3,25.5-17.2c0,0,0,0,0,0
		c3.3-0.9,8.7-3.1,11.3-5.2C48.2,4.3,51.2,2.8,54.5,1.9z"/>
	<rect x="1.3" y="30.4" transform="matrix(0.9649 -0.2626 0.2626 0.9649 -8.0042 2.5208)" class="st0" width="8.3" height="1.7"/>
	<polygon class="st1" points="15.1,32.4 75.5,13.2 75.5,14.7 19.4,32.8 	"/>
	<polygon class="st1" points="12.5,31.1 75.8,12.1 75.3,10.5 10.9,29.8 	"/>
	<polygon class="st1" points="10.1,28.2 75,9.4 74,7.9 9.7,26.9 	"/>
	<polygon class="st1" points="10.8,24.4 73.7,6.8 72.5,5.7 11.5,23.3 	"/>
	<polygon class="st1" points="14.3,21 70.9,4.9 69.9,4.2 16.5,19.2 	"/>
	<polygon class="st1" points="30.8,31.6 75.6,16.1 74.8,17.7 	"/>
	<polygon class="st1" points="46.7,28 73.1,20.1 70.3,22.4 50.7,27.7 	"/>
	<polygon class="st1" points="53.4,28.2 68.2,24.2 62.7,27.1 	"/>
	<polygon class="st1" points="26.3,15.2 68,3.8 66.3,2.9 	"/>
	<polygon class="st1" points="45.8,8 63.5,2.7 60.6,2.7 	"/>
	<polygon class="st1" points="49.5,5.2 59,2.2 54,3.1 	"/>
</g>
<g>
	<path class="st0" d="M74,39.7v2.5c0,2.6-5.5,4.8-12.3,4.8s-12.3-2.1-12.3-4.8v-2.5c0,0.4,0.2,0.9,0.4,1.3c0.3,0.5,0.8,0.9,1.4,1.3
		c2.2,1.4,6,2.3,10.4,2.3s8.3-0.9,10.4-2.3c0.6-0.4,1.1-0.8,1.4-1.3C73.9,40.5,74,40.1,74,39.7z"/>
	<ellipse class="st2" cx="61.8" cy="39.7" rx="12.3" ry="4.8"/>
	<ellipse class="st3" cx="61.8" cy="39.7" rx="7.1" ry="2.4"/>
	<g>
		<ellipse class="st4" cx="61.8" cy="38.3" rx="0.5" ry="0.4"/>
		<ellipse class="st4" cx="61.8" cy="41.1" rx="0.5" ry="0.4"/>
		<ellipse class="st4" cx="57.3" cy="39.7" rx="1.2" ry="0.2"/>
		<ellipse class="st4" cx="66.2" cy="39.7" rx="1.2" ry="0.2"/>
		<ellipse transform="matrix(0.2085 -0.978 0.978 0.2085 8.535 87.9643)" class="st4" cx="58.6" cy="38.7" rx="0.2" ry="0.9"/>
		<ellipse transform="matrix(0.2085 -0.978 0.978 0.2085 11.597 95.6563)" class="st4" cx="64.9" cy="40.7" rx="0.2" ry="0.9"/>
		<ellipse transform="matrix(0.978 -0.2085 0.2085 0.978 -6.6451 14.3842)" class="st4" cx="64.9" cy="38.7" rx="0.9" ry="0.2"/>
		<ellipse transform="matrix(0.978 -0.2085 0.2085 0.978 -7.1908 13.1169)" class="st4" cx="58.6" cy="40.7" rx="0.9" ry="0.2"/>
	</g>
	<polygon class="st1" points="51.3,42.8 51.3,44.1 52.1,44.6 52.1,43.3 	"/>
	<polygon class="st1" points="53.1,43.7 53.1,45 54,45.4 54,44.1 	"/>
	<polygon class="st1" points="54.6,44.3 54.6,45.6 55.5,45.8 55.3,44.5 	"/>
	<polygon class="st1" points="56.1,44.6 55.9,45.8 56.6,46 57,44.9 	"/>
	<rect x="57.5" y="44.8" class="st1" width="0.3" height="1.3"/>
	<polygon class="st1" points="58.8,45 58.6,46.3 59.5,46.3 59.5,45 	"/>
	<polygon class="st1" points="60.5,45 60.5,46.3 61.2,46.4 61.2,45.1 	"/>
	<polygon class="st1" points="61.6,45 61.8,46.4 62.1,46.4 62.1,45 	"/>
	<rect x="63.1" y="45" class="st1" width="0.4" height="1.4"/>
	<polygon class="st1" points="64.3,45 64.3,46.3 64.9,46.3 65,44.8 	"/>
	<polygon class="st1" points="66.5,44.8 66.5,46 67.4,46 67.4,44.5 	"/>
	<polygon class="st1" points="67.9,44.5 67.9,45.7 68.3,45.7 68.3,44.5 	"/>
	<polygon class="st1" points="69.1,44.3 69.1,45.5 69.5,45.4 69.5,43.9 	"/>
	<polygon class="st1" points="69.9,43.8 69.9,45.3 70.2,45 70.2,43.8 	"/>
	<polygon class="st1" points="71,43.5 71,44.6 71.4,44.5 71.4,43.3 	"/>
	<polygon class="st1" points="71.8,43 71.8,44.3 72.2,44 72.2,42.9 	"/>
	<polygon class="st1" points="72.8,42.5 72.9,43.6 73.1,43.3 73.1,42.1 	"/>
	<polygon class="st1" points="50.8,42.6 50.8,43.7 50.3,43.3 50.3,42.1 	"/>
</g>
<g>
	<path class="st0" d="M76.7,34.7v2.5c0,2.6-5.5,4.8-12.3,4.8s-12.3-2.1-12.3-4.8v-2.5c0,0.4,0.2,0.9,0.4,1.3
		c0.3,0.5,0.8,0.9,1.4,1.3c2.2,1.4,6,2.3,10.4,2.3s8.3-0.9,10.4-2.3c0.6-0.4,1.1-0.8,1.4-1.3C76.6,35.6,76.7,35.2,76.7,34.7z"/>
	<ellipse class="st2" cx="64.4" cy="34.7" rx="12.3" ry="4.8"/>
	<ellipse class="st3" cx="64.4" cy="34.7" rx="7.1" ry="2.4"/>
	<g>
		<ellipse class="st4" cx="64.4" cy="33.4" rx="0.5" ry="0.4"/>
		<ellipse class="st4" cx="64.4" cy="36.1" rx="0.5" ry="0.4"/>
		<ellipse class="st4" cx="60" cy="34.7" rx="1.2" ry="0.2"/>
		<ellipse class="st4" cx="68.9" cy="34.7" rx="1.2" ry="0.2"/>
		<ellipse transform="matrix(0.2085 -0.978 0.978 0.2085 15.5017 86.6655)" class="st4" cx="61.3" cy="33.8" rx="0.2" ry="0.9"/>
		<ellipse transform="matrix(0.2085 -0.978 0.978 0.2085 18.5638 94.3575)" class="st4" cx="67.6" cy="35.7" rx="0.2" ry="0.9"/>
		<ellipse transform="matrix(0.978 -0.2085 0.2085 0.978 -5.5532 14.8344)" class="st4" cx="67.6" cy="33.8" rx="0.9" ry="0.2"/>
		<ellipse transform="matrix(0.978 -0.2085 0.2085 0.978 -6.0988 13.5671)" class="st4" cx="61.3" cy="35.7" rx="0.9" ry="0.2"/>
	</g>
	<polygon class="st1" points="54,37.8 54,39.1 54.8,39.7 54.8,38.4 	"/>
	<polygon class="st1" points="55.7,38.7 55.7,40 56.7,40.4 56.7,39.2 	"/>
	<polygon class="st1" points="57.3,39.3 57.3,40.6 58.2,40.8 58,39.5 	"/>
	<polygon class="st1" points="58.8,39.7 58.6,40.8 59.3,41.1 59.6,39.9 	"/>
	<rect x="60.2" y="39.9" class="st1" width="0.3" height="1.3"/>
	<polygon class="st1" points="61.5,40.1 61.3,41.3 62.1,41.3 62.1,40.1 	"/>
	<polygon class="st1" points="63.2,40.1 63.2,41.3 63.9,41.5 63.9,40.2 	"/>
	<polygon class="st1" points="64.3,40.1 64.4,41.5 64.8,41.5 64.8,40.1 	"/>
	<rect x="65.7" y="40.1" class="st1" width="0.4" height="1.4"/>
	<polygon class="st1" points="67,40.1 67,41.3 67.6,41.3 67.7,39.9 	"/>
	<polygon class="st1" points="69.2,39.9 69.2,41.1 70.1,41.1 70.1,39.6 	"/>
	<polygon class="st1" points="70.6,39.5 70.6,40.8 71,40.7 71,39.5 	"/>
	<polygon class="st1" points="71.8,39.3 71.8,40.5 72.2,40.4 72.2,39 	"/>
	<polygon class="st1" points="72.6,38.9 72.6,40.3 72.9,40.1 72.9,38.9 	"/>
	<polygon class="st1" points="73.7,38.6 73.7,39.7 74,39.5 74,38.4 	"/>
	<polygon class="st1" points="74.5,38.1 74.5,39.3 74.9,39 74.9,37.9 	"/>
	<polygon class="st1" points="75.4,37.5 75.6,38.6 75.8,38.4 75.8,37.2 	"/>
	<polygon class="st1" points="53.5,37.6 53.5,38.7 53,38.4 53,37.2 	"/>
</g>
<g>
	<path class="st0" d="M75.8,31.1v2.5c0,2.6-5.5,4.8-12.3,4.8s-12.3-2.1-12.3-4.8v-2.5c0,0.4,0.2,0.9,0.4,1.3
		c0.3,0.5,0.8,0.9,1.4,1.3c2.2,1.4,6,2.3,10.4,2.3S71.8,35,74,33.6c0.6-0.4,1.1-0.8,1.4-1.3C75.7,32,75.8,31.6,75.8,31.1z"/>
	<ellipse class="st2" cx="63.5" cy="31.1" rx="12.3" ry="4.8"/>
	<ellipse class="st3" cx="63.5" cy="31.1" rx="7.1" ry="2.4"/>
	<g>
		<ellipse class="st4" cx="63.5" cy="29.7" rx="0.5" ry="0.4"/>
		<ellipse class="st4" cx="63.5" cy="32.5" rx="0.5" ry="0.4"/>
		<ellipse class="st4" cx="59.1" cy="31.1" rx="1.2" ry="0.2"/>
		<ellipse class="st4" cx="68" cy="31.1" rx="1.2" ry="0.2"/>
		<ellipse transform="matrix(0.2085 -0.978 0.978 0.2085 18.3363 82.9333)" class="st4" cx="60.4" cy="30.1" rx="0.2" ry="0.9"/>
		<ellipse transform="matrix(0.2085 -0.978 0.978 0.2085 21.3984 90.6253)" class="st4" cx="66.7" cy="32.1" rx="0.2" ry="0.9"/>
		<ellipse transform="matrix(0.978 -0.2085 0.2085 0.978 -4.8184 14.5696)" class="st4" cx="66.7" cy="30.1" rx="0.9" ry="0.2"/>
		<ellipse transform="matrix(0.978 -0.2085 0.2085 0.978 -5.364 13.3022)" class="st4" cx="60.4" cy="32.1" rx="0.9" ry="0.2"/>
	</g>
	<polygon class="st1" points="53.1,34.2 53.1,35.5 53.9,36.1 53.9,34.8 	"/>
	<polygon class="st1" points="54.8,35.1 54.8,36.4 55.8,36.8 55.8,35.5 	"/>
	<polygon class="st1" points="56.4,35.7 56.4,37 57.3,37.2 57.1,35.9 	"/>
	<polygon class="st1" points="57.9,36.1 57.7,37.2 58.4,37.4 58.8,36.3 	"/>
	<rect x="59.3" y="36.2" class="st1" width="0.3" height="1.3"/>
	<polygon class="st1" points="60.6,36.5 60.4,37.7 61.3,37.7 61.3,36.5 	"/>
	<polygon class="st1" points="62.3,36.5 62.3,37.7 63,37.9 63,36.6 	"/>
	<polygon class="st1" points="63.4,36.5 63.5,37.9 63.9,37.9 63.9,36.5 	"/>
	<rect x="64.8" y="36.5" class="st1" width="0.4" height="1.4"/>
	<polygon class="st1" points="66.1,36.5 66.1,37.7 66.7,37.7 66.8,36.2 	"/>
	<polygon class="st1" points="68.3,36.2 68.3,37.4 69.2,37.4 69.2,36 	"/>
	<polygon class="st1" points="69.7,35.9 69.7,37.2 70.1,37.1 70.1,35.9 	"/>
	<polygon class="st1" points="70.9,35.7 70.9,36.9 71.3,36.8 71.3,35.4 	"/>
	<polygon class="st1" points="71.7,35.2 71.7,36.7 72,36.5 72,35.2 	"/>
	<polygon class="st1" points="72.8,34.9 72.8,36.1 73.2,35.9 73.2,34.8 	"/>
	<polygon class="st1" points="73.6,34.5 73.6,35.7 74,35.4 74,34.3 	"/>
	<polygon class="st1" points="74.5,33.9 74.7,35 74.9,34.8 74.9,33.5 	"/>
	<polygon class="st1" points="52.6,34 52.6,35.1 52.1,34.8 52.1,33.5 	"/>
</g>
<g>
	<path class="st0" d="M46,35.9v2.5c0,2.6-5.5,4.8-12.3,4.8s-12.3-2.1-12.3-4.8v-2.5c0,0.4,0.2,0.9,0.4,1.3c0.3,0.5,0.8,0.9,1.4,1.3
		c2.2,1.4,6,2.3,10.4,2.3s8.3-0.9,10.4-2.3c0.6-0.4,1.1-0.8,1.4-1.3C45.9,36.8,46,36.3,46,35.9z"/>
	<ellipse class="st2" cx="33.7" cy="35.9" rx="12.3" ry="4.8"/>
	<ellipse class="st3" cx="33.7" cy="35.9" rx="7.1" ry="2.4"/>
	<g>
		<ellipse class="st4" cx="33.7" cy="34.5" rx="0.5" ry="0.4"/>
		<ellipse class="st4" cx="33.7" cy="37.3" rx="0.5" ry="0.4"/>
		<ellipse class="st4" cx="29.3" cy="35.9" rx="1.2" ry="0.2"/>
		<ellipse class="st4" cx="38.2" cy="35.9" rx="1.2" ry="0.2"/>
		<ellipse transform="matrix(0.2085 -0.978 0.978 0.2085 -9.9283 57.5709)" class="st4" cx="30.6" cy="34.9" rx="0.2" ry="0.9"/>
		<ellipse transform="matrix(0.2085 -0.978 0.978 0.2085 -6.8662 65.2628)" class="st4" cx="36.9" cy="36.9" rx="0.2" ry="0.9"/>
		<ellipse transform="matrix(0.978 -0.2085 0.2085 0.978 -6.4707 8.4601)" class="st4" cx="36.9" cy="34.9" rx="0.9" ry="0.2"/>
		<ellipse transform="matrix(0.978 -0.2085 0.2085 0.978 -7.0164 7.1928)" class="st4" cx="30.6" cy="36.9" rx="0.9" ry="0.2"/>
	</g>
	<polygon class="st1" points="23.3,39 23.3,40.3 24.1,40.8 24.1,39.6 	"/>
	<polygon class="st1" points="25,39.9 25,41.2 26,41.6 26,40.3 	"/>
	<polygon class="st1" points="26.6,40.5 26.6,41.8 27.5,42 27.3,40.7 	"/>
	<polygon class="st1" points="28.1,40.8 27.9,42 28.6,42.2 29,41.1 	"/>
	<rect x="29.5" y="41" class="st1" width="0.3" height="1.3"/>
	<polygon class="st1" points="30.8,41.2 30.6,42.5 31.5,42.5 31.5,41.2 	"/>
	<polygon class="st1" points="32.5,41.2 32.5,42.5 33.2,42.6 33.2,41.3 	"/>
	<polygon class="st1" points="33.6,41.2 33.7,42.6 34.1,42.6 34.1,41.2 	"/>
	<rect x="35" y="41.2" class="st1" width="0.4" height="1.4"/>
	<polygon class="st1" points="36.3,41.2 36.3,42.5 36.9,42.5 37,41 	"/>
	<polygon class="st1" points="38.5,41 38.5,42.2 39.4,42.2 39.4,40.7 	"/>
	<polygon class="st1" points="39.9,40.7 39.9,41.9 40.3,41.9 40.3,40.7 	"/>
	<polygon class="st1" points="41.1,40.5 41.1,41.7 41.5,41.6 41.5,40.1 	"/>
	<polygon class="st1" points="41.9,40 41.9,41.5 42.2,41.2 42.2,40 	"/>
	<polygon class="st1" points="43,39.7 43,40.8 43.4,40.7 43.4,39.6 	"/>
	<polygon class="st1" points="43.8,39.2 43.8,40.5 44.2,40.2 44.2,39.1 	"/>
	<polygon class="st1" points="44.7,38.7 44.9,39.8 45.1,39.6 45.1,38.3 	"/>
	<polygon class="st1" points="22.8,38.8 22.8,39.9 22.3,39.6 22.3,38.3 	"/>
</g>
<g>
	<path class="st0" d="M50.3,48.3v1.8c0,1.9-3.9,3.4-8.8,3.4s-8.8-1.5-8.8-3.4v-1.8c0,0.3,0.1,0.6,0.3,0.9c0.2,0.3,0.6,0.6,1,0.9
		c1.6,1,4.3,1.6,7.5,1.6c3.2,0,5.9-0.6,7.5-1.6c0.4-0.3,0.8-0.6,1-0.9C50.2,48.9,50.3,48.6,50.3,48.3z"/>
	<ellipse class="st2" cx="41.5" cy="48.3" rx="8.8" ry="3.4"/>
	<ellipse class="st3" cx="41.5" cy="48.3" rx="5.1" ry="1.7"/>
	<g>
		<ellipse class="st4" cx="41.5" cy="47.3" rx="0.4" ry="0.3"/>
		<ellipse class="st4" cx="41.5" cy="49.3" rx="0.4" ry="0.3"/>
		<ellipse class="st4" cx="38.3" cy="48.3" rx="0.8" ry="0.1"/>
		<ellipse class="st4" cx="44.7" cy="48.3" rx="0.8" ry="0.1"/>
		<ellipse transform="matrix(0.2085 -0.978 0.978 0.2085 -15.4833 76.087)" class="st4" cx="39.3" cy="47.6" rx="0.2" ry="0.7"/>
		<ellipse transform="matrix(0.2085 -0.978 0.978 0.2085 -13.2896 81.5976)" class="st4" cx="43.8" cy="49" rx="0.2" ry="0.7"/>
		<ellipse transform="matrix(0.978 -0.2085 0.2085 0.978 -8.9657 10.1739)" class="st4" cx="43.8" cy="47.6" rx="0.7" ry="0.2"/>
		<ellipse transform="matrix(0.978 -0.2085 0.2085 0.978 -9.3566 9.2659)" class="st4" cx="39.3" cy="49" rx="0.7" ry="0.2"/>
	</g>
	<polygon class="st1" points="34,50.5 34,51.5 34.6,51.8 34.6,50.9 	"/>
	<polygon class="st1" points="35.3,51.2 35.3,52.1 36,52.4 36,51.5 	"/>
	<polygon class="st1" points="36.4,51.6 36.4,52.5 37,52.7 36.9,51.7 	"/>
	<polygon class="st1" points="37.5,51.8 37.3,52.7 37.8,52.8 38.1,52 	"/>
	<rect x="38.5" y="52" class="st1" width="0.2" height="0.9"/>
	<polygon class="st1" points="39.4,52.1 39.3,53 39.9,53 39.9,52.1 	"/>
	<polygon class="st1" points="40.6,52.1 40.6,53 41.1,53.1 41.1,52.2 	"/>
	<polygon class="st1" points="41.4,52.1 41.5,53.1 41.8,53.1 41.8,52.1 	"/>
	<rect x="42.4" y="52.1" class="st1" width="0.3" height="1"/>
	<polygon class="st1" points="43.4,52.1 43.4,53 43.8,53 43.9,52 	"/>
	<polygon class="st1" points="44.9,52 44.9,52.8 45.5,52.8 45.5,51.8 	"/>
	<polygon class="st1" points="45.9,51.7 45.9,52.6 46.2,52.6 46.2,51.7 	"/>
	<polygon class="st1" points="46.8,51.6 46.8,52.5 47.1,52.4 47.1,51.4 	"/>
	<polygon class="st1" points="47.4,51.3 47.4,52.3 47.6,52.1 47.6,51.3 	"/>
	<polygon class="st1" points="48.1,51.1 48.1,51.8 48.4,51.7 48.4,50.9 	"/>
	<polygon class="st1" points="48.7,50.7 48.7,51.6 49,51.4 49,50.6 	"/>
	<polygon class="st1" points="49.4,50.3 49.5,51.1 49.6,50.9 49.6,50.1 	"/>
	<polygon class="st1" points="33.7,50.4 33.7,51.2 33.3,50.9 33.3,50.1 	"/>
</g>
</svg>
