<?xml version="1.0" encoding="utf-8"?>
<!-- Generator: Adobe Illustrator 22.1.0, SVG Export Plug-In . SVG Version: 6.00 Build 0)  -->
<svg version="1.1" id="Layer_1" xmlns="http://www.w3.org/2000/svg" xmlns:xlink="http://www.w3.org/1999/xlink" x="0px" y="0px"
	 viewBox="0 0 96.9 61.3" style="enable-background:new 0 0 96.9 61.3;" xml:space="preserve">
<style type="text/css">
	.st0{fill:#515251;stroke:#28373A;stroke-width:2;stroke-miterlimit:10;}
	.st1{fill:#EF4923;stroke:#28373A;stroke-width:2;stroke-miterlimit:10;}
	.st2{fill:#F26235;}
	.st3{fill:#787878;stroke:#28373A;stroke-width:2;stroke-miterlimit:10;}
	.st4{fill:#545554;}
	.st5{fill:#EDEDED;stroke:#28373A;stroke-width:2;stroke-miterlimit:10;}
	.st6{fill:#CCCCCB;}
</style>
<rect x="40.4" y="33.4" class="st0" width="37" height="7.2"/>
<g>
	<g>
		<path class="st1" d="M77.4,40.9c0.2,0.3,0.3,0.6,0.3,0.9v0.3c0,0,0,0,0,0.1c0,0.3-0.1,0.6-0.3,0.8c-0.3,0.4-0.9,0.7-1.6,0.9
			l-1,0.2l-16.5,3.2l-18,3.5l-5.6,1.1c-6.8,1.3-14,0.9-20.2-1.1c-2.3-0.8-4.5-1.7-6.5-3c-2.7-1.7-4.9-3.7-6-5.9
			c-0.6-1.1-0.9-2.3-0.9-3.5c0-0.4,0-2.8,0.1-3.2c0.4-3.6,2.8-6.9,6.3-9.3c1.4-0.9,3.5-1.7,6-2.4c6.7-1.8,14.2-1.9,21.1-0.6l41.1,8
			c1.1,0.2,1.9,0.9,1.9,1.7c0,0.9-1.1,1.7-2.5,1.8L57.7,35l-3,0.1l-3.1,0.1c-1.8,0.2-1.7,3.9,0,4l21.2,0.6l2.4,0.1
			C76.2,40,77,40.4,77.4,40.9z"/>
		<path class="st0" d="M77.4,43.1v7.6c-0.3,0.4-0.9,0.7-1.6,0.8l-41.1,8c-9.3,1.8-19.5,0.4-26.6-4c-2.3-1.4-4.1-3-5.3-4.8
			c-1-1.5-1.6-3-1.6-4.7c0-1.5-0.6-5.8,0-7.1c1.1,2.2,4.1,7.1,6.9,8.8c2,1.2,4.2,2.2,6.5,3c6.2,2,13.4,2.4,20.2,1.1l5.6-1.1l18-3.5
			L74.9,44l0.4,0C76.2,44,77,43.6,77.4,43.1z"/>
		<path class="st2" d="M33.7,35.5c0-1.7-3.2-3-7.2-3s-7.2,1.4-7.2,3c0,1.7,3.2,5,7.2,5S33.7,37.2,33.7,35.5z"/>
	</g>
	<g>
		<path class="st3" d="M94.4,5.3l-28.8,9.9c-1.2,0.4-2.4-0.2-2.8-1.4l0,0c-0.4-1.2,0.2-2.4,1.4-2.8L93,1.1c1.2-0.4,2.4,0.2,2.8,1.4
			v0C96.2,3.7,95.6,4.9,94.4,5.3z"/>
		<path class="st4" d="M95.6,2.6c0.1,0.5,0,1-0.2,1.5c-0.2,0.5-0.7,0.9-1.3,1.1l-28.7,9.9c-1,0.3-2,0-2.5-0.8L94.5,3.3
			C95,3.2,95.3,2.9,95.6,2.6z"/>
		<path class="st5" d="M71.4,19L31,32.9c-5.2,1.8-10.8-1-12.6-6.2l0,0L68.2,9.6L71.4,19z"/>
		<path class="st6" d="M69.2,17L69.2,17c0.1,0.4-0.2,0.8-0.8,1L31.8,30.6c-4.2,1.5-8.4,0.8-9.8-1.4c-0.2-0.3,0.2-0.8,0.8-1l0,0
			c0.4-0.1,0.9-0.1,1.1,0.1c1.8,1.6,5.3,1.9,9,0.6L68,16.7C68.5,16.5,69.1,16.7,69.2,17z"/>
	</g>
</g>
</svg>
