<?xml version="1.0" encoding="utf-8"?>
<!-- Generator: Adobe Illustrator 22.1.0, SVG Export Plug-In . SVG Version: 6.00 Build 0)  -->
<svg version="1.1" id="Layer_1" xmlns="http://www.w3.org/2000/svg" xmlns:xlink="http://www.w3.org/1999/xlink" x="0px" y="0px"
	 viewBox="0 0 83.2 61.8" style="enable-background:new 0 0 83.2 61.8;" xml:space="preserve">
<style type="text/css">
	.st0{fill:#F4C281;stroke:#28373A;stroke-width:2;stroke-miterlimit:10;}
	.st1{fill:#C95B33;stroke:#28373A;stroke-width:2;stroke-miterlimit:10;}
	.st2{fill:#B04A2E;stroke:#28373A;stroke-width:2;stroke-miterlimit:10;}
	.st3{fill:#9F4029;stroke:#28373A;stroke-width:2;stroke-miterlimit:10;}
	.st4{fill:#E26E3D;}
</style>
<g>
	<g>
		<path class="st0" d="M58.3,13.8c1,1.7,1.6,3.5,1.8,5.4c0.3,2.9-0.4,5.8-2.3,8.6c-0.6,0.9-1.3,1.8-2.2,2.6
			c-1.3,1.3-2.8,2.3-4.4,3.3c-3.4,1.9-7.5,3.1-11.8,3.4c-5.4,0.4-11.1-0.6-15.8-3c-0.6-0.3-1.1-0.6-1.7-0.9
			c-2.5-1.5-4.4-3.4-5.7-5.4c-2.6-3.9-3-8.5-0.9-12.7c0.7-1.5,1.8-3,3.2-4.3c1.2-1.2,2.7-2.3,4.2-3.2c1.9-1.1,4.6-0.9,6.2,0.3
			l5.2,3.8c1.5,1.1,1.7,2.7,0.6,4.1c0,0,0,0,0,0c-0.6,0.7-0.9,1.5-1,2.3c-0.1,1.2,0.3,2.4,1.2,3.5c0.5,0.5,1.1,1,1.8,1.4
			c0.3,0.1,0.5,0.3,0.8,0.4c0.7,0.3,1.5,0.5,2.3,0.6c1.4,0.2,2.8,0.1,4.1-0.2c1-0.2,1.9-0.6,2.7-1.2c0.6-0.4,1-0.8,1.4-1.3
			c0.6-0.7,0.9-1.5,1-2.3c0.1-0.8-0.1-1.6-0.4-2.3L58.3,13.8z"/>
		<path class="st1" d="M49,11.4c2.3,2,4,3.9,4,3.9l-1.6,0.4c0,0,0,0,0,0l-2.7,0.8c0,0-15.7-5.3-11.4-9.4c0.6-0.6,1.3-0.8,2.2-0.9
			C42.3,6.1,46.1,8.9,49,11.4z"/>
		<path class="st2" d="M45.2,4.3c2.3,1.3,4.6,3.8,6.4,6c1.9,2.4,3.3,4.4,3.3,4.4L53,15.2c0,0-1.7-1.8-4-3.9
			c-2.9-2.5-6.7-5.3-9.5-5.2c-0.2-0.8,0.1-1.5,1-2.1C41.9,3,43.5,3.4,45.2,4.3z"/>
		<path class="st3" d="M58.3,13.8C58.3,13.8,58.3,13.8,58.3,13.8l-3.4,1c0,0-1.3-2.1-3.3-4.4c-1.8-2.2-4.1-4.7-6.4-6
			c-0.4-1.3-0.1-2.4,1.4-3C52.8-1.3,58.1,13.4,58.3,13.8z"/>
		<path class="st4" d="M32.9,18.5c-0.1,1.1,0.3,2.1,1.1,3l-16.4,5.4c-2.3-3.4-2.6-7.4-0.8-11.1L32.9,18.5z"/>
		<path class="st4" d="M39,24.4l-0.4,11.5c-4.7,0.4-9.7-0.5-13.8-2.6c-0.5-0.3-1-0.5-1.4-0.8l12.9-8.9c0.2,0.1,0.5,0.2,0.7,0.3
			C37.6,24.2,38.3,24.3,39,24.4z"/>
		<path class="st4" d="M56.6,27.9c-0.5,0.8-1.2,1.5-1.9,2.3c-1.1,1.1-2.4,2-3.8,2.8l-6.3-8.7c0.9-0.2,1.7-0.6,2.3-1L56.6,27.9z"/>
		<path class="st4" d="M57.9,14.3c0.9,1.5,1.4,3.1,1.6,4.7L50,18.7c0.1-0.7-0.1-1.4-0.4-2.1L57.9,14.3z"/>
	</g>
	<g>
		<path class="st0" d="M81.8,36.9c0.1,1.9-0.2,3.7-0.9,5.5c-1.1,2.8-3.3,5.4-6.3,7.4c-1,0.7-2.1,1.3-3.3,1.9
			c-1.8,0.8-3.7,1.5-5.7,1.9c-4.2,0.9-8.6,0.9-12.7,0.2c-5.3-1-10.1-3.3-13.3-6.9c-0.4-0.4-0.8-0.9-1.1-1.3
			c-1.6-2.1-2.4-4.3-2.7-6.6c-0.5-4.3,1.4-8.7,5.4-12.1c1.4-1.2,3.2-2.3,5.1-3.2c1.8-0.8,3.6-1.4,5.5-1.9c2.3-0.5,4.7,0.3,5.7,1.9
			l2.9,4.9c0.8,1.4,0.2,3-1.4,4c0,0,0,0,0,0c-0.9,0.5-1.6,1.2-2.1,1.9c-0.7,1.1-0.9,2.4-0.6,3.5c0.2,0.6,0.5,1.2,1,1.7
			c0.2,0.2,0.4,0.4,0.6,0.6c0.5,0.5,1.2,0.9,1.8,1.2c1.2,0.5,2.5,0.8,3.9,0.9c1,0,2.1-0.1,3.1-0.4c0.7-0.2,1.4-0.5,2-0.9
			c0.9-0.5,1.6-1.2,2.1-1.9c0.5-0.7,0.7-1.5,0.7-2.3L81.8,36.9z"/>
		<path class="st1" d="M74.3,32.3c1.2,2.5,1.9,4.6,1.9,4.6l-1.7,0c0,0,0,0,0,0l-2.9,0c0,0-12.1-8.9-6.1-11.8
			c0.9-0.4,1.7-0.4,2.5-0.2C70.6,25.7,72.8,29.3,74.3,32.3z"/>
		<path class="st2" d="M74.2,24.8c1.5,1.8,2.5,4.7,3.1,7.2c0.6,2.7,0.9,5,0.9,5l-2,0c0,0-0.7-2.2-1.9-4.6c-1.5-3.1-3.7-6.6-6.3-7.3
			c0.2-0.8,0.9-1.4,2-1.8C71.7,22.7,73.1,23.4,74.2,24.8z"/>
		<path class="st3" d="M81.8,36.9C81.8,36.9,81.8,36.9,81.8,36.9l-3.6,0c0,0-0.2-2.3-0.9-5c-0.6-2.5-1.6-5.4-3.1-7.2
			c0.3-1.3,1.1-2.3,2.8-2.5C84,21.5,81.9,36.6,81.8,36.9z"/>
		<path class="st4" d="M55.8,34.9c-0.6,1-0.8,2.1-0.5,3.1l-18,0.9c-0.4-3.8,1.2-7.6,4.7-10.6L55.8,34.9z"/>
		<path class="st4" d="M58.5,42l-6,10.6c-4.6-0.9-8.8-2.9-11.6-6c-0.3-0.4-0.7-0.8-0.9-1.1l16.5-5c0.2,0.2,0.3,0.3,0.5,0.5
			C57.4,41.4,57.9,41.7,58.5,42z"/>
		<path class="st4" d="M73.3,49.7c-0.9,0.6-1.8,1.1-2.9,1.6c-1.6,0.7-3.3,1.3-5,1.7l-1.6-9.7c0.9,0,1.8-0.1,2.7-0.3L73.3,49.7z"/>
		<path class="st4" d="M81.2,37.3c0.1,1.6-0.2,3.2-0.8,4.8l-8.8-2.7c0.4-0.6,0.6-1.3,0.7-2L81.2,37.3z"/>
	</g>
	<g>
		<path class="st0" d="M44,52.5c-1.3,1.6-2.9,3.1-4.9,4.3c-3,1.9-6.8,3.2-10.9,3.8c-1.3,0.2-2.7,0.3-4.2,0.3c-2.2,0-4.3-0.2-6.2-0.6
			c-4.2-0.9-7.9-2.5-10.8-4.8c-3.7-2.9-6-6.7-6.1-11c0-0.5,0-1,0.1-1.5c0.2-2.4,1.2-4.6,2.6-6.6c2.8-3.8,7.7-6.8,13.6-8.1
			c2.1-0.5,4.4-0.7,6.8-0.7c2.1,0,4.1,0.2,6,0.6c2.3,0.4,3.7,2.1,3.4,3.8l-1.2,5.3c-0.3,1.5-2,2.6-4.1,2.8c0,0,0,0,0,0
			c-1.2,0.1-2.3,0.4-3.2,0.8c-1.4,0.6-2.5,1.6-3.1,2.8c-0.3,0.6-0.5,1.2-0.5,1.9c0,0.2,0,0.5,0,0.7c0.1,0.6,0.3,1.2,0.7,1.7
			c0.6,0.9,1.5,1.7,2.6,2.3c0.9,0.4,1.8,0.7,2.9,0.9C28.2,51,29,51,29.8,51c1.2-0.1,2.2-0.4,3.2-0.8c0.9-0.4,1.7-1,2.4-1.6L44,52.5z
			"/>
		<path class="st1" d="M41.1,45.7c-0.9,2.6-1.9,4.6-1.9,4.6l-1.4-0.6c0,0,0,0,0,0l-2.5-1.1c0,0-3.5-12.3,3.7-12.3
			c1,0,1.7,0.3,2.3,0.8C43,38.6,42.2,42.5,41.1,45.7z"/>
		<path class="st2" d="M46.7,39.3c-0.1,2.1-1.5,4.9-2.8,7.3c-1.5,2.5-3,4.5-3,4.5l-1.7-0.8c0,0,1-2.1,1.9-4.6c1.1-3.2,1.9-7,0.2-8.6
			c0.8-0.6,1.8-0.9,3-0.7C46.2,36.6,46.8,37.7,46.7,39.3z"/>
		<path class="st3" d="M44,52.5C44,52.5,44,52.5,44,52.5l-3.1-1.4c0,0,1.5-2,3-4.5c1.4-2.4,2.8-5.2,2.8-7.3c1.2-1,2.6-1.5,4.2-1
			C57.5,40.3,44.3,52.2,44,52.5z"/>
		<path class="st4" d="M23.6,40.5c-1.2,0.6-2.2,1.4-2.7,2.4L5.2,36.7c2.5-3.4,6.7-5.9,11.9-7L23.6,40.5z"/>
		<path class="st4" d="M20.6,47.6l-13,6.6c-3.2-2.5-5.2-5.9-5.3-9.6c0-0.4,0-0.9,0.1-1.3L20,45.5c0,0.2,0,0.4,0,0.6
			C20.1,46.7,20.3,47.2,20.6,47.6z"/>
		<path class="st4" d="M27.3,59.9c-1.2,0.2-2.4,0.2-3.6,0.2c-1.9,0-3.7-0.2-5.5-0.5l5.9-8.8c0.8,0.4,1.6,0.6,2.5,0.8L27.3,59.9z"/>
		<path class="st4" d="M43.2,52.6c-1.1,1.4-2.6,2.7-4.3,3.7l-5.3-5.7c0.8-0.4,1.5-0.9,2.1-1.4L43.2,52.6z"/>
	</g>
</g>
</svg>
