<?xml version="1.0" encoding="utf-8"?>
<!-- Generator: Adobe Illustrator 22.1.0, SVG Export Plug-In . SVG Version: 6.00 Build 0)  -->
<svg version="1.1" id="Layer_1" xmlns="http://www.w3.org/2000/svg" xmlns:xlink="http://www.w3.org/1999/xlink" x="0px" y="0px"
	 viewBox="0 0 82.7 71.3" style="enable-background:new 0 0 82.7 71.3;" xml:space="preserve">
<style type="text/css">
	.st0{fill:#C6B39D;stroke:#28373A;stroke-width:2;stroke-miterlimit:10;}
	.st1{fill:#EAD5B7;stroke:#28373A;stroke-width:2;stroke-miterlimit:10;}
	.st2{fill:#A09173;}
</style>
<g>
	<path class="st0" d="M2.4,7.9l7.2,21.5c0.8,3.2,5.1,5.2,11.4,6.5l11.7-13.1c-1.5-6.1-4.2-10.1-7.4-10.6L2.4,7.9z"/>
	<path class="st1" d="M53.1,54.9c4.2,3.7,5.7,9.2,3.3,12.3c-0.4,0.5-0.9,0.9-1.5,1.3c-0.9,0.5-2.3,0-3.1-1.1l-0.2-0.3
		c-0.9-1.1-0.8-2.3,0.1-2.8c0.2-0.1,0.4-0.3,0.6-0.4c1.4-1.6,1.7-3.5-1.3-6.2l-10.6-9.4c-1-0.9-4.6-5.2-4-5.9l0,0
		c0.6-0.7,5.3,2.3,6.3,3.3L53.1,54.9z"/>
	<path class="st1" d="M55.4,52.3c4.2,3.7,9.8,4.6,12.6,1.8c0.5-0.5,0.8-1,1.1-1.6c0.4-0.9-0.3-2.2-1.4-3l-0.3-0.2
		c-1.2-0.7-2.4-0.5-2.8,0.4c-0.1,0.2-0.2,0.4-0.4,0.6c-1.4,1.6-3.3,2.1-6.3-0.5l-10.6-9.4c-1-0.9-5.7-4-6.3-3.3l0,0
		c-0.6,0.7,2.9,5,4,5.9L55.4,52.3z"/>
	<path class="st1" d="M57.6,56.5c4.2,3.7,5.7,9.2,3.3,12.3c-0.4,0.5-0.9,0.9-1.5,1.3c-0.9,0.5-2.3,0-3.1-1.1l-0.2-0.3
		c-0.9-1.1-0.8-2.3,0.1-2.8c0.2-0.1,0.4-0.3,0.6-0.4c1.4-1.6,0.1-5-2.9-7.7l-9-8c-1-0.9-1.3-2.3-0.7-3l0,0c0.6-0.7,2-0.6,3,0.3
		L57.6,56.5z"/>
	<path class="st1" d="M57.6,56.5c4.2,3.7,9.8,4.6,12.6,1.8c0.5-0.5,0.8-1,1.1-1.6c0.4-0.9-0.3-2.2-1.4-3l-0.3-0.2
		c-1.2-0.7-2.4-0.5-2.8,0.4c-0.1,0.2-0.2,0.4-0.4,0.6c-1.4,1.6-4.9,0.7-7.9-2l-9-8c-1-0.9-2.4-1.1-3-0.3v0c-0.6,0.7-0.3,2.1,0.7,3
		L57.6,56.5z"/>
	<path class="st1" d="M39.7,35.6l-5,5.6c-1.5,1.7-8.3-1.5-11.5-3.8c-2.2-1.6-4.4-3.7-6.5-6.4c-1.3-1.6-2.4-3.3-3.3-5L2.5,7.8l18.7,8
		c1.8,0.7,3.7,1.6,5.5,2.6c3.3,1.9,6,4,8,6.3C37.2,27.6,41.2,33.9,39.7,35.6z"/>
	<path class="st1" d="M39.2,36.1l-4,4.5c-1.4,1.6-1.3,4.1,0.3,5.5l4.4,3.9c1.6,1.4,4.1,1.3,5.5-0.3l4-4.5c1.4-1.6,1.3-4.1-0.3-5.5
		l-4.4-3.9C43,34.4,40.6,34.5,39.2,36.1z"/>
	<path class="st2" d="M13.6,15.2c0,0,10.6,3.3,15.6,7s0.7,4.3-0.6,2.9C27.2,23.6,13.6,15.2,13.6,15.2z"/>
</g>
<g>
	<path class="st0" d="M21.2,10.5L27,28c0.6,2.6,4.2,4.3,9.3,5.3l9.5-10.7c-1.2-5-3.4-8.2-6.1-8.7L21.2,10.5z"/>
	<path class="st1" d="M62.5,48.8c3.4,3,4.7,7.5,2.7,10c-0.3,0.4-0.7,0.8-1.2,1c-0.7,0.4-1.8,0-2.5-0.9l-0.2-0.2
		c-0.7-0.9-0.7-1.9,0.1-2.3c0.2-0.1,0.3-0.2,0.5-0.4c1.1-1.3,1.4-2.9-1-5.1l-8.7-7.7c-0.8-0.7-3.8-4.2-3.2-4.8l0,0
		c0.5-0.6,4.3,1.9,5.2,2.7L62.5,48.8z"/>
	<path class="st1" d="M64.4,46.7c3.4,3,8,3.7,10.3,1.4c0.4-0.4,0.7-0.8,0.9-1.3c0.3-0.7-0.2-1.8-1.2-2.4l-0.2-0.1
		c-1-0.6-2-0.4-2.3,0.3c-0.1,0.2-0.2,0.4-0.3,0.5c-1.1,1.3-2.7,1.7-5.1-0.4L57.8,37c-0.8-0.7-4.6-3.2-5.2-2.7v0
		c-0.5,0.6,2.4,4.1,3.2,4.8L64.4,46.7z"/>
	<path class="st1" d="M66.2,50.1c3.4,3,4.7,7.5,2.7,10c-0.3,0.4-0.7,0.8-1.2,1c-0.7,0.4-1.8,0-2.5-0.9l-0.2-0.2
		c-0.7-0.9-0.7-1.9,0.1-2.3c0.2-0.1,0.3-0.2,0.5-0.4c1.1-1.3,0.1-4.1-2.4-6.2l-7.3-6.5c-0.8-0.7-1.1-1.8-0.6-2.4l0,0
		c0.5-0.6,1.6-0.5,2.5,0.3L66.2,50.1z"/>
	<path class="st1" d="M66.2,50.1c3.4,3,8,3.7,10.3,1.4c0.4-0.4,0.7-0.8,0.9-1.3c0.3-0.7-0.2-1.8-1.2-2.4l-0.2-0.1
		c-1-0.6-2-0.4-2.3,0.3c-0.1,0.2-0.2,0.4-0.3,0.5c-1.1,1.3-4,0.5-6.5-1.6l-7.3-6.5c-0.8-0.7-2-0.9-2.5-0.3l0,0
		c-0.5,0.6-0.3,1.7,0.6,2.4L66.2,50.1z"/>
	<path class="st1" d="M51.5,33l-4.1,4.6c-1.3,1.4-6.8-1.3-9.4-3.1c-1.8-1.3-3.6-3-5.3-5.2c-1-1.3-1.9-2.7-2.7-4.1l-8.9-14.8L36.4,17
		c1.5,0.6,3,1.3,4.5,2.1c2.7,1.6,4.9,3.3,6.5,5.1C49.5,26.6,52.8,31.7,51.5,33z"/>
	<path class="st1" d="M51.1,33.5l-3.3,3.7c-1.2,1.3-1,3.3,0.3,4.5l3.6,3.2c1.3,1.2,3.3,1,4.5-0.3l3.3-3.7c1.2-1.3,1-3.3-0.3-4.5
		l-3.6-3.2C54.3,32.1,52.3,32.2,51.1,33.5z"/>
	<path class="st2" d="M30.3,16.4c0,0,8.6,2.7,12.7,5.7s0.6,3.5-0.5,2.3C41.4,23.3,30.3,16.4,30.3,16.4z"/>
</g>
<g>
	<path class="st0" d="M7,3.8l12.5,17c1.6,2.6,6,3.2,11.9,2.5l6.6-14.9c-3-5-6.6-7.7-9.6-7.3L7,3.8z"/>
	<path class="st1" d="M65.1,30.9c4.8,2.1,7.7,6.5,6.4,10c-0.2,0.6-0.5,1.1-0.9,1.5c-0.6,0.7-2,0.6-3,0l-0.3-0.2
		c-1.1-0.7-1.4-1.8-0.7-2.5c0.2-0.2,0.3-0.3,0.4-0.5c0.8-1.8,0.5-3.6-2.9-5.1l-12.1-5.3c-1.2-0.5-5.6-3.2-5.2-4.1l0,0
		c0.4-0.8,5.3,0.6,6.5,1.1L65.1,30.9z"/>
	<path class="st1" d="M66.4,28c4.8,2.1,10,1.3,11.6-2c0.3-0.5,0.4-1.1,0.5-1.7c0.1-0.9-0.9-1.9-2.1-2.2l-0.3-0.1
		c-1.2-0.3-2.3,0.2-2.4,1.2c0,0.2-0.1,0.4-0.2,0.6c-0.8,1.8-2.3,2.8-5.7,1.3l-12.1-5.3c-1.2-0.5-6.1-1.9-6.5-1.1v0
		c-0.4,0.8,4,3.6,5.2,4.1L66.4,28z"/>
	<path class="st1" d="M69.6,31.1c4.8,2.1,7.7,6.5,6.4,10c-0.2,0.6-0.5,1.1-0.9,1.5c-0.6,0.7-2,0.6-3,0l-0.3-0.2
		c-1.1-0.7-1.4-1.8-0.7-2.5c0.2-0.2,0.3-0.3,0.4-0.5c0.8-1.8-1.3-4.4-4.8-5.9l-10.2-4.5c-1.2-0.5-1.8-1.6-1.5-2.4l0,0
		c0.4-0.8,1.6-1.1,2.8-0.6L69.6,31.1z"/>
	<path class="st1" d="M69.6,31.1c4.8,2.1,10,1.3,11.6-2c0.3-0.5,0.4-1.1,0.5-1.7c0.1-0.9-0.9-1.9-2.1-2.2l-0.3-0.1
		c-1.2-0.3-2.3,0.2-2.4,1.2c0,0.2-0.1,0.4-0.2,0.6c-0.8,1.8-4.2,2-7.6,0.5L59,22.8c-1.2-0.5-2.4-0.3-2.8,0.6v0
		c-0.4,0.8,0.3,1.9,1.5,2.4L69.6,31.1z"/>
	<path class="st1" d="M47.7,17.7l-2.8,6.4c-0.9,2-7.8,1-11.3-0.1c-2.4-0.8-4.9-2-7.6-3.8c-1.6-1.1-3-2.3-4.3-3.5L7,3.8l18.8,1.8
		c1.8,0.1,3.7,0.3,5.6,0.7c3.5,0.8,6.4,1.8,8.9,3.3C43.3,11.3,48.6,15.7,47.7,17.7z"/>
	<path class="st1" d="M47.5,18.3l-2.3,5.1c-0.8,1.8,0,3.9,1.8,4.7l5,2.2c1.8,0.8,3.9,0,4.7-1.8l2.3-5.1c0.8-1.8,0-3.9-1.8-4.7
		l-5-2.2C50.4,15.7,48.3,16.5,47.5,18.3z"/>
	<path class="st2" d="M18.9,7c0,0,10.3-0.1,15.8,1.7s1.8,3.6,0.2,2.7C33.3,10.6,18.9,7,18.9,7z"/>
</g>
</svg>
