<?xml version="1.0" encoding="utf-8"?>
<!-- Generator: Adobe Illustrator 22.1.0, SVG Export Plug-In . SVG Version: 6.00 Build 0)  -->
<svg version="1.1" id="Layer_1" xmlns="http://www.w3.org/2000/svg" xmlns:xlink="http://www.w3.org/1999/xlink" x="0px" y="0px"
	 viewBox="0 0 101.2 62.9" style="enable-background:new 0 0 101.2 62.9;" xml:space="preserve">
<style type="text/css">
	.st0{fill:#515251;stroke:#28373A;stroke-width:2;stroke-miterlimit:10;}
	.st1{fill:#D72C27;stroke:#28373A;stroke-width:2;stroke-miterlimit:10;}
	.st2{fill:#F15E5E;}
	.st3{fill:#787878;stroke:#28373A;stroke-width:2;stroke-miterlimit:10;}
	.st4{fill:#545554;}
	.st5{fill:#EDEDED;stroke:#28373A;stroke-width:2;stroke-miterlimit:10;}
	.st6{fill:#CCCCCB;}
</style>
<rect x="43.8" y="35.9" class="st0" width="37" height="7.2"/>
<g>
	<g>
		<path class="st1" d="M80.9,41.6c0.2,0.3,0.3,0.6,0.3,0.9v0.4c0,0,0,0,0,0.1c0,0.3-0.1,0.6-0.3,0.8c-0.3,0.4-0.9,0.8-1.6,0.9
			l-1,0.2L61,48.2l-18.8,3.6L36.3,53c-7.1,1.4-14.6,1-21.1-1.1c-2.4-0.8-4.7-1.8-6.8-3.1c-2.9-1.8-5.1-3.9-6.3-6.2
			c-0.6-1.2-0.9-2.4-0.9-3.7c0-0.4,0-1.8,0.1-2.3c0.4-3.8,2.9-7.2,6.6-9.7c1.4-1,3.7-1.8,6.3-2.5c7-1.9,14.8-2,22.1-0.6l42.9,8.3
			c1.2,0.2,2,1,2,1.8c0,1-1.1,1.8-2.6,1.9l-18.4,0.7l-3.2,0.1l-3.2,0.1c-1.8,0.2-1.8,3,0,3.1L76,40.6l2.5,0.1
			C79.6,40.7,80.4,41.1,80.9,41.6z"/>
		<path class="st0" d="M80.9,43.9v8c-0.3,0.4-0.9,0.7-1.6,0.9l-42.9,8.3C26.6,63,16,61.5,8.5,56.8c-2.4-1.5-4.3-3.1-5.5-5
			c-1.1-1.5-1.7-3.2-1.7-4.9c0-1.5-0.6-6,0-7.4c1.2,2.3,4.3,7.4,7.2,9.2c2,1.3,4.3,2.3,6.8,3.1c6.5,2.1,14,2.5,21.1,1.1l5.9-1.1
			L61,48.2l17.2-3.3l0.4,0C79.6,44.8,80.4,44.4,80.9,43.9z"/>
		<path class="st2" d="M35.2,37.1c0-1.7-3.3-3.2-7.5-3.2s-7.5,1.4-7.5,3.2c0,1.7,3.3,4.2,7.5,4.2S35.2,38.8,35.2,37.1z"/>
	</g>
	<g>
		<path class="st3" d="M98.6,5.5L68.5,15.9c-1.2,0.4-2.5-0.2-3-1.4v0c-0.4-1.2,0.2-2.5,1.4-3L97.1,1.1c1.2-0.4,2.5,0.2,3,1.4v0
			C100.5,3.8,99.8,5.1,98.6,5.5z"/>
		<path class="st4" d="M99.8,2.7c0.1,0.5,0.1,1.1-0.2,1.5c-0.3,0.5-0.7,1-1.3,1.2l-30,10.3c-1,0.3-2.1,0-2.7-0.9l33-11.4
			C99.2,3.3,99.5,3,99.8,2.7z"/>
		<path class="st5" d="M74.6,19.8L32.4,34.4c-5.4,1.9-11.3-1-13.2-6.4l0,0l52-17.9L74.6,19.8z"/>
		<path class="st6" d="M72.3,17.7L72.3,17.7c0.1,0.4-0.2,0.8-0.8,1L33.2,31.9c-4.4,1.5-8.8,0.8-10.2-1.5c-0.2-0.3,0.2-0.8,0.8-1.1
			l0,0c0.4-0.2,0.9-0.1,1.1,0.1c1.8,1.6,5.6,2,9.4,0.7L71,17.4C71.6,17.2,72.1,17.4,72.3,17.7z"/>
	</g>
</g>
</svg>
