<?xml version="1.0" encoding="utf-8"?>
<!-- Generator: Adobe Illustrator 22.1.0, SVG Export Plug-In . SVG Version: 6.00 Build 0)  -->
<svg version="1.1" id="Layer_1" xmlns="http://www.w3.org/2000/svg" xmlns:xlink="http://www.w3.org/1999/xlink" x="0px" y="0px"
	 viewBox="0 0 84 31.9" style="enable-background:new 0 0 84 31.9;" xml:space="preserve">
<style type="text/css">
	.st0{fill:#F26742;}
	.st1{fill:#28373A;}
</style>
<g>
	<path class="st0" d="M83.3,17.1c0,2.9-2.8,5.2-6.4,5.2c-1,0-1.9-0.2-2.7-0.5C73.3,23.7,71,25,68.3,25c-1.8,0-3.4-0.6-4.6-1.6
		c-1.2,1-2.8,1.6-4.6,1.6c-2.5,0-4.7-1.2-5.7-2.9c-1,1.7-3.2,2.9-5.7,2.9c-2.6,0-4.8-1.3-5.8-3c-1.1,1.6-3.2,2.7-5.6,2.7
		c-2.3,0-4.3-1-5.4-2.5c-0.3,0-0.6,0.1-0.9,0.1c-3.5,0-6.4-2.3-6.4-5.2s2.8-5.2,6.4-5.2c2.3,0,4.3,1,5.4,2.5l0.1,0
		c-0.3-0.6-0.5-1.3-0.5-2c0-2.9,2.8-5.2,6.4-5.2c2.3,0,4.2,1,5.4,2.4c2.8,0.5,5.8,0.5,5.8,3c0,0.4,2.5-3.1,6-3.1
		c1.3,0,2.6,0.3,3.6,0.9c0.8-2.2,3.2-3.7,6.1-3.7c3.5,0,6.4,2.3,6.4,5.2c0,0.1,0,0.2,0,0.4c0.7-0.2,1.5-0.4,2.3-0.4
		C80.5,11.9,83.3,14.2,83.3,17.1z"/>
	<path class="st1" d="M83.3,17.1h-0.7c0,1.2-0.6,2.3-1.6,3.1c-1,0.8-2.5,1.4-4.1,1.4c-0.9,0-1.7-0.2-2.5-0.5l-0.6-0.2l-0.3,0.6
		c-0.8,1.7-2.8,2.9-5.3,2.9c-1.6,0-3.1-0.6-4.1-1.4l-0.4-0.4L63.3,23c-1,0.9-2.5,1.4-4.1,1.4c-2.3,0-4.3-1.1-5.1-2.6l-0.6-0.9
		l-0.6,0.9c-0.9,1.5-2.8,2.6-5.1,2.6c-2.4,0-4.4-1.2-5.2-2.7L42,20.7l-0.6,0.9c-0.9,1.4-2.8,2.4-5,2.4c-2.1,0-3.9-0.9-4.9-2.2
		l-0.2-0.3l-0.4,0c-0.3,0-0.5,0.1-0.8,0.1c-1.6,0-3.1-0.5-4.1-1.4c-1-0.8-1.6-1.9-1.6-3.1c0-1.2,0.6-2.3,1.6-3.1
		c1-0.8,2.5-1.4,4.1-1.4c2.1,0,3.9,0.9,4.9,2.2l0.2,0.3l0.5-0.1l0.9-0.1l-0.4-0.8c-0.3-0.5-0.4-1.1-0.4-1.7c0-1.2,0.6-2.3,1.6-3.1
		c1-0.8,2.5-1.4,4.1-1.4c2.1,0,3.9,0.9,4.8,2.1l0.2,0.2l0.2,0c1.5,0.3,2.9,0.4,3.9,0.7c0.5,0.2,0.8,0.4,1,0.6c0.2,0.2,0.3,0.5,0.3,1
		c0,0.1,0,0.2,0.1,0.4c0.1,0.1,0.2,0.2,0.3,0.2c0.1,0.1,0.2,0.1,0.3,0.1c0.2,0,0.3-0.1,0.3-0.1c0.1-0.1,0.2-0.1,0.2-0.1
		c0.1-0.1,0.2-0.2,0.3-0.3c0.4-0.4,1.1-1.1,2-1.6c0.9-0.6,2-1,3.1-1c1.2,0,2.4,0.3,3.3,0.8l0.7,0.4l0.3-0.8c0.3-0.9,1-1.7,2-2.3
		c1-0.6,2.2-1,3.5-1c1.6,0,3.1,0.5,4.1,1.4c1,0.8,1.6,1.9,1.6,3.1c0,0.1,0,0.2,0,0.2l-0.2,1.1l1.1-0.4c0.6-0.2,1.4-0.3,2.1-0.3
		c1.6,0,3.1,0.5,4.1,1.4c1,0.8,1.6,1.9,1.6,3.1H83.3H84c0-1.7-0.8-3.1-2.1-4.2c-1.3-1-3-1.7-4.9-1.7c-0.9,0-1.7,0.1-2.5,0.4l0.2,0.6
		l0.6,0.1c0-0.2,0-0.4,0-0.5c0-1.7-0.8-3.1-2.1-4.2c-1.3-1-3-1.7-4.9-1.7c-1.6,0-3,0.4-4.2,1.2C62.9,8,62,9,61.6,10.2l0.6,0.2
		l0.3-0.6c-1.1-0.6-2.5-1-3.9-1c-1.9,0-3.5,0.9-4.6,1.7c-0.6,0.4-1,0.8-1.3,1.1c-0.2,0.2-0.3,0.3-0.4,0.3l-0.1,0.1l0.2,0.3l-0.2-0.3
		l0,0l0.2,0.3l-0.2-0.3l0.3,0.5V12c-0.2,0-0.2,0.1-0.3,0.1l0.3,0.5V12v0.6l0.3-0.6c-0.1,0-0.2-0.1-0.3-0.1v0.6l0.3-0.6l-0.3,0.6
		l0.6-0.2c0-0.1-0.2-0.3-0.3-0.3l-0.3,0.6l0.6-0.2l-0.6,0.2h0.6c0,0,0-0.1,0-0.2l-0.6,0.2h0.6c0-0.7-0.2-1.4-0.7-1.9
		c-0.3-0.4-0.7-0.6-1.2-0.8c-0.6-0.3-1.4-0.5-2.1-0.6c-0.8-0.1-1.6-0.2-2.3-0.4l-0.1,0.7l0.5-0.4c-1.3-1.6-3.4-2.7-5.9-2.7
		c-1.9,0-3.6,0.6-4.9,1.7c-1.3,1-2.1,2.5-2.1,4.2c0,0.8,0.2,1.6,0.6,2.3l0.6-0.3l-0.1-0.7l-0.1,0l0.1,0.7L36,14
		c-1.3-1.7-3.5-2.8-6-2.8c-1.9,0-3.6,0.6-4.9,1.7c-1.3,1-2.1,2.5-2.1,4.2c0,1.7,0.8,3.1,2.1,4.2c1.3,1,3,1.7,4.9,1.7
		c0.3,0,0.7,0,1-0.1L31,22.2l-0.5,0.4c1.3,1.7,3.5,2.8,6,2.8c2.6,0,4.9-1.2,6.1-3L42,22l-0.6,0.3c1.1,2,3.6,3.4,6.4,3.4
		c2.7,0,5.1-1.3,6.3-3.2l-0.6-0.3l-0.6,0.3c1.2,1.9,3.6,3.2,6.3,3.2c1.9,0,3.7-0.6,5-1.7l-0.4-0.5L63.3,24c1.3,1.1,3,1.7,5,1.7
		c2.9,0,5.5-1.5,6.5-3.7l-0.6-0.3L74,22.3c0.9,0.4,1.9,0.5,3,0.5c1.9,0,3.6-0.6,4.9-1.7c1.3-1,2.1-2.5,2.1-4.2H83.3z"/>
</g>
<g>
	<path class="st0" d="M60.3,11c0,2.9-2.8,5.2-6.4,5.2c-1,0-1.9-0.2-2.7-0.5C50.3,17.6,48,19,45.3,19c-1.8,0-3.4-0.6-4.6-1.6
		c-1.2,1-2.8,1.6-4.6,1.6c-2.5,0-4.7-1.2-5.7-2.9c-1,1.7-3.2,2.9-5.7,2.9c-2.6,0-4.8-1.3-5.8-3c-1.1,1.6-3.2,2.7-5.6,2.7
		c-2.3,0-4.3-1-5.4-2.5c-0.3,0-0.6,0.1-0.9,0.1c-3.5,0-6.4-2.3-6.4-5.2S3.5,5.9,7,5.9c2.3,0,4.3,1,5.4,2.5l0.1,0
		c-0.3-0.6-0.5-1.3-0.5-2c0-2.9,2.8-5.2,6.4-5.2c2.3,0,4.2,1,5.4,2.4c2.8,0.5,5.8,0.5,5.8,3c0,0.4,2.5-3.1,6-3.1
		c1.3,0,2.6,0.3,3.6,0.9c0.8-2.2,3.2-3.7,6.1-3.7c3.5,0,6.4,2.3,6.4,5.2c0,0.1,0,0.2,0,0.4c0.7-0.2,1.5-0.4,2.3-0.4
		C57.4,5.8,60.3,8.1,60.3,11z"/>
	<path class="st1" d="M60.3,11h-0.7c0,1.2-0.6,2.3-1.6,3.1c-1,0.8-2.5,1.4-4.1,1.4c-0.9,0-1.7-0.2-2.5-0.5l-0.6-0.2l-0.3,0.6
		c-0.8,1.7-2.8,2.9-5.3,2.9c-1.6,0-3.1-0.6-4.1-1.4l-0.4-0.4l-0.4,0.4c-1,0.9-2.5,1.4-4.1,1.4c-2.3,0-4.3-1.1-5.1-2.6l-0.6-0.9
		l-0.6,0.9c-0.9,1.5-2.8,2.6-5.1,2.6c-2.4,0-4.4-1.2-5.2-2.7L19,14.7l-0.6,0.9c-0.9,1.4-2.8,2.4-5,2.4c-2.1,0-3.9-0.9-4.9-2.2
		l-0.2-0.3l-0.4,0c-0.3,0-0.5,0.1-0.8,0.1c-1.6,0-3.1-0.5-4.1-1.4c-1-0.8-1.6-1.9-1.6-3.1c0-1.2,0.6-2.3,1.6-3.1
		C4,7.1,5.4,6.5,7,6.5c2.1,0,3.9,0.9,4.9,2.2l0.2,0.3L12.6,9l0.9-0.1L13.1,8c-0.3-0.5-0.4-1.1-0.4-1.7c0-1.2,0.6-2.3,1.6-3.1
		c1-0.8,2.5-1.4,4.1-1.4c2.1,0,3.9,0.9,4.8,2.1l0.2,0.2l0.2,0c1.5,0.3,2.9,0.4,3.9,0.7c0.5,0.2,0.8,0.4,1,0.6c0.2,0.2,0.3,0.5,0.3,1
		c0,0.1,0,0.2,0.1,0.4c0.1,0.1,0.2,0.2,0.3,0.2c0.1,0.1,0.2,0.1,0.3,0.1c0.2,0,0.3-0.1,0.3-0.1C30,7.1,30,7.1,30.1,7.1
		c0.1-0.1,0.2-0.2,0.3-0.3c0.4-0.4,1.1-1.1,2-1.6c0.9-0.6,2-1,3.1-1c1.2,0,2.4,0.3,3.3,0.8l0.7,0.4l0.3-0.8c0.3-0.9,1-1.7,2-2.3
		c1-0.6,2.2-1,3.5-1c1.6,0,3.1,0.5,4.1,1.4c1,0.8,1.6,1.9,1.6,3.1C51,6,51,6,51,6.1l-0.2,1.1l1.1-0.4c0.6-0.2,1.4-0.3,2.1-0.3
		C55.5,6.5,57,7,58,7.9c1,0.8,1.6,1.9,1.6,3.1H60.3H61c0-1.7-0.8-3.1-2.1-4.2c-1.3-1-3-1.7-4.9-1.7c-0.9,0-1.7,0.1-2.5,0.4l0.2,0.6
		l0.6,0.1c0-0.2,0-0.4,0-0.5c0-1.7-0.8-3.1-2.1-4.2c-1.3-1-3-1.7-4.9-1.7c-1.6,0-3,0.4-4.2,1.2c-1.2,0.7-2.1,1.8-2.5,3l0.6,0.2
		l0.3-0.6c-1.1-0.6-2.5-1-3.9-1c-1.9,0-3.5,0.9-4.6,1.7c-0.6,0.4-1,0.8-1.3,1.1c-0.2,0.2-0.3,0.3-0.4,0.3l-0.1,0.1l0.2,0.3L29.3,6
		l0,0l0.2,0.3L29.3,6l0.3,0.5V6C29.4,6,29.3,6,29.3,6l0.3,0.5V6v0.6L29.8,6C29.7,6,29.6,6,29.6,6v0.6L29.8,6l-0.3,0.6l0.6-0.2
		c0-0.1-0.2-0.3-0.3-0.3l-0.3,0.6l0.6-0.2l-0.6,0.2h0.6c0,0,0-0.1,0-0.2l-0.6,0.2h0.6c0-0.7-0.2-1.4-0.7-1.9
		c-0.3-0.4-0.7-0.6-1.2-0.8c-0.6-0.3-1.4-0.5-2.1-0.6c-0.8-0.1-1.6-0.2-2.3-0.4l-0.1,0.7l0.5-0.4c-1.3-1.6-3.4-2.7-5.9-2.7
		c-1.9,0-3.6,0.6-4.9,1.7c-1.3,1-2.1,2.5-2.1,4.2c0,0.8,0.2,1.6,0.6,2.3l0.6-0.3l-0.1-0.7l-0.1,0l0.1,0.7L13,8
		c-1.3-1.7-3.5-2.8-6-2.8c-1.9,0-3.6,0.6-4.9,1.7C0.8,7.9,0,9.4,0,11c0,1.7,0.8,3.1,2.1,4.2c1.3,1,3,1.7,4.9,1.7c0.3,0,0.7,0,1-0.1
		l-0.1-0.7l-0.5,0.4c1.3,1.7,3.5,2.8,6,2.8c2.6,0,4.9-1.2,6.1-3L19,15.9l-0.6,0.3c1.1,2,3.6,3.4,6.4,3.4c2.7,0,5.1-1.3,6.3-3.2
		l-0.6-0.3l-0.6,0.3c1.2,1.9,3.6,3.2,6.3,3.2c1.9,0,3.7-0.6,5-1.7l-0.4-0.5l-0.4,0.5c1.3,1.1,3,1.7,5,1.7c2.9,0,5.5-1.5,6.5-3.7
		l-0.6-0.3L51,16.3c0.9,0.4,1.9,0.5,3,0.5c1.9,0,3.6-0.6,4.9-1.7c1.3-1,2.1-2.5,2.1-4.2H60.3z"/>
</g>
<g>
	<path class="st0" d="M64.6,23.2c0,2.9-2.8,5.2-6.4,5.2c-1,0-1.9-0.2-2.7-0.5c-0.9,1.9-3.2,3.3-5.9,3.3c-1.8,0-3.4-0.6-4.6-1.6
		c-1.2,1-2.8,1.6-4.6,1.6c-2.5,0-4.7-1.2-5.7-2.9c-1,1.7-3.2,2.9-5.7,2.9c-2.6,0-4.8-1.3-5.8-3c-1.1,1.6-3.2,2.7-5.6,2.7
		c-2.3,0-4.3-1-5.4-2.5c-0.3,0-0.6,0.1-0.9,0.1c-3.5,0-6.4-2.3-6.4-5.2s2.8-5.2,6.4-5.2c2.3,0,4.3,1,5.4,2.5l0.1,0
		c-0.3-0.6-0.5-1.3-0.5-2c0-2.9,2.8-5.2,6.4-5.2c2.3,0,4.2,1,5.4,2.4c2.8,0.5,5.8,0.5,5.8,3c0,0.4,2.5-3.1,6-3.1
		c1.3,0,2.6,0.3,3.6,0.9c0.8-2.2,3.2-3.7,6.1-3.7c3.5,0,6.4,2.3,6.4,5.2c0,0.1,0,0.2,0,0.4c0.7-0.2,1.5-0.4,2.3-0.4
		C61.7,18,64.6,20.4,64.6,23.2z"/>
	<path class="st1" d="M64.6,23.2h-0.7c0,1.2-0.6,2.3-1.6,3.1c-1,0.8-2.5,1.4-4.1,1.4c-0.9,0-1.7-0.2-2.5-0.5L55.2,27l-0.3,0.6
		c-0.8,1.7-2.8,2.9-5.3,2.9c-1.6,0-3.1-0.6-4.1-1.4L45,28.8l-0.4,0.4c-1,0.9-2.5,1.4-4.1,1.4c-2.3,0-4.3-1.1-5.1-2.6L34.8,27
		L34.2,28c-0.9,1.5-2.8,2.6-5.1,2.6c-2.4,0-4.4-1.2-5.2-2.7l-0.5-0.9l-0.6,0.9c-0.9,1.4-2.8,2.4-5,2.4c-2.1,0-3.9-0.9-4.9-2.2
		l-0.2-0.3l-0.4,0c-0.3,0-0.5,0.1-0.8,0.1c-1.6,0-3.1-0.5-4.1-1.4c-1-0.8-1.6-1.9-1.6-3.1c0-1.2,0.6-2.3,1.6-3.1
		c1-0.8,2.5-1.4,4.1-1.4c2.1,0,3.9,0.9,4.9,2.2l0.2,0.3l0.5-0.1l0.9-0.1l-0.4-0.8c-0.3-0.5-0.4-1.1-0.4-1.7c0-1.2,0.6-2.3,1.6-3.1
		c1-0.8,2.5-1.4,4.1-1.4c2.1,0,3.9,0.9,4.8,2.1l0.2,0.2l0.2,0c1.5,0.3,2.9,0.4,3.9,0.7c0.5,0.2,0.8,0.4,1,0.6c0.2,0.2,0.3,0.5,0.3,1
		c0,0.1,0,0.2,0.1,0.4c0.1,0.1,0.2,0.2,0.3,0.2c0.1,0.1,0.2,0.1,0.3,0.1c0.2,0,0.3-0.1,0.3-0.1c0.1-0.1,0.2-0.1,0.2-0.1
		c0.1-0.1,0.2-0.2,0.3-0.3c0.4-0.4,1.1-1.1,2-1.6c0.9-0.6,2-1,3.1-1c1.2,0,2.4,0.3,3.3,0.8l0.7,0.4l0.3-0.8c0.3-0.9,1-1.7,2-2.3
		c1-0.6,2.2-1,3.5-1c1.6,0,3.1,0.5,4.1,1.4c1,0.8,1.6,1.9,1.6,3.1c0,0.1,0,0.2,0,0.2L55,19.4l1.1-0.4c0.6-0.2,1.4-0.3,2.1-0.3
		c1.6,0,3.1,0.5,4.1,1.4c1,0.8,1.6,1.9,1.6,3.1H64.6h0.7c0-1.7-0.8-3.1-2.1-4.2c-1.3-1-3-1.7-4.9-1.7c-0.9,0-1.7,0.1-2.5,0.4
		l0.2,0.6l0.6,0.1c0-0.2,0-0.4,0-0.5c0-1.7-0.8-3.1-2.1-4.2c-1.3-1-3-1.7-4.9-1.7c-1.6,0-3,0.4-4.2,1.2c-1.2,0.7-2.1,1.8-2.5,3
		l0.6,0.2l0.3-0.6c-1.1-0.6-2.5-1-3.9-1c-1.9,0-3.5,0.9-4.6,1.7c-0.6,0.4-1,0.8-1.3,1.1c-0.2,0.2-0.3,0.3-0.4,0.3l-0.1,0.1l0.2,0.3
		l-0.2-0.3l0,0l0.2,0.3l-0.2-0.3l0.3,0.5v-0.6c-0.2,0-0.2,0.1-0.3,0.1l0.3,0.5v-0.6v0.6l0.3-0.6c-0.1,0-0.2-0.1-0.3-0.1v0.6l0.3-0.6
		l-0.3,0.6l0.6-0.2c0-0.1-0.2-0.3-0.3-0.3l-0.3,0.6l0.6-0.2l-0.6,0.2h0.6c0,0,0-0.1,0-0.2l-0.6,0.2h0.6c0-0.7-0.2-1.4-0.7-1.9
		c-0.3-0.4-0.7-0.6-1.2-0.8c-0.6-0.3-1.4-0.5-2.1-0.6c-0.8-0.1-1.6-0.2-2.3-0.4l-0.1,0.7l0.5-0.4c-1.3-1.6-3.4-2.7-5.9-2.7
		c-1.9,0-3.6,0.6-4.9,1.7c-1.3,1-2.1,2.5-2.1,4.2c0,0.8,0.2,1.6,0.6,2.3l0.6-0.3l-0.1-0.7l-0.1,0l0.1,0.7l0.5-0.4
		c-1.3-1.7-3.5-2.8-6-2.8c-1.9,0-3.6,0.6-4.9,1.7c-1.3,1-2.1,2.5-2.1,4.2c0,1.7,0.8,3.1,2.1,4.2c1.3,1,3,1.7,4.9,1.7
		c0.3,0,0.7,0,1-0.1l-0.1-0.7l-0.5,0.4c1.3,1.7,3.5,2.8,6,2.8c2.6,0,4.9-1.2,6.1-3l-0.5-0.4l-0.6,0.3c1.1,2,3.6,3.4,6.4,3.4
		c2.7,0,5.1-1.3,6.3-3.2l-0.6-0.3l-0.6,0.3c1.2,1.9,3.6,3.2,6.3,3.2c1.9,0,3.7-0.6,5-1.7L45,29.6l-0.4,0.5c1.3,1.1,3,1.7,5,1.7
		c2.9,0,5.5-1.5,6.5-3.7l-0.6-0.3l-0.2,0.6c0.9,0.4,1.9,0.5,3,0.5c1.9,0,3.6-0.6,4.9-1.7c1.3-1,2.1-2.5,2.1-4.2H64.6z"/>
</g>
</svg>
