<?xml version="1.0" encoding="utf-8"?>
<!-- Generator: Adobe Illustrator 22.1.0, SVG Export Plug-In . SVG Version: 6.00 Build 0)  -->
<svg version="1.1" id="Layer_1" xmlns="http://www.w3.org/2000/svg" xmlns:xlink="http://www.w3.org/1999/xlink" x="0px" y="0px"
	 viewBox="0 0 76.2 52.1" style="enable-background:new 0 0 76.2 52.1;" xml:space="preserve">
<style type="text/css">
	.st0{fill:#D65629;}
	.st1{fill:#28373A;}
</style>
<g>
	<circle class="st0" cx="7" cy="14.9" r="6.4"/>
	<path class="st1" d="M13.4,14.9H14c0-3.9-3.1-7-7-7c-3.9,0-7,3.1-7,7c0,3.9,3.1,7,7,7c3.9,0,7-3.1,7-7H13.4h-0.7c0,1.6-0.6,3-1.7,4
		c-1,1-2.5,1.7-4,1.7c-1.6,0-3-0.6-4-1.7c-1-1-1.7-2.5-1.7-4c0-1.6,0.6-3,1.7-4c1-1,2.5-1.7,4-1.7c1.6,0,3,0.6,4,1.7
		c1,1,1.7,2.5,1.7,4H13.4z"/>
	<circle class="st0" cx="19.6" cy="12.5" r="6.4"/>
	<path class="st1" d="M25.9,12.5h0.7c0-3.9-3.1-7-7-7c-3.9,0-7,3.1-7,7c0,3.9,3.1,7,7,7c3.9,0,7-3.1,7-7H25.9h-0.7
		c0,1.6-0.6,3-1.7,4c-1,1-2.5,1.7-4,1.7c-1.6,0-3-0.6-4-1.7c-1-1-1.7-2.5-1.7-4c0-1.6,0.6-3,1.7-4c1-1,2.5-1.7,4-1.7
		c1.6,0,3,0.6,4,1.7c1,1,1.7,2.5,1.7,4H25.9z"/>
	<circle class="st0" cx="45.8" cy="7" r="6.4"/>
	<path class="st1" d="M52.2,7h0.7c0-3.9-3.1-7-7-7c-3.9,0-7,3.1-7,7c0,3.9,3.1,7,7,7c3.9,0,7-3.1,7-7H52.2h-0.7c0,1.6-0.6,3-1.7,4
		c-1,1-2.5,1.7-4,1.7c-1.6,0-3-0.6-4-1.7c-1-1-1.7-2.5-1.7-4c0-1.6,0.6-3,1.7-4c1-1,2.5-1.7,4-1.7c1.6,0,3,0.6,4,1.7
		c1,1,1.7,2.5,1.7,4H52.2z"/>
	<circle class="st0" cx="64.8" cy="11.8" r="6.4"/>
	<path class="st1" d="M71.1,11.8h0.7c0-3.9-3.1-7-7-7c-3.9,0-7,3.1-7,7c0,3.9,3.1,7,7,7c3.9,0,7-3.1,7-7H71.1h-0.7
		c0,1.6-0.6,3-1.7,4c-1,1-2.5,1.7-4,1.7c-1.6,0-3-0.6-4-1.7c-1-1-1.7-2.5-1.7-4c0-1.6,0.6-3,1.7-4c1-1,2.5-1.7,4-1.7
		c1.6,0,3,0.6,4,1.7c1,1,1.7,2.5,1.7,4H71.1z"/>
	<circle class="st0" cx="64.8" cy="35.7" r="6.4"/>
	<path class="st1" d="M71.1,35.7h0.7c0-3.9-3.1-7-7-7c-3.9,0-7,3.1-7,7c0,3.9,3.1,7,7,7c3.9,0,7-3.1,7-7H71.1h-0.7
		c0,1.6-0.6,3-1.7,4c-1,1-2.5,1.7-4,1.7c-1.6,0-3-0.6-4-1.7c-1-1-1.7-2.5-1.7-4c0-1.6,0.6-3,1.7-4c1-1,2.5-1.7,4-1.7
		c1.6,0,3,0.6,4,1.7c1,1,1.7,2.5,1.7,4H71.1z"/>
	<circle class="st0" cx="69.2" cy="18.5" r="6.4"/>
	<path class="st1" d="M75.5,18.5h0.7c0-3.9-3.1-7-7-7c-3.9,0-7,3.1-7,7c0,3.9,3.1,7,7,7c3.9,0,7-3.1,7-7H75.5h-0.7
		c0,1.6-0.6,3-1.7,4c-1,1-2.5,1.7-4,1.7c-1.6,0-3-0.6-4-1.7c-1-1-1.7-2.5-1.7-4c0-1.6,0.6-3,1.7-4c1-1,2.5-1.7,4-1.7
		c1.6,0,3,0.6,4,1.7c1,1,1.7,2.5,1.7,4H75.5z"/>
	<g>
		<circle class="st0" cx="14.5" cy="18.5" r="6.4"/>
		<path class="st1" d="M20.9,18.5h0.7c0-3.9-3.1-7-7-7c-3.9,0-7,3.1-7,7c0,3.9,3.1,7,7,7c3.9,0,7-3.1,7-7H20.9h-0.7
			c0,1.6-0.6,3-1.7,4c-1,1-2.5,1.7-4,1.7c-1.6,0-3-0.6-4-1.7c-1-1-1.7-2.5-1.7-4c0-1.6,0.6-3,1.7-4c1-1,2.5-1.7,4-1.7
			c1.6,0,3,0.6,4,1.7c1,1,1.7,2.5,1.7,4H20.9z"/>
		<circle class="st0" cx="52.8" cy="12.1" r="6.4"/>
		<path class="st1" d="M59.2,12.1h0.7c0-3.9-3.1-7-7-7c-3.9,0-7,3.1-7,7c0,3.9,3.1,7,7,7c3.9,0,7-3.1,7-7H59.2h-0.7
			c0,1.6-0.6,3-1.7,4c-1,1-2.5,1.7-4,1.7c-1.6,0-3-0.6-4-1.7c-1-1-1.7-2.5-1.7-4c0-1.6,0.6-3,1.7-4c1-1,2.5-1.7,4-1.7
			c1.6,0,3,0.6,4,1.7c1,1,1.7,2.5,1.7,4H59.2z"/>
		<circle class="st0" cx="37.1" cy="10" r="6.4"/>
		<path class="st1" d="M43.4,10h0.7c0-3.9-3.1-7-7-7c-3.9,0-7,3.1-7,7c0,3.9,3.1,7,7,7c3.9,0,7-3.1,7-7H43.4h-0.7c0,1.6-0.6,3-1.7,4
			c-1,1-2.5,1.7-4,1.7c-1.6,0-3-0.6-4-1.7c-1-1-1.7-2.5-1.7-4c0-1.6,0.6-3,1.7-4c1-1,2.5-1.7,4-1.7c1.6,0,3,0.6,4,1.7
			c1,1,1.7,2.5,1.7,4H43.4z"/>
		<circle class="st0" cx="25.9" cy="12.8" r="6.4"/>
		<path class="st1" d="M32.3,12.8h0.7c0-3.9-3.1-7-7-7c-3.9,0-7,3.1-7,7c0,3.9,3.1,7,7,7c3.9,0,7-3.1,7-7H32.3h-0.7
			c0,1.6-0.6,3-1.7,4c-1,1-2.5,1.7-4,1.7c-1.6,0-3-0.6-4-1.7c-1-1-1.7-2.5-1.7-4c0-1.6,0.6-3,1.7-4c1-1,2.5-1.7,4-1.7
			c1.6,0,3,0.6,4,1.7c1,1,1.7,2.5,1.7,4H32.3z"/>
		<circle class="st0" cx="61.5" cy="18.5" r="6.4"/>
		<path class="st1" d="M67.8,18.5h0.7c0-3.9-3.1-7-7-7c-3.9,0-7,3.1-7,7c0,3.9,3.1,7,7,7c3.9,0,7-3.1,7-7H67.8h-0.7
			c0,1.6-0.6,3-1.7,4c-1,1-2.5,1.7-4,1.7c-1.6,0-3-0.6-4-1.7c-1-1-1.7-2.5-1.7-4c0-1.6,0.6-3,1.7-4c1-1,2.5-1.7,4-1.7
			c1.6,0,3,0.6,4,1.7c1,1,1.7,2.5,1.7,4H67.8z"/>
		<circle class="st0" cx="52.8" cy="21.9" r="6.4"/>
		<path class="st1" d="M59.2,21.9h0.7c0-3.9-3.1-7-7-7c-3.9,0-7,3.1-7,7c0,3.9,3.1,7,7,7c3.9,0,7-3.1,7-7H59.2h-0.7
			c0,1.6-0.6,3-1.7,4c-1,1-2.5,1.7-4,1.7c-1.6,0-3-0.6-4-1.7c-1-1-1.7-2.5-1.7-4c0-1.6,0.6-3,1.7-4c1-1,2.5-1.7,4-1.7
			c1.6,0,3,0.6,4,1.7c1,1,1.7,2.5,1.7,4H59.2z"/>
		<circle class="st0" cx="29.9" cy="15.6" r="6.4"/>
		<path class="st1" d="M36.3,15.6h0.7c0-3.9-3.1-7-7-7c-3.9,0-7,3.1-7,7c0,3.9,3.1,7,7,7c3.9,0,7-3.1,7-7H36.3h-0.7
			c0,1.6-0.6,3-1.7,4c-1,1-2.5,1.7-4,1.7c-1.6,0-3-0.6-4-1.7c-1-1-1.7-2.5-1.7-4c0-1.6,0.6-3,1.7-4c1-1,2.5-1.7,4-1.7
			c1.6,0,3,0.6,4,1.7c1,1,1.7,2.5,1.7,4H36.3z"/>
		<circle class="st0" cx="43.1" cy="15.6" r="6.4"/>
		<path class="st1" d="M49.5,15.6h0.7c0-3.9-3.1-7-7-7c-3.9,0-7,3.1-7,7c0,3.9,3.1,7,7,7c3.9,0,7-3.1,7-7H49.5h-0.7
			c0,1.6-0.6,3-1.7,4c-1,1-2.5,1.7-4,1.7c-1.6,0-3-0.6-4-1.7c-1-1-1.7-2.5-1.7-4c0-1.6,0.6-3,1.7-4c1-1,2.5-1.7,4-1.7
			c1.6,0,3,0.6,4,1.7c1,1,1.7,2.5,1.7,4H49.5z"/>
		<circle class="st0" cx="20.9" cy="21.5" r="6.4"/>
		<path class="st1" d="M27.3,21.5h0.7c0-3.9-3.1-7-7-7c-3.9,0-7,3.1-7,7c0,3.9,3.1,7,7,7c3.9,0,7-3.1,7-7H27.3h-0.7
			c0,1.6-0.6,3-1.7,4c-1,1-2.5,1.7-4,1.7c-1.6,0-3-0.6-4-1.7c-1-1-1.7-2.5-1.7-4c0-1.6,0.6-3,1.7-4c1-1,2.5-1.7,4-1.7
			c1.6,0,3,0.6,4,1.7c1,1,1.7,2.5,1.7,4H27.3z"/>
		<circle class="st0" cx="43.7" cy="21.9" r="6.4"/>
		<path class="st1" d="M50.1,21.9h0.7c0-3.9-3.1-7-7-7c-3.9,0-7,3.1-7,7c0,3.9,3.1,7,7,7c3.9,0,7-3.1,7-7H50.1h-0.7
			c0,1.6-0.6,3-1.7,4c-1,1-2.5,1.7-4,1.7c-1.6,0-3-0.6-4-1.7c-1-1-1.7-2.5-1.7-4c0-1.6,0.6-3,1.7-4c1-1,2.5-1.7,4-1.7
			c1.6,0,3,0.6,4,1.7c1,1,1.7,2.5,1.7,4H50.1z"/>
		<circle class="st0" cx="32.3" cy="21.9" r="6.4"/>
		<path class="st1" d="M38.6,21.9h0.7c0-3.9-3.1-7-7-7c-3.9,0-7,3.1-7,7c0,3.9,3.1,7,7,7c3.9,0,7-3.1,7-7H38.6H38c0,1.6-0.6,3-1.7,4
			c-1,1-2.5,1.7-4,1.7c-1.6,0-3-0.6-4-1.7c-1-1-1.7-2.5-1.7-4c0-1.6,0.6-3,1.7-4c1-1,2.5-1.7,4-1.7c1.6,0,3,0.6,4,1.7
			c1,1,1.7,2.5,1.7,4H38.6z"/>
		<circle class="st0" cx="37.7" cy="36.4" r="6.4"/>
		<path class="st1" d="M44,36.4h0.7c0-3.9-3.1-7-7-7c-3.9,0-7,3.1-7,7c0,3.9,3.1,7,7,7c3.9,0,7-3.1,7-7H44h-0.7c0,1.6-0.6,3-1.7,4
			c-1,1-2.5,1.7-4,1.7c-1.6,0-3-0.6-4-1.7c-1-1-1.7-2.5-1.7-4c0-1.6,0.6-3,1.7-4c1-1,2.5-1.7,4-1.7c1.6,0,3,0.6,4,1.7
			c1,1,1.7,2.5,1.7,4H44z"/>
		<g>
			<circle class="st0" cx="18.5" cy="30" r="6.4"/>
			<path class="st1" d="M24.9,30h0.7c0-3.9-3.1-7-7-7c-3.9,0-7,3.1-7,7c0,3.9,3.1,7,7,7c3.9,0,7-3.1,7-7H24.9h-0.7
				c0,1.6-0.6,3-1.7,4c-1,1-2.5,1.7-4,1.7c-1.6,0-3-0.6-4-1.7c-1-1-1.7-2.5-1.7-4c0-1.6,0.6-3,1.7-4c1-1,2.5-1.7,4-1.7
				c1.6,0,3,0.6,4,1.7c1,1,1.7,2.5,1.7,4H24.9z"/>
		</g>
		<circle class="st0" cx="30.7" cy="43.4" r="6.4"/>
		<path class="st1" d="M37.1,43.4h0.7c0-3.9-3.1-7-7-7c-3.9,0-7,3.1-7,7c0,3.9,3.1,7,7,7c3.9,0,7-3.1,7-7H37.1h-0.7
			c0,1.6-0.6,3-1.7,4c-1,1-2.5,1.7-4,1.7c-1.6,0-3-0.6-4-1.7c-1-1-1.7-2.5-1.7-4c0-1.6,0.6-3,1.7-4c1-1,2.5-1.7,4-1.7
			c1.6,0,3,0.6,4,1.7c1,1,1.7,2.5,1.7,4H37.1z"/>
		<circle class="st0" cx="49.5" cy="45.1" r="6.4"/>
		<path class="st1" d="M55.8,45.1h0.7c0-3.9-3.1-7-7-7c-3.9,0-7,3.1-7,7c0,3.9,3.1,7,7,7c3.9,0,7-3.1,7-7H55.8h-0.7
			c0,1.6-0.6,3-1.7,4c-1,1-2.5,1.7-4,1.7c-1.6,0-3-0.6-4-1.7c-1-1-1.7-2.5-1.7-4c0-1.6,0.6-3,1.7-4c1-1,2.5-1.7,4-1.7
			c1.6,0,3,0.6,4,1.7c1,1,1.7,2.5,1.7,4H55.8z"/>
		<circle class="st0" cx="55.1" cy="29.3" r="6.4"/>
		<path class="st1" d="M61.5,29.3h0.7c0-3.9-3.1-7-7-7c-3.9,0-7,3.1-7,7c0,3.9,3.1,7,7,7c3.9,0,7-3.1,7-7H61.5h-0.7
			c0,1.6-0.6,3-1.7,4c-1,1-2.5,1.7-4,1.7c-1.6,0-3-0.6-4-1.7c-1-1-1.7-2.5-1.7-4c0-1.6,0.6-3,1.7-4c1-1,2.5-1.7,4-1.7
			c1.6,0,3,0.6,4,1.7c1,1,1.7,2.5,1.7,4H61.5z"/>
	</g>
</g>
</svg>
