<?xml version="1.0" encoding="utf-8"?>
<!-- Generator: Adobe Illustrator 22.1.0, SVG Export Plug-In . SVG Version: 6.00 Build 0)  -->
<svg version="1.1" id="Layer_1" xmlns="http://www.w3.org/2000/svg" xmlns:xlink="http://www.w3.org/1999/xlink" x="0px" y="0px"
	 viewBox="0 0 140 52.8" style="enable-background:new 0 0 140 52.8;" xml:space="preserve">
<style type="text/css">
	.st0{fill:#DAEDF1;}
	.st1{fill:#28373A;}
	.st2{fill:#5C903F;}
	.st3{fill:#77C045;}
	.st4{fill:#D72C27;}
	.st5{fill:#D65629;}
	.st6{fill:#7AC143;}
</style>
<g>
	<path class="st0" d="M45.1,6.6c0,2.9-9.9,5.2-22.2,5.2c-12.2,0-22.2-2.3-22.2-5.2c0-2.9,9.9-5.3,22.2-5.3
		C35.2,1.4,45.1,3.7,45.1,6.6z"/>
	<path class="st1" d="M45.1,6.6h-0.8c0,0.1,0,0.3-0.3,0.5c-0.4,0.4-1.2,1-2.4,1.4c-1.9,0.7-4.5,1.3-7.7,1.8
		c-3.2,0.4-6.9,0.7-10.9,0.7c-6.1,0-11.6-0.6-15.5-1.5c-2-0.5-3.5-1-4.5-1.6C2.4,7.7,2,7.4,1.8,7.2C1.6,6.9,1.6,6.8,1.6,6.6
		c0-0.1,0-0.3,0.3-0.5c0.4-0.4,1.2-1,2.4-1.4C6.1,3.9,8.8,3.3,12,2.9C15.2,2.4,19,2.2,23,2.2c6.1,0,11.6,0.6,15.5,1.5
		c2,0.5,3.5,1,4.5,1.6c0.5,0.3,0.9,0.6,1.1,0.8c0.2,0.2,0.3,0.4,0.3,0.5H45.1h0.8c0-0.6-0.3-1.1-0.6-1.6c-0.7-0.8-1.7-1.3-3.1-1.9
		c-2-0.8-4.8-1.4-8.1-1.9C30.8,0.8,27,0.6,23,0.6c-6.2,0-11.8,0.6-15.9,1.6C5,2.6,3.4,3.2,2.1,3.9C1.5,4.2,1,4.6,0.6,5.1
		C0.3,5.5,0,6,0,6.6c0,0.6,0.3,1.1,0.6,1.6C1.3,9,2.4,9.6,3.7,10.1c2,0.8,4.8,1.4,8.1,1.9c3.3,0.4,7.1,0.7,11.1,0.7
		c6.2,0,11.8-0.6,15.9-1.6c2.1-0.5,3.7-1.1,5-1.7c0.6-0.3,1.1-0.7,1.5-1.2c0.4-0.4,0.6-1,0.6-1.6H45.1z"/>
	<path class="st2" d="M45.1,6.6v26.7c0,2.9-9.9,5.3-22.2,5.3c-12.2,0-22.2-2.3-22.2-5.3V6.6c0,2.9,9.9,5.2,22.2,5.2
		C35.2,11.9,45.1,9.5,45.1,6.6z"/>
	<path class="st1" d="M45.1,6.6h-0.8v26.7c0,0.1,0,0.3-0.3,0.5c-0.4,0.4-1.2,1-2.4,1.4c-1.9,0.7-4.5,1.3-7.7,1.8
		c-3.2,0.4-6.9,0.7-10.9,0.7c-6.1,0-11.6-0.6-15.5-1.5c-2-0.5-3.5-1-4.5-1.6c-0.5-0.3-0.9-0.6-1.1-0.8c-0.2-0.2-0.3-0.4-0.3-0.5V6.6
		H0c0,0.6,0.3,1.1,0.6,1.6C1.3,9,2.4,9.6,3.7,10.1c2,0.8,4.8,1.4,8.1,1.9c3.3,0.4,7.1,0.7,11.1,0.7c6.2,0,11.8-0.6,15.9-1.6
		c2.1-0.5,3.7-1.1,5-1.7c0.6-0.3,1.1-0.7,1.5-1.2c0.4-0.4,0.6-1,0.6-1.6h-1.6H45.1h-0.8c0,0.1,0,0.3-0.3,0.5c-0.4,0.4-1.2,1-2.4,1.4
		c-1.9,0.7-4.5,1.3-7.7,1.8c-3.2,0.4-6.9,0.7-10.9,0.7c-6.1,0-11.6-0.6-15.5-1.5c-2-0.5-3.5-1-4.5-1.6C2.4,7.7,2,7.4,1.8,7.2
		C1.6,6.9,1.6,6.8,1.6,6.6H0v26.7c0,0.6,0.3,1.1,0.6,1.6c0.7,0.8,1.7,1.4,3.1,1.9c2,0.8,4.8,1.4,8.1,1.9c3.3,0.4,7.1,0.7,11.1,0.7
		c6.2,0,11.8-0.6,15.9-1.6c2.1-0.5,3.7-1.1,5-1.7c0.6-0.3,1.1-0.7,1.5-1.2c0.4-0.4,0.6-1,0.6-1.6V6.6h-1.6H45.1z"/>
	<path class="st3" d="M42.2,21c0.2,0,0.4,0.3,0.4,0.7v8.6c0,1.7-5.7,3.1-12.8,3.1c-0.2,0-0.4-0.3-0.4-0.7c0-0.4,0.2-0.7,0.4-0.7
		c6.5-0.2,11.5-1.5,11.5-3.1v-7.2c0-0.4,0.2-0.7,0.4-0.7H42.2z"/>
	<ellipse class="st4" cx="23" cy="6.6" rx="13" ry="1.9"/>
	<path class="st1" d="M36,6.6h0.4c0-0.2-0.1-0.3-0.1-0.4c-0.2-0.2-0.4-0.3-0.6-0.5c-0.5-0.2-1.1-0.4-1.9-0.6
		C31.3,4.7,27.4,4.4,23,4.4c-3.6,0-6.9,0.2-9.3,0.6c-1.2,0.2-2.2,0.4-2.9,0.6c-0.4,0.1-0.6,0.2-0.9,0.4C9.9,6,9.8,6.1,9.7,6.2
		C9.6,6.3,9.5,6.5,9.5,6.6c0,0.2,0.1,0.3,0.1,0.4c0.2,0.2,0.4,0.3,0.6,0.5c0.5,0.2,1.1,0.4,1.9,0.6c2.4,0.5,6.3,0.8,10.8,0.8
		c3.6,0,6.9-0.2,9.3-0.6c1.2-0.2,2.2-0.4,2.9-0.6c0.4-0.1,0.6-0.2,0.9-0.4c0.1-0.1,0.2-0.2,0.3-0.3c0.1-0.1,0.1-0.3,0.1-0.4H36h-0.4
		h0.1l-0.1,0l0,0h0.1l-0.1,0l0,0l0,0l0,0l0,0l0,0c0,0-0.1,0.1-0.3,0.2c-0.3,0.2-0.9,0.3-1.7,0.5C31.3,7.8,27.4,8.1,23,8.1
		c-3.6,0-6.8-0.2-9.2-0.5c-1.2-0.2-2.1-0.4-2.7-0.6c-0.3-0.1-0.5-0.2-0.7-0.3l-0.1-0.1l0,0l0,0l0,0l0,0l0,0l-0.1,0l0.1,0l0,0l-0.1,0
		l0.1,0h-0.1l0.1,0l0,0h-0.1l0.1,0l0,0l0,0l0,0l0,0l0,0c0,0,0.1-0.1,0.3-0.2c0.3-0.2,0.9-0.3,1.7-0.5c2.3-0.5,6.2-0.8,10.6-0.8
		c3.6,0,6.8,0.2,9.2,0.5c1.2,0.2,2.1,0.4,2.7,0.6c0.3,0.1,0.5,0.2,0.7,0.3l0.1,0.1l0,0l0,0l0,0l0,0l0,0l0.1,0l-0.1,0l0,0l0.1,0
		l-0.1,0H36z"/>
	<path class="st0" d="M91.9,6.6c0,2.9-9.9,5.2-22.2,5.2c-12.2,0-22.2-2.3-22.2-5.2c0-2.9,9.9-5.3,22.2-5.3C82,1.4,91.9,3.7,91.9,6.6
		z"/>
	<path class="st1" d="M91.9,6.6h-0.8c0,0.1,0,0.3-0.3,0.5c-0.4,0.4-1.2,1-2.4,1.4c-1.9,0.7-4.5,1.3-7.7,1.8
		c-3.2,0.4-6.9,0.7-10.9,0.7c-6.1,0-11.6-0.6-15.5-1.5c-2-0.5-3.5-1-4.5-1.6c-0.5-0.3-0.9-0.6-1.1-0.8c-0.2-0.2-0.3-0.4-0.3-0.5
		c0-0.1,0-0.3,0.3-0.5c0.4-0.4,1.2-1,2.4-1.4c1.9-0.7,4.5-1.4,7.7-1.8c3.2-0.4,6.9-0.7,10.9-0.7c6.1,0,11.6,0.6,15.5,1.5
		c2,0.5,3.5,1,4.5,1.6c0.5,0.3,0.9,0.6,1.1,0.8c0.2,0.2,0.3,0.4,0.3,0.5H91.9h0.8c0-0.6-0.3-1.1-0.6-1.6c-0.7-0.8-1.7-1.3-3.1-1.9
		c-2-0.8-4.8-1.4-8.1-1.9c-3.3-0.4-7.1-0.7-11.1-0.7c-6.2,0-11.8,0.6-15.9,1.6c-2.1,0.5-3.7,1.1-5,1.7c-0.6,0.3-1.1,0.7-1.5,1.2
		c-0.4,0.4-0.6,1-0.6,1.6c0,0.6,0.3,1.1,0.6,1.6c0.7,0.8,1.7,1.3,3.1,1.9c2,0.8,4.8,1.4,8.1,1.9c3.3,0.4,7.1,0.7,11.1,0.7
		c6.2,0,11.8-0.6,15.9-1.6c2.1-0.5,3.7-1.1,5-1.7c0.6-0.3,1.1-0.7,1.5-1.2c0.4-0.4,0.6-1,0.6-1.6H91.9z"/>
	<path class="st2" d="M91.9,6.6v26.7c0,2.9-9.9,5.3-22.2,5.3c-12.2,0-22.2-2.3-22.2-5.3V6.6c0,2.9,9.9,5.2,22.2,5.2
		C82,11.9,91.9,9.5,91.9,6.6z"/>
	<path class="st1" d="M91.9,6.6h-0.8v26.7c0,0.1,0,0.3-0.3,0.5c-0.4,0.4-1.2,1-2.4,1.4c-1.9,0.7-4.5,1.3-7.7,1.8
		c-3.2,0.4-6.9,0.7-10.9,0.7c-6.1,0-11.6-0.6-15.5-1.5c-2-0.5-3.5-1-4.5-1.6c-0.5-0.3-0.9-0.6-1.1-0.8c-0.2-0.2-0.3-0.4-0.3-0.5V6.6
		h-1.6c0,0.6,0.3,1.1,0.6,1.6c0.7,0.8,1.7,1.3,3.1,1.9c2,0.8,4.8,1.4,8.1,1.9c3.3,0.4,7.1,0.7,11.1,0.7c6.2,0,11.8-0.6,15.9-1.6
		c2.1-0.5,3.7-1.1,5-1.7c0.6-0.3,1.1-0.7,1.5-1.2c0.4-0.4,0.6-1,0.6-1.6h-1.6H91.9h-0.8c0,0.1,0,0.3-0.3,0.5c-0.4,0.4-1.2,1-2.4,1.4
		c-1.9,0.7-4.5,1.3-7.7,1.8c-3.2,0.4-6.9,0.7-10.9,0.7c-6.1,0-11.6-0.6-15.5-1.5c-2-0.5-3.5-1-4.5-1.6c-0.5-0.3-0.9-0.6-1.1-0.8
		c-0.2-0.2-0.3-0.4-0.3-0.5h-1.6v26.7c0,0.6,0.3,1.1,0.6,1.6c0.7,0.8,1.7,1.4,3.1,1.9c2,0.8,4.8,1.4,8.1,1.9
		c3.3,0.4,7.1,0.7,11.1,0.7c6.2,0,11.8-0.6,15.9-1.6c2.1-0.5,3.7-1.1,5-1.7c0.6-0.3,1.1-0.7,1.5-1.2c0.4-0.4,0.6-1,0.6-1.6V6.6h-1.6
		H91.9z"/>
	<path class="st3" d="M88.9,21c0.2,0,0.4,0.3,0.4,0.7v8.6c0,1.7-5.7,3.1-12.8,3.1c-0.2,0-0.4-0.3-0.4-0.7c0-0.4,0.2-0.7,0.4-0.7
		c6.5-0.2,11.5-1.5,11.5-3.1v-7.2c0-0.4,0.2-0.7,0.4-0.7H88.9z"/>
	<ellipse class="st5" cx="69.7" cy="6.6" rx="13" ry="1.9"/>
	<path class="st1" d="M82.8,6.6h0.4c0-0.2-0.1-0.3-0.1-0.4c-0.2-0.2-0.4-0.3-0.6-0.5c-0.5-0.2-1.1-0.4-1.9-0.6
		c-2.4-0.5-6.3-0.8-10.8-0.8c-3.6,0-6.9,0.2-9.3,0.6c-1.2,0.2-2.2,0.4-2.9,0.6c-0.4,0.1-0.6,0.2-0.9,0.4c-0.1,0.1-0.2,0.2-0.3,0.3
		c-0.1,0.1-0.1,0.3-0.1,0.4c0,0.2,0.1,0.3,0.1,0.4c0.2,0.2,0.4,0.3,0.6,0.5c0.5,0.2,1.1,0.4,1.9,0.6c2.4,0.5,6.3,0.8,10.8,0.8
		c3.6,0,6.9-0.2,9.3-0.6c1.2-0.2,2.2-0.4,2.9-0.6c0.4-0.1,0.6-0.2,0.9-0.4c0.1-0.1,0.2-0.2,0.3-0.3c0.1-0.1,0.1-0.3,0.1-0.4H82.8
		h-0.4h0.1l-0.1,0l0,0h0.1l-0.1,0l0,0l0,0l0,0l0,0l0,0c0,0-0.1,0.1-0.3,0.2c-0.3,0.2-0.9,0.3-1.7,0.5C78,7.8,74.1,8.1,69.7,8.1
		c-3.6,0-6.8-0.2-9.2-0.5c-1.2-0.2-2.1-0.4-2.7-0.6c-0.3-0.1-0.5-0.2-0.7-0.3l-0.1-0.1l0,0l0,0l0,0l0,0l0,0l-0.1,0l0.1,0l0,0l-0.1,0
		l0.1,0H57l0.1,0l0,0H57l0.1,0l0,0l0,0l0,0l0,0l0,0c0,0,0.1-0.1,0.3-0.2c0.3-0.2,0.9-0.3,1.7-0.5c2.3-0.5,6.2-0.8,10.6-0.8
		c3.6,0,6.8,0.2,9.2,0.5c1.2,0.2,2.1,0.4,2.7,0.6c0.3,0.1,0.5,0.2,0.7,0.3l0.1,0.1l0,0l0,0l0,0l0,0l0,0l0.1,0l-0.1,0l0,0l0.1,0
		l-0.1,0H82.8z"/>
	<path class="st0" d="M67.3,19.4c0,2.9-9.9,5.2-22.2,5.2c-12.2,0-22.2-2.3-22.2-5.2c0-2.9,9.9-5.2,22.2-5.2
		C57.4,14.1,67.3,16.5,67.3,19.4z"/>
	<path class="st1" d="M67.3,19.4h-0.8c0,0.1,0,0.3-0.3,0.5c-0.4,0.4-1.2,1-2.4,1.4c-1.9,0.7-4.5,1.3-7.7,1.8
		c-3.2,0.4-6.9,0.7-10.9,0.7c-6.1,0-11.6-0.6-15.5-1.5c-2-0.5-3.5-1-4.5-1.6c-0.5-0.3-0.9-0.6-1.1-0.8c-0.2-0.2-0.3-0.4-0.3-0.5
		c0-0.1,0-0.3,0.3-0.5c0.4-0.4,1.2-1,2.4-1.4c1.9-0.7,4.5-1.4,7.7-1.8c3.2-0.4,6.9-0.7,10.9-0.7c6.1,0,11.6,0.6,15.5,1.5
		c2,0.5,3.5,1,4.5,1.6c0.5,0.3,0.9,0.6,1.1,0.8c0.2,0.2,0.3,0.4,0.3,0.5H67.3h0.8c0-0.6-0.3-1.1-0.6-1.6c-0.7-0.8-1.7-1.3-3.1-1.9
		c-2-0.8-4.8-1.4-8.1-1.9c-3.3-0.4-7.1-0.7-11.1-0.7c-6.2,0-11.8,0.6-15.9,1.6c-2.1,0.5-3.7,1.1-5,1.7c-0.6,0.3-1.1,0.7-1.5,1.2
		c-0.4,0.4-0.6,1-0.6,1.6c0,0.6,0.3,1.1,0.6,1.6c0.7,0.8,1.7,1.4,3.1,1.9c2,0.8,4.8,1.4,8.1,1.9c3.3,0.4,7.1,0.7,11.1,0.7
		c6.2,0,11.8-0.6,15.9-1.6c2.1-0.5,3.7-1.1,5-1.7c0.6-0.3,1.1-0.7,1.5-1.2c0.4-0.4,0.6-1,0.6-1.6H67.3z"/>
	<path class="st2" d="M67.3,19.4v26.7c0,2.9-9.9,5.2-22.2,5.2C32.9,51.3,23,49,23,46.1V19.4c0,2.9,9.9,5.2,22.2,5.2
		C57.4,24.6,67.3,22.3,67.3,19.4z"/>
	<path class="st1" d="M67.3,19.4h-0.8v26.7c0,0.1,0,0.3-0.3,0.5c-0.4,0.4-1.2,1-2.4,1.4c-1.9,0.7-4.5,1.3-7.7,1.8
		c-3.2,0.4-6.9,0.7-10.9,0.7c-6.1,0-11.6-0.6-15.5-1.5c-2-0.5-3.5-1-4.5-1.6c-0.5-0.3-0.9-0.6-1.1-0.8c-0.2-0.2-0.3-0.4-0.3-0.5
		V19.4h-1.6c0,0.6,0.3,1.1,0.6,1.6c0.7,0.8,1.7,1.4,3.1,1.9c2,0.8,4.8,1.4,8.1,1.9c3.3,0.4,7.1,0.7,11.1,0.7
		c6.2,0,11.8-0.6,15.9-1.6c2.1-0.5,3.7-1.1,5-1.7c0.6-0.3,1.1-0.7,1.5-1.2c0.4-0.4,0.6-1,0.6-1.6h-1.6H67.3h-0.8
		c0,0.1,0,0.3-0.3,0.5c-0.4,0.4-1.2,1-2.4,1.4c-1.9,0.7-4.5,1.3-7.7,1.8c-3.2,0.4-6.9,0.7-10.9,0.7c-6.1,0-11.6-0.6-15.5-1.5
		c-2-0.5-3.5-1-4.5-1.6c-0.5-0.3-0.9-0.6-1.1-0.8c-0.2-0.2-0.3-0.4-0.3-0.5h-1.6v26.7c0,0.6,0.3,1.1,0.6,1.6
		c0.7,0.8,1.7,1.4,3.1,1.9c2,0.8,4.8,1.4,8.1,1.9c3.3,0.4,7.1,0.7,11.1,0.7c6.2,0,11.8-0.6,15.9-1.6c2.1-0.5,3.7-1.1,5-1.7
		c0.6-0.3,1.1-0.7,1.5-1.2c0.4-0.4,0.6-1,0.6-1.6V19.4h-1.6H67.3z"/>
	<path class="st3" d="M64.3,33.7c0.2,0,0.4,0.3,0.4,0.7V43c0,1.7-5.7,3.1-12.8,3.1c-0.2,0-0.4-0.3-0.4-0.7c0-0.4,0.2-0.7,0.4-0.7
		c6.5-0.2,11.5-1.5,11.5-3.1v-7.2c0-0.4,0.2-0.7,0.4-0.7H64.3z"/>
	<ellipse class="st6" cx="45.1" cy="19.4" rx="13" ry="1.9"/>
	<path class="st1" d="M58.2,19.4h0.4c0-0.2-0.1-0.3-0.1-0.4c-0.2-0.2-0.4-0.3-0.6-0.5c-0.5-0.2-1.1-0.4-1.9-0.6
		c-2.4-0.5-6.3-0.8-10.8-0.8c-3.6,0-6.9,0.2-9.3,0.6c-1.2,0.2-2.2,0.4-2.9,0.6c-0.4,0.1-0.6,0.2-0.9,0.4c-0.1,0.1-0.2,0.2-0.3,0.3
		c-0.1,0.1-0.1,0.3-0.1,0.4c0,0.2,0.1,0.3,0.1,0.4c0.2,0.2,0.4,0.3,0.6,0.5c0.5,0.2,1.1,0.4,1.9,0.6c2.4,0.5,6.3,0.8,10.8,0.8
		c3.6,0,6.9-0.2,9.3-0.6c1.2-0.2,2.2-0.4,2.9-0.6c0.4-0.1,0.6-0.2,0.9-0.4c0.1-0.1,0.2-0.2,0.3-0.3c0.1-0.1,0.1-0.3,0.1-0.4H58.2
		h-0.4h0.1l-0.1,0l0,0h0.1l-0.1,0l0,0l0,0l0,0l0,0l0,0c0,0-0.1,0.1-0.3,0.2c-0.3,0.2-0.9,0.3-1.7,0.5c-2.3,0.5-6.2,0.8-10.6,0.8
		c-3.6,0-6.8-0.2-9.2-0.5c-1.2-0.2-2.1-0.4-2.7-0.6c-0.3-0.1-0.5-0.2-0.7-0.3l-0.1-0.1l0,0l0,0l0,0l0,0l0,0l-0.1,0l0.1,0l0,0l-0.1,0
		l0.1,0h-0.1l0.1,0l0,0h-0.1l0.1,0l0,0l0,0l0,0l0,0l0,0c0,0,0.1-0.1,0.3-0.2c0.3-0.2,0.9-0.3,1.7-0.5c2.3-0.5,6.2-0.8,10.6-0.8
		c3.6,0,6.8,0.2,9.2,0.5c1.2,0.2,2.1,0.4,2.7,0.6c0.3,0.1,0.5,0.2,0.7,0.3l0.1,0.1l0,0l0,0l0,0l0,0l0,0l0.1,0l-0.1,0l0,0l0.1,0
		l-0.1,0H58.2z"/>
	<g>
		<path class="st3" d="M114.1,7.6c0.2,0,0.4,0.3,0.4,0.7v8.6c0,1.7-5.7,3.1-12.8,3.1c-0.2,0-0.4-0.3-0.4-0.7c0-0.4,0.2-0.7,0.4-0.7
			c6.5-0.2,11.5-1.5,11.5-3.1V8.3c0-0.4,0.2-0.7,0.4-0.7H114.1z"/>
		<path class="st0" d="M139.2,6c0,2.9-9.9,5.2-22.2,5.2c-12.2,0-22.2-2.3-22.2-5.2c0-2.9,9.9-5.2,22.2-5.2
			C129.3,0.8,139.2,3.1,139.2,6z"/>
		<path class="st1" d="M139.2,6h-0.8c0,0.1,0,0.3-0.3,0.5c-0.4,0.4-1.2,1-2.4,1.4c-1.9,0.7-4.5,1.3-7.7,1.8
			c-3.2,0.4-6.9,0.7-10.9,0.7c-6.1,0-11.6-0.6-15.5-1.5c-2-0.5-3.5-1-4.5-1.6c-0.5-0.3-0.9-0.6-1.1-0.8c-0.2-0.2-0.3-0.4-0.3-0.5
			c0-0.1,0-0.3,0.3-0.5c0.4-0.4,1.2-1,2.4-1.4c1.9-0.7,4.5-1.4,7.7-1.8c3.2-0.4,6.9-0.7,10.9-0.7c6.1,0,11.6,0.6,15.5,1.5
			c2,0.5,3.5,1,4.5,1.6c0.5,0.3,0.9,0.6,1.1,0.8c0.2,0.2,0.3,0.4,0.3,0.5H139.2h0.8c0-0.6-0.3-1.1-0.6-1.6c-0.7-0.8-1.7-1.3-3.1-1.9
			c-2-0.8-4.8-1.4-8.1-1.9C124.9,0.3,121.1,0,117,0c-6.2,0-11.8,0.6-15.9,1.6c-2.1,0.5-3.7,1.1-5,1.7c-0.6,0.3-1.1,0.7-1.5,1.2
			c-0.4,0.4-0.6,1-0.6,1.6c0,0.6,0.3,1.1,0.6,1.6c0.7,0.8,1.7,1.4,3.1,1.9c2,0.8,4.8,1.4,8.1,1.9c3.3,0.4,7.1,0.7,11.1,0.7
			c6.2,0,11.8-0.6,15.9-1.6c2.1-0.5,3.7-1.1,5-1.7c0.6-0.3,1.1-0.7,1.5-1.2c0.4-0.4,0.6-1,0.6-1.6H139.2z"/>
		<path class="st2" d="M139.2,6v26.7c0,2.9-9.9,5.2-22.2,5.2c-12.2,0-22.2-2.3-22.2-5.2V6c0,2.9,9.9,5.2,22.2,5.2
			C129.3,11.3,139.2,8.9,139.2,6z"/>
		<path class="st1" d="M139.2,6h-0.8v26.7c0,0.1,0,0.3-0.3,0.5c-0.4,0.4-1.2,1-2.4,1.4c-1.9,0.7-4.5,1.3-7.7,1.8
			c-3.2,0.4-6.9,0.7-10.9,0.7c-6.1,0-11.6-0.6-15.5-1.5c-2-0.5-3.5-1-4.5-1.6c-0.5-0.3-0.9-0.6-1.1-0.8c-0.2-0.2-0.3-0.4-0.3-0.5V6
			h-1.6c0,0.6,0.3,1.1,0.6,1.6c0.7,0.8,1.7,1.4,3.1,1.9c2,0.8,4.8,1.4,8.1,1.9c3.3,0.4,7.1,0.7,11.1,0.7c6.2,0,11.8-0.6,15.9-1.6
			c2.1-0.5,3.7-1.1,5-1.7c0.6-0.3,1.1-0.7,1.5-1.2c0.4-0.4,0.6-1,0.6-1.6h-1.6H139.2h-0.8c0,0.1,0,0.3-0.3,0.5
			c-0.4,0.4-1.2,1-2.4,1.4c-1.9,0.7-4.5,1.3-7.7,1.8c-3.2,0.4-6.9,0.7-10.9,0.7c-6.1,0-11.6-0.6-15.5-1.5c-2-0.5-3.5-1-4.5-1.6
			c-0.5-0.3-0.9-0.6-1.1-0.8c-0.2-0.2-0.3-0.4-0.3-0.5h-1.6v26.7c0,0.6,0.3,1.1,0.6,1.6c0.7,0.8,1.7,1.4,3.1,1.9
			c2,0.8,4.8,1.4,8.1,1.9c3.3,0.4,7.1,0.7,11.1,0.7c6.2,0,11.8-0.6,15.9-1.6c2.1-0.5,3.7-1.1,5-1.7c0.6-0.3,1.1-0.7,1.5-1.2
			c0.4-0.4,0.6-1,0.6-1.6V6h-1.6H139.2z"/>
		<path class="st3" d="M136.2,20.4c0.2,0,0.4,0.3,0.4,0.7v8.6c0,1.7-5.7,3.1-12.8,3.1c-0.2,0-0.4-0.3-0.4-0.7c0-0.4,0.2-0.7,0.4-0.7
			c6.5-0.2,11.5-1.5,11.5-3.1v-7.2c0-0.4,0.2-0.7,0.4-0.7H136.2z"/>
		<ellipse class="st6" cx="117" cy="6" rx="13" ry="1.9"/>
		<path class="st1" d="M130.1,6h0.4c0-0.2-0.1-0.3-0.1-0.4c-0.2-0.2-0.4-0.3-0.6-0.5c-0.5-0.2-1.1-0.4-1.9-0.6
			c-2.4-0.5-6.3-0.8-10.8-0.8c-3.6,0-6.9,0.2-9.3,0.6c-1.2,0.2-2.2,0.4-2.9,0.6c-0.4,0.1-0.6,0.2-0.9,0.4c-0.1,0.1-0.2,0.2-0.3,0.3
			c-0.1,0.1-0.1,0.3-0.1,0.4c0,0.2,0.1,0.3,0.1,0.4c0.2,0.2,0.4,0.3,0.6,0.5c0.5,0.2,1.1,0.4,1.9,0.6c2.4,0.5,6.3,0.8,10.8,0.8
			c3.6,0,6.9-0.2,9.3-0.6c1.2-0.2,2.2-0.4,2.9-0.6c0.4-0.1,0.6-0.2,0.9-0.4c0.1-0.1,0.2-0.2,0.3-0.3c0.1-0.1,0.1-0.3,0.1-0.4H130.1
			h-0.4h0.1l-0.1,0l0,0h0.1l-0.1,0l0,0l0,0l0,0l0,0l0,0c0,0-0.1,0.1-0.3,0.2c-0.3,0.2-0.9,0.3-1.7,0.5c-2.3,0.5-6.2,0.8-10.6,0.8
			c-3.6,0-6.8-0.2-9.2-0.5c-1.2-0.2-2.1-0.4-2.7-0.6c-0.3-0.1-0.5-0.2-0.7-0.3L104.4,6l0,0l0,0l0,0l0,0l0,0l-0.1,0l0.1,0l0,0l-0.1,0
			l0.1,0h-0.1l0.1,0l0,0h-0.1l0.1,0l0,0l0,0l0,0l0,0l0,0c0,0,0.1-0.1,0.3-0.2c0.3-0.2,0.9-0.3,1.7-0.5c2.3-0.5,6.2-0.8,10.6-0.8
			c3.6,0,6.8,0.2,9.2,0.5c1.2,0.2,2.1,0.4,2.7,0.6c0.3,0.1,0.5,0.2,0.7,0.3l0.1,0.1l0,0l0,0l0,0l0,0l0,0l0.1,0l-0.1,0l0,0l0.1,0
			l-0.1,0H130.1z"/>
	</g>
	<path class="st0" d="M115.6,20c0,2.9-9.9,5.2-22.2,5.2c-12.2,0-22.2-2.3-22.2-5.2c0-2.9,9.9-5.3,22.2-5.3
		C105.6,14.8,115.6,17.2,115.6,20z"/>
	<path class="st1" d="M115.6,20h-0.8c0,0.1,0,0.3-0.3,0.5c-0.4,0.4-1.2,1-2.4,1.4c-1.9,0.7-4.5,1.3-7.7,1.8
		c-3.2,0.4-6.9,0.7-10.9,0.7c-6.1,0-11.6-0.6-15.5-1.5c-2-0.5-3.5-1-4.5-1.6c-0.5-0.3-0.9-0.6-1.1-0.8C72.1,20.3,72,20.2,72,20
		c0-0.1,0-0.3,0.3-0.5c0.4-0.4,1.2-1,2.4-1.4c1.9-0.7,4.5-1.4,7.7-1.8c3.2-0.4,6.9-0.7,10.9-0.7c6.1,0,11.6,0.6,15.5,1.5
		c2,0.5,3.5,1,4.5,1.6c0.5,0.3,0.9,0.6,1.1,0.8c0.2,0.2,0.3,0.4,0.3,0.5H115.6h0.8c0-0.6-0.3-1.1-0.6-1.6c-0.7-0.8-1.7-1.3-3.1-1.9
		c-2-0.8-4.8-1.4-8.1-1.9c-3.3-0.4-7.1-0.7-11.1-0.7c-6.2,0-11.8,0.6-15.9,1.6c-2.1,0.5-3.7,1.1-5,1.7c-0.6,0.3-1.1,0.7-1.5,1.2
		c-0.4,0.4-0.6,1-0.6,1.6c0,0.6,0.3,1.1,0.6,1.6c0.7,0.8,1.7,1.3,3.1,1.9c2,0.8,4.8,1.4,8.1,1.9c3.3,0.4,7.1,0.7,11.1,0.7
		c6.2,0,11.8-0.6,15.9-1.6c2.1-0.5,3.7-1.1,5-1.7c0.6-0.3,1.1-0.7,1.5-1.2c0.4-0.4,0.6-1,0.6-1.6H115.6z"/>
	<path class="st2" d="M115.6,20v26.7c0,2.9-9.9,5.3-22.2,5.3c-12.2,0-22.2-2.3-22.2-5.3V20c0,2.9,9.9,5.2,22.2,5.2
		C105.6,25.3,115.6,23,115.6,20z"/>
	<path class="st1" d="M115.6,20h-0.8v26.7c0,0.1,0,0.3-0.3,0.5c-0.4,0.4-1.2,1-2.4,1.4c-1.9,0.7-4.5,1.3-7.7,1.8
		c-3.2,0.4-6.9,0.7-10.9,0.7c-6.1,0-11.6-0.6-15.5-1.5c-2-0.5-3.5-1-4.5-1.6c-0.5-0.3-0.9-0.6-1.1-0.8C72.1,47,72,46.9,72,46.7V20
		h-1.6c0,0.6,0.3,1.1,0.6,1.6c0.7,0.8,1.7,1.3,3.1,1.9c2,0.8,4.8,1.4,8.1,1.9c3.3,0.4,7.1,0.7,11.1,0.7c6.2,0,11.8-0.6,15.9-1.6
		c2.1-0.5,3.7-1.1,5-1.7c0.6-0.3,1.1-0.7,1.5-1.2c0.4-0.4,0.6-1,0.6-1.6h-1.6H115.6h-0.8c0,0.1,0,0.3-0.3,0.5
		c-0.4,0.4-1.2,1-2.4,1.4c-1.9,0.7-4.5,1.3-7.7,1.8c-3.2,0.4-6.9,0.7-10.9,0.7c-6.1,0-11.6-0.6-15.5-1.5c-2-0.5-3.5-1-4.5-1.6
		c-0.5-0.3-0.9-0.6-1.1-0.8C72.1,20.3,72,20.2,72,20h-1.6v26.7c0,0.6,0.3,1.1,0.6,1.6c0.7,0.8,1.7,1.4,3.1,1.9
		c2,0.8,4.8,1.4,8.1,1.9c3.3,0.4,7.1,0.7,11.1,0.7c6.2,0,11.8-0.6,15.9-1.6c2.1-0.5,3.7-1.1,5-1.7c0.6-0.3,1.1-0.7,1.5-1.2
		c0.4-0.4,0.6-1,0.6-1.6V20h-1.6H115.6z"/>
	<path class="st3" d="M112.6,34.4c0.2,0,0.4,0.3,0.4,0.7v8.6c0,1.7-5.7,3.1-12.8,3.1c-0.2,0-0.4-0.3-0.4-0.7c0-0.4,0.2-0.7,0.4-0.7
		c6.5-0.2,11.5-1.5,11.5-3.1v-7.2c0-0.4,0.2-0.7,0.4-0.7H112.6z"/>
	<ellipse class="st4" cx="93.4" cy="20" rx="13" ry="1.9"/>
	<path class="st1" d="M106.4,20h0.4c0-0.2-0.1-0.3-0.1-0.4c-0.2-0.2-0.4-0.3-0.6-0.5c-0.5-0.2-1.1-0.4-1.9-0.6
		c-2.4-0.5-6.3-0.8-10.8-0.8c-3.6,0-6.9,0.2-9.3,0.6c-1.2,0.2-2.2,0.4-2.9,0.6c-0.4,0.1-0.6,0.2-0.9,0.4c-0.1,0.1-0.2,0.2-0.3,0.3
		C80,19.7,80,19.9,80,20c0,0.2,0.1,0.3,0.1,0.4c0.2,0.2,0.4,0.3,0.6,0.5c0.5,0.2,1.1,0.4,1.9,0.6C85,22,89,22.3,93.4,22.3
		c3.6,0,6.9-0.2,9.3-0.6c1.2-0.2,2.2-0.4,2.9-0.6c0.4-0.1,0.6-0.2,0.9-0.4c0.1-0.1,0.2-0.2,0.3-0.3c0.1-0.1,0.1-0.3,0.1-0.4H106.4
		H106h0.1l-0.1,0l0,0h0.1l-0.1,0l0,0l0,0l0,0l0,0l0,0c0,0-0.1,0.1-0.3,0.2c-0.3,0.2-0.9,0.3-1.7,0.5c-2.3,0.5-6.2,0.8-10.6,0.8
		c-3.6,0-6.8-0.2-9.2-0.5c-1.2-0.2-2.1-0.4-2.7-0.6c-0.3-0.1-0.5-0.2-0.7-0.3L80.8,20l0,0l0,0l0,0l0,0l0,0l-0.1,0l0.1,0l0,0l-0.1,0
		l0.1,0h-0.1l0.1,0l0,0h-0.1l0.1,0l0,0l0,0l0,0l0,0l0,0c0,0,0.1-0.1,0.3-0.2c0.3-0.2,0.9-0.3,1.7-0.5c2.3-0.5,6.2-0.8,10.6-0.8
		c3.6,0,6.8,0.2,9.2,0.5c1.2,0.2,2.1,0.4,2.7,0.6c0.3,0.1,0.5,0.2,0.7,0.3l0.1,0.1l0,0l0,0l0,0l0,0l0,0l0.1,0l-0.1,0l0,0l0.1,0
		l-0.1,0H106.4z"/>
</g>
</svg>
