<?xml version="1.0" encoding="utf-8"?>
<!-- Generator: Adobe Illustrator 22.1.0, SVG Export Plug-In . SVG Version: 6.00 Build 0)  -->
<svg version="1.1" id="Layer_1" xmlns="http://www.w3.org/2000/svg" xmlns:xlink="http://www.w3.org/1999/xlink" x="0px" y="0px"
	 viewBox="0 0 138.3 48.4" style="enable-background:new 0 0 138.3 48.4;" xml:space="preserve">
<style type="text/css">
	.st0{fill:#DAEDF1;}
	.st1{fill:#28373A;}
	.st2{fill:#C6DDE5;}
	.st3{fill:#D72C27;}
	.st4{fill:#F15E5E;}
	.st5{fill:#EF4923;}
	.st6{fill:#F26235;}
	.st7{fill:#D3D3D3;}
	.st8{fill:#ABABAB;}
	.st9{fill-rule:evenodd;clip-rule:evenodd;fill:#D72C27;}
</style>
<g>
	<path class="st0" d="M53.6,36.2H16.3C9.5,36.2,4,30.7,4,23.9v-1.9C4,15.1,9.5,9.6,16.3,9.6h37.3c6.8,0,12.3,5.6,12.3,12.3v1.9
		C65.9,30.7,60.4,36.2,53.6,36.2z"/>
	<path class="st1" d="M53.6,36.2v-0.7H16.3c-3.2,0-6.1-1.3-8.2-3.4c-2.1-2.1-3.4-5-3.4-8.2v-1.9c0-3.2,1.3-6.1,3.4-8.2
		c2.1-2.1,5-3.4,8.2-3.4h37.3c3.2,0,6.1,1.3,8.2,3.4c2.1,2.1,3.4,5,3.4,8.2v1.9c0,3.2-1.3,6.1-3.4,8.2c-2.1,2.1-5,3.4-8.2,3.4V36.2
		v0.7c7.2,0,13-5.8,13-13v-1.9c0-7.2-5.8-13-13-13H16.3c-7.2,0-13,5.8-13,13v1.9c0,7.2,5.8,13,13,13h37.3V36.2z"/>
	<path class="st2" d="M61.9,21.2c0.6,0,1.1,0.5,1,1.2c-0.7,6.2-5.9,11-12.3,11H36c-0.6,0-1-0.5-1-1s0.5-1,1-1h12.8
		c5.8,0,10.6-4,12-9.3c0.1-0.5,0.5-0.8,1-0.8H61.9z"/>
	<path class="st3" d="M65.2,14.6c-6.7,9.3-15.6-1.5-34.4,5.8C13.4,27.1,11.2,38.8,4.4,36c-3-1.3-3.7-7.9-3.7-7.9
		c0.5-8.6,4.9-14.4,11-18.5c0.7-0.5,1.5-1,2.3-1.4c1.4-0.8,2.9-1.5,4.4-2.2h0c1-0.4,2-0.8,3.1-1.2h0c1.6-0.6,3.3-1,4.9-1.4
		c1.3-0.3,2.7-0.6,4-0.9h0C33.1,2,35.6,1.6,38,1.3h0C40,1.1,41.8,1,43.4,0.9c3.7-0.2,6.6-0.2,7.8-0.2C57,0.7,71.9,5.3,65.2,14.6z"/>
	<path class="st1" d="M65.2,14.6l-0.5-0.4c-1.1,1.5-2.2,2.4-3.4,3c-1.2,0.5-2.5,0.7-4,0.7c-3.2,0-7.2-0.9-12.3-0.9
		c-4.1,0-8.8,0.6-14.4,2.8l0,0c-7.9,3.1-12.8,7.2-16.3,10.4c-1.8,1.6-3.2,3.1-4.4,4.1c-0.6,0.5-1.2,0.9-1.8,1.1
		c-0.6,0.3-1.1,0.4-1.7,0.4c-0.5,0-1.1-0.1-1.7-0.4l-0.2-0.1l0.2,0.1c-0.6-0.2-1.1-0.8-1.6-1.5c-0.7-1.1-1.1-2.6-1.4-3.8
		c-0.1-0.6-0.2-1.1-0.3-1.5c0-0.2,0-0.3-0.1-0.4l0-0.1l0,0l-0.7,0.1l0.7,0c0.2-4.2,1.4-7.7,3.3-10.6c1.9-3,4.4-5.4,7.4-7.3l0,0
		c0.7-0.5,1.5-1,2.3-1.4l0,0l0,0c1.4-0.8,2.9-1.5,4.4-2.1L18.4,6v0.7h0h0.1l0.1,0c1-0.4,2-0.8,3.1-1.2l-0.2-0.6v0.7h0h0.1l0.1,0
		c1.6-0.5,3.2-1,4.8-1.4l0,0c1.3-0.3,2.7-0.6,4-0.9l-0.1-0.6v0.7h0h0.1l0.1,0c2.6-0.5,5.2-0.9,7.6-1.2L38,1.3V2h0h0l0,0
		c1.9-0.2,3.7-0.4,5.4-0.5l0,0c3.4-0.2,6-0.2,7.4-0.2c0.1,0,0.3,0,0.4,0c1.1,0,2.7,0.2,4.3,0.6c2.5,0.6,5.2,1.6,7.3,3
		c1,0.7,1.9,1.5,2.5,2.4c0.6,0.9,0.9,1.8,0.9,2.8c0,1.2-0.4,2.5-1.6,4.1l0,0L65.2,14.6l0.5,0.4c1.2-1.7,1.8-3.4,1.8-4.9
		c0-1.8-0.8-3.3-2-4.6c-1.8-1.9-4.4-3.2-7.1-4.1C55.8,0.5,53.1,0,51.2,0c-0.1,0-0.2,0-0.4,0c-1.4,0-4,0-7.4,0.2l0,0l0,0
		c-1.7,0.1-3.5,0.2-5.4,0.5L38,1.3V0.7h0h0l0,0c-2.4,0.3-5,0.6-7.7,1.2l0.1,0.6V1.8h0h-0.1l-0.1,0c-1.3,0.3-2.7,0.6-4,0.9l0,0
		c-1.7,0.4-3.3,0.9-5,1.5l0.2,0.6V4.2h0h-0.1l-0.1,0c-1.1,0.4-2.1,0.8-3.1,1.2L18.4,6V5.3h0h-0.1l-0.1,0.1c-1.6,0.7-3.1,1.4-4.5,2.2
		l0,0l0,0C12.8,8,12,8.5,11.3,9l0,0l0,0c-3.1,2.1-5.8,4.6-7.8,7.7C1.5,19.9,0.2,23.6,0,28l0,0.1l0,0.1c0,0,0.2,1.7,0.7,3.6
		C1,32.7,1.4,33.7,2,34.6c0.5,0.9,1.2,1.6,2.2,2l0.2,0.1l-0.2-0.1c0.8,0.3,1.5,0.5,2.2,0.5c0.8,0,1.5-0.2,2.2-0.5
		c1.2-0.6,2.4-1.5,3.7-2.6c3.8-3.5,8.7-9,18.8-13l0,0c5.4-2.1,10-2.7,13.9-2.7c4.9,0,8.9,0.9,12.3,0.9c1.6,0,3.1-0.2,4.6-0.9
		c1.4-0.7,2.7-1.7,3.9-3.4l0,0L65.2,14.6z"/>
	<path class="st4" d="M27.8,7.5v0.9c0,0.6-0.5,1.2-1.1,1.3c-0.6,0.1-1.2,0.2-1.8,0.3h0c-0.7,0.1-1.5,0.3-2.3,0.5
		c-0.9,0.2-1.9,0.5-2.8,0.8h0c-0.6,0.2-1.2,0.4-1.8,0.7h0c-0.9,0.4-1.7,0.8-2.5,1.2c-0.4,0.3-0.9,0.5-1.3,0.8
		c-2.4,1.6-4.4,3.7-5.4,6.5c-0.2,0.5-0.7,0.8-1.2,0.8c-0.9,0-1.5-0.8-1.3-1.6c0.9-3.2,3-5.6,5.7-7.4c0.4-0.3,0.9-0.6,1.3-0.8
		c0.8-0.5,1.7-0.9,2.5-1.2h0c0.6-0.2,1.2-0.5,1.8-0.7h0c0.9-0.3,1.8-0.6,2.8-0.8c0.8-0.2,1.5-0.4,2.3-0.5h0c1.5-0.3,3-0.5,4.3-0.7h0
		C27.3,7.6,27.5,7.6,27.8,7.5z"/>
</g>
<g>
	<path class="st0" d="M124.3,36.2H87c-6.8,0-12.3-5.6-12.3-12.3v-1.9c0-6.8,5.6-12.3,12.3-12.3h37.3c6.8,0,12.3,5.6,12.3,12.3v1.9
		C136.6,30.7,131.1,36.2,124.3,36.2z"/>
	<path class="st1" d="M124.3,36.2v-0.7H87c-3.2,0-6.1-1.3-8.2-3.4c-2.1-2.1-3.4-5-3.4-8.2v-1.9c0-3.2,1.3-6.1,3.4-8.2
		c2.1-2.1,5-3.4,8.2-3.4h37.3c3.2,0,6.1,1.3,8.2,3.4c2.1,2.1,3.4,5,3.4,8.2v1.9c0,3.2-1.3,6.1-3.4,8.2c-2.1,2.1-5,3.4-8.2,3.4V36.2
		v0.7c7.2,0,13-5.8,13-13v-1.9c0-7.2-5.8-13-13-13H87c-7.2,0-13,5.8-13,13v1.9c0,7.2,5.8,13,13,13h37.3V36.2z"/>
	<path class="st2" d="M132.7,21.2c0.6,0,1.1,0.5,1,1.2c-0.7,6.2-5.9,11-12.3,11h-14.7c-0.6,0-1-0.5-1-1c0-0.6,0.5-1,1-1h12.8
		c5.8,0,10.6-4,12-9.3c0.1-0.5,0.5-0.8,1-0.8H132.7z"/>
	<path class="st5" d="M136,14.6c-6.7,9.3-15.6-1.5-34.4,5.8C84.1,27.1,81.9,38.8,75.1,36c-3-1.3-3.7-7.9-3.7-7.9
		c0.5-8.6,4.9-14.4,11-18.5c0.7-0.5,1.5-1,2.3-1.4c1.4-0.8,2.9-1.5,4.4-2.2h0c1-0.4,2-0.8,3.1-1.2h0c1.6-0.6,3.3-1,4.9-1.4
		c1.3-0.3,2.7-0.6,4-0.9h0c2.7-0.5,5.2-0.9,7.6-1.2h0c1.9-0.2,3.8-0.4,5.4-0.5c3.7-0.2,6.6-0.2,7.8-0.2
		C127.7,0.7,142.7,5.3,136,14.6z"/>
	<path class="st1" d="M136,14.6l-0.5-0.4c-1.1,1.5-2.2,2.4-3.4,3c-1.2,0.5-2.5,0.7-4,0.7c-3.2,0-7.2-0.9-12.3-0.9
		c-4.1,0-8.8,0.6-14.4,2.8l0,0c-7.9,3.1-12.8,7.2-16.3,10.4c-1.8,1.6-3.2,3.1-4.4,4.1c-0.6,0.5-1.2,0.9-1.8,1.1
		c-0.6,0.3-1.1,0.4-1.7,0.4c-0.5,0-1.1-0.1-1.7-0.4l0,0c-0.6-0.2-1.1-0.8-1.6-1.5c-0.7-1.1-1.1-2.6-1.4-3.8
		c-0.1-0.6-0.2-1.1-0.3-1.5c0-0.2,0-0.3-0.1-0.4l0-0.1l0,0l-0.7,0.1l0.7,0c0.2-4.2,1.4-7.7,3.3-10.6c1.9-3,4.4-5.4,7.4-7.3l0,0
		c0.7-0.5,1.5-1,2.3-1.4l0,0c1.4-0.8,2.9-1.5,4.4-2.1L89.1,6v0.7h0h0.1l0.1,0c1-0.4,2-0.8,3.1-1.2l-0.2-0.6v0.7h0h0.1l0.1,0
		c1.6-0.5,3.2-1,4.8-1.4l0,0c1.3-0.3,2.7-0.6,4-0.9l-0.1-0.6v0.7h0h0.1l0.1,0c2.6-0.5,5.2-0.9,7.6-1.2l-0.1-0.7V2h0h0l0,0
		c1.9-0.2,3.7-0.4,5.4-0.5l0,0c3.4-0.2,6-0.2,7.4-0.2c0.1,0,0.3,0,0.4,0c1.1,0,2.7,0.2,4.3,0.6c2.5,0.6,5.2,1.6,7.3,3
		c1,0.7,1.9,1.5,2.5,2.4c0.6,0.9,0.9,1.8,0.9,2.8c0,1.2-0.4,2.5-1.6,4.1l-0.1,0.1l0.1-0.1L136,14.6l0.5,0.4c1.2-1.7,1.8-3.4,1.8-4.9
		c0-1.8-0.8-3.3-2-4.6c-1.8-1.9-4.4-3.2-7.1-4.1C126.5,0.5,123.8,0,122,0c-0.1,0-0.2,0-0.4,0c-1.4,0-4,0-7.4,0.2l0,0l0,0
		c-1.7,0.1-3.5,0.2-5.4,0.5l0.1,0.7V0.7h0h0l0,0c-2.4,0.3-5,0.6-7.7,1.2l0.1,0.6V1.8h0H101l-0.1,0c-1.3,0.3-2.7,0.6-4,0.9l0,0
		c-1.7,0.4-3.3,0.9-5,1.5l0.2,0.6V4.2h0h-0.1l-0.1,0c-1.1,0.4-2.1,0.8-3.1,1.2L89.1,6V5.3h0H89l-0.1,0.1c-1.6,0.7-3.1,1.4-4.5,2.2
		l0,0C83.5,8,82.7,8.5,82,9l0,0c-3.1,2.1-5.8,4.6-7.8,7.7c-2,3.1-3.2,6.9-3.5,11.3l0,0.1l0,0.1c0,0,0.2,1.7,0.7,3.6
		c0.3,0.9,0.7,1.9,1.2,2.8c0.5,0.9,1.2,1.6,2.2,2l0,0c0.8,0.3,1.5,0.5,2.2,0.5c0.8,0,1.5-0.2,2.2-0.5c1.2-0.6,2.4-1.5,3.7-2.6
		c3.8-3.5,8.7-9,18.8-13l0.2-0.1l-0.2,0.1c5.4-2.1,10-2.7,13.9-2.7c4.9,0,8.9,0.9,12.3,0.9c1.6,0,3.1-0.2,4.6-0.9
		c1.4-0.7,2.7-1.7,3.9-3.4l0,0L136,14.6z"/>
	<path class="st6" d="M93.1,13.3c-0.1,0.4-0.5,0.7-1,0.7c-0.1,0-0.2,0-0.3,0L82,11c0.7-0.5,1.5-1,2.3-1.4l8.1,2.5
		C93,12.2,93.3,12.8,93.1,13.3z"/>
	<path class="st6" d="M102,10.4c-0.1,0.4-0.5,0.7-1,0.7c-0.1,0-0.2,0-0.3,0l-12-3.7c1-0.4,2-0.8,3.1-1.2h0l9.4,2.9
		C101.9,9.3,102.2,9.9,102,10.4z"/>
	<path class="st6" d="M109.1,7.5c-0.1,0.4-0.5,0.7-1,0.7c-0.1,0-0.2,0-0.3,0L96.8,4.8c1.3-0.3,2.7-0.6,4-0.9h0l7.7,2.4
		C109,6.4,109.3,7,109.1,7.5z"/>
	<path class="st6" d="M120.2,5.3c-0.1,0.4-0.5,0.7-1,0.7c-0.1,0-0.2,0-0.3,0l-10.5-3.2c1.9-0.2,3.8-0.4,5.4-0.5l5.7,1.7
		C120,4.2,120.3,4.8,120.2,5.3z"/>
	<path class="st1" d="M94.9,12.5c-0.1,0.4-0.5,0.7-1,0.7c-0.1,0-0.2,0-0.3,0l-9.8-3c0.7-0.5,1.5-1,2.3-1.4l8.1,2.5
		C94.8,11.4,95.1,11.9,94.9,12.5z"/>
	<path class="st1" d="M103.8,9.6c-0.1,0.4-0.5,0.7-1,0.7c-0.1,0-0.2,0-0.3,0l-12-3.7c1-0.4,2-0.8,3.1-1.2h0l9.4,2.9
		C103.7,8.5,104,9,103.8,9.6z"/>
	<path class="st1" d="M111,6.7c-0.1,0.4-0.5,0.7-1,0.7c-0.1,0-0.2,0-0.3,0L98.6,3.9c1.3-0.3,2.7-0.6,4-0.9h0l7.7,2.4
		C110.8,5.6,111.1,6.1,111,6.7z"/>
	<path class="st1" d="M122,4.4c-0.1,0.4-0.5,0.7-1,0.7c-0.1,0-0.2,0-0.3,0l-10.5-3.2c1.9-0.2,3.8-0.4,5.4-0.5l5.7,1.7
		C121.9,3.3,122.2,3.9,122,4.4z"/>
</g>
<g>
	<path class="st0" d="M85.7,47.6H48.4c-6.8,0-12.3-5.6-12.3-12.3v-1.9c0-6.8,5.6-12.3,12.3-12.3h37.3c6.8,0,12.3,5.6,12.3,12.3v1.9
		C98.1,42,92.5,47.6,85.7,47.6z"/>
	<path class="st1" d="M85.7,47.6v-0.7H48.4c-3.2,0-6.1-1.3-8.2-3.4c-2.1-2.1-3.4-5-3.4-8.2v-1.9c0-3.2,1.3-6.1,3.4-8.2
		c2.1-2.1,5-3.4,8.2-3.4h37.3c3.2,0,6.1,1.3,8.2,3.4c2.1,2.1,3.4,5,3.4,8.2v1.9c0,3.2-1.3,6.1-3.4,8.2c-2.1,2.1-5,3.4-8.2,3.4V47.6
		v0.7c7.2,0,13-5.8,13-13v-1.9c0-7.2-5.8-13-13-13H48.4c-7.2,0-13,5.8-13,13v1.9c0,7.2,5.8,13,13,13h37.3V47.6z"/>
	<path class="st2" d="M94.1,32.5c0.6,0,1.1,0.5,1,1.2c-0.7,6.2-5.9,11-12.3,11H68.1c-0.6,0-1-0.5-1-1s0.5-1,1-1h12.8
		c5.8,0,10.6-4,12-9.3c0.1-0.5,0.5-0.8,1-0.8H94.1z"/>
	<path class="st7" d="M97.4,25.9c-6.7,9.3-15.6-1.5-34.4,5.8c-17.5,6.8-19.7,18.4-26.5,15.6c-3-1.3-3.7-7.9-3.7-7.9
		c0.5-8.6,4.9-14.4,11-18.5c0.7-0.5,1.5-1,2.3-1.4c1.4-0.8,2.9-1.5,4.4-2.2h0c1-0.4,2-0.8,3.1-1.2h0c1.6-0.6,3.3-1,4.9-1.4
		c1.3-0.3,2.7-0.6,4-0.9h0c2.7-0.5,5.2-0.9,7.6-1.2h0c1.9-0.2,3.8-0.4,5.4-0.5c3.7-0.2,6.6-0.2,7.8-0.2
		C89.1,12,104.1,16.6,97.4,25.9z"/>
	<path class="st1" d="M97.4,25.9l-0.5-0.4c-1.1,1.5-2.2,2.4-3.4,3c-1.2,0.5-2.5,0.7-4,0.7c-3.2,0-7.2-0.9-12.3-0.9
		c-4.1,0-8.8,0.6-14.4,2.8c-7.9,3.1-12.8,7.2-16.3,10.4c-1.8,1.6-3.2,3.1-4.4,4.1c-0.6,0.5-1.2,0.9-1.8,1.1
		c-0.6,0.3-1.1,0.4-1.7,0.4c-0.5,0-1.1-0.1-1.7-0.4c-0.6-0.2-1.1-0.8-1.6-1.5c-0.7-1.1-1.1-2.6-1.4-3.8c-0.1-0.6-0.2-1.1-0.3-1.5
		c0-0.2,0-0.3-0.1-0.4l0-0.1l0,0l-0.7,0.1l0.7,0c0.2-4.2,1.4-7.7,3.3-10.6c1.9-3,4.4-5.4,7.4-7.3l0,0c0.7-0.5,1.5-1,2.3-1.4l0,0
		c1.4-0.8,2.9-1.5,4.4-2.1l-0.3-0.6V18h0h0.1l0.1,0c1-0.4,2-0.8,3.1-1.2l-0.2-0.6v0.7h0h0.1l0.1,0c1.6-0.5,3.2-1,4.8-1.4l0,0l0,0
		c1.3-0.3,2.7-0.6,4-0.9l-0.1-0.6v0.7h0h0.1l0.1,0c2.6-0.5,5.2-0.9,7.6-1.2l-0.1-0.7v0.7h0h0l0,0c1.9-0.2,3.7-0.4,5.4-0.5l0,0
		c3.4-0.2,6-0.2,7.4-0.2c0.1,0,0.3,0,0.4,0c1.1,0,2.7,0.2,4.3,0.6c2.5,0.6,5.2,1.6,7.3,3c1,0.7,1.9,1.5,2.5,2.4
		c0.6,0.9,0.9,1.8,0.9,2.8c0,1.2-0.4,2.5-1.6,4.1l0,0L97.4,25.9l0.5,0.4c1.2-1.7,1.8-3.4,1.8-4.9c0-1.8-0.8-3.3-2-4.6
		c-1.8-1.9-4.4-3.2-7.1-4.1c-2.7-0.9-5.4-1.4-7.3-1.4c-0.1,0-0.2,0-0.4,0c-1.4,0-4,0-7.4,0.2l0,0c-1.7,0.1-3.5,0.2-5.4,0.5l0.1,0.7
		V12h0h0l0,0c-2.4,0.3-5,0.6-7.7,1.2l0.1,0.6v-0.7h0h-0.1l-0.1,0c-1.3,0.3-2.7,0.6-4,0.9l0,0c-1.7,0.4-3.3,0.9-5,1.5l0.2,0.6v-0.7h0
		h-0.1l-0.1,0c-1.1,0.4-2.1,0.8-3.1,1.2l0.3,0.6v-0.7h0h-0.1l-0.1,0.1c-1.6,0.7-3.1,1.4-4.5,2.2l0,0c-0.8,0.4-1.6,0.9-2.4,1.4l0,0
		l0,0c-3.1,2.1-5.8,4.6-7.8,7.7c-2,3.1-3.2,6.9-3.5,11.3l0,0.1l0,0.1c0,0,0.2,1.7,0.7,3.6c0.3,0.9,0.7,1.9,1.2,2.8
		c0.5,0.9,1.2,1.6,2.2,2c0.8,0.3,1.5,0.5,2.2,0.5c0.8,0,1.5-0.2,2.2-0.5c1.2-0.6,2.4-1.5,3.7-2.6c3.8-3.5,8.7-9,18.8-13
		c5.4-2.1,10-2.7,13.9-2.7c4.9,0,8.9,0.9,12.3,0.9c1.6,0,3.1-0.2,4.6-0.9c1.4-0.7,2.7-1.7,3.9-3.4l0,0L97.4,25.9z"/>
	<path class="st8" d="M83.7,16.5c-0.5,0-1,0.1-1.5,0.1c-1.1,0.1-3.6,0.4-6.9,0.9c-1.5,0.2-3.1,0.5-4.8,0.8l0,0
		c-2.1,0.4-4.4,0.8-6.7,1.3l0,0c-1.2,0.3-2.3,0.5-3.5,0.8c-1.4,0.4-2.9,0.8-4.3,1.2l0,0c-0.9,0.3-1.8,0.6-2.7,0.9l0,0
		c-1.3,0.5-2.6,1-3.8,1.5c-0.7,0.3-1.3,0.6-2,0.9c-2.7,1.4-5,2.9-6.5,4.7c-0.5,0.5-1.7,0.7-2.4,0.4c-0.4-0.2-0.5-0.5-0.3-0.8
		c1.5-2.1,4.1-3.9,7.2-5.5c0.6-0.3,1.3-0.6,2-0.9c1.2-0.5,2.5-1,3.8-1.5l0,0c0.9-0.3,1.8-0.6,2.7-0.9l0,0c1.4-0.4,2.8-0.8,4.3-1.2
		c1.2-0.3,2.3-0.6,3.5-0.8l0,0c2.3-0.5,4.6-1,6.7-1.3l0,0c1.7-0.3,3.3-0.6,4.8-0.8c3.3-0.5,5.8-0.8,6.9-0.9c0.3,0,0.7-0.1,1.1-0.1
		c0.5,0,1,0.1,1.3,0.3L83.7,16.5z"/>
	<path class="st8" d="M86.6,20.3c-0.2,0-0.3,0-0.5,0c-0.2,0-0.4,0-0.6,0c-0.4,0-0.8,0-1.1,0.1c-0.2,0-0.4,0-0.6,0.1
		c-1.1,0.1-3.6,0.4-6.9,0.9c-1.5,0.2-3.1,0.5-4.8,0.8l0,0c-2.1,0.4-4.4,0.8-6.7,1.3l0,0c-1.2,0.3-2.3,0.5-3.5,0.8
		c-1.4,0.4-2.9,0.8-4.3,1.2l0,0c-0.9,0.3-1.8,0.6-2.7,0.9l0,0c-1.3,0.5-2.6,1-3.8,1.5c-0.7,0.3-1.3,0.6-2,0.9
		c-0.3,0.2-0.7,0.3-1,0.5c-0.3,0.2-0.6,0.3-0.9,0.5c-0.3,0.2-0.6,0.4-0.9,0.5c-0.3,0.2-0.7,0.4-1,0.7c-0.2,0.1-0.4,0.3-0.6,0.4
		l-0.1,0.1c-0.2,0.2-0.4,0.4-0.6,0.5c-0.2,0.2-0.4,0.4-0.6,0.5l-0.2,0.2c-0.2,0.2-0.4,0.4-0.5,0.5l0,0l-1.2-0.6
		c-0.7-0.3-0.9-0.9-0.4-1.4c1.5-1.9,3.9-3.5,6.7-4.9c0.6-0.3,1.3-0.6,2-0.9c1.2-0.5,2.5-1,3.8-1.5l0,0c0.9-0.3,1.8-0.6,2.7-0.9l0,0
		c1.4-0.4,2.8-0.8,4.3-1.2c1.2-0.3,2.3-0.6,3.5-0.8l0,0c2.3-0.5,4.6-1,6.7-1.3l0,0c1.7-0.3,3.3-0.6,4.8-0.8c3.3-0.5,5.8-0.8,6.9-0.9
		l0,0c0.9-0.1,1.7,0.1,2.2,0.5L86.6,20.3z"/>
	<path class="st8" d="M88.3,23.9c0.5,0.4,0.1,1-0.7,1.2c-5.5,1.7-13.5-0.1-26.6,4.2c-6,2-9.8,4.1-12.7,5.9c-0.6,0.4-1.6,0.5-2.1,0.2
		l-0.7-0.4c-0.5-0.3-0.5-0.7,0-1.1c2.9-2,7-4.5,14.2-6.9c12.6-4.2,20.5-2.6,25.9-4.1c0.7-0.2,1.4-0.1,1.8,0.2L88.3,23.9z"/>
	<path class="st9" d="M57.6,19.5c0-1-0.8-1.7-1.7-1.7c-1,0-1.7,0.8-1.7,1.7c0,1,0.8,1.7,1.7,1.7C56.9,21.2,57.6,20.4,57.6,19.5z"/>
	<path class="st1" d="M57.6,19.5H58c0-1.1-0.9-2.1-2.1-2.1c-1.1,0-2.1,0.9-2.1,2.1c0,1.1,0.9,2.1,2.1,2.1c1.1,0,2.1-0.9,2.1-2.1
		H57.6h-0.3c0,0.8-0.6,1.4-1.4,1.4c-0.8,0-1.4-0.6-1.4-1.4c0-0.8,0.6-1.4,1.4-1.4c0.8,0,1.4,0.6,1.4,1.4H57.6z"/>
	<path class="st9" d="M60.4,16.6c0-1-0.8-1.7-1.7-1.7c-1,0-1.7,0.8-1.7,1.7c0,1,0.8,1.7,1.7,1.7C59.6,18.3,60.4,17.5,60.4,16.6z"/>
	<path class="st1" d="M60.4,16.6h0.3c0-1.1-0.9-2.1-2.1-2.1c-1.1,0-2.1,0.9-2.1,2.1c0,1.1,0.9,2.1,2.1,2.1c1.1,0,2.1-0.9,2.1-2.1
		H60.4h-0.3c0,0.8-0.6,1.4-1.4,1.4c-0.8,0-1.4-0.6-1.4-1.4c0-0.8,0.6-1.4,1.4-1.4c0.8,0,1.4,0.6,1.4,1.4H60.4z"/>
	<circle class="st9" cx="59.5" cy="19.7" r="1.7"/>
	<path class="st1" d="M61.2,19.7h0.3c0-1.1-0.9-2.1-2.1-2.1c-1.1,0-2.1,0.9-2.1,2.1c0,1.1,0.9,2.1,2.1,2.1c1.1,0,2.1-0.9,2.1-2.1
		H61.2h-0.3c0,0.8-0.6,1.4-1.4,1.4c-0.8,0-1.4-0.6-1.4-1.4c0-0.8,0.6-1.4,1.4-1.4c0.8,0,1.4,0.6,1.4,1.4H61.2z"/>
	<path class="st9" d="M64,16.9c0-1-0.8-1.7-1.7-1.7c-1,0-1.7,0.8-1.7,1.7c0,1,0.8,1.7,1.7,1.7C63.2,18.6,64,17.8,64,16.9z"/>
	<path class="st1" d="M64,16.9h0.3c0-1.1-0.9-2.1-2.1-2.1c-1.1,0-2.1,0.9-2.1,2.1c0,1.1,0.9,2.1,2.1,2.1c1.1,0,2.1-0.9,2.1-2.1H64
		h-0.3c0,0.8-0.6,1.4-1.4,1.4c-0.8,0-1.4-0.6-1.4-1.4c0-0.8,0.6-1.4,1.4-1.4c0.8,0,1.4,0.6,1.4,1.4H64z"/>
	<circle class="st9" cx="60.9" cy="13.7" r="1.7"/>
	<path class="st1" d="M62.6,13.7H63c0-1.1-0.9-2.1-2.1-2.1c-1.1,0-2.1,0.9-2.1,2.1c0,1.1,0.9,2.1,2.1,2.1c1.1,0,2.1-0.9,2.1-2.1
		H62.6h-0.3c0,0.8-0.6,1.4-1.4,1.4c-0.8,0-1.4-0.6-1.4-1.4c0-0.8,0.6-1.4,1.4-1.4c0.8,0,1.4,0.6,1.4,1.4H62.6z"/>
	<path class="st9" d="M66.4,18c0-1-0.8-1.7-1.7-1.7c-1,0-1.7,0.8-1.7,1.7c0,1,0.8,1.7,1.7,1.7C65.6,19.7,66.4,19,66.4,18z"/>
	<path class="st1" d="M66.4,18h0.3c0-1.1-0.9-2.1-2.1-2.1c-1.1,0-2.1,0.9-2.1,2.1c0,1.1,0.9,2.1,2.1,2.1c1.1,0,2.1-0.9,2.1-2.1H66.4
		H66c0,0.8-0.6,1.4-1.4,1.4c-0.8,0-1.4-0.6-1.4-1.4c0-0.8,0.6-1.4,1.4-1.4c0.8,0,1.4,0.6,1.4,1.4H66.4z"/>
	<circle class="st9" cx="64.7" cy="14" r="1.7"/>
	<path class="st1" d="M66.5,14h0.3c0-1.1-0.9-2.1-2.1-2.1c-1.1,0-2.1,0.9-2.1,2.1c0,1.1,0.9,2.1,2.1,2.1c1.1,0,2.1-0.9,2.1-2.1H66.5
		h-0.3c0,0.8-0.6,1.4-1.4,1.4c-0.8,0-1.4-0.6-1.4-1.4c0-0.8,0.6-1.4,1.4-1.4c0.8,0,1.4,0.6,1.4,1.4H66.5z"/>
	<path class="st9" d="M69.9,15.1c0-1-0.8-1.7-1.7-1.7c-1,0-1.7,0.8-1.7,1.7c0,1,0.8,1.7,1.7,1.7C69.2,16.9,69.9,16.1,69.9,15.1z"/>
	<path class="st1" d="M69.9,15.1h0.3c0-1.1-0.9-2.1-2.1-2.1c-1.1,0-2.1,0.9-2.1,2.1c0,1.1,0.9,2.1,2.1,2.1c1.1,0,2.1-0.9,2.1-2.1
		H69.9h-0.3c0,0.8-0.6,1.4-1.4,1.4c-0.8,0-1.4-0.6-1.4-1.4c0-0.8,0.6-1.4,1.4-1.4c0.8,0,1.4,0.6,1.4,1.4H69.9z"/>
</g>
</svg>
