<?xml version="1.0" encoding="utf-8"?>
<!-- Generator: Adobe Illustrator 22.0.1, SVG Export Plug-In . SVG Version: 6.00 Build 0)  -->
<svg version="1.1" id="Layer_1" xmlns="http://www.w3.org/2000/svg" xmlns:xlink="http://www.w3.org/1999/xlink" x="0px" y="0px"
	 viewBox="0 0 186 56.5" style="enable-background:new 0 0 186 56.5;" xml:space="preserve">
<style type="text/css">
	.st0{fill:#EDEDED;stroke:#28373A;stroke-width:2;stroke-miterlimit:10;}
	.st1{fill:#D8D8D8;}
	.st2{fill:#DAEDF1;}
	.st3{fill:#28373A;}
	.st4{fill:#C6DDE5;}
	.st5{fill:#FEF8FB;}
	.st6{fill:#F8B4B9;}
	.st7{fill:#9A2423;}
	.st8{fill:#5C903F;}
</style>
<g id="plate_10_">
	<path class="st0" d="M185,36.2c0,3.2-6.5,6.1-17.6,8.5c-16.7,3.6-43.8,6-74.4,6c-30.6,0-57.7-2.4-74.4-6C7.5,42.3,1,39.4,1,36.2
		c0-8,41.2-14.6,92-14.6S185,28.1,185,36.2z"/>
	<path class="st0" d="M167.4,44.7c-0.1,2.9-1.3,5.5-3.3,7.5c-2,2-4.8,3.3-7.8,3.3H29.6c-6,0-10.9-4.8-11.1-10.7
		c16.7,3.6,43.8,6,74.4,6C123.6,50.7,150.7,48.4,167.4,44.7z"/>
	<ellipse class="st1" cx="93" cy="37.3" rx="56" ry="6"/>
</g>
<g>
	<path class="st2" d="M87.6,38.2H50.3c-6.8,0-12.3-5.6-12.3-12.3v-1.9c0-6.8,5.6-12.3,12.3-12.3h37.3c6.8,0,12.3,5.6,12.3,12.3v1.9
		C99.9,32.6,94.4,38.2,87.6,38.2z"/>
	<path class="st3" d="M87.6,38.2v-0.7H50.3c-3.2,0-6.1-1.3-8.2-3.4c-2.1-2.1-3.4-5-3.4-8.2v-1.9c0-3.2,1.3-6.1,3.4-8.2
		c2.1-2.1,5-3.4,8.2-3.4h37.3c3.2,0,6.1,1.3,8.2,3.4c2.1,2.1,3.4,5,3.4,8.2v1.9c0,3.2-1.3,6.1-3.4,8.2c-2.1,2.1-5,3.4-8.2,3.4V38.2
		v0.7c7.2,0,13-5.8,13-13v-1.9c0-7.2-5.8-13-13-13H50.3c-7.2,0-13,5.8-13,13v1.9c0,7.2,5.8,13,13,13h37.3V38.2z"/>
	<path class="st4" d="M95.9,23.1c0.6,0,1.1,0.5,1,1.2c-0.7,6.2-5.9,11-12.3,11H70c-0.6,0-1-0.5-1-1s0.5-1,1-1h12.8
		c5.8,0,10.6-4,12-9.3c0.1-0.5,0.5-0.8,1-0.8H95.9z"/>
	<path class="st5" d="M98.6,14.7C91.9,24,83,13.2,64.2,20.5c-17.5,6.8-19.7,18.4-26.5,15.6c-3-1.3-3.7-7.9-3.7-7.9
		c0.5-8.6,4.9-14.4,11-18.5c0.7-0.5,1.5-1,2.3-1.4c1.4-0.8,2.9-1.5,4.4-2.2h0c1-0.4,2-0.8,3.1-1.2h0c1.6-0.6,3.3-1,4.9-1.4
		c1.3-0.3,2.7-0.6,4-0.9h0c2.7-0.5,5.2-0.9,7.6-1.2h0c1.9-0.2,3.8-0.4,5.4-0.5c3.7-0.2,6.6-0.2,7.8-0.2
		C90.3,0.8,105.2,5.4,98.6,14.7z"/>
	<path class="st3" d="M98.6,14.7L98,14.3c-1.1,1.5-2.2,2.4-3.4,3c-1.2,0.5-2.5,0.7-4,0.7c-3.2,0-7.2-0.9-12.3-0.9
		c-4.1,0-8.8,0.6-14.4,2.8C56,23,51.1,27.1,47.6,30.3c-1.8,1.6-3.2,3.1-4.4,4.1c-0.6,0.5-1.2,0.9-1.8,1.1c-0.6,0.3-1.1,0.4-1.7,0.4
		c-0.5,0-1.1-0.1-1.7-0.4c-0.6-0.2-1.1-0.8-1.6-1.5c-0.7-1.1-1.1-2.6-1.4-3.8c-0.1-0.6-0.2-1.1-0.3-1.5c0-0.2,0-0.3-0.1-0.4l0-0.1
		l0,0L34,28.2l0.7,0c0.2-4.2,1.4-7.7,3.3-10.6c1.9-3,4.4-5.4,7.4-7.3l0,0l0,0c0.7-0.5,1.5-1,2.3-1.4l0,0c1.4-0.8,2.9-1.5,4.4-2.1
		l-0.3-0.6v0.7h0h0.1l0.1,0C53,6.4,54,6,55,5.6L54.8,5v0.7h0h0.1l0.1,0c1.6-0.5,3.2-1,4.8-1.4l0,0c1.3-0.3,2.7-0.6,4-0.9l-0.1-0.6
		v0.7h0h0.1l0.1,0c2.6-0.5,5.2-0.9,7.6-1.2l-0.1-0.7v0.7h0h0l0,0c1.9-0.2,3.7-0.4,5.4-0.5l0,0c3.4-0.2,6-0.2,7.4-0.2
		c0.1,0,0.3,0,0.4,0c1.1,0,2.7,0.2,4.3,0.6c2.5,0.6,5.2,1.6,7.3,3c1,0.7,1.9,1.5,2.5,2.4c0.6,0.9,0.9,1.8,0.9,2.8
		c0,1.2-0.4,2.5-1.6,4.1l0,0L98.6,14.7l0.5,0.4c1.2-1.7,1.8-3.4,1.8-4.9c0-1.8-0.8-3.3-2-4.6c-1.8-1.9-4.4-3.2-7.1-4.1
		c-2.7-0.9-5.4-1.4-7.3-1.4c-0.1,0-0.2,0-0.4,0c-1.4,0-4,0-7.4,0.2l0,0l0,0c-1.6,0.1-3.5,0.2-5.4,0.5l0.1,0.7V0.8h0h0l0,0
		c-2.4,0.3-5,0.6-7.7,1.2l0.1,0.6V2h0h-0.1l-0.1,0c-1.3,0.3-2.7,0.6-4,0.9l0,0c-1.7,0.4-3.3,0.9-5,1.5L54.8,5V4.3h0h-0.1l-0.1,0
		c-1.1,0.4-2.1,0.8-3.1,1.2l0.3,0.6V5.5h0h-0.1l-0.1,0.1c-1.6,0.7-3.1,1.4-4.5,2.2l0,0c-0.8,0.4-1.6,0.9-2.4,1.4l0,0
		c-3.1,2.1-5.8,4.6-7.8,7.7c-2,3.1-3.2,6.9-3.5,11.3l0,0.1l0,0.1c0,0,0.2,1.7,0.7,3.6c0.3,0.9,0.7,1.9,1.2,2.8
		c0.5,0.9,1.2,1.6,2.2,2c0.8,0.3,1.5,0.5,2.2,0.5c0.8,0,1.5-0.2,2.2-0.5c1.2-0.6,2.4-1.5,3.7-2.6c3.8-3.5,8.7-9,18.8-13
		c5.4-2.1,10-2.7,13.9-2.7c4.9,0,8.9,0.9,12.3,0.9c1.6,0,3.1-0.2,4.6-0.9c1.4-0.7,2.7-1.7,3.9-3.4l0,0L98.6,14.7z"/>
	<path class="st6" d="M61.1,7.7v0.9c0,0.6-0.5,1.2-1.1,1.3c-0.6,0.1-1.2,0.2-1.8,0.3h0c-0.7,0.1-1.5,0.3-2.3,0.5
		c-0.9,0.2-1.9,0.5-2.8,0.8h0c-0.6,0.2-1.2,0.4-1.8,0.7h0c-0.9,0.4-1.7,0.8-2.5,1.2c-0.4,0.2-0.9,0.5-1.3,0.8
		c-2.4,1.6-4.4,3.7-5.4,6.5c-0.2,0.5-0.7,0.8-1.2,0.8c-0.9,0-1.5-0.8-1.3-1.6c0.9-3.2,3-5.6,5.7-7.4c0.4-0.3,0.9-0.6,1.3-0.8
		c0.8-0.5,1.7-0.9,2.5-1.2h0c0.6-0.2,1.2-0.5,1.8-0.7h0c0.9-0.3,1.8-0.6,2.8-0.8c0.8-0.2,1.5-0.4,2.3-0.5h0c1.5-0.3,3-0.5,4.3-0.7h0
		C60.6,7.7,60.9,7.7,61.1,7.7z"/>
	<path class="st7" d="M97.5,14.5c-6.6,8.8-15.3-1.5-33.8,5.5c-17.2,6.5-19.3,17.6-26,14.9c-1.1-0.4-1.3-2.3-1.8-3.5
		c0.3,0.3,1,1,1.4,1.2c6.7,2.7,7.8-8.2,25-14.7c18.5-7,27.2,3.3,33.8-5.5c1.8-2.4,1.9-4.2,1.2-5.9C99.4,8.4,100,11.1,97.5,14.5z"/>
	<polygon class="st8" points="75.4,17.7 75.4,38.2 61.8,38.2 61.8,17.7 61.8,2.3 75.4,0.7 	"/>
	<polygon class="st3" points="75.4,17.7 74.7,17.7 74.7,37.5 62.5,37.5 62.5,17.7 62.5,2.9 74.7,1.5 74.7,17.7 75.4,17.7 76.1,17.7 
		76.1,0 61.2,1.8 61.2,17.7 61.2,38.9 76.1,38.9 76.1,17.7 	"/>
</g>
<g>
	<path class="st2" d="M139.8,41.9h-37.3c-6.8,0-12.3-5.6-12.3-12.3v-1.9c0-6.8,5.6-12.3,12.3-12.3h37.3c6.8,0,12.3,5.6,12.3,12.3
		v1.9C152.1,36.4,146.6,41.9,139.8,41.9z"/>
	<path class="st3" d="M139.8,41.9v-0.7h-37.3c-3.2,0-6.1-1.3-8.2-3.4c-2.1-2.1-3.4-5-3.4-8.2v-1.9c0-3.2,1.3-6.1,3.4-8.2
		c2.1-2.1,5-3.4,8.2-3.4h37.3c3.2,0,6.1,1.3,8.2,3.4c2.1,2.1,3.4,5,3.4,8.2v1.9c0,3.2-1.3,6.1-3.4,8.2c-2.1,2.1-5,3.4-8.2,3.4V41.9
		v0.7c7.2,0,13-5.8,13-13v-1.9c0-7.2-5.8-13-13-13h-37.3c-7.2,0-13,5.8-13,13v1.9c0,7.2,5.8,13,13,13h37.3V41.9z"/>
	<path class="st4" d="M148.1,26.9c0.6,0,1.1,0.5,1,1.2c-0.7,6.2-5.9,11-12.3,11h-14.7c-0.6,0-1-0.5-1-1c0-0.6,0.5-1,1-1h12.8
		c5.8,0,10.6-4,12-9.3c0.1-0.5,0.5-0.8,1-0.8H148.1z"/>
	<path class="st5" d="M150.8,18.4c-6.7,9.3-15.6-1.5-34.4,5.8C98.9,31,96.7,42.6,89.9,39.8c-3-1.3-3.7-7.9-3.7-7.9
		c0.5-8.6,4.9-14.4,11-18.5c0.7-0.5,1.5-1,2.3-1.4c1.4-0.8,2.9-1.5,4.4-2.2h0c1-0.4,2-0.8,3.1-1.2h0c1.6-0.6,3.3-1,4.9-1.4
		c1.3-0.3,2.7-0.6,4-0.9h0c2.7-0.5,5.2-0.9,7.6-1.2h0c1.9-0.2,3.8-0.4,5.4-0.5c3.7-0.2,6.6-0.2,7.8-0.2
		C142.5,4.5,157.4,9.2,150.8,18.4z"/>
	<path class="st3" d="M150.8,18.4l-0.5-0.4c-1.1,1.5-2.2,2.4-3.4,3c-1.2,0.5-2.5,0.7-4,0.7c-3.2,0-7.2-0.9-12.3-0.9
		c-4.1,0-8.8,0.6-14.4,2.8c-7.9,3.1-12.8,7.2-16.3,10.4c-1.8,1.6-3.2,3.1-4.4,4.1c-0.6,0.5-1.2,0.9-1.8,1.1
		c-0.6,0.3-1.1,0.4-1.7,0.4c-0.5,0-1.1-0.1-1.7-0.4c-0.6-0.2-1.1-0.8-1.6-1.5c-0.7-1.1-1.1-2.6-1.4-3.8c-0.1-0.6-0.2-1.1-0.3-1.5
		c0-0.2,0-0.3-0.1-0.4l0-0.1l0,0l-0.7,0.1l0.7,0c0.2-4.2,1.4-7.7,3.3-10.6c1.9-3,4.4-5.4,7.4-7.3l0,0l0,0c0.7-0.5,1.5-1,2.3-1.4l0,0
		c1.4-0.8,2.9-1.5,4.4-2.1l-0.3-0.6v0.7h0h0.1l0.1,0c1-0.4,2-0.8,3.1-1.2L107,8.7v0.7h0h0.1l0.1,0c1.6-0.5,3.2-1,4.8-1.4l0,0
		c1.3-0.3,2.7-0.6,4-0.9l-0.1-0.6V7h0h0.1l0.1,0c2.6-0.5,5.2-0.9,7.6-1.2l-0.1-0.7v0.7h0h0l0,0c1.9-0.2,3.7-0.4,5.4-0.5l0,0
		c3.4-0.2,6-0.2,7.4-0.2c0.1,0,0.3,0,0.4,0c1.1,0,2.7,0.2,4.3,0.6c2.5,0.6,5.2,1.6,7.3,3c1,0.7,1.9,1.5,2.5,2.4
		c0.6,0.9,0.9,1.8,0.9,2.8c0,1.2-0.4,2.5-1.6,4.1l0,0L150.8,18.4l0.5,0.4c1.2-1.7,1.8-3.4,1.8-4.9c0-1.8-0.8-3.3-2-4.6
		c-1.8-1.9-4.4-3.2-7.1-4.1c-2.7-0.9-5.4-1.4-7.3-1.4c-0.1,0-0.2,0-0.4,0c-1.4,0-4,0-7.4,0.2l0,0l0,0c-1.6,0.1-3.5,0.2-5.4,0.5
		l0.1,0.7V4.5h0h0l0,0c-2.4,0.3-5,0.6-7.7,1.2l0.1,0.6V5.7h0h-0.1l-0.1,0c-1.3,0.3-2.7,0.6-4,0.9l0,0c-1.7,0.4-3.3,0.9-5,1.5
		l0.2,0.6V8h0h-0.1l-0.1,0c-1.1,0.4-2.1,0.8-3.1,1.2l0.3,0.6V9.2h0h-0.1l-0.1,0.1c-1.6,0.7-3.1,1.4-4.5,2.2l0,0
		c-0.8,0.4-1.6,0.9-2.4,1.4l0,0C93.7,15,91,17.5,89,20.6c-2,3.1-3.2,6.9-3.5,11.3l0,0.1l0,0.1c0,0,0.2,1.7,0.7,3.6
		c0.3,0.9,0.7,1.9,1.2,2.8c0.5,0.9,1.2,1.6,2.2,2c0.8,0.3,1.5,0.5,2.2,0.5c0.8,0,1.5-0.2,2.2-0.5c1.2-0.6,2.4-1.5,3.7-2.6
		c3.8-3.5,8.7-9,18.8-13c5.4-2.1,10-2.7,13.9-2.7c4.9,0,8.9,0.9,12.3,0.9c1.6,0,3.1-0.2,4.6-0.9c1.4-0.7,2.7-1.7,3.9-3.4l0,0
		L150.8,18.4z"/>
	<path class="st6" d="M113.3,11.4v0.9c0,0.6-0.5,1.2-1.1,1.3c-0.6,0.1-1.2,0.2-1.8,0.3h0c-0.7,0.1-1.5,0.3-2.3,0.5
		c-0.9,0.2-1.9,0.5-2.8,0.8h0c-0.6,0.2-1.2,0.4-1.8,0.7h0c-0.9,0.4-1.7,0.8-2.5,1.2c-0.4,0.2-0.9,0.5-1.3,0.8
		c-2.4,1.6-4.4,3.7-5.4,6.5c-0.2,0.5-0.7,0.8-1.2,0.8c-0.9,0-1.5-0.8-1.3-1.6c0.9-3.2,3-5.6,5.7-7.4c0.4-0.3,0.9-0.6,1.3-0.8
		c0.8-0.5,1.7-0.9,2.5-1.2h0c0.6-0.2,1.2-0.5,1.8-0.7h0c0.9-0.3,1.8-0.6,2.8-0.8c0.8-0.2,1.5-0.4,2.3-0.5h0c1.5-0.3,3-0.5,4.3-0.7h0
		C112.8,11.5,113.1,11.4,113.3,11.4z"/>
	<path class="st7" d="M149.7,18.2c-6.6,8.8-15.3-1.5-33.8,5.5c-17.2,6.5-19.3,17.6-26,14.9c-1.1-0.4-1.3-2.3-1.8-3.5
		c0.3,0.3,1,1,1.4,1.2c6.7,2.7,7.8-8.2,25-14.7c18.5-7,27.2,3.3,33.8-5.5c1.8-2.4,1.9-4.2,1.2-5.9C151.6,12.2,152.2,14.8,149.7,18.2
		z"/>
	<polygon class="st8" points="127.6,21.4 127.6,41.9 114,41.9 114,21.4 114,6.1 127.6,4.5 	"/>
	<polygon class="st3" points="127.6,21.4 126.9,21.4 126.9,41.3 114.7,41.3 114.7,21.4 114.7,6.6 126.9,5.2 126.9,21.4 127.6,21.4 
		128.3,21.4 128.3,3.7 113.4,5.5 113.4,21.4 113.4,42.6 128.3,42.6 128.3,21.4 	"/>
</g>
</svg>
