<?xml version="1.0" encoding="utf-8"?>
<!-- Generator: Adobe Illustrator 22.0.1, SVG Export Plug-In . SVG Version: 6.00 Build 0)  -->
<svg version="1.1" id="Layer_1" xmlns="http://www.w3.org/2000/svg" xmlns:xlink="http://www.w3.org/1999/xlink" x="0px" y="0px"
	 viewBox="0 0 186 63.8" style="enable-background:new 0 0 186 63.8;" xml:space="preserve">
<style type="text/css">
	.st0{fill:#EDEDED;stroke:#28373A;stroke-width:2;stroke-miterlimit:10;}
	.st1{fill:#D8D8D8;}
	.st2{fill:#DAEDF1;}
	.st3{fill:#28373A;}
	.st4{fill:#5C903F;}
	.st5{fill:#77C045;}
	.st6{fill:#D72C27;}
	.st7{fill:#D65629;}
	.st8{fill:#7AC143;}
</style>
<g id="plate_6_">
	<path class="st0" d="M185,43.5c0,3.2-6.5,6.1-17.6,8.5c-16.7,3.6-43.8,6-74.4,6c-30.6,0-57.7-2.4-74.4-6C7.5,49.7,1,46.7,1,43.5
		C1,35.5,42.2,29,93,29S185,35.5,185,43.5z"/>
	<path class="st0" d="M167.4,52.1c-0.1,2.9-1.3,5.5-3.3,7.5c-2,2-4.8,3.3-7.8,3.3H29.6c-6,0-10.9-4.8-11.1-10.7
		c16.7,3.6,43.8,6,74.4,6C123.6,58.1,150.7,55.7,167.4,52.1z"/>
	<ellipse class="st1" cx="93" cy="44.6" rx="56" ry="6"/>
</g>
<g>
	<path class="st2" d="M91.7,6.6c0,3.2-10.8,5.7-24.1,5.7c-13.3,0-24.1-2.5-24.1-5.7c0-3.1,10.8-5.7,24.1-5.7
		C80.9,0.9,91.7,3.4,91.7,6.6z"/>
	<path class="st3" d="M91.7,6.6h-0.9c0,0.1-0.1,0.3-0.3,0.6c-0.4,0.5-1.3,1.1-2.7,1.6c-2,0.8-4.9,1.5-8.4,1.9
		c-3.5,0.5-7.5,0.7-11.9,0.7c-6.6,0-12.6-0.6-16.8-1.6C48.7,9.3,47,8.7,45.9,8c-0.6-0.3-0.9-0.6-1.2-0.9c-0.2-0.3-0.3-0.4-0.3-0.6
		c0-0.1,0.1-0.3,0.3-0.6c0.4-0.5,1.3-1.1,2.7-1.6c2-0.8,4.9-1.5,8.4-1.9c3.5-0.5,7.5-0.7,11.9-0.7c6.6,0,12.6,0.6,16.8,1.6
		c2.1,0.5,3.8,1.1,4.9,1.7c0.6,0.3,0.9,0.6,1.2,0.9c0.2,0.3,0.3,0.4,0.3,0.6H91.7h0.9c0-0.6-0.3-1.2-0.7-1.7c-0.7-0.8-1.9-1.5-3.3-2
		c-2.2-0.9-5.2-1.6-8.8-2C76.1,0.3,72,0,67.6,0c-6.7,0-12.8,0.6-17.2,1.7c-2.2,0.5-4,1.2-5.4,1.9c-0.7,0.4-1.2,0.8-1.6,1.3
		c-0.4,0.5-0.7,1.1-0.7,1.7c0,0.6,0.3,1.2,0.7,1.7c0.7,0.8,1.9,1.5,3.3,2c2.2,0.9,5.2,1.6,8.8,2c3.6,0.5,7.7,0.8,12.1,0.8
		c6.7,0,12.8-0.6,17.2-1.7c2.2-0.5,4-1.2,5.4-1.9c0.7-0.4,1.2-0.8,1.6-1.3c0.4-0.5,0.7-1.1,0.7-1.7H91.7z"/>
	<path class="st4" d="M91.7,6.6v29c0,3.2-10.8,5.7-24.1,5.7c-13.3,0-24.1-2.5-24.1-5.7v-29c0,3.2,10.8,5.7,24.1,5.7
		C80.9,12.3,91.7,9.7,91.7,6.6z"/>
	<path class="st3" d="M91.7,6.6h-0.9v29c0,0.1-0.1,0.3-0.3,0.6c-0.4,0.5-1.3,1.1-2.7,1.6c-2,0.8-4.9,1.5-8.4,1.9
		c-3.5,0.5-7.5,0.7-11.9,0.7c-6.6,0-12.6-0.6-16.8-1.6c-2.1-0.5-3.8-1.1-4.9-1.7c-0.6-0.3-0.9-0.6-1.2-0.9c-0.2-0.3-0.3-0.4-0.3-0.6
		v-29h-1.7c0,0.6,0.3,1.2,0.7,1.7c0.7,0.8,1.9,1.5,3.3,2c2.2,0.9,5.2,1.6,8.8,2c3.6,0.5,7.7,0.8,12.1,0.8c6.7,0,12.8-0.6,17.2-1.7
		c2.2-0.5,4-1.2,5.4-1.9c0.7-0.4,1.2-0.8,1.6-1.3c0.4-0.5,0.7-1.1,0.7-1.7h-1.7H91.7h-0.9c0,0.1-0.1,0.3-0.3,0.6
		c-0.4,0.5-1.3,1.1-2.7,1.6c-2,0.8-4.9,1.5-8.4,1.9c-3.5,0.5-7.5,0.7-11.9,0.7c-6.6,0-12.6-0.6-16.8-1.6C48.7,9.3,47,8.7,45.9,8
		c-0.6-0.3-0.9-0.6-1.2-0.9c-0.2-0.3-0.3-0.4-0.3-0.6h-1.7v29c0,0.6,0.3,1.2,0.7,1.7c0.7,0.8,1.9,1.5,3.3,2c2.2,0.9,5.2,1.6,8.8,2
		c3.6,0.5,7.7,0.8,12.1,0.8c6.7,0,12.8-0.6,17.2-1.7c2.2-0.5,4-1.2,5.4-1.9c0.7-0.4,1.2-0.8,1.6-1.3c0.4-0.5,0.7-1.1,0.7-1.7v-29
		h-1.7H91.7z"/>
	<path class="st5" d="M88.5,22.1c0.3,0,0.5,0.3,0.5,0.8v9.3c0,1.8-6.2,3.3-13.9,3.4c-0.3,0-0.5-0.3-0.5-0.8c0-0.4,0.2-0.8,0.5-0.8
		c7.1-0.2,12.5-1.6,12.5-3.4v-7.8c0-0.4,0.2-0.8,0.5-0.8H88.5z"/>
	<ellipse class="st6" cx="67.6" cy="6.6" rx="14.1" ry="2"/>
	<path class="st3" d="M81.8,6.6h0.4c0-0.2-0.1-0.3-0.2-0.5c-0.2-0.2-0.4-0.4-0.7-0.5c-0.5-0.2-1.2-0.4-2.1-0.6
		c-2.6-0.5-6.9-0.9-11.7-0.9c-3.9,0-7.5,0.2-10.1,0.6c-1.3,0.2-2.3,0.4-3.1,0.7c-0.4,0.1-0.7,0.3-0.9,0.4c-0.1,0.1-0.2,0.2-0.3,0.3
		C53.1,6.2,53,6.4,53,6.6c0,0.2,0.1,0.3,0.2,0.5c0.2,0.2,0.4,0.4,0.7,0.5C54.4,7.8,55,8,55.9,8.1C58.5,8.7,62.8,9,67.6,9
		c3.9,0,7.5-0.2,10.1-0.6C79,8.2,80,8,80.8,7.8c0.4-0.1,0.7-0.3,0.9-0.4C81.8,7.2,81.9,7.1,82,7c0.1-0.1,0.2-0.3,0.2-0.5H81.8h-0.4
		h0.1l-0.1,0l0,0h0.1l-0.1,0l0,0l0,0l0,0l0,0l0,0c0,0-0.1,0.1-0.3,0.2c-0.4,0.2-1,0.4-1.8,0.5c-2.5,0.5-6.7,0.9-11.5,0.9
		c-3.9,0-7.4-0.2-9.9-0.6c-1.3-0.2-2.3-0.4-3-0.6c-0.3-0.1-0.6-0.2-0.7-0.3l-0.1-0.1l0,0l0,0l0,0l0,0l0,0l-0.1,0l0.1,0l0,0l-0.1,0
		l0.1,0h-0.1l0.1,0l0,0h-0.1l0.1,0l0,0l0,0l0,0l0,0l0,0c0,0,0.1-0.1,0.3-0.2c0.4-0.2,1-0.4,1.8-0.5c2.5-0.5,6.7-0.9,11.5-0.9
		c3.9,0,7.4,0.2,9.9,0.6c1.3,0.2,2.3,0.4,3,0.6c0.3,0.1,0.6,0.2,0.7,0.3l0.1,0.1l0,0l0,0l0,0l0,0l0,0l0.1,0l-0.1,0l0,0l0.1,0l-0.1,0
		H81.8z"/>
	<path class="st2" d="M142.5,6.6c0,3.2-10.8,5.7-24.1,5.7c-13.3,0-24.1-2.5-24.1-5.7c0-3.1,10.8-5.7,24.1-5.7
		C131.7,0.9,142.5,3.4,142.5,6.6z"/>
	<path class="st3" d="M142.5,6.6h-0.9c0,0.1-0.1,0.3-0.3,0.6c-0.4,0.5-1.3,1.1-2.7,1.6c-2,0.8-4.9,1.5-8.4,1.9
		c-3.5,0.5-7.5,0.7-11.9,0.7c-6.6,0-12.6-0.6-16.8-1.6c-2.1-0.5-3.8-1.1-4.9-1.7c-0.6-0.3-0.9-0.6-1.2-0.9c-0.2-0.3-0.3-0.4-0.3-0.6
		c0-0.1,0.1-0.3,0.3-0.6c0.4-0.5,1.3-1.1,2.7-1.6c2-0.8,4.9-1.5,8.4-1.9c3.5-0.5,7.5-0.7,11.9-0.7c6.6,0,12.6,0.6,16.8,1.6
		c2.1,0.5,3.8,1.1,4.9,1.7c0.6,0.3,0.9,0.6,1.2,0.9c0.2,0.3,0.3,0.4,0.3,0.6H142.5h0.9c0-0.6-0.3-1.2-0.7-1.7
		c-0.7-0.8-1.9-1.5-3.3-2c-2.2-0.9-5.2-1.6-8.8-2c-3.6-0.5-7.7-0.8-12.1-0.8c-6.7,0-12.8,0.6-17.2,1.7c-2.2,0.5-4,1.2-5.4,1.9
		c-0.7,0.4-1.2,0.8-1.6,1.3c-0.4,0.5-0.7,1.1-0.7,1.7c0,0.6,0.3,1.2,0.7,1.7c0.7,0.8,1.9,1.5,3.3,2c2.2,0.9,5.2,1.6,8.8,2
		c3.6,0.5,7.7,0.8,12.1,0.8c6.7,0,12.8-0.6,17.2-1.7c2.2-0.5,4-1.2,5.4-1.9c0.7-0.4,1.2-0.8,1.6-1.3c0.4-0.5,0.7-1.1,0.7-1.7H142.5z
		"/>
	<path class="st4" d="M142.5,6.6v29c0,3.2-10.8,5.7-24.1,5.7c-13.3,0-24.1-2.5-24.1-5.7v-29c0,3.2,10.8,5.7,24.1,5.7
		C131.7,12.3,142.5,9.7,142.5,6.6z"/>
	<path class="st3" d="M142.5,6.6h-0.9v29c0,0.1-0.1,0.3-0.3,0.6c-0.4,0.5-1.3,1.1-2.7,1.6c-2,0.8-4.9,1.5-8.4,1.9
		c-3.5,0.5-7.5,0.7-11.9,0.7c-6.6,0-12.6-0.6-16.8-1.6c-2.1-0.5-3.8-1.1-4.9-1.7c-0.6-0.3-0.9-0.6-1.2-0.9c-0.2-0.3-0.3-0.4-0.3-0.6
		v-29h-1.7c0,0.6,0.3,1.2,0.7,1.7c0.7,0.8,1.9,1.5,3.3,2c2.2,0.9,5.2,1.6,8.8,2c3.6,0.5,7.7,0.8,12.1,0.8c6.7,0,12.8-0.6,17.2-1.7
		c2.2-0.5,4-1.2,5.4-1.9c0.7-0.4,1.2-0.8,1.6-1.3c0.4-0.5,0.7-1.1,0.7-1.7h-1.7H142.5h-0.9c0,0.1-0.1,0.3-0.3,0.6
		c-0.4,0.5-1.3,1.1-2.7,1.6c-2,0.8-4.9,1.5-8.4,1.9c-3.5,0.5-7.5,0.7-11.9,0.7c-6.6,0-12.6-0.6-16.8-1.6c-2.1-0.5-3.8-1.1-4.9-1.7
		c-0.6-0.3-0.9-0.6-1.2-0.9c-0.2-0.3-0.3-0.4-0.3-0.6h-1.7v29c0,0.6,0.3,1.2,0.7,1.7c0.7,0.8,1.9,1.5,3.3,2c2.2,0.9,5.2,1.6,8.8,2
		c3.6,0.5,7.7,0.8,12.1,0.8c6.7,0,12.8-0.6,17.2-1.7c2.2-0.5,4-1.2,5.4-1.9c0.7-0.4,1.2-0.8,1.6-1.3c0.4-0.5,0.7-1.1,0.7-1.7v-29
		h-1.7H142.5z"/>
	<path class="st5" d="M139.2,22.1c0.3,0,0.5,0.3,0.5,0.8v9.3c0,1.8-6.2,3.3-13.9,3.4c-0.3,0-0.5-0.3-0.5-0.8c0-0.4,0.2-0.8,0.5-0.8
		c7.1-0.2,12.5-1.6,12.5-3.4v-7.8c0-0.4,0.2-0.8,0.5-0.8H139.2z"/>
	<ellipse class="st7" cx="118.4" cy="6.6" rx="14.1" ry="2"/>
	<path class="st3" d="M132.5,6.6h0.4c0-0.2-0.1-0.3-0.2-0.5c-0.2-0.2-0.4-0.4-0.7-0.5c-0.5-0.2-1.2-0.4-2.1-0.6
		c-2.6-0.5-6.9-0.9-11.7-0.9c-3.9,0-7.5,0.2-10.1,0.6c-1.3,0.2-2.3,0.4-3.1,0.7c-0.4,0.1-0.7,0.3-0.9,0.4c-0.1,0.1-0.2,0.2-0.3,0.3
		c-0.1,0.1-0.2,0.3-0.2,0.5c0,0.2,0.1,0.3,0.2,0.5c0.2,0.2,0.4,0.4,0.7,0.5c0.5,0.2,1.2,0.4,2.1,0.6c2.6,0.5,6.9,0.9,11.7,0.9
		c3.9,0,7.5-0.2,10.1-0.6c1.3-0.2,2.3-0.4,3.1-0.7c0.4-0.1,0.7-0.3,0.9-0.4c0.1-0.1,0.2-0.2,0.3-0.3c0.1-0.1,0.2-0.3,0.2-0.5H132.5
		h-0.4h0.1l-0.1,0l0,0h0.1l-0.1,0l0,0l0,0l0,0l0,0l0,0c0,0-0.1,0.1-0.3,0.2c-0.4,0.2-1,0.4-1.8,0.5c-2.5,0.5-6.7,0.9-11.5,0.9
		c-3.9,0-7.4-0.2-9.9-0.6c-1.3-0.2-2.3-0.4-3-0.6c-0.3-0.1-0.6-0.2-0.7-0.3l-0.1-0.1l0,0l0,0l0,0l0,0l0,0l-0.1,0l0.1,0l0,0l-0.1,0
		l0.1,0h-0.1l0.1,0l0,0h-0.1l0.1,0l0,0l0,0l0,0l0,0l0,0c0,0,0.1-0.1,0.3-0.2c0.4-0.2,1-0.4,1.8-0.5c2.5-0.5,6.7-0.9,11.5-0.9
		c3.9,0,7.4,0.2,9.9,0.6c1.3,0.2,2.3,0.4,3,0.6c0.3,0.1,0.6,0.2,0.7,0.3l0.1,0.1l0,0l0,0l0,0l0,0l0,0l0.1,0l-0.1,0l0,0l0.1,0l-0.1,0
		H132.5z"/>
	<path class="st2" d="M115.7,20.4c0,3.2-10.8,5.7-24.1,5.7c-13.3,0-24.1-2.5-24.1-5.7c0-3.1,10.8-5.7,24.1-5.7
		C105,14.7,115.7,17.3,115.7,20.4z"/>
	<path class="st3" d="M115.7,20.4h-0.9c0,0.1-0.1,0.3-0.3,0.6c-0.4,0.5-1.3,1.1-2.7,1.6c-2,0.8-4.9,1.5-8.4,1.9
		c-3.5,0.5-7.5,0.7-11.9,0.7c-6.6,0-12.6-0.6-16.8-1.6c-2.1-0.5-3.8-1.1-4.9-1.7c-0.6-0.3-0.9-0.6-1.2-0.9c-0.2-0.3-0.3-0.4-0.3-0.6
		c0-0.1,0.1-0.3,0.3-0.6c0.4-0.5,1.3-1.1,2.7-1.6c2-0.8,4.9-1.5,8.4-1.9c3.5-0.5,7.5-0.7,11.9-0.7c6.6,0,12.6,0.6,16.8,1.6
		c2.1,0.5,3.8,1.1,4.9,1.7c0.6,0.3,0.9,0.6,1.2,0.9c0.2,0.3,0.3,0.4,0.3,0.6H115.7h0.9c0-0.6-0.3-1.2-0.7-1.7
		c-0.7-0.8-1.9-1.5-3.3-2c-2.2-0.9-5.2-1.6-8.8-2c-3.6-0.5-7.7-0.8-12.1-0.8c-6.7,0-12.8,0.6-17.2,1.7c-2.2,0.5-4,1.2-5.4,1.9
		c-0.7,0.4-1.2,0.8-1.6,1.3c-0.4,0.5-0.7,1.1-0.7,1.7c0,0.6,0.3,1.2,0.7,1.7c0.7,0.8,1.9,1.5,3.3,2c2.2,0.9,5.2,1.6,8.8,2
		c3.6,0.5,7.7,0.8,12.1,0.8c6.7,0,12.8-0.6,17.2-1.7c2.2-0.5,4-1.2,5.4-1.9c0.7-0.4,1.2-0.8,1.6-1.3c0.4-0.5,0.7-1.1,0.7-1.7H115.7z
		"/>
	<path class="st4" d="M115.7,20.4v29c0,3.2-10.8,5.7-24.1,5.7c-13.3,0-24.1-2.5-24.1-5.7v-29c0,3.2,10.8,5.7,24.1,5.7
		C105,26.1,115.7,23.6,115.7,20.4z"/>
	<path class="st3" d="M115.7,20.4h-0.9v29c0,0.1-0.1,0.3-0.3,0.6c-0.4,0.5-1.3,1.1-2.7,1.6c-2,0.8-4.9,1.5-8.4,1.9
		c-3.5,0.5-7.5,0.7-11.9,0.7c-6.6,0-12.6-0.6-16.8-1.6c-2.1-0.5-3.8-1.1-4.9-1.7c-0.6-0.3-0.9-0.6-1.2-0.9c-0.2-0.3-0.3-0.4-0.3-0.6
		v-29h-1.7c0,0.6,0.3,1.2,0.7,1.7c0.7,0.8,1.9,1.5,3.3,2c2.2,0.9,5.2,1.6,8.8,2c3.6,0.5,7.7,0.8,12.1,0.8c6.7,0,12.8-0.6,17.2-1.7
		c2.2-0.5,4-1.2,5.4-1.9c0.7-0.4,1.2-0.8,1.6-1.3c0.4-0.5,0.7-1.1,0.7-1.7h-1.7H115.7h-0.9c0,0.1-0.1,0.3-0.3,0.6
		c-0.4,0.5-1.3,1.1-2.7,1.6c-2,0.8-4.9,1.5-8.4,1.9c-3.5,0.5-7.5,0.7-11.9,0.7c-6.6,0-12.6-0.6-16.8-1.6c-2.1-0.5-3.8-1.1-4.9-1.7
		c-0.6-0.3-0.9-0.6-1.2-0.9c-0.2-0.3-0.3-0.4-0.3-0.6h-1.7v29c0,0.6,0.3,1.2,0.7,1.7c0.7,0.8,1.9,1.5,3.3,2c2.2,0.9,5.2,1.6,8.8,2
		c3.6,0.5,7.7,0.8,12.1,0.8c6.7,0,12.8-0.6,17.2-1.7c2.2-0.5,4-1.2,5.4-1.9c0.7-0.4,1.2-0.8,1.6-1.3c0.4-0.5,0.7-1.1,0.7-1.7v-29
		h-1.7H115.7z"/>
	<path class="st5" d="M112.5,36c0.3,0,0.5,0.3,0.5,0.8v9.3c0,1.8-6.2,3.3-13.9,3.4c-0.3,0-0.5-0.3-0.5-0.8c0-0.4,0.2-0.8,0.5-0.8
		c7.1-0.2,12.5-1.6,12.5-3.4v-7.8c0-0.4,0.2-0.8,0.5-0.8H112.5z"/>
	<ellipse class="st8" cx="91.7" cy="20.4" rx="14.1" ry="2"/>
	<path class="st3" d="M105.8,20.4h0.4c0-0.2-0.1-0.3-0.2-0.5c-0.2-0.2-0.4-0.4-0.7-0.5c-0.5-0.2-1.2-0.4-2.1-0.6
		c-2.6-0.5-6.9-0.9-11.7-0.9c-3.9,0-7.5,0.2-10.1,0.6c-1.3,0.2-2.3,0.4-3.1,0.7c-0.4,0.1-0.7,0.3-0.9,0.4c-0.1,0.1-0.2,0.2-0.3,0.3
		c-0.1,0.1-0.2,0.3-0.2,0.5c0,0.2,0.1,0.3,0.2,0.5c0.2,0.2,0.4,0.4,0.7,0.5c0.5,0.2,1.2,0.4,2.1,0.6c2.6,0.5,6.9,0.9,11.7,0.9
		c3.9,0,7.5-0.2,10.1-0.6c1.3-0.2,2.3-0.4,3.1-0.7c0.4-0.1,0.7-0.3,0.9-0.4c0.1-0.1,0.2-0.2,0.3-0.3c0.1-0.1,0.2-0.3,0.2-0.5H105.8
		h-0.4h0.1l-0.1,0l0,0h0.1l-0.1,0l0,0l0,0l0,0l0,0l0,0c0,0-0.1,0.1-0.3,0.2c-0.4,0.2-1,0.4-1.8,0.5c-2.5,0.5-6.7,0.9-11.5,0.9
		c-3.9,0-7.4-0.2-9.9-0.6c-1.3-0.2-2.3-0.4-3-0.6c-0.3-0.1-0.6-0.2-0.7-0.3L78,20.4l0,0l0,0l0,0l0,0l0,0l-0.1,0l0.1,0l0,0l-0.1,0
		l0.1,0h-0.1l0.1,0l0,0h-0.1l0.1,0l0,0l0,0l0,0l0,0l0,0c0,0,0.1-0.1,0.3-0.2c0.4-0.2,1-0.4,1.8-0.5c2.5-0.5,6.7-0.9,11.5-0.9
		c3.9,0,7.4,0.2,9.9,0.6c1.3,0.2,2.3,0.4,3,0.6c0.3,0.1,0.6,0.2,0.7,0.3l0.1,0.1l0,0l0,0l0,0l0,0l0,0l0.1,0l-0.1,0l0,0l0.1,0l-0.1,0
		H105.8z"/>
</g>
</svg>
