<?xml version="1.0" encoding="utf-8"?>
<!-- Generator: Adobe Illustrator 22.0.1, SVG Export Plug-In . SVG Version: 6.00 Build 0)  -->
<svg version="1.1" id="Layer_1" xmlns="http://www.w3.org/2000/svg" xmlns:xlink="http://www.w3.org/1999/xlink" x="0px" y="0px"
	 viewBox="0 0 186 54.7" style="enable-background:new 0 0 186 54.7;" xml:space="preserve">
<style type="text/css">
	.st0{fill:#EDEDED;stroke:#28373A;stroke-width:2;stroke-miterlimit:10;}
	.st1{fill:#D8D8D8;}
	.st2{fill:#DAEDF1;}
	.st3{fill:#28373A;}
	.st4{fill:#C6DDE5;}
	.st5{fill:#772B16;}
	.st6{fill:#A63D23;}
	.st7{fill:#5C903F;}
</style>
<g id="plate_11_">
	<path class="st0" d="M185,34.4c0,3.2-6.5,6.1-17.6,8.5c-16.7,3.6-43.8,6-74.4,6c-30.6,0-57.7-2.4-74.4-6C7.5,40.6,1,37.6,1,34.4
		c0-8,41.2-14.6,92-14.6S185,26.4,185,34.4z"/>
	<path class="st0" d="M167.4,43c-0.1,2.9-1.3,5.5-3.3,7.5c-2,2-4.8,3.3-7.8,3.3H29.6c-6,0-10.9-4.8-11.1-10.7
		c16.7,3.6,43.8,6,74.4,6C123.6,49,150.7,46.6,167.4,43z"/>
	<ellipse class="st1" cx="93" cy="35.5" rx="56" ry="6"/>
</g>
<g>
	<path class="st2" d="M91.4,38.2H54.1c-6.8,0-12.3-5.6-12.3-12.3v-1.9c0-6.8,5.6-12.3,12.3-12.3h37.3c6.8,0,12.3,5.6,12.3,12.3v1.9
		C103.7,32.6,98.2,38.2,91.4,38.2z"/>
	<path class="st3" d="M91.4,38.2v-0.7H54.1c-3.2,0-6.1-1.3-8.2-3.4c-2.1-2.1-3.4-5-3.4-8.2v-1.9c0-3.2,1.3-6.1,3.4-8.2
		c2.1-2.1,5-3.4,8.2-3.4h37.3c3.2,0,6.1,1.3,8.2,3.4c2.1,2.1,3.4,5,3.4,8.2v1.9c0,3.2-1.3,6.1-3.4,8.2c-2.1,2.1-5,3.4-8.2,3.4V38.2
		v0.7c7.2,0,13-5.8,13-13v-1.9c0-7.2-5.8-13-13-13H54.1c-7.2,0-13,5.8-13,13v1.9c0,7.2,5.8,13,13,13h37.3V38.2z"/>
	<path class="st4" d="M99.7,23.1c0.6,0,1.1,0.5,1,1.2c-0.7,6.2-5.9,11-12.3,11H73.7c-0.6,0-1-0.5-1-1c0-0.6,0.5-1,1-1h12.8
		c5.8,0,10.6-4,12-9.3c0.1-0.5,0.5-0.8,1-0.8H99.7z"/>
	<path class="st5" d="M102.3,15.1c-6.7,9.3-15.6-1.5-34.4,5.8c-17.5,6.8-19.7,18.4-26.5,15.6c-3-1.3-3.7-7.9-3.7-7.9
		c0.5-8.6,4.9-14.4,11-18.5c0.7-0.5,1.5-1,2.3-1.4c1.4-0.8,2.9-1.5,4.4-2.2h0c1-0.4,2-0.8,3.1-1.2h0c1.6-0.6,3.3-1,4.9-1.4
		c1.3-0.3,2.7-0.6,4-0.9h0c2.7-0.5,5.2-0.9,7.6-1.2h0c1.9-0.2,3.8-0.4,5.4-0.5c3.7-0.2,6.6-0.2,7.8-0.2C94.1,1.2,109,5.9,102.3,15.1
		z"/>
	<path class="st3" d="M102.3,15.1l-0.5-0.4c-1.1,1.5-2.2,2.4-3.4,3c-1.2,0.5-2.5,0.7-4,0.7c-3.2,0-7.2-0.9-12.3-0.9
		c-4.1,0-8.8,0.6-14.4,2.8l0,0c-7.9,3.1-12.8,7.2-16.3,10.4c-1.8,1.6-3.2,3.1-4.4,4.1c-0.6,0.5-1.2,0.9-1.8,1.1
		c-0.6,0.3-1.1,0.4-1.7,0.4c-0.5,0-1.1-0.1-1.7-0.4l0,0c-0.6-0.2-1.1-0.8-1.6-1.5c-0.7-1.1-1.1-2.6-1.4-3.8
		c-0.1-0.6-0.2-1.1-0.3-1.5c0-0.2,0-0.3-0.1-0.4l0-0.1l0,0l-0.7,0.1l0.7,0c0.2-4.2,1.4-7.7,3.3-10.6c1.9-3,4.4-5.4,7.4-7.3l0,0l0,0
		c0.7-0.5,1.5-1,2.3-1.4l0,0c1.4-0.8,2.9-1.5,4.4-2.1l-0.3-0.6v0.7h0h0.1l0.1,0c1-0.4,2-0.8,3.1-1.2l-0.2-0.6v0.7h0h0.1l0.1,0
		c1.6-0.5,3.2-1,4.8-1.4l0,0c1.3-0.3,2.7-0.6,4-0.9l-0.1-0.6v0.7h0h0.1l0.1,0c2.6-0.5,5.2-0.9,7.6-1.2l-0.1-0.7v0.7h0h0l0,0
		c1.9-0.2,3.7-0.4,5.4-0.5l0,0c3.4-0.2,6-0.2,7.4-0.2c0.1,0,0.3,0,0.4,0c1.1,0,2.7,0.2,4.3,0.6c2.5,0.6,5.2,1.6,7.3,3
		c1,0.7,1.9,1.5,2.5,2.4c0.6,0.9,0.9,1.8,0.9,2.8c0,1.2-0.4,2.5-1.6,4.1l0,0L102.3,15.1l0.5,0.4c1.2-1.7,1.8-3.4,1.8-4.9
		c0-1.8-0.8-3.3-2-4.6c-1.8-1.9-4.4-3.2-7.1-4.1c-2.7-0.9-5.4-1.4-7.3-1.4c-0.1,0-0.2,0-0.4,0c-1.4,0-4,0-7.4,0.2l0,0
		C78.9,0.9,77,1,75.1,1.3l0.1,0.7V1.3h0h0l0,0c-2.4,0.3-5,0.6-7.7,1.2l0.1,0.6V2.4h0h-0.1l-0.1,0c-1.3,0.3-2.7,0.6-4,0.9l0,0l0,0
		c-1.7,0.4-3.3,0.9-5,1.5l0.2,0.6V4.8h0h-0.1l-0.1,0c-1.1,0.4-2.1,0.8-3.1,1.2l0.3,0.6V5.9h0h-0.1L55.2,6c-1.6,0.7-3.1,1.4-4.5,2.2
		l0,0c-0.8,0.4-1.6,0.9-2.4,1.4l0,0c-3.1,2.1-5.8,4.6-7.8,7.7c-2,3.1-3.2,6.9-3.5,11.3l0,0.1l0,0.1c0,0,0.2,1.7,0.7,3.6
		c0.3,0.9,0.7,1.9,1.2,2.8c0.5,0.9,1.2,1.6,2.2,2l0.2,0.1l-0.2-0.1c0.8,0.3,1.5,0.5,2.2,0.5c0.8,0,1.5-0.2,2.2-0.5
		c1.2-0.6,2.4-1.5,3.7-2.6c3.8-3.5,8.7-9,18.8-13l0,0c5.4-2.1,10-2.7,13.9-2.7c4.9,0,8.9,0.9,12.3,0.9c1.6,0,3.1-0.2,4.6-0.9
		c1.4-0.7,2.7-1.7,3.9-3.4l0,0L102.3,15.1z"/>
	<path class="st6" d="M65.6,9.8v0.9c0,0.6-0.5,1.2-1.1,1.3c-0.6,0.1-1.2,0.2-1.8,0.3h0c-0.7,0.1-1.5,0.3-2.3,0.5
		c-0.9,0.2-1.9,0.5-2.8,0.8h0c-0.6,0.2-1.2,0.4-1.8,0.7h0c-0.9,0.4-1.7,0.8-2.5,1.2c-0.4,0.2-0.9,0.5-1.3,0.8
		c-2.4,1.6-4.4,3.7-5.4,6.5c-0.2,0.5-0.7,0.8-1.2,0.8c-0.9,0-1.5-0.8-1.3-1.6c0.9-3.2,3-5.6,5.7-7.4c0.4-0.3,0.9-0.6,1.3-0.8
		c0.8-0.5,1.7-0.9,2.5-1.2h0c0.6-0.2,1.2-0.5,1.8-0.7h0c0.9-0.3,1.8-0.6,2.8-0.8c0.8-0.2,1.5-0.4,2.3-0.5h0c1.5-0.3,3-0.5,4.3-0.7h0
		C65.2,9.9,65.4,9.9,65.6,9.8z"/>
	<polygon class="st7" points="79.2,17.7 79.2,38.2 65.6,38.2 65.6,17.7 65.6,2.3 79.2,0.7 	"/>
	<polygon class="st3" points="79.2,17.7 78.5,17.7 78.5,37.5 66.3,37.5 66.3,17.7 66.3,2.9 78.5,1.5 78.5,17.7 79.2,17.7 79.8,17.7 
		79.8,0 65,1.8 65,17.7 65,38.9 79.8,38.9 79.8,17.7 	"/>
</g>
<g>
	<path class="st2" d="M133.5,40.6H96.2c-6.8,0-12.3-5.6-12.3-12.3v-1.9c0-6.8,5.6-12.3,12.3-12.3h37.3c6.8,0,12.3,5.6,12.3,12.3v1.9
		C145.8,35,140.3,40.6,133.5,40.6z"/>
	<path class="st3" d="M133.5,40.6v-0.7H96.2c-3.2,0-6.1-1.3-8.2-3.4c-2.1-2.1-3.4-5-3.4-8.2v-1.9c0-3.2,1.3-6.1,3.4-8.2
		c2.1-2.1,5-3.4,8.2-3.4h37.3c3.2,0,6.1,1.3,8.2,3.4c2.1,2.1,3.4,5,3.4,8.2v1.9c0,3.2-1.3,6.1-3.4,8.2c-2.1,2.1-5,3.4-8.2,3.4V40.6
		v0.7c7.2,0,13-5.8,13-13v-1.9c0-7.2-5.8-13-13-13H96.2c-7.2,0-13,5.8-13,13v1.9c0,7.2,5.8,13,13,13h37.3V40.6z"/>
	<path class="st4" d="M141.9,25.5c0.6,0,1.1,0.5,1,1.2c-0.7,6.2-5.9,11-12.3,11h-14.7c-0.6,0-1-0.5-1-1c0-0.6,0.5-1,1-1h12.8
		c5.8,0,10.6-4,12-9.3c0.1-0.5,0.5-0.8,1-0.8H141.9z"/>
	<path class="st5" d="M144.5,17.5c-6.7,9.3-15.6-1.5-34.4,5.8c-17.5,6.8-19.7,18.4-26.5,15.6c-3-1.3-3.7-7.9-3.7-7.9
		c0.5-8.6,4.9-14.4,11-18.5c0.7-0.5,1.5-1,2.3-1.4c1.4-0.8,2.9-1.5,4.4-2.2h0c1-0.4,2-0.8,3.1-1.2h0c1.6-0.6,3.3-1,4.9-1.4
		c1.3-0.3,2.7-0.6,4-0.9h0c2.7-0.5,5.2-0.9,7.6-1.2h0c1.9-0.2,3.8-0.4,5.4-0.5c3.7-0.2,6.6-0.2,7.8-0.2
		C136.2,3.6,151.2,8.3,144.5,17.5z"/>
	<path class="st3" d="M144.5,17.5l-0.5-0.4c-1.1,1.5-2.2,2.4-3.4,3c-1.2,0.5-2.5,0.7-4,0.7c-3.2,0-7.2-0.9-12.3-0.9
		c-4.1,0-8.8,0.6-14.4,2.8l0,0c-7.9,3.1-12.8,7.2-16.3,10.4c-1.8,1.6-3.2,3.1-4.4,4.1c-0.6,0.5-1.2,0.9-1.8,1.1
		c-0.6,0.3-1.1,0.4-1.7,0.4c-0.5,0-1.1-0.1-1.7-0.4l0,0c-0.6-0.2-1.1-0.8-1.6-1.5c-0.7-1.1-1.1-2.6-1.4-3.8
		c-0.1-0.6-0.2-1.1-0.3-1.5c0-0.2,0-0.3-0.1-0.4l0-0.1l0,0L79.9,31l0.7,0c0.2-4.2,1.4-7.7,3.3-10.6c1.9-3,4.4-5.4,7.4-7.3l0,0l0,0
		c0.7-0.5,1.5-1,2.3-1.4l0,0c1.4-0.8,2.9-1.5,4.4-2.1L97.6,9v0.7h0h0.1l0.1,0c1-0.4,2-0.8,3.1-1.2l-0.2-0.6v0.7h0h0.1l0.1,0
		c1.6-0.5,3.2-1,4.8-1.4l0,0c1.3-0.3,2.7-0.6,4-0.9l-0.1-0.6v0.7h0h0.1l0.1,0c2.6-0.5,5.2-0.9,7.6-1.2l-0.1-0.7V5h0h0l0,0
		c1.9-0.2,3.7-0.4,5.4-0.5l0,0c3.4-0.2,6-0.2,7.4-0.2c0.1,0,0.3,0,0.4,0c1.1,0,2.7,0.2,4.3,0.6c2.5,0.6,5.2,1.6,7.3,3
		c1,0.7,1.9,1.5,2.5,2.4c0.6,0.9,0.9,1.8,0.9,2.8c0,1.2-0.4,2.5-1.6,4.1l0,0L144.5,17.5l0.5,0.4c1.2-1.7,1.8-3.4,1.8-4.9
		c0-1.8-0.8-3.3-2-4.6c-1.8-1.9-4.4-3.2-7.1-4.1c-2.7-0.9-5.4-1.4-7.3-1.4c-0.1,0-0.2,0-0.4,0c-1.4,0-4,0-7.4,0.2l0,0
		c-1.7,0.1-3.5,0.2-5.4,0.5l0.1,0.7V3.6h0h0l0,0c-2.4,0.3-5,0.6-7.7,1.2l0.1,0.6V4.8h0h-0.1l-0.1,0c-1.3,0.3-2.7,0.6-4,0.9l0,0l0,0
		c-1.7,0.4-3.3,0.9-5,1.5l0.2,0.6V7.1h0h-0.1l-0.1,0c-1.1,0.4-2.1,0.8-3.1,1.2L97.6,9V8.3h0h-0.1l-0.1,0.1c-1.6,0.7-3.1,1.4-4.5,2.2
		l0,0C92,11,91.3,11.5,90.5,12l0,0c-3.1,2.1-5.8,4.6-7.8,7.7c-2,3.1-3.2,6.9-3.5,11.3l0,0.1l0,0.1c0,0,0.2,1.7,0.7,3.6
		c0.3,0.9,0.7,1.9,1.2,2.8c0.5,0.9,1.2,1.6,2.2,2l0.2,0.1l-0.2-0.1c0.8,0.3,1.5,0.5,2.2,0.5c0.8,0,1.5-0.2,2.2-0.5
		c1.2-0.6,2.4-1.5,3.7-2.6c3.8-3.5,8.7-9,18.8-13l0,0c5.4-2.1,10-2.7,13.9-2.7c4.9,0,8.9,0.9,12.3,0.9c1.6,0,3.1-0.2,4.6-0.9
		c1.4-0.7,2.7-1.7,3.9-3.4l0,0L144.5,17.5z"/>
	<path class="st6" d="M107.8,12.2v0.9c0,0.6-0.5,1.2-1.1,1.3c-0.6,0.1-1.2,0.2-1.8,0.3h0c-0.7,0.1-1.5,0.3-2.3,0.5
		c-0.9,0.2-1.9,0.5-2.8,0.8h0c-0.6,0.2-1.2,0.4-1.8,0.7h0c-0.9,0.4-1.7,0.8-2.5,1.2c-0.4,0.2-0.9,0.5-1.3,0.8
		c-2.4,1.6-4.4,3.7-5.4,6.5c-0.2,0.5-0.7,0.8-1.2,0.8c-0.9,0-1.5-0.8-1.3-1.6c0.9-3.2,3-5.6,5.7-7.4c0.4-0.3,0.9-0.6,1.3-0.8
		c0.8-0.5,1.7-0.9,2.5-1.2h0c0.6-0.2,1.2-0.5,1.8-0.7h0c0.9-0.3,1.8-0.6,2.8-0.8c0.8-0.2,1.5-0.4,2.3-0.5h0c1.5-0.3,3-0.5,4.3-0.7h0
		C107.3,12.3,107.5,12.2,107.8,12.2z"/>
	<polygon class="st7" points="121.3,20 121.3,40.6 107.8,40.6 107.8,20 107.8,4.7 121.3,3.1 	"/>
	<polygon class="st3" points="121.3,20 120.7,20 120.7,39.9 108.4,39.9 108.4,20 108.4,5.3 120.7,3.9 120.7,20 121.3,20 122,20 
		122,2.4 107.1,4.1 107.1,20 107.1,41.2 122,41.2 122,20 	"/>
</g>
</svg>
