<?xml version="1.0" encoding="utf-8"?>
<!-- Generator: Adobe Illustrator 22.0.1, SVG Export Plug-In . SVG Version: 6.00 Build 0)  -->
<svg version="1.1" id="Layer_1" xmlns="http://www.w3.org/2000/svg" xmlns:xlink="http://www.w3.org/1999/xlink" x="0px" y="0px"
	 viewBox="0 0 186 55.6" style="enable-background:new 0 0 186 55.6;" xml:space="preserve">
<style type="text/css">
	.st0{fill:#EDEDED;stroke:#28373A;stroke-width:2;stroke-miterlimit:10;}
	.st1{fill:#D8D8D8;}
	.st2{fill:#DAEDF1;}
	.st3{fill:#28373A;}
	.st4{fill:#C6DDE5;}
	.st5{fill:#D3D3D3;}
	.st6{fill:#ABABAB;}
	.st7{fill-rule:evenodd;clip-rule:evenodd;fill:#D72C27;}
</style>
<g id="plate_5_">
	<path class="st0" d="M185,35.3c0,3.2-6.5,6.1-17.6,8.5c-16.7,3.6-43.8,6-74.4,6c-30.6,0-57.7-2.4-74.4-6C7.5,41.4,1,38.5,1,35.3
		c0-8,41.2-14.6,92-14.6S185,27.2,185,35.3z"/>
	<path class="st0" d="M167.4,43.8c-0.1,2.9-1.3,5.5-3.3,7.5c-2,2-4.8,3.3-7.8,3.3H29.6c-6,0-10.9-4.8-11.1-10.7
		c16.7,3.6,43.8,6,74.4,6C123.6,49.8,150.7,47.5,167.4,43.8z"/>
	<ellipse class="st1" cx="93" cy="36.4" rx="56" ry="6"/>
</g>
<g>
	<path class="st2" d="M87.8,36.2H50.5c-6.8,0-12.3-5.6-12.3-12.3v-1.9c0-6.8,5.6-12.3,12.3-12.3h37.3c6.8,0,12.3,5.6,12.3,12.3v1.9
		C100.1,30.7,94.6,36.2,87.8,36.2z"/>
	<path class="st3" d="M87.8,36.2v-0.7H50.5c-3.2,0-6.1-1.3-8.2-3.4c-2.1-2.1-3.4-5-3.4-8.2v-1.9c0-3.2,1.3-6.1,3.4-8.2
		c2.1-2.1,5-3.4,8.2-3.4h37.3c3.2,0,6.1,1.3,8.2,3.4c2.1,2.1,3.4,5,3.4,8.2v1.9c0,3.2-1.3,6.1-3.4,8.2c-2.1,2.1-5,3.4-8.2,3.4V36.2
		v0.7c7.2,0,13-5.8,13-13v-1.9c0-7.2-5.8-13-13-13H50.5c-7.2,0-13,5.8-13,13v1.9c0,7.2,5.8,13,13,13h37.3V36.2z"/>
	<path class="st4" d="M96.2,21.2c0.6,0,1.1,0.5,1,1.2c-0.7,6.2-5.9,11-12.3,11H70.2c-0.6,0-1-0.5-1-1c0-0.6,0.5-1,1-1h12.8
		c5.8,0,10.6-4,12-9.3c0.1-0.5,0.5-0.8,1-0.8H96.2z"/>
	<path class="st5" d="M99.5,14.6c-6.7,9.3-15.6-1.5-34.4,5.8C47.6,27.1,45.4,38.8,38.6,36c-3-1.3-3.7-7.9-3.7-7.9
		c0.5-8.6,4.9-14.4,11-18.5c0.7-0.5,1.5-1,2.3-1.4c1.4-0.8,2.9-1.5,4.4-2.2h0c1-0.4,2-0.8,3.1-1.2h0c1.6-0.6,3.3-1,4.9-1.4
		c1.3-0.3,2.7-0.6,4-0.9h0c2.7-0.5,5.2-0.9,7.6-1.2h0C74.2,1.1,76,1,77.7,0.9c3.7-0.2,6.6-0.2,7.8-0.2C91.2,0.7,106.1,5.3,99.5,14.6
		z"/>
	<path class="st3" d="M99.5,14.6l-0.5-0.4c-1.1,1.5-2.2,2.4-3.4,3c-1.2,0.5-2.5,0.7-4,0.7c-3.2,0-7.2-0.9-12.3-0.9
		c-4.1,0-8.8,0.6-14.4,2.8c-7.9,3.1-12.8,7.2-16.3,10.4c-1.8,1.6-3.2,3.1-4.4,4.1c-0.6,0.5-1.2,0.9-1.8,1.1
		c-0.6,0.3-1.1,0.4-1.7,0.4c-0.5,0-1.1-0.1-1.7-0.4c-0.6-0.2-1.1-0.8-1.6-1.5c-0.7-1.1-1.1-2.6-1.4-3.8c-0.1-0.6-0.2-1.1-0.3-1.5
		c0-0.2,0-0.3-0.1-0.4l0-0.1l0,0l-0.7,0.1l0.7,0c0.2-4.2,1.4-7.7,3.3-10.6c1.9-3,4.4-5.4,7.4-7.3l0,0c0.7-0.5,1.5-1,2.3-1.4l0,0
		c1.4-0.8,2.9-1.5,4.4-2.1L52.6,6v0.7h0h0.1l0.1,0c1-0.4,2-0.8,3.1-1.2l-0.2-0.6v0.7h0h0.1l0.1,0c1.6-0.5,3.2-1,4.8-1.4l0,0l0,0
		c1.3-0.3,2.7-0.6,4-0.9l-0.1-0.6v0.7h0h0.1l0.1,0c2.6-0.5,5.2-0.9,7.6-1.2l-0.1-0.7V2h0h0l0,0c1.9-0.2,3.7-0.4,5.4-0.5l0,0
		c3.4-0.2,6-0.2,7.4-0.2c0.1,0,0.3,0,0.4,0c1.1,0,2.7,0.2,4.3,0.6c2.5,0.6,5.2,1.6,7.3,3c1,0.7,1.9,1.5,2.5,2.4
		c0.6,0.9,0.9,1.8,0.9,2.8c0,1.2-0.4,2.5-1.6,4.1l0,0L99.5,14.6l0.5,0.4c1.2-1.7,1.8-3.4,1.8-4.9c0-1.8-0.8-3.3-2-4.6
		c-1.8-1.9-4.4-3.2-7.1-4.1C90,0.5,87.3,0,85.4,0c-0.1,0-0.2,0-0.4,0c-1.4,0-4,0-7.4,0.2l0,0c-1.7,0.1-3.5,0.2-5.4,0.5l0.1,0.7V0.7
		h0h0l0,0c-2.4,0.3-5,0.6-7.7,1.2l0.1,0.6V1.8h0h-0.1l-0.1,0c-1.3,0.3-2.7,0.6-4,0.9l0,0c-1.7,0.4-3.3,0.9-5,1.5l0.2,0.6V4.2h0h-0.1
		l-0.1,0c-1.1,0.4-2.1,0.8-3.1,1.2L52.6,6V5.3h0h-0.1l-0.1,0.1c-1.6,0.7-3.1,1.4-4.5,2.2l0,0C47,8,46.2,8.5,45.5,9l0,0l0,0
		c-3.1,2.1-5.8,4.6-7.8,7.7c-2,3.1-3.2,6.9-3.5,11.3l0,0.1l0,0.1c0,0,0.2,1.7,0.7,3.6c0.3,0.9,0.7,1.9,1.2,2.8
		c0.5,0.9,1.2,1.6,2.2,2c0.8,0.3,1.5,0.5,2.2,0.5c0.8,0,1.5-0.2,2.2-0.5c1.2-0.6,2.4-1.5,3.7-2.6c3.8-3.5,8.7-9,18.8-13
		c5.4-2.1,10-2.7,13.9-2.7c4.9,0,8.9,0.9,12.3,0.9c1.6,0,3.1-0.2,4.6-0.9c1.4-0.7,2.7-1.7,3.9-3.4l0,0L99.5,14.6z"/>
	<path class="st6" d="M85.8,5.1c-0.5,0-1,0.1-1.5,0.1c-1.1,0.1-3.6,0.4-6.9,0.9c-1.5,0.2-3.1,0.5-4.8,0.8l0,0
		c-2.1,0.4-4.4,0.8-6.7,1.3l0,0c-1.2,0.3-2.3,0.5-3.5,0.8c-1.4,0.4-2.9,0.8-4.3,1.2l0,0c-0.9,0.3-1.8,0.6-2.7,0.9l0,0
		c-1.3,0.5-2.6,1-3.8,1.5c-0.7,0.3-1.3,0.6-2,0.9c-2.7,1.4-5,2.9-6.5,4.7c-0.5,0.5-1.7,0.7-2.4,0.4c-0.4-0.2-0.5-0.5-0.3-0.8
		c1.5-2.1,4.1-3.9,7.2-5.5c0.6-0.3,1.3-0.6,2-0.9c1.2-0.5,2.5-1,3.8-1.5l0,0c0.9-0.3,1.8-0.6,2.7-0.9l0,0c1.4-0.4,2.8-0.8,4.3-1.2
		c1.2-0.3,2.3-0.6,3.5-0.8l0,0c2.3-0.5,4.6-1,6.7-1.3l0,0c1.7-0.3,3.3-0.6,4.8-0.8c3.3-0.5,5.8-0.8,6.9-0.9c0.3,0,0.7-0.1,1.1-0.1
		c0.5,0,1,0.1,1.3,0.3L85.8,5.1z"/>
	<path class="st6" d="M88.6,9c-0.2,0-0.3,0-0.5,0c-0.2,0-0.4,0-0.6,0c-0.4,0-0.8,0-1.1,0.1c-0.2,0-0.4,0-0.6,0.1
		c-1.1,0.1-3.6,0.4-6.9,0.9c-1.5,0.2-3.1,0.5-4.8,0.8l0,0c-2.1,0.4-4.4,0.8-6.7,1.3l0,0c-1.2,0.3-2.3,0.5-3.5,0.8
		c-1.4,0.4-2.9,0.8-4.3,1.2l0,0c-0.9,0.3-1.8,0.6-2.7,0.9l0,0c-1.3,0.5-2.6,1-3.8,1.5c-0.7,0.3-1.3,0.6-2,0.9
		c-0.3,0.2-0.7,0.3-1,0.5c-0.3,0.2-0.6,0.3-0.9,0.5c-0.3,0.2-0.6,0.4-0.9,0.5c-0.3,0.2-0.7,0.4-1,0.7c-0.2,0.1-0.4,0.3-0.6,0.4
		l-0.1,0.1c-0.2,0.2-0.4,0.4-0.6,0.5c-0.2,0.2-0.4,0.4-0.6,0.5l-0.2,0.2c-0.2,0.2-0.4,0.4-0.5,0.5l0,0l-1.2-0.6
		c-0.7-0.3-0.9-0.9-0.4-1.4c1.5-1.9,3.9-3.5,6.7-4.9c0.6-0.3,1.3-0.6,2-0.9c1.2-0.5,2.5-1,3.8-1.5l0,0c0.9-0.3,1.8-0.6,2.7-0.9l0,0
		c1.4-0.4,2.8-0.8,4.3-1.2c1.2-0.3,2.3-0.6,3.5-0.8l0,0c2.3-0.5,4.6-1,6.7-1.3l0,0c1.7-0.3,3.3-0.6,4.8-0.8c3.3-0.5,5.8-0.8,6.9-0.9
		l0,0c0.9-0.1,1.7,0.1,2.2,0.5L88.6,9z"/>
	<path class="st6" d="M90.4,12.6c0.5,0.4,0.1,1-0.7,1.2c-5.5,1.7-13.5-0.1-26.6,4.2c-6,2-9.8,4.1-12.7,5.9c-0.6,0.4-1.6,0.5-2.1,0.2
		l-0.7-0.4c-0.5-0.3-0.5-0.7,0-1.1c2.9-2,7-4.5,14.2-6.9c12.6-4.2,20.5-2.6,25.9-4.1c0.7-0.2,1.4-0.1,1.8,0.2L90.4,12.6z"/>
	<path class="st7" d="M59.7,8.1c0-1-0.8-1.7-1.7-1.7c-1,0-1.7,0.8-1.7,1.7S57,9.9,58,9.9C58.9,9.9,59.7,9.1,59.7,8.1z"/>
	<path class="st3" d="M59.7,8.1H60C60,7,59.1,6,58,6c-1.1,0-2.1,0.9-2.1,2.1c0,1.1,0.9,2.1,2.1,2.1c1.1,0,2.1-0.9,2.1-2.1H59.7h-0.3
		c0,0.8-0.6,1.4-1.4,1.4c-0.8,0-1.4-0.6-1.4-1.4c0-0.8,0.6-1.4,1.4-1.4c0.8,0,1.4,0.6,1.4,1.4H59.7z"/>
	<path class="st7" d="M62.5,5.2c0-1-0.8-1.7-1.7-1.7c-1,0-1.7,0.8-1.7,1.7c0,1,0.8,1.7,1.7,1.7C61.7,7,62.5,6.2,62.5,5.2z"/>
	<path class="st3" d="M62.5,5.2h0.3c0-1.1-0.9-2.1-2.1-2.1c-1.1,0-2.1,0.9-2.1,2.1c0,1.1,0.9,2.1,2.1,2.1c1.1,0,2.1-0.9,2.1-2.1
		H62.5h-0.3c0,0.8-0.6,1.4-1.4,1.4c-0.8,0-1.4-0.6-1.4-1.4c0-0.8,0.6-1.4,1.4-1.4c0.8,0,1.4,0.6,1.4,1.4H62.5z"/>
	<circle class="st7" cx="61.6" cy="8.4" r="1.7"/>
	<path class="st3" d="M63.3,8.4h0.3c0-1.1-0.9-2.1-2.1-2.1c-1.1,0-2.1,0.9-2.1,2.1c0,1.1,0.9,2.1,2.1,2.1c1.1,0,2.1-0.9,2.1-2.1
		H63.3H63c0,0.8-0.6,1.4-1.4,1.4c-0.8,0-1.4-0.6-1.4-1.4c0-0.8,0.6-1.4,1.4-1.4C62.4,7,63,7.6,63,8.4H63.3z"/>
	<path class="st7" d="M66.1,5.5c0-1-0.8-1.7-1.7-1.7c-1,0-1.7,0.8-1.7,1.7c0,1,0.8,1.7,1.7,1.7C65.3,7.2,66.1,6.5,66.1,5.5z"/>
	<path class="st3" d="M66.1,5.5h0.3c0-1.1-0.9-2.1-2.1-2.1c-1.1,0-2.1,0.9-2.1,2.1c0,1.1,0.9,2.1,2.1,2.1c1.1,0,2.1-0.9,2.1-2.1
		H66.1h-0.3c0,0.8-0.6,1.4-1.4,1.4c-0.8,0-1.4-0.6-1.4-1.4c0-0.8,0.6-1.4,1.4-1.4c0.8,0,1.4,0.6,1.4,1.4H66.1z"/>
	<circle class="st7" cx="63" cy="2.4" r="1.7"/>
	<path class="st3" d="M64.7,2.4H65c0-1.1-0.9-2.1-2.1-2.1c-1.1,0-2.1,0.9-2.1,2.1c0,1.1,0.9,2.1,2.1,2.1c1.1,0,2.1-0.9,2.1-2.1H64.7
		h-0.3c0,0.8-0.6,1.4-1.4,1.4c-0.8,0-1.4-0.6-1.4-1.4C61.6,1.6,62.2,1,63,1c0.8,0,1.4,0.6,1.4,1.4H64.7z"/>
	<path class="st7" d="M68.4,6.7c0-1-0.8-1.7-1.7-1.7c-1,0-1.7,0.8-1.7,1.7c0,1,0.8,1.7,1.7,1.7C67.7,8.4,68.4,7.6,68.4,6.7z"/>
	<path class="st3" d="M68.4,6.7h0.3c0-1.1-0.9-2.1-2.1-2.1c-1.1,0-2.1,0.9-2.1,2.1c0,1.1,0.9,2.1,2.1,2.1c1.1,0,2.1-0.9,2.1-2.1
		H68.4h-0.3c0,0.8-0.6,1.4-1.4,1.4c-0.8,0-1.4-0.6-1.4-1.4c0-0.8,0.6-1.4,1.4-1.4c0.8,0,1.4,0.6,1.4,1.4H68.4z"/>
	<circle class="st7" cx="66.8" cy="2.6" r="1.7"/>
	<path class="st3" d="M68.5,2.6h0.3c0-1.1-0.9-2.1-2.1-2.1c-1.1,0-2.1,0.9-2.1,2.1c0,1.1,0.9,2.1,2.1,2.1c1.1,0,2.1-0.9,2.1-2.1
		H68.5h-0.3c0,0.8-0.6,1.4-1.4,1.4c-0.8,0-1.4-0.6-1.4-1.4c0-0.8,0.6-1.4,1.4-1.4c0.8,0,1.4,0.6,1.4,1.4H68.5z"/>
	<path class="st7" d="M72,3.8c0-1-0.8-1.7-1.7-1.7c-1,0-1.7,0.8-1.7,1.7c0,1,0.8,1.7,1.7,1.7C71.2,5.5,72,4.7,72,3.8z"/>
	<path class="st3" d="M72,3.8h0.3c0-1.1-0.9-2.1-2.1-2.1c-1.1,0-2.1,0.9-2.1,2.1c0,1.1,0.9,2.1,2.1,2.1c1.1,0,2.1-0.9,2.1-2.1H72
		h-0.3c0,0.8-0.6,1.4-1.4,1.4c-0.8,0-1.4-0.6-1.4-1.4c0-0.8,0.6-1.4,1.4-1.4c0.8,0,1.4,0.6,1.4,1.4H72z"/>
</g>
<g>
	<path class="st2" d="M144.2,38.3h-37.3c-6.8,0-12.3-5.6-12.3-12.3V24c0-6.8,5.6-12.3,12.3-12.3h37.3c6.8,0,12.3,5.6,12.3,12.3v1.9
		C156.5,32.7,151,38.3,144.2,38.3z"/>
	<path class="st3" d="M144.2,38.3v-0.7h-37.3c-3.2,0-6.1-1.3-8.2-3.4c-2.1-2.1-3.4-5-3.4-8.2V24c0-3.2,1.3-6.1,3.4-8.2
		c2.1-2.1,5-3.4,8.2-3.4h37.3c3.2,0,6.1,1.3,8.2,3.4c2.1,2.1,3.4,5,3.4,8.2v1.9c0,3.2-1.3,6.1-3.4,8.2c-2.1,2.1-5,3.4-8.2,3.4V38.3
		v0.7c7.2,0,13-5.8,13-13V24c0-7.2-5.8-13-13-13h-37.3c-7.2,0-13,5.8-13,13v1.9c0,7.2,5.8,13,13,13h37.3V38.3z"/>
	<path class="st4" d="M152.6,23.2c0.6,0,1.1,0.5,1,1.2c-0.7,6.2-5.9,11-12.3,11h-14.7c-0.6,0-1-0.5-1-1c0-0.6,0.5-1,1-1h12.8
		c5.8,0,10.6-4,12-9.3c0.1-0.5,0.5-0.8,1-0.8H152.6z"/>
	<path class="st5" d="M155.9,16.6c-6.7,9.3-15.6-1.5-34.4,5.8C104,29.2,101.8,40.8,95,38c-3-1.3-3.7-7.9-3.7-7.9
		c0.5-8.6,4.9-14.4,11-18.5c0.7-0.5,1.5-1,2.3-1.4c1.4-0.8,2.9-1.5,4.4-2.2h0c1-0.4,2-0.8,3.1-1.2h0c1.6-0.6,3.3-1,4.9-1.4
		c1.3-0.3,2.7-0.6,4-0.9h0c2.7-0.5,5.2-0.9,7.6-1.2h0c1.9-0.2,3.8-0.4,5.4-0.5c3.7-0.2,6.6-0.2,7.8-0.2
		C147.6,2.7,162.6,7.4,155.9,16.6z"/>
	<path class="st3" d="M155.9,16.6l-0.5-0.4c-1.1,1.5-2.2,2.4-3.4,3c-1.2,0.5-2.5,0.7-4,0.7c-3.2,0-7.2-0.9-12.3-0.9
		c-4.1,0-8.8,0.6-14.4,2.8c-7.9,3.1-12.8,7.2-16.3,10.4c-1.8,1.6-3.2,3.1-4.4,4.1c-0.6,0.5-1.2,0.9-1.8,1.1
		c-0.6,0.3-1.1,0.4-1.7,0.4c-0.5,0-1.1-0.1-1.7-0.4c-0.6-0.2-1.1-0.8-1.6-1.5c-0.7-1.1-1.1-2.6-1.4-3.8c-0.1-0.6-0.2-1.1-0.3-1.5
		c0-0.2,0-0.3-0.1-0.4l0-0.1l0,0l-0.7,0.1l0.7,0c0.2-4.2,1.4-7.7,3.3-10.6c1.9-3,4.4-5.4,7.4-7.3l0,0c0.7-0.5,1.5-1,2.3-1.4l0,0
		c1.4-0.8,2.9-1.5,4.4-2.1L109,8.1v0.7h0h0.1l0.1,0c1-0.4,2-0.8,3.1-1.2l-0.2-0.6v0.7h0h0.1l0.1,0c1.6-0.5,3.2-1,4.8-1.4l0,0l0,0
		c1.3-0.3,2.7-0.6,4-0.9L121,4.6v0.7h0h0.1l0.1,0c2.6-0.5,5.2-0.9,7.6-1.2l-0.1-0.7v0.7h0h0l0,0c1.9-0.2,3.7-0.4,5.4-0.5l0,0
		c3.4-0.2,6-0.2,7.4-0.2c0.1,0,0.3,0,0.4,0c1.1,0,2.7,0.2,4.3,0.6c2.5,0.6,5.2,1.6,7.3,3c1,0.7,1.9,1.5,2.5,2.4
		c0.6,0.9,0.9,1.8,0.9,2.8c0,1.2-0.4,2.5-1.6,4.1l0,0L155.9,16.6l0.5,0.4c1.2-1.7,1.8-3.4,1.8-4.9c0-1.8-0.8-3.3-2-4.6
		c-1.8-1.9-4.4-3.2-7.1-4.1c-2.7-0.9-5.4-1.4-7.3-1.4c-0.1,0-0.2,0-0.4,0c-1.4,0-4,0-7.4,0.2l0,0c-1.7,0.1-3.5,0.2-5.4,0.5l0.1,0.7
		V2.7h0h0l0,0c-2.4,0.3-5,0.6-7.7,1.2l0.1,0.6V3.9h0h-0.1l-0.1,0c-1.3,0.3-2.7,0.6-4,0.9l0,0c-1.7,0.4-3.3,0.9-5,1.5l0.2,0.6V6.2h0
		H112l-0.1,0c-1.1,0.4-2.1,0.8-3.1,1.2l0.3,0.6V7.4h0h-0.1l-0.1,0.1c-1.6,0.7-3.1,1.4-4.5,2.2l0,0c-0.8,0.4-1.6,0.9-2.4,1.4l0,0l0,0
		c-3.1,2.1-5.8,4.6-7.8,7.7c-2,3.1-3.2,6.9-3.5,11.3l0,0.1l0,0.1c0,0,0.2,1.7,0.7,3.6c0.3,0.9,0.7,1.9,1.2,2.8
		c0.5,0.9,1.2,1.6,2.2,2c0.8,0.3,1.5,0.5,2.2,0.5c0.8,0,1.5-0.2,2.2-0.5c1.2-0.6,2.4-1.5,3.7-2.6c3.8-3.5,8.7-9,18.8-13
		c5.4-2.1,10-2.7,13.9-2.7c4.9,0,8.9,0.9,12.3,0.9c1.6,0,3.1-0.2,4.6-0.9c1.4-0.7,2.7-1.7,3.9-3.4l0,0L155.9,16.6z"/>
	<path class="st6" d="M142.2,7.2c-0.5,0-1,0.1-1.5,0.1c-1.1,0.1-3.6,0.4-6.9,0.9c-1.5,0.2-3.1,0.5-4.8,0.8l0,0
		c-2.1,0.4-4.4,0.8-6.7,1.3l0,0c-1.2,0.3-2.3,0.5-3.5,0.8c-1.4,0.4-2.9,0.8-4.3,1.2l0,0c-0.9,0.3-1.8,0.6-2.7,0.9l0,0
		c-1.3,0.5-2.6,1-3.8,1.5c-0.7,0.3-1.3,0.6-2,0.9c-2.7,1.4-5,2.9-6.5,4.7c-0.5,0.5-1.7,0.7-2.4,0.4c-0.4-0.2-0.5-0.5-0.3-0.8
		c1.5-2.1,4.1-3.9,7.2-5.5c0.6-0.3,1.3-0.6,2-0.9c1.2-0.5,2.5-1,3.8-1.5l0,0c0.9-0.3,1.8-0.6,2.7-0.9l0,0c1.4-0.4,2.8-0.8,4.3-1.2
		c1.2-0.3,2.3-0.6,3.5-0.8l0,0c2.3-0.5,4.6-1,6.7-1.3l0,0c1.7-0.3,3.3-0.6,4.8-0.8c3.3-0.5,5.8-0.8,6.9-0.9c0.3,0,0.7-0.1,1.1-0.1
		c0.5,0,1,0.1,1.3,0.3L142.2,7.2z"/>
	<path class="st6" d="M145,11c-0.2,0-0.3,0-0.5,0c-0.2,0-0.4,0-0.6,0c-0.4,0-0.8,0-1.1,0.1c-0.2,0-0.4,0-0.6,0.1
		c-1.1,0.1-3.6,0.4-6.9,0.9c-1.5,0.2-3.1,0.5-4.8,0.8l0,0c-2.1,0.4-4.4,0.8-6.7,1.3l0,0c-1.2,0.3-2.3,0.5-3.5,0.8
		c-1.4,0.4-2.9,0.8-4.3,1.2l0,0c-0.9,0.3-1.8,0.6-2.7,0.9l0,0c-1.3,0.5-2.6,1-3.8,1.5c-0.7,0.3-1.3,0.6-2,0.9
		c-0.3,0.2-0.7,0.3-1,0.5c-0.3,0.2-0.6,0.3-0.9,0.5c-0.3,0.2-0.6,0.4-0.9,0.5c-0.3,0.2-0.7,0.4-1,0.7c-0.2,0.1-0.4,0.3-0.6,0.4
		l-0.1,0.1c-0.2,0.2-0.4,0.4-0.6,0.5c-0.2,0.2-0.4,0.4-0.6,0.5l-0.2,0.2c-0.2,0.2-0.4,0.4-0.5,0.5l0,0l-1.2-0.6
		c-0.7-0.3-0.9-0.9-0.4-1.4c1.5-1.9,3.9-3.5,6.7-4.9c0.6-0.3,1.3-0.6,2-0.9c1.2-0.5,2.5-1,3.8-1.5l0,0c0.9-0.3,1.8-0.6,2.7-0.9l0,0
		c1.4-0.4,2.8-0.8,4.3-1.2c1.2-0.3,2.3-0.6,3.5-0.8l0,0c2.3-0.5,4.6-1,6.7-1.3l0,0c1.7-0.3,3.3-0.6,4.8-0.8c3.3-0.5,5.8-0.8,6.9-0.9
		l0,0c0.9-0.1,1.7,0.1,2.2,0.5L145,11z"/>
	<path class="st6" d="M146.8,14.7c0.5,0.4,0.1,1-0.7,1.2c-5.5,1.7-13.5-0.1-26.6,4.2c-6,2-9.8,4.1-12.7,5.9
		c-0.6,0.4-1.6,0.5-2.1,0.2l-0.7-0.4c-0.5-0.3-0.5-0.7,0-1.1c2.9-2,7-4.5,14.2-6.9c12.6-4.2,20.5-2.6,25.9-4.1
		c0.7-0.2,1.4-0.1,1.8,0.2L146.8,14.7z"/>
	<path class="st7" d="M116.1,10.2c0-1-0.8-1.7-1.7-1.7c-1,0-1.7,0.8-1.7,1.7s0.8,1.7,1.7,1.7C115.3,11.9,116.1,11.1,116.1,10.2z"/>
	<path class="st3" d="M116.1,10.2h0.3c0-1.1-0.9-2.1-2.1-2.1c-1.1,0-2.1,0.9-2.1,2.1c0,1.1,0.9,2.1,2.1,2.1c1.1,0,2.1-0.9,2.1-2.1
		H116.1h-0.3c0,0.8-0.6,1.4-1.4,1.4c-0.8,0-1.4-0.6-1.4-1.4c0-0.8,0.6-1.4,1.4-1.4c0.8,0,1.4,0.6,1.4,1.4H116.1z"/>
	<path class="st7" d="M118.9,7.3c0-1-0.8-1.7-1.7-1.7c-1,0-1.7,0.8-1.7,1.7c0,1,0.8,1.7,1.7,1.7C118.1,9,118.9,8.2,118.9,7.3z"/>
	<path class="st3" d="M118.9,7.3h0.3c0-1.1-0.9-2.1-2.1-2.1c-1.1,0-2.1,0.9-2.1,2.1c0,1.1,0.9,2.1,2.1,2.1c1.1,0,2.1-0.9,2.1-2.1
		H118.9h-0.3c0,0.8-0.6,1.4-1.4,1.4c-0.8,0-1.4-0.6-1.4-1.4c0-0.8,0.6-1.4,1.4-1.4c0.8,0,1.4,0.6,1.4,1.4H118.9z"/>
	<circle class="st7" cx="118" cy="10.5" r="1.7"/>
	<path class="st3" d="M119.7,10.5h0.3c0-1.1-0.9-2.1-2.1-2.1c-1.1,0-2.1,0.9-2.1,2.1c0,1.1,0.9,2.1,2.1,2.1c1.1,0,2.1-0.9,2.1-2.1
		H119.7h-0.3c0,0.8-0.6,1.4-1.4,1.4c-0.8,0-1.4-0.6-1.4-1.4c0-0.8,0.6-1.4,1.4-1.4c0.8,0,1.4,0.6,1.4,1.4H119.7z"/>
	<path class="st7" d="M122.5,7.6c0-1-0.8-1.7-1.7-1.7c-1,0-1.7,0.8-1.7,1.7c0,1,0.8,1.7,1.7,1.7C121.7,9.3,122.5,8.5,122.5,7.6z"/>
	<path class="st3" d="M122.5,7.6h0.3c0-1.1-0.9-2.1-2.1-2.1c-1.1,0-2.1,0.9-2.1,2.1c0,1.1,0.9,2.1,2.1,2.1c1.1,0,2.1-0.9,2.1-2.1
		H122.5h-0.3c0,0.8-0.6,1.4-1.4,1.4c-0.8,0-1.4-0.6-1.4-1.4c0-0.8,0.6-1.4,1.4-1.4c0.8,0,1.4,0.6,1.4,1.4H122.5z"/>
	<circle class="st7" cx="119.4" cy="4.5" r="1.7"/>
	<path class="st3" d="M121.1,4.5h0.3c0-1.1-0.9-2.1-2.1-2.1c-1.1,0-2.1,0.9-2.1,2.1c0,1.1,0.9,2.1,2.1,2.1c1.1,0,2.1-0.9,2.1-2.1
		H121.1h-0.3c0,0.8-0.6,1.4-1.4,1.4c-0.8,0-1.4-0.6-1.4-1.4c0-0.8,0.6-1.4,1.4-1.4c0.8,0,1.4,0.6,1.4,1.4H121.1z"/>
	<path class="st7" d="M124.8,8.7c0-1-0.8-1.7-1.7-1.7c-1,0-1.7,0.8-1.7,1.7c0,1,0.8,1.7,1.7,1.7C124.1,10.5,124.8,9.7,124.8,8.7z"/>
	<path class="st3" d="M124.8,8.7h0.3c0-1.1-0.9-2.1-2.1-2.1c-1.1,0-2.1,0.9-2.1,2.1c0,1.1,0.9,2.1,2.1,2.1c1.1,0,2.1-0.9,2.1-2.1
		H124.8h-0.3c0,0.8-0.6,1.4-1.4,1.4c-0.8,0-1.4-0.6-1.4-1.4c0-0.8,0.6-1.4,1.4-1.4c0.8,0,1.4,0.6,1.4,1.4H124.8z"/>
	<circle class="st7" cx="123.2" cy="4.7" r="1.7"/>
	<path class="st3" d="M124.9,4.7h0.3c0-1.1-0.9-2.1-2.1-2.1c-1.1,0-2.1,0.9-2.1,2.1c0,1.1,0.9,2.1,2.1,2.1c1.1,0,2.1-0.9,2.1-2.1
		H124.9h-0.3c0,0.8-0.6,1.4-1.4,1.4c-0.8,0-1.4-0.6-1.4-1.4c0-0.8,0.6-1.4,1.4-1.4c0.8,0,1.4,0.6,1.4,1.4H124.9z"/>
	<path class="st7" d="M128.4,5.8c0-1-0.8-1.7-1.7-1.7c-1,0-1.7,0.8-1.7,1.7c0,1,0.8,1.7,1.7,1.7C127.6,7.6,128.4,6.8,128.4,5.8z"/>
	<path class="st3" d="M128.4,5.8h0.3c0-1.1-0.9-2.1-2.1-2.1c-1.1,0-2.1,0.9-2.1,2.1c0,1.1,0.9,2.1,2.1,2.1c1.1,0,2.1-0.9,2.1-2.1
		H128.4h-0.3c0,0.8-0.6,1.4-1.4,1.4c-0.8,0-1.4-0.6-1.4-1.4c0-0.8,0.6-1.4,1.4-1.4c0.8,0,1.4,0.6,1.4,1.4H128.4z"/>
</g>
</svg>
