<?xml version="1.0" encoding="utf-8"?>
<!-- Generator: Adobe Illustrator 22.1.0, SVG Export Plug-In . SVG Version: 6.00 Build 0)  -->
<svg version="1.1" id="Layer_1" xmlns="http://www.w3.org/2000/svg" xmlns:xlink="http://www.w3.org/1999/xlink" x="0px" y="0px"
	 viewBox="0 0 140 68.8" style="enable-background:new 0 0 140 68.8;" xml:space="preserve">
<style type="text/css">
	.st0{fill:#D72C27;}
	.st1{fill:#28373A;}
	.st2{fill:#F15E5E;}
	.st3{fill:#EF4923;}
	.st4{fill:#F26235;}
	.st5{fill:#DDDDDD;}
	.st6{fill:#ABABAB;}
</style>
<g>
	<path class="st0" d="M1,27.1C0,22.5,2,17.7,5.8,14.9c9.6-7,30.5-15.2,45.4-14C69.5,2.2,70,10.6,64.7,14.5
		C59.5,18.4,20.3,30.1,12.4,32C4.7,34,1.9,30.8,1,27.1z"/>
	<path class="st1" d="M1,27.1l0.7-0.2c-0.2-0.8-0.3-1.5-0.3-2.3c0-3.5,1.8-6.9,4.7-9.1c4.4-3.2,11.3-6.7,18.9-9.4
		c7.6-2.7,15.9-4.6,23.2-4.6c1,0,1.9,0,2.9,0.1c6,0.5,10,1.7,12.4,3.2c1.2,0.7,2,1.5,2.6,2.3c0.5,0.8,0.7,1.6,0.7,2.4
		c0,1.6-1,3.2-2.6,4.4c-0.6,0.4-1.7,1-3.3,1.7c-5.5,2.4-16,5.9-26,9c-10,3.1-19.4,5.8-22.8,6.7c-1.6,0.4-2.9,0.6-4.1,0.6
		c-2.2,0-3.6-0.6-4.6-1.5c-1-0.9-1.6-2.1-1.9-3.5L1,27.1l-0.7,0.2c0.4,1.6,1,3.1,2.3,4.2c1.3,1.2,3.1,1.9,5.6,1.9
		c1.3,0,2.8-0.2,4.4-0.6c4-1,15.7-4.4,27.2-8.1c5.7-1.8,11.4-3.7,15.9-5.4c2.3-0.8,4.3-1.6,5.9-2.3c1.6-0.7,2.8-1.3,3.6-1.9
		c1.9-1.4,3.2-3.4,3.2-5.6c0-1.1-0.3-2.2-1-3.2c-1-1.5-2.8-2.9-5.4-4c-2.6-1.1-6.1-1.9-10.7-2.2c-1-0.1-2-0.1-3-0.1
		c-7.5,0-15.9,1.9-23.7,4.7C16.9,7.4,9.9,11,5.3,14.3C2,16.7,0,20.6,0,24.6c0,0.9,0.1,1.8,0.3,2.7L1,27.1z"/>
	<path class="st0" d="M16.7,34c-1-4.6,0.9-9.4,4.7-12.2c9.6-7,30.5-15.2,45.4-14c18.3,1.4,18.8,9.7,13.5,13.6S35.9,37,28.1,39
		C20.3,40.9,17.5,37.7,16.7,34z"/>
	<path class="st1" d="M16.7,34l0.7-0.2c-0.2-0.8-0.3-1.5-0.3-2.3c0-3.5,1.8-6.9,4.7-9.1c4.4-3.2,11.3-6.7,18.9-9.4
		c7.6-2.7,15.9-4.6,23.2-4.6c1,0,1.9,0,2.9,0.1c6,0.5,10,1.7,12.4,3.2c1.2,0.7,2,1.5,2.6,2.3c0.5,0.8,0.7,1.6,0.7,2.4
		c0,1.6-1,3.2-2.6,4.4c-0.6,0.4-1.7,1-3.3,1.7c-5.5,2.4-16,5.9-26,9c-10,3.1-19.4,5.8-22.8,6.7c-1.6,0.4-2.9,0.6-4.1,0.6
		c-2.2,0-3.6-0.6-4.6-1.5c-1-0.9-1.6-2.1-1.9-3.5L16.7,34L16,34.2c0.4,1.6,1,3.1,2.3,4.2c1.3,1.2,3.1,1.9,5.6,1.9
		c1.3,0,2.8-0.2,4.4-0.6c4-1,15.7-4.4,27.2-8.1c5.7-1.8,11.4-3.7,15.9-5.4c2.3-0.8,4.3-1.6,5.9-2.3c1.6-0.7,2.8-1.3,3.6-1.9
		c1.9-1.4,3.2-3.4,3.2-5.6c0-1.1-0.3-2.2-1-3.2c-1-1.5-2.8-2.9-5.4-4C75,8.2,71.5,7.4,66.9,7.1C66,7,65,7,64,7
		C56.5,7,48,8.9,40.3,11.6c-7.7,2.7-14.7,6.3-19.3,9.6c-3.3,2.4-5.3,6.3-5.3,10.3c0,0.9,0.1,1.8,0.3,2.7L16.7,34z"/>
	<path class="st2" d="M22.9,12.1v0.7c0,0.5-0.4,1-0.9,1.1c-0.5,0.1-1,0.2-1.5,0.3h0c-0.6,0.1-1.3,0.3-1.9,0.4
		c-0.8,0.2-1.6,0.4-2.3,0.7h0c-0.5,0.2-1,0.4-1.5,0.6h0c-0.7,0.3-1.4,0.6-2.1,1c-0.4,0.2-0.7,0.4-1.1,0.7c-2,1.3-3.6,3.1-4.5,5.4
		c-0.2,0.4-0.6,0.7-1,0.7c-0.7,0-1.3-0.7-1.1-1.4c0.8-2.7,2.5-4.7,4.8-6.2c0.4-0.2,0.7-0.5,1.1-0.7c0.7-0.4,1.4-0.7,2.1-1h0
		c0.5-0.2,1-0.4,1.5-0.6h0c0.8-0.3,1.5-0.5,2.3-0.7c0.6-0.2,1.3-0.3,1.9-0.4h0c1.3-0.3,2.5-0.4,3.6-0.6h0
		C22.6,12.1,22.8,12.1,22.9,12.1z"/>
	<path class="st2" d="M39.2,20.2V21c0,0.5-0.4,1-0.9,1.1c-0.5,0.1-1,0.2-1.5,0.3h0c-0.6,0.1-1.3,0.3-1.9,0.4
		c-0.8,0.2-1.6,0.4-2.3,0.7h0c-0.5,0.2-1,0.4-1.5,0.6h0c-0.7,0.3-1.4,0.6-2.1,1c-0.4,0.2-0.7,0.4-1.1,0.7c-2,1.3-3.6,3.1-4.5,5.4
		c-0.2,0.4-0.6,0.7-1,0.7c-0.7,0-1.3-0.7-1.1-1.4c0.8-2.7,2.5-4.7,4.8-6.2c0.4-0.2,0.7-0.5,1.1-0.7c0.7-0.4,1.4-0.7,2.1-1h0
		c0.5-0.2,1-0.4,1.5-0.6h0c0.8-0.3,1.5-0.5,2.3-0.7c0.6-0.2,1.3-0.3,1.9-0.4h0c1.3-0.3,2.5-0.4,3.6-0.6h0
		C38.8,20.3,39,20.2,39.2,20.2z"/>
	<path class="st3" d="M57,30.6c-1-4.6,0.9-9.4,4.7-12.2c9.6-7,30.5-15.2,45.4-14c18.3,1.4,18.8,9.7,13.5,13.6
		c-5.3,3.9-44.5,15.6-52.3,17.5C60.6,37.5,57.8,34.3,57,30.6z"/>
	<path class="st1" d="M57,30.6l0.7-0.2c-0.2-0.8-0.3-1.5-0.3-2.3c0-3.5,1.8-6.9,4.7-9.1c4.4-3.2,11.3-6.7,18.9-9.4
		C88.7,6.9,97,5,104.2,5c1,0,1.9,0,2.9,0.1c6,0.5,10,1.7,12.4,3.2c1.2,0.7,2,1.5,2.6,2.3c0.5,0.8,0.7,1.6,0.7,2.4
		c0,1.6-1,3.2-2.6,4.4c-0.6,0.4-1.7,1-3.3,1.7c-5.5,2.4-16,5.9-26,9c-10,3.1-19.4,5.8-22.8,6.7c-1.6,0.4-2.9,0.6-4.1,0.6
		c-2.2,0-3.6-0.6-4.6-1.5c-1-0.9-1.6-2.1-1.9-3.5L57,30.6l-0.7,0.2c0.4,1.6,1,3.1,2.3,4.2c1.3,1.2,3.1,1.9,5.6,1.9
		c1.3,0,2.8-0.2,4.4-0.6c4-1,15.7-4.4,27.2-8.1c5.7-1.8,11.4-3.7,15.9-5.4c2.3-0.8,4.3-1.6,5.9-2.3c1.6-0.7,2.8-1.3,3.6-1.9
		c1.9-1.4,3.2-3.4,3.2-5.6c0-1.1-0.3-2.2-1-3.2c-1-1.5-2.8-2.9-5.4-4c-2.6-1.1-6.1-1.9-10.7-2.2c-1-0.1-2-0.1-3-0.1
		c-7.5,0-15.9,1.9-23.7,4.7c-7.7,2.7-14.7,6.3-19.3,9.6c-3.3,2.4-5.3,6.3-5.3,10.3c0,0.9,0.1,1.8,0.3,2.7L57,30.6z"/>
	<path class="st3" d="M72.6,37.5c-1-4.6,0.9-9.4,4.7-12.2c9.6-7,30.5-15.2,45.4-14c18.3,1.4,18.8,9.7,13.5,13.6S91.9,40.5,84,42.5
		C76.3,44.4,73.5,41.2,72.6,37.5z"/>
	<path class="st1" d="M72.6,37.5l0.7-0.2c-0.2-0.8-0.3-1.5-0.3-2.3c0-3.5,1.8-6.9,4.7-9.1c4.4-3.2,11.3-6.7,18.9-9.4
		c7.6-2.7,15.9-4.6,23.2-4.6c1,0,1.9,0,2.9,0.1c6,0.5,10,1.7,12.4,3.2c1.2,0.7,2,1.5,2.6,2.3c0.5,0.8,0.7,1.6,0.7,2.4
		c0,1.6-1,3.2-2.6,4.4c-0.6,0.4-1.7,1-3.3,1.7c-5.5,2.4-16,5.9-26,9c-10,3.1-19.4,5.8-22.8,6.7c-1.6,0.4-2.9,0.6-4.1,0.6
		c-2.2,0-3.6-0.6-4.6-1.5c-1-0.9-1.6-2.1-1.9-3.5L72.6,37.5l-0.7,0.2c0.4,1.6,1,3.1,2.3,4.2c1.3,1.2,3.1,1.9,5.6,1.9
		c1.3,0,2.8-0.2,4.4-0.6c4-1,15.7-4.4,27.2-8.1c5.7-1.8,11.4-3.7,15.9-5.4c2.3-0.8,4.3-1.6,5.9-2.3c1.6-0.7,2.8-1.3,3.6-1.9
		c1.9-1.4,3.2-3.4,3.2-5.6c0-1.1-0.3-2.2-1-3.2c-1-1.5-2.8-2.9-5.4-4c-2.6-1.1-6.1-1.9-10.7-2.2c-1-0.1-2-0.1-3-0.1
		c-7.5,0-15.9,1.9-23.7,4.7c-7.7,2.7-14.7,6.3-19.3,9.6c-3.3,2.4-5.3,6.3-5.3,10.3c0,0.9,0.1,1.8,0.3,2.7L72.6,37.5z"/>
	<path class="st4" d="M77.6,17.1c-0.1,0.4-0.4,0.6-0.8,0.6l-0.2,0l-8.3-2.2c0.6-0.4,1.2-0.9,1.9-1.2l6.8,1.9
		C77.4,16.2,77.7,16.6,77.6,17.1z"/>
	<path class="st4" d="M85.1,14.7c-0.1,0.4-0.4,0.6-0.8,0.6l-0.3,0L74,12.6c0.8-0.4,1.7-0.7,2.5-1.1h0l8,2.2
		C85,13.8,85.2,14.3,85.1,14.7z"/>
	<path class="st4" d="M91,11.7c-0.1,0.4-0.4,0.6-0.8,0.6l-0.3,0l-9.3-2.5c1.1-0.3,2.2-0.6,3.3-0.9l0,0l6.5,1.7
		C90.8,10.8,91.1,11.2,91,11.7z"/>
	<path class="st4" d="M98.2,9c-0.1,0.4-0.4,0.6-0.8,0.6l-0.3,0l-8.8-2.4c1.6-0.2,3.1-0.4,4.5-0.5l4.8,1.3C98.1,8,98.3,8.5,98.2,9z"
		/>
	<path class="st1" d="M78.6,16.3c-0.1,0.4-0.4,0.6-0.8,0.6l-0.2,0l-8.3-2.2c0.6-0.4,1.2-0.9,1.9-1.2l6.8,1.9
		C78.5,15.4,78.8,15.9,78.6,16.3z"/>
	<path class="st1" d="M86.6,14c-0.1,0.4-0.4,0.6-0.8,0.6l-0.3,0l-10.1-2.7c0.8-0.4,1.7-0.7,2.5-1.1h0l8,2.2
		C86.5,13.1,86.8,13.6,86.6,14z"/>
	<path class="st1" d="M92.5,10.9c-0.1,0.4-0.4,0.6-0.8,0.6l-0.3,0L82.1,9c1.1-0.3,2.2-0.6,3.3-0.9l0,0l6.5,1.7
		C92.3,10,92.6,10.5,92.5,10.9z"/>
	<path class="st1" d="M99.7,8.6C99.7,9,99.3,9.2,99,9.2l-0.3,0l-8.8-2.4c1.6-0.2,3.1-0.4,4.5-0.5l4.8,1.3
		C99.6,7.7,99.9,8.1,99.7,8.6z"/>
	<path class="st4" d="M91.8,24.5c-0.1,0.4-0.4,0.6-0.8,0.6l-0.2,0l-8.3-2.2c0.6-0.4,1.2-0.9,1.9-1.2l6.8,1.9
		C91.7,23.6,91.9,24.1,91.8,24.5z"/>
	<path class="st4" d="M99.3,22.2c-0.1,0.4-0.4,0.6-0.8,0.6l-0.3,0L88.2,20c0.8-0.4,1.7-0.7,2.5-1.1l0,0l8,2.2
		C99.2,21.3,99.5,21.7,99.3,22.2z"/>
	<path class="st4" d="M105.2,19.1c-0.1,0.4-0.4,0.6-0.8,0.6l-0.3,0l-9.3-2.5c1.1-0.3,2.2-0.6,3.3-0.9h0l6.5,1.7
		C105.1,18.2,105.3,18.7,105.2,19.1z"/>
	<path class="st4" d="M112.5,16.4c-0.1,0.4-0.4,0.6-0.8,0.6l-0.3,0l-8.8-2.4c1.6-0.2,3.1-0.4,4.5-0.5l4.8,1.3
		C112.3,15.5,112.6,16,112.5,16.4z"/>
	<path class="st1" d="M92.9,23.8c-0.1,0.4-0.4,0.6-0.8,0.6l-0.2,0l-8.3-2.2c0.6-0.4,1.2-0.9,1.9-1.2l6.8,1.9
		C92.7,22.9,93,23.3,92.9,23.8z"/>
	<path class="st1" d="M100.9,21.5c-0.1,0.4-0.4,0.6-0.8,0.6l-0.3,0l-10.1-2.7c0.8-0.4,1.7-0.7,2.5-1.1l0,0l8,2.2
		C100.7,20.6,101,21,100.9,21.5z"/>
	<path class="st1" d="M106.7,18.4c-0.1,0.4-0.4,0.6-0.8,0.6l-0.3,0l-9.3-2.5c1.1-0.3,2.2-0.6,3.3-0.9h0l6.5,1.7
		C106.6,17.4,106.8,17.9,106.7,18.4z"/>
	<path class="st1" d="M114,16c-0.1,0.4-0.4,0.6-0.8,0.6l-0.3,0l-8.8-2.4c1.6-0.2,3.1-0.4,4.5-0.5l4.8,1.3
		C113.8,15.1,114.1,15.6,114,16z"/>
	<path class="st5" d="M4.1,55.6C3,50.9,5,46.2,8.8,43.4c9.6-7,30.5-15.2,45.4-14C72.5,30.7,73,39.1,67.8,43
		c-5.3,3.9-44.5,15.6-52.3,17.5C7.7,62.4,4.9,59.2,4.1,55.6z"/>
	<path class="st1" d="M4.1,55.6l0.7-0.2c-0.2-0.8-0.3-1.5-0.3-2.3c0-3.5,1.8-6.9,4.7-9.1c4.4-3.2,11.3-6.7,18.9-9.4
		c7.6-2.7,15.9-4.6,23.2-4.6c1,0,1.9,0,2.9,0.1c6,0.5,10,1.7,12.4,3.2c1.2,0.7,2,1.5,2.6,2.3c0.5,0.8,0.7,1.6,0.7,2.4
		c0,1.6-1,3.2-2.6,4.4c-0.6,0.4-1.7,1-3.3,1.7c-5.5,2.4-16,5.9-26,9c-10,3.1-19.4,5.8-22.8,6.7c-1.6,0.4-2.9,0.6-4.1,0.6
		c-2.2,0-3.6-0.6-4.6-1.5c-1-0.9-1.6-2.1-1.9-3.5L4.1,55.6l-0.7,0.2c0.4,1.6,1,3.1,2.3,4.2c1.3,1.2,3.1,1.9,5.6,1.9
		c1.3,0,2.8-0.2,4.4-0.6c4-1,15.7-4.4,27.2-8.1c5.7-1.8,11.4-3.7,15.9-5.4c2.3-0.8,4.3-1.6,5.9-2.3c1.6-0.7,2.8-1.3,3.6-1.9
		c1.9-1.4,3.2-3.4,3.2-5.6c0-1.1-0.3-2.2-1-3.2c-1-1.5-2.8-2.9-5.4-4c-2.6-1.1-6.1-1.9-10.7-2.2c-1-0.1-2-0.1-3-0.1
		c-7.5,0-15.9,1.9-23.7,4.7c-7.7,2.7-14.7,6.3-19.3,9.6C5.1,45.2,3,49,3,53.1c0,0.9,0.1,1.8,0.3,2.7L4.1,55.6z"/>
	<path class="st5" d="M19.7,62.5c-1-4.6,0.9-9.4,4.7-12.2c9.6-7,30.5-15.2,45.4-14c18.3,1.4,18.8,9.7,13.5,13.6
		C78.2,53.8,39,65.5,31.1,67.5C23.4,69.4,20.6,66.2,19.7,62.5z"/>
	<path class="st1" d="M19.7,62.5l0.7-0.2c-0.2-0.8-0.3-1.5-0.3-2.3c0-3.5,1.8-6.9,4.7-9.1c4.4-3.2,11.3-6.7,18.9-9.4
		c7.6-2.7,15.9-4.6,23.2-4.6c1,0,1.9,0,2.9,0.1c6,0.5,10,1.7,12.4,3.2c1.2,0.7,2,1.5,2.6,2.3c0.5,0.8,0.7,1.6,0.7,2.4
		c0,1.6-1,3.2-2.6,4.4c-0.6,0.4-1.7,1-3.3,1.7c-5.5,2.4-16,5.9-26,9c-10,3.1-19.4,5.8-22.8,6.7c-1.6,0.4-2.9,0.6-4.1,0.6
		c-2.2,0-3.6-0.6-4.6-1.5c-1-0.9-1.6-2.1-1.9-3.5L19.7,62.5L19,62.7c0.4,1.6,1,3.1,2.3,4.2c1.3,1.2,3.1,1.9,5.6,1.9
		c1.3,0,2.8-0.2,4.4-0.6c4-1,15.7-4.4,27.2-8.1c5.7-1.8,11.4-3.7,15.9-5.4c2.3-0.8,4.3-1.6,5.9-2.3c1.6-0.7,2.8-1.3,3.6-1.9
		c1.9-1.4,3.2-3.4,3.2-5.6c0-1.1-0.3-2.2-1-3.2c-1-1.5-2.8-2.9-5.4-4c-2.6-1.1-6.1-1.9-10.7-2.2c-1-0.1-2-0.1-3-0.1
		c-7.5,0-15.9,1.9-23.7,4.7c-7.7,2.7-14.7,6.3-19.3,9.6c-3.3,2.4-5.3,6.3-5.3,10.3c0,0.9,0.1,1.8,0.3,2.7L19.7,62.5z"/>
	<path class="st6" d="M66.8,42c-0.4,0-0.9,0.1-1.2,0.1c-0.9,0.1-3,0.3-5.7,0.8c-1.2,0.2-2.6,0.4-4,0.7l0,0c-1.8,0.3-3.7,0.7-5.6,1.1
		l0,0c-1,0.2-1.9,0.5-2.9,0.7c-1.2,0.3-2.4,0.6-3.6,1l0,0c-0.8,0.2-1.5,0.5-2.2,0.7l0,0c-1.1,0.4-2.2,0.8-3.2,1.2
		c-0.6,0.2-1.1,0.5-1.6,0.8c-2.3,1.1-4.2,2.4-5.5,3.9c-0.4,0.4-1.4,0.6-2,0.3c-0.3-0.2-0.4-0.4-0.3-0.7c1.3-1.8,3.4-3.3,6-4.6
		c0.5-0.3,1.1-0.5,1.6-0.8c1-0.4,2.1-0.9,3.2-1.2l0,0c0.7-0.3,1.5-0.5,2.2-0.7l0,0c1.2-0.4,2.4-0.7,3.6-1c1-0.3,1.9-0.5,2.9-0.7l0,0
		c1.9-0.4,3.8-0.8,5.6-1.1l0,0c1.4-0.3,2.8-0.5,4-0.7c2.8-0.4,4.9-0.6,5.7-0.8c0.3,0,0.6-0.1,1-0.1c0.4,0,0.8,0.1,1.1,0.2L66.8,42z"
		/>
	<path class="st6" d="M69.2,45.2c-0.1,0-0.3,0-0.4,0c-0.2,0-0.3,0-0.5,0c-0.3,0-0.7,0-0.9,0.1c-0.2,0-0.4,0-0.5,0.1
		c-0.9,0.1-3,0.3-5.7,0.8c-1.2,0.2-2.6,0.4-4,0.6l0,0c-1.8,0.3-3.7,0.7-5.6,1.1l0,0c-1,0.2-1.9,0.5-2.9,0.7c-1.2,0.3-2.4,0.6-3.6,1
		l0,0c-0.8,0.2-1.5,0.5-2.2,0.7l0,0c-1.1,0.4-2.2,0.8-3.2,1.2c-0.6,0.2-1.1,0.5-1.6,0.8c-0.3,0.1-0.6,0.3-0.8,0.4
		c-0.3,0.1-0.5,0.3-0.8,0.4c-0.3,0.1-0.5,0.3-0.8,0.5c-0.3,0.2-0.6,0.4-0.8,0.6c-0.2,0.1-0.3,0.2-0.5,0.4l-0.1,0.1
		c-0.2,0.1-0.4,0.3-0.5,0.5c-0.2,0.1-0.3,0.3-0.5,0.5L33,55.7c-0.2,0.1-0.3,0.3-0.4,0.4l0,0l-1-0.5c-0.6-0.3-0.7-0.8-0.4-1.2
		c1.3-1.6,3.3-2.9,5.6-4.1c0.5-0.3,1.1-0.5,1.6-0.8c1-0.4,2.1-0.9,3.2-1.2l0,0c0.7-0.3,1.5-0.5,2.2-0.7l0,0c1.2-0.4,2.4-0.7,3.6-1
		c1-0.3,1.9-0.5,2.9-0.7l0,0c1.9-0.4,3.8-0.8,5.6-1.1l0,0c1.4-0.3,2.8-0.5,4-0.6c2.8-0.4,4.9-0.6,5.7-0.8l0,0
		c0.7-0.1,1.4,0.1,1.8,0.4L69.2,45.2z"/>
	<path class="st6" d="M70.6,48.2c0.4,0.3,0.1,0.8-0.6,1c-4.6,1.5-11.3-0.1-22.2,3.5c-5,1.7-8.2,3.5-10.6,5c-0.5,0.3-1.3,0.4-1.8,0.1
		L35,57.6c-0.4-0.2-0.5-0.6,0-0.9c2.5-1.6,5.8-3.8,11.8-5.8c10.5-3.5,17.1-2.2,21.7-3.4c0.6-0.1,1.2-0.1,1.5,0.2L70.6,48.2z"/>
	<path class="st6" d="M48.1,32.6c-0.4,0.1-0.8,0.2-1.2,0.3c-0.9,0.2-2.9,0.7-5.6,1.4c-1.2,0.3-2.5,0.7-3.9,1.1l0,0
		c-1.7,0.5-3.5,1.1-5.4,1.8l0,0c-0.9,0.3-1.9,0.7-2.8,1.1c-1.2,0.5-2.3,0.9-3.4,1.4l0,0c-0.7,0.3-1.4,0.7-2.1,1l0,0
		c-1.1,0.5-2.1,1.1-3,1.6c-0.5,0.3-1,0.6-1.5,1c-2.1,1.4-3.9,2.9-4.9,4.5c-0.3,0.5-1.3,0.8-1.9,0.5c-0.3-0.1-0.5-0.4-0.3-0.7
		c1-1.9,3-3.7,5.4-5.3c0.5-0.3,1-0.6,1.5-1c1-0.6,2-1.1,3-1.6l0,0c0.7-0.3,1.4-0.7,2.1-1l0,0c1.1-0.5,2.3-1,3.4-1.4
		c0.9-0.4,1.9-0.7,2.8-1.1l0,0c1.9-0.7,3.7-1.3,5.4-1.8l0,0c1.4-0.4,2.7-0.8,3.9-1.1c2.7-0.7,4.7-1.2,5.6-1.4
		c0.3-0.1,0.6-0.1,0.9-0.2c0.4-0.1,0.8,0,1.1,0.1L48.1,32.6z"/>
	<path class="st6" d="M50.9,35.5c-0.1,0-0.3,0-0.4,0.1c-0.2,0-0.3,0-0.5,0.1c-0.3,0.1-0.6,0.1-0.9,0.2c-0.2,0-0.3,0.1-0.5,0.1
		c-0.9,0.2-2.9,0.7-5.6,1.4c-1.2,0.3-2.5,0.7-3.9,1.1l0,0c-1.7,0.5-3.5,1.1-5.4,1.8l0,0c-0.9,0.3-1.9,0.7-2.8,1.1
		c-1.2,0.5-2.3,0.9-3.4,1.4l0,0c-0.7,0.3-1.4,0.7-2.1,1l0,0c-1.1,0.5-2.1,1.1-3,1.6c-0.5,0.3-1,0.6-1.5,1c-0.3,0.2-0.5,0.3-0.8,0.5
		c-0.3,0.2-0.5,0.4-0.7,0.5c-0.2,0.2-0.5,0.4-0.7,0.5c-0.3,0.2-0.5,0.4-0.8,0.7c-0.2,0.1-0.3,0.3-0.4,0.4l-0.1,0.1
		c-0.2,0.2-0.3,0.3-0.5,0.5c-0.2,0.2-0.3,0.3-0.4,0.5l-0.1,0.2c-0.1,0.2-0.3,0.3-0.4,0.5l0,0l-1-0.4c-0.6-0.2-0.8-0.7-0.5-1.1
		c1.1-1.7,2.9-3.3,5.1-4.8c0.5-0.3,1-0.6,1.5-1c1-0.6,2-1.1,3-1.6l0,0c0.7-0.3,1.4-0.7,2.1-1l0,0c1.1-0.5,2.3-1,3.4-1.4
		c0.9-0.4,1.9-0.7,2.8-1.1l0,0c1.9-0.7,3.7-1.3,5.4-1.8l0,0c1.4-0.4,2.7-0.8,3.9-1.1c2.7-0.7,4.7-1.2,5.6-1.4l0,0
		c0.7-0.2,1.4-0.1,1.8,0.2L50.9,35.5z"/>
</g>
</svg>
