<?xml version="1.0" encoding="utf-8"?>
<!-- Generator: Adobe Illustrator 22.1.0, SVG Export Plug-In . SVG Version: 6.00 Build 0)  -->
<svg version="1.1" id="Layer_1" xmlns="http://www.w3.org/2000/svg" xmlns:xlink="http://www.w3.org/1999/xlink" x="0px" y="0px"
	 viewBox="0 0 142.7 69.2" style="enable-background:new 0 0 142.7 69.2;" xml:space="preserve">
<style type="text/css">
	.st0{fill:#5C903F;}
	.st1{fill:#5C903F;stroke:#28373A;stroke-miterlimit:10;}
	.st2{fill:#DAEDF1;stroke:#28373A;stroke-miterlimit:10;}
	.st3{fill:#30763A;stroke:#28373A;stroke-miterlimit:10;}
	.st4{fill:#479B51;stroke:#28373A;stroke-miterlimit:10;}
	.st5{fill:#266733;stroke:#28373A;stroke-miterlimit:10;}
	.st6{fill:#278541;stroke:#28373A;stroke-miterlimit:10;}
	.st7{fill-rule:evenodd;clip-rule:evenodd;fill:#D72C27;}
	.st8{fill:#28373A;}
	.st9{fill:#77C045;}
</style>
<g>
	<path class="st0" d="M34.9,59.4c-1.8,1.7-3.7,3-5.7,4L34.9,59.4z"/>
	<path class="st1" d="M44.5,33.7c0,10.7-3.8,20.1-9.6,25.7l-5.7,4c0,0,0,0,0,0v0c-2.1,0.9-4.3,1.4-6.6,1.4c-12.2,0-22-13.9-22-31.1
		c0-17.2,9.8-31.1,22-31.1l1,0l0.1,0C35.3,3.4,44.5,17,44.5,33.7z"/>
	<path class="st0" d="M29.1,63.3L29.1,63.3L29.1,63.3C29.1,63.3,29.1,63.3,29.1,63.3z"/>
	<path class="st2" d="M43.9,33.2c0,10.7-3.7,20.1-9.5,25.8l-5.3,3.9c0,0-2.7,1.1-4.6,1.1C11.4,61.9,7,50.7,7,37.3
		c0-14.6,13-26.6,29.2-27C40.6,16,43.9,24.1,43.9,33.2z"/>
	<polygon class="st3" points="43.3,40.4 7,63.3 9.4,64.8 42.8,43.2 	"/>
	<polygon class="st4" points="44.5,33.7 5.5,59.8 8.1,61.5 44.6,37.1 	"/>
	<polygon class="st5" points="49.1,39.5 16.2,67.2 18.8,68.3 48.9,42.3 	"/>
	<polygon class="st6" points="49.3,32.6 14.2,63.8 17,65.2 49.8,36 	"/>
	<polygon class="st3" points="44.7,30.2 12.3,53 14.8,54.4 44.3,33 	"/>
	<polygon class="st3" points="54.8,36.1 19.7,67.3 22.5,68.6 55.4,39.5 	"/>
	<g>
		<path class="st7" d="M17.2,29c0-1-0.8-1.7-1.7-1.7c-1,0-1.7,0.8-1.7,1.7s0.8,1.7,1.7,1.7C16.4,30.7,17.2,30,17.2,29z"/>
		<path class="st8" d="M17.2,29h0.3c0-1.1-0.9-2.1-2.1-2.1c-1.1,0-2.1,0.9-2.1,2.1c0,1.1,0.9,2.1,2.1,2.1c1.1,0,2.1-0.9,2.1-2.1
			H17.2h-0.3c0,0.8-0.6,1.4-1.4,1.4c-0.8,0-1.4-0.6-1.4-1.4c0-0.8,0.6-1.4,1.4-1.4c0.8,0,1.4,0.6,1.4,1.4H17.2z"/>
		<path class="st7" d="M19.9,26.1c0-1-0.8-1.7-1.7-1.7c-1,0-1.7,0.8-1.7,1.7c0,1,0.8,1.7,1.7,1.7C19.2,27.8,19.9,27.1,19.9,26.1z"/>
		<path class="st8" d="M19.9,26.1h0.3c0-1.1-0.9-2.1-2.1-2.1c-1.1,0-2.1,0.9-2.1,2.1c0,1.1,0.9,2.1,2.1,2.1c1.1,0,2.1-0.9,2.1-2.1
			H19.9h-0.3c0,0.8-0.6,1.4-1.4,1.4c-0.8,0-1.4-0.6-1.4-1.4c0-0.8,0.6-1.4,1.4-1.4c0.8,0,1.4,0.6,1.4,1.4H19.9z"/>
		<circle class="st7" cx="19" cy="29.3" r="1.7"/>
		<path class="st8" d="M20.8,29.3h0.3c0-1.1-0.9-2.1-2.1-2.1c-1.1,0-2.1,0.9-2.1,2.1c0,1.1,0.9,2.1,2.1,2.1c1.1,0,2.1-0.9,2.1-2.1
			H20.8h-0.3c0,0.8-0.6,1.4-1.4,1.4c-0.8,0-1.4-0.6-1.4-1.4c0-0.8,0.6-1.4,1.4-1.4c0.8,0,1.4,0.6,1.4,1.4H20.8z"/>
		<path class="st7" d="M23.6,26.4c0-1-0.8-1.7-1.7-1.7c-1,0-1.7,0.8-1.7,1.7c0,1,0.8,1.7,1.7,1.7C22.8,28.1,23.6,27.4,23.6,26.4z"/>
		<path class="st8" d="M23.6,26.4h0.3c0-1.1-0.9-2.1-2.1-2.1c-1.1,0-2.1,0.9-2.1,2.1c0,1.1,0.9,2.1,2.1,2.1c1.1,0,2.1-0.9,2.1-2.1
			H23.6h-0.3c0,0.8-0.6,1.4-1.4,1.4c-0.8,0-1.4-0.6-1.4-1.4c0-0.8,0.6-1.4,1.4-1.4c0.8,0,1.4,0.6,1.4,1.4H23.6z"/>
		<circle class="st7" cx="20.4" cy="23.3" r="1.7"/>
		<path class="st8" d="M22.2,23.3h0.3c0-1.1-0.9-2.1-2.1-2.1c-1.1,0-2.1,0.9-2.1,2.1c0,1.1,0.9,2.1,2.1,2.1c1.1,0,2.1-0.9,2.1-2.1
			H22.2h-0.3c0,0.8-0.6,1.4-1.4,1.4c-0.8,0-1.4-0.6-1.4-1.4c0-0.8,0.6-1.4,1.4-1.4c0.8,0,1.4,0.6,1.4,1.4H22.2z"/>
		<path class="st7" d="M25.9,27.6c0-1-0.8-1.7-1.7-1.7c-1,0-1.7,0.8-1.7,1.7c0,1,0.8,1.7,1.7,1.7C25.1,29.3,25.9,28.5,25.9,27.6z"/>
		<path class="st8" d="M25.9,27.6h0.3c0-1.1-0.9-2.1-2.1-2.1c-1.1,0-2.1,0.9-2.1,2.1c0,1.1,0.9,2.1,2.1,2.1c1.1,0,2.1-0.9,2.1-2.1
			H25.9h-0.3c0,0.8-0.6,1.4-1.4,1.4c-0.8,0-1.4-0.6-1.4-1.4c0-0.8,0.6-1.4,1.4-1.4c0.8,0,1.4,0.6,1.4,1.4H25.9z"/>
		<circle class="st7" cx="24.3" cy="23.5" r="1.7"/>
		<path class="st8" d="M26,23.5h0.3c0-1.1-0.9-2.1-2.1-2.1c-1.1,0-2.1,0.9-2.1,2.1c0,1.1,0.9,2.1,2.1,2.1c1.1,0,2.1-0.9,2.1-2.1H26
			h-0.3c0,0.8-0.6,1.4-1.4,1.4c-0.8,0-1.4-0.6-1.4-1.4c0-0.8,0.6-1.4,1.4-1.4c0.8,0,1.4,0.6,1.4,1.4H26z"/>
		<path class="st7" d="M29.5,24.7c0-1-0.8-1.7-1.7-1.7c-1,0-1.7,0.8-1.7,1.7c0,1,0.8,1.7,1.7,1.7C28.7,26.4,29.5,25.6,29.5,24.7z"/>
		<path class="st8" d="M29.5,24.7h0.3c0-1.1-0.9-2.1-2.1-2.1c-1.1,0-2.1,0.9-2.1,2.1c0,1.1,0.9,2.1,2.1,2.1c1.1,0,2.1-0.9,2.1-2.1
			H29.5h-0.3c0,0.8-0.6,1.4-1.4,1.4c-0.8,0-1.4-0.6-1.4-1.4c0-0.8,0.6-1.4,1.4-1.4c0.8,0,1.4,0.6,1.4,1.4H29.5z"/>
	</g>
	<g>
		<path class="st7" d="M25.1,26.6c0.2-0.9-0.5-1.8-1.4-2c-0.9-0.2-1.8,0.5-2,1.4c-0.2,0.9,0.5,1.8,1.4,2
			C24,28.2,24.9,27.6,25.1,26.6z"/>
		<path class="st8" d="M25.1,26.6l0.3,0.1c0.2-1.1-0.5-2.2-1.7-2.4c-1.1-0.2-2.2,0.5-2.4,1.7c-0.2,1.1,0.5,2.2,1.7,2.4
			c1.1,0.2,2.2-0.5,2.4-1.7L25.1,26.6l-0.3-0.1c-0.1,0.8-0.9,1.3-1.6,1.1c-0.8-0.1-1.3-0.9-1.1-1.6c0.1-0.8,0.9-1.3,1.6-1.1
			c0.8,0.1,1.3,0.9,1.1,1.6L25.1,26.6z"/>
		<path class="st7" d="M28.3,24.3c0.2-0.9-0.5-1.8-1.4-2c-0.9-0.2-1.8,0.5-2,1.4c-0.2,0.9,0.5,1.8,1.4,2
			C27.3,25.8,28.2,25.2,28.3,24.3z"/>
		<path class="st8" d="M28.3,24.3l0.3,0.1c0.2-1.1-0.5-2.2-1.7-2.4c-1.1-0.2-2.2,0.5-2.4,1.7c-0.2,1.1,0.5,2.2,1.7,2.4
			c1.1,0.2,2.2-0.5,2.4-1.7L28.3,24.3L28,24.2c-0.1,0.8-0.9,1.3-1.6,1.1c-0.8-0.1-1.3-0.9-1.1-1.6c0.1-0.8,0.9-1.3,1.6-1.1
			c0.8,0.1,1.3,0.9,1.1,1.6L28.3,24.3z"/>
		<circle class="st7" cx="26.9" cy="27.2" r="1.7"/>
		<path class="st8" d="M28.6,27.5l0.3,0.1c0.2-1.1-0.5-2.2-1.7-2.4c-1.1-0.2-2.2,0.5-2.4,1.7c-0.2,1.1,0.5,2.2,1.7,2.4
			c1.1,0.2,2.2-0.5,2.4-1.7L28.6,27.5l-0.3-0.1c-0.1,0.8-0.9,1.3-1.6,1.1c-0.8-0.1-1.3-0.9-1.1-1.6c0.1-0.8,0.9-1.3,1.6-1.1
			c0.8,0.1,1.3,0.9,1.1,1.6L28.6,27.5z"/>
		<path class="st7" d="M31.9,25.2c0.2-0.9-0.5-1.8-1.4-2c-0.9-0.2-1.8,0.5-2,1.4c-0.2,0.9,0.5,1.8,1.4,2
			C30.8,26.8,31.7,26.1,31.9,25.2z"/>
		<path class="st8" d="M31.9,25.2l0.3,0.1c0.2-1.1-0.5-2.2-1.7-2.4c-1.1-0.2-2.2,0.5-2.4,1.7c-0.2,1.1,0.5,2.2,1.7,2.4
			c1.1,0.2,2.2-0.5,2.4-1.7L31.9,25.2l-0.3-0.1c-0.1,0.8-0.9,1.3-1.6,1.1c-0.8-0.1-1.3-0.9-1.1-1.6c0.1-0.8,0.9-1.3,1.6-1.1
			c0.8,0.1,1.3,0.9,1.1,1.6L31.9,25.2z"/>
		<circle class="st7" cx="29.3" cy="21.6" r="1.7"/>
		<path class="st8" d="M31,21.9l0.3,0.1c0.2-1.1-0.5-2.2-1.7-2.4c-1.1-0.2-2.2,0.5-2.4,1.7c-0.2,1.1,0.5,2.2,1.7,2.4
			c1.1,0.2,2.2-0.5,2.4-1.7L31,21.9l-0.3-0.1c-0.1,0.8-0.9,1.3-1.6,1.1c-0.8-0.1-1.3-0.9-1.1-1.6c0.1-0.8,0.9-1.3,1.6-1.1
			c0.8,0.1,1.3,0.9,1.1,1.6L31,21.9z"/>
		<path class="st7" d="M34,26.7c0.2-0.9-0.5-1.8-1.4-2c-0.9-0.2-1.8,0.5-2,1.4c-0.2,0.9,0.5,1.8,1.4,2C32.9,28.3,33.8,27.7,34,26.7z
			"/>
		<path class="st8" d="M34,26.7l0.3,0.1c0.2-1.1-0.5-2.2-1.7-2.4c-1.1-0.2-2.2,0.5-2.4,1.7c-0.2,1.1,0.5,2.2,1.7,2.4
			c1.1,0.2,2.2-0.5,2.4-1.7L34,26.7l-0.3-0.1c-0.1,0.8-0.9,1.3-1.6,1.1c-0.8-0.1-1.3-0.9-1.1-1.6c0.1-0.8,0.9-1.3,1.6-1.1
			c0.8,0.1,1.3,0.9,1.1,1.6L34,26.7z"/>
		<circle class="st7" cx="33.1" cy="22.5" r="1.7"/>
		<path class="st8" d="M34.8,22.8l0.3,0.1c0.2-1.1-0.5-2.2-1.7-2.4c-1.1-0.2-2.2,0.5-2.4,1.7c-0.2,1.1,0.5,2.2,1.7,2.4
			c1.1,0.2,2.2-0.5,2.4-1.7L34.8,22.8l-0.3-0.1c-0.1,0.8-0.9,1.3-1.6,1.1c-0.8-0.1-1.3-0.9-1.1-1.6c0.1-0.8,0.9-1.3,1.6-1.1
			c0.8,0.1,1.3,0.9,1.1,1.6L34.8,22.8z"/>
		<path class="st7" d="M38,24.5c0.2-0.9-0.5-1.8-1.4-2c-0.9-0.2-1.8,0.5-2,1.4c-0.2,0.9,0.5,1.8,1.4,2C36.9,26.1,37.8,25.4,38,24.5z
			"/>
		<path class="st8" d="M38,24.5l0.3,0.1c0.2-1.1-0.5-2.2-1.7-2.4c-1.1-0.2-2.2,0.5-2.4,1.7C34,25,34.8,26,35.9,26.2
			c1.1,0.2,2.2-0.5,2.4-1.7L38,24.5l-0.3-0.1c-0.1,0.8-0.9,1.3-1.6,1.1c-0.8-0.1-1.3-0.9-1.1-1.6c0.1-0.8,0.9-1.3,1.6-1.1
			c0.8,0.1,1.3,0.9,1.1,1.6L38,24.5z"/>
	</g>
	<g>
		<path class="st7" d="M19.4,33.6c0.2-0.9-0.5-1.8-1.4-2c-0.9-0.2-1.8,0.5-2,1.4c-0.2,0.9,0.5,1.8,1.4,2
			C18.4,35.2,19.3,34.5,19.4,33.6z"/>
		<path class="st8" d="M19.4,33.6l0.3,0.1c0.2-1.1-0.5-2.2-1.7-2.4c-1.1-0.2-2.2,0.5-2.4,1.7c-0.2,1.1,0.5,2.2,1.7,2.4
			c1.1,0.2,2.2-0.5,2.4-1.7L19.4,33.6l-0.3-0.1c-0.1,0.8-0.9,1.3-1.6,1.1c-0.8-0.1-1.3-0.9-1.1-1.6c0.1-0.8,0.9-1.3,1.6-1.1
			c0.8,0.1,1.3,0.9,1.1,1.6L19.4,33.6z"/>
		<path class="st7" d="M22.7,31.2c0.2-0.9-0.5-1.8-1.4-2c-0.9-0.2-1.8,0.5-2,1.4c-0.2,0.9,0.5,1.8,1.4,2
			C21.6,32.8,22.5,32.2,22.7,31.2z"/>
		<path class="st8" d="M22.7,31.2l0.3,0.1c0.2-1.1-0.5-2.2-1.7-2.4c-1.1-0.2-2.2,0.5-2.4,1.7c-0.2,1.1,0.5,2.2,1.7,2.4
			c1.1,0.2,2.2-0.5,2.4-1.7L22.7,31.2l-0.3-0.1c-0.1,0.8-0.9,1.3-1.6,1.1c-0.8-0.1-1.3-0.9-1.1-1.6c0.1-0.8,0.9-1.3,1.6-1.1
			c0.8,0.1,1.3,0.9,1.1,1.6L22.7,31.2z"/>
		<circle class="st7" cx="21.2" cy="34.2" r="1.7"/>
		<path class="st8" d="M22.9,34.5l0.3,0.1c0.2-1.1-0.5-2.2-1.7-2.4c-1.1-0.2-2.2,0.5-2.4,1.7C19,35,19.7,36,20.9,36.2
			c1.1,0.2,2.2-0.5,2.4-1.7L22.9,34.5l-0.3-0.1c-0.1,0.8-0.9,1.3-1.6,1.1c-0.8-0.1-1.3-0.9-1.1-1.6c0.1-0.8,0.9-1.3,1.6-1.1
			c0.8,0.1,1.3,0.9,1.1,1.6L22.9,34.5z"/>
		<path class="st7" d="M26.2,32.1c0.2-0.9-0.5-1.8-1.4-2c-0.9-0.2-1.8,0.5-2,1.4c-0.2,0.9,0.5,1.8,1.4,2
			C25.1,33.7,26,33.1,26.2,32.1z"/>
		<path class="st8" d="M26.2,32.1l0.3,0.1c0.2-1.1-0.5-2.2-1.7-2.4c-1.1-0.2-2.2,0.5-2.4,1.7c-0.2,1.1,0.5,2.2,1.7,2.4
			c1.1,0.2,2.2-0.5,2.4-1.7L26.2,32.1l-0.3-0.1c-0.1,0.8-0.9,1.3-1.6,1.1c-0.8-0.1-1.3-0.9-1.1-1.6c0.1-0.8,0.9-1.3,1.6-1.1
			c0.8,0.1,1.3,0.9,1.1,1.6L26.2,32.1z"/>
		<circle class="st7" cx="23.6" cy="28.5" r="1.7"/>
		<path class="st8" d="M25.4,28.8l0.3,0.1c0.2-1.1-0.5-2.2-1.7-2.4c-1.1-0.2-2.2,0.5-2.4,1.7c-0.2,1.1,0.5,2.2,1.7,2.4
			c1.1,0.2,2.2-0.5,2.4-1.7L25.4,28.8L25,28.8c-0.1,0.8-0.9,1.3-1.6,1.1c-0.8-0.1-1.3-0.9-1.1-1.6c0.1-0.8,0.9-1.3,1.6-1.1
			c0.8,0.1,1.3,0.9,1.1,1.6L25.4,28.8z"/>
		<path class="st7" d="M28.3,33.7c0.2-0.9-0.5-1.8-1.4-2c-0.9-0.2-1.8,0.5-2,1.4c-0.2,0.9,0.5,1.8,1.4,2
			C27.2,35.3,28.1,34.6,28.3,33.7z"/>
		<path class="st8" d="M28.3,33.7l0.3,0.1c0.2-1.1-0.5-2.2-1.7-2.4c-1.1-0.2-2.2,0.5-2.4,1.7c-0.2,1.1,0.5,2.2,1.7,2.4
			c1.1,0.2,2.2-0.5,2.4-1.7L28.3,33.7L28,33.6c-0.1,0.8-0.9,1.3-1.6,1.1c-0.8-0.1-1.3-0.9-1.1-1.6c0.1-0.8,0.9-1.3,1.6-1.1
			c0.8,0.1,1.3,0.9,1.1,1.6L28.3,33.7z"/>
		<circle class="st7" cx="27.4" cy="29.4" r="1.7"/>
		<path class="st8" d="M29.1,29.7l0.3,0.1c0.2-1.1-0.5-2.2-1.7-2.4c-1.1-0.2-2.2,0.5-2.4,1.7c-0.2,1.1,0.5,2.2,1.7,2.4
			c1.1,0.2,2.2-0.5,2.4-1.7L29.1,29.7l-0.3-0.1c-0.1,0.8-0.9,1.3-1.6,1.1c-0.8-0.1-1.3-0.9-1.1-1.6c0.1-0.8,0.9-1.3,1.6-1.1
			c0.8,0.1,1.3,0.9,1.1,1.6L29.1,29.7z"/>
		<path class="st7" d="M32.3,31.5c0.2-0.9-0.5-1.8-1.4-2c-0.9-0.2-1.8,0.5-2,1.4c-0.2,0.9,0.5,1.8,1.4,2
			C31.2,33,32.1,32.4,32.3,31.5z"/>
		<path class="st8" d="M32.3,31.5l0.3,0.1c0.2-1.1-0.5-2.2-1.7-2.4c-1.1-0.2-2.2,0.5-2.4,1.7c-0.2,1.1,0.5,2.2,1.7,2.4
			c1.1,0.2,2.2-0.5,2.4-1.7L32.3,31.5L32,31.4c-0.1,0.8-0.9,1.3-1.6,1.1c-0.8-0.1-1.3-0.9-1.1-1.6c0.1-0.8,0.9-1.3,1.6-1.1
			c0.8,0.1,1.3,0.9,1.1,1.6L32.3,31.5z"/>
	</g>
	<g>
		<path class="st7" d="M31.5,28.2c0.2-0.9-0.5-1.8-1.4-2c-0.9-0.2-1.8,0.5-2,1.4c-0.2,0.9,0.5,1.8,1.4,2
			C30.5,29.8,31.4,29.2,31.5,28.2z"/>
		<path class="st8" d="M31.5,28.2l0.3,0.1c0.2-1.1-0.5-2.2-1.7-2.4c-1.1-0.2-2.2,0.5-2.4,1.7c-0.2,1.1,0.5,2.2,1.7,2.4
			c1.1,0.2,2.2-0.5,2.4-1.7L31.5,28.2l-0.3-0.1c-0.1,0.8-0.9,1.3-1.6,1.1c-0.8-0.1-1.3-0.9-1.1-1.6c0.1-0.8,0.9-1.3,1.6-1.1
			c0.8,0.1,1.3,0.9,1.1,1.6L31.5,28.2z"/>
		<path class="st7" d="M34.8,25.9c0.2-0.9-0.5-1.8-1.4-2c-0.9-0.2-1.8,0.5-2,1.4c-0.2,0.9,0.5,1.8,1.4,2
			C33.7,27.4,34.6,26.8,34.8,25.9z"/>
		<path class="st8" d="M34.8,25.9l0.3,0.1c0.2-1.1-0.5-2.2-1.7-2.4c-1.1-0.2-2.2,0.5-2.4,1.7c-0.2,1.1,0.5,2.2,1.7,2.4
			c1.1,0.2,2.2-0.5,2.4-1.7L34.8,25.9l-0.3-0.1c-0.1,0.8-0.9,1.3-1.6,1.1c-0.8-0.1-1.3-0.9-1.1-1.6c0.1-0.8,0.9-1.3,1.6-1.1
			c0.8,0.1,1.3,0.9,1.1,1.6L34.8,25.9z"/>
		<circle class="st7" cx="33.3" cy="28.8" r="1.7"/>
		<path class="st8" d="M35.1,29.1l0.3,0.1c0.2-1.1-0.5-2.2-1.7-2.4c-1.1-0.2-2.2,0.5-2.4,1.7c-0.2,1.1,0.5,2.2,1.7,2.4
			c1.1,0.2,2.2-0.5,2.4-1.7L35.1,29.1l-0.3-0.1c-0.1,0.8-0.9,1.3-1.6,1.1c-0.8-0.1-1.3-0.9-1.1-1.6c0.1-0.8,0.9-1.3,1.6-1.1
			c0.8,0.1,1.3,0.9,1.1,1.6L35.1,29.1z"/>
		<path class="st7" d="M38.3,26.8c0.2-0.9-0.5-1.8-1.4-2c-0.9-0.2-1.8,0.5-2,1.4c-0.2,0.9,0.5,1.8,1.4,2
			C37.2,28.3,38.1,27.7,38.3,26.8z"/>
		<path class="st8" d="M38.3,26.8l0.3,0.1c0.2-1.1-0.5-2.2-1.7-2.4c-1.1-0.2-2.2,0.5-2.4,1.7c-0.2,1.1,0.5,2.2,1.7,2.4
			c1.1,0.2,2.2-0.5,2.4-1.7L38.3,26.8L38,26.7c-0.1,0.8-0.9,1.3-1.6,1.1c-0.8-0.1-1.3-0.9-1.1-1.6c0.1-0.8,0.9-1.3,1.6-1.1
			c0.8,0.1,1.3,0.9,1.1,1.6L38.3,26.8z"/>
		<circle class="st7" cx="35.8" cy="23.2" r="1.7"/>
		<path class="st8" d="M37.5,23.5l0.3,0.1c0.2-1.1-0.5-2.2-1.7-2.4c-1.1-0.2-2.2,0.5-2.4,1.7c-0.2,1.1,0.5,2.2,1.7,2.4
			c1.1,0.2,2.2-0.5,2.4-1.7L37.5,23.5l-0.3-0.1c-0.1,0.8-0.9,1.3-1.6,1.1c-0.8-0.1-1.3-0.9-1.1-1.6c0.1-0.8,0.9-1.3,1.6-1.1
			c0.8,0.1,1.3,0.9,1.1,1.6L37.5,23.5z"/>
		<path class="st7" d="M40.4,28.3c0.2-0.9-0.5-1.8-1.4-2c-0.9-0.2-1.8,0.5-2,1.4c-0.2,0.9,0.5,1.8,1.4,2
			C39.3,29.9,40.2,29.3,40.4,28.3z"/>
		<path class="st8" d="M40.4,28.3l0.3,0.1c0.2-1.1-0.5-2.2-1.7-2.4c-1.1-0.2-2.2,0.5-2.4,1.7c-0.2,1.1,0.5,2.2,1.7,2.4
			c1.1,0.2,2.2-0.5,2.4-1.7L40.4,28.3l-0.3-0.1c-0.1,0.8-0.9,1.3-1.6,1.1c-0.8-0.1-1.3-0.9-1.1-1.6c0.1-0.8,0.9-1.3,1.6-1.1
			c0.8,0.1,1.3,0.9,1.1,1.6L40.4,28.3z"/>
		<circle class="st7" cx="39.5" cy="24" r="1.7"/>
		<path class="st8" d="M41.2,24.4l0.3,0.1c0.2-1.1-0.5-2.2-1.7-2.4c-1.1-0.2-2.2,0.5-2.4,1.7c-0.2,1.1,0.5,2.2,1.7,2.4
			c1.1,0.2,2.2-0.5,2.4-1.7L41.2,24.4l-0.3-0.1c-0.1,0.8-0.9,1.3-1.6,1.1c-0.8-0.1-1.3-0.9-1.1-1.6c0.1-0.8,0.9-1.3,1.6-1.1
			c0.8,0.1,1.3,0.9,1.1,1.6L41.2,24.4z"/>
		<path class="st7" d="M44.4,26.1c0.2-0.9-0.5-1.8-1.4-2c-0.9-0.2-1.8,0.5-2,1.4c-0.2,0.9,0.5,1.8,1.4,2
			C43.3,27.7,44.2,27,44.4,26.1z"/>
		<path class="st8" d="M44.4,26.1l0.3,0.1c0.2-1.1-0.5-2.2-1.7-2.4c-1.1-0.2-2.2,0.5-2.4,1.7c-0.2,1.1,0.5,2.2,1.7,2.4
			c1.1,0.2,2.2-0.5,2.4-1.7L44.4,26.1L44.1,26c-0.1,0.8-0.9,1.3-1.6,1.1c-0.8-0.1-1.3-0.9-1.1-1.6c0.1-0.8,0.9-1.3,1.6-1.1
			c0.8,0.1,1.3,0.9,1.1,1.6L44.4,26.1z"/>
	</g>
	<path class="st1" d="M34.9,59.4c5.8-5.6,9.6-15,9.6-25.7c0-16.7-9.2-30.2-20.9-31.1l89.5,2.9L34.9,59.4z"/>
	<polygon class="st9" points="41.6,6.6 100.5,7.8 44.8,10.4 	"/>
	<g>
		<path class="st7" d="M19.1,38.7c0.9-0.4,1.3-1.4,0.9-2.3c-0.4-0.9-1.4-1.3-2.3-0.9c-0.9,0.4-1.3,1.4-0.9,2.3
			C17.2,38.7,18.2,39.1,19.1,38.7z"/>
		<path class="st8" d="M19.1,38.7l0.1,0.3c1.1-0.4,1.6-1.7,1.1-2.7c-0.4-1.1-1.7-1.6-2.7-1.1c-1.1,0.4-1.6,1.7-1.1,2.7
			c0.4,1.1,1.7,1.6,2.7,1.1L19.1,38.7l-0.1-0.3c-0.7,0.3-1.5,0-1.8-0.8c-0.3-0.7,0-1.5,0.8-1.8c0.7-0.3,1.5,0,1.8,0.8
			c0.3,0.7,0,1.5-0.8,1.8L19.1,38.7z"/>
		<path class="st7" d="M22.8,40.1c0.9-0.4,1.3-1.4,0.9-2.3c-0.4-0.9-1.4-1.3-2.3-0.9c-0.9,0.4-1.3,1.4-0.9,2.3
			C20.9,40.1,21.9,40.5,22.8,40.1z"/>
		<path class="st8" d="M22.8,40.1l0.1,0.3c1.1-0.4,1.6-1.7,1.1-2.7c-0.4-1.1-1.7-1.6-2.7-1.1c-1.1,0.4-1.6,1.7-1.1,2.7
			c0.4,1.1,1.7,1.6,2.7,1.1L22.8,40.1l-0.1-0.3c-0.7,0.3-1.5,0-1.8-0.8c-0.3-0.7,0-1.5,0.8-1.8c0.7-0.3,1.5,0,1.8,0.8
			c0.3,0.7,0,1.5-0.8,1.8L22.8,40.1z"/>
		<circle class="st7" cx="19.5" cy="40.5" r="1.7"/>
		<path class="st8" d="M20.2,42.2l0.1,0.3c1.1-0.4,1.6-1.7,1.1-2.7c-0.4-1.1-1.7-1.6-2.7-1.1c-1.1,0.4-1.6,1.7-1.1,2.7
			c0.4,1.1,1.7,1.6,2.7,1.1L20.2,42.2l-0.1-0.3c-0.7,0.3-1.5,0-1.8-0.8c-0.3-0.7,0-1.5,0.8-1.8c0.7-0.3,1.5,0,1.8,0.8
			c0.3,0.7,0,1.5-0.8,1.8L20.2,42.2z"/>
	</g>
	<g>
		<path class="st7" d="M13.3,35.2c0.2-0.9-0.5-1.8-1.4-2c-0.9-0.2-1.8,0.5-2,1.4c-0.2,0.9,0.5,1.8,1.4,2
			C12.3,36.8,13.2,36.2,13.3,35.2z"/>
		<path class="st8" d="M13.3,35.2l0.3,0.1c0.2-1.1-0.5-2.2-1.7-2.4c-1.1-0.2-2.2,0.5-2.4,1.7c-0.2,1.1,0.5,2.2,1.7,2.4
			c1.1,0.2,2.2-0.5,2.4-1.7L13.3,35.2L13,35.2c-0.1,0.8-0.9,1.3-1.6,1.1c-0.8-0.1-1.3-0.9-1.1-1.6c0.1-0.8,0.9-1.3,1.6-1.1
			c0.8,0.1,1.3,0.9,1.1,1.6L13.3,35.2z"/>
		<path class="st7" d="M16.6,32.9c0.2-0.9-0.5-1.8-1.4-2c-0.9-0.2-1.8,0.5-2,1.4c-0.2,0.9,0.5,1.8,1.4,2
			C15.5,34.4,16.4,33.8,16.6,32.9z"/>
		<path class="st8" d="M16.6,32.9l0.3,0.1c0.2-1.1-0.5-2.2-1.7-2.4c-1.1-0.2-2.2,0.5-2.4,1.7c-0.2,1.1,0.5,2.2,1.7,2.4
			c1.1,0.2,2.2-0.5,2.4-1.7L16.6,32.9l-0.3-0.1c-0.1,0.8-0.9,1.3-1.6,1.1c-0.8-0.1-1.3-0.9-1.1-1.6c0.1-0.8,0.9-1.3,1.6-1.1
			c0.8,0.1,1.3,0.9,1.1,1.6L16.6,32.9z"/>
		<circle class="st7" cx="15.1" cy="35.8" r="1.7"/>
		<path class="st8" d="M16.8,36.1l0.3,0.1c0.2-1.1-0.5-2.2-1.7-2.4c-1.1-0.2-2.2,0.5-2.4,1.7c-0.2,1.1,0.5,2.2,1.7,2.4
			c1.1,0.2,2.2-0.5,2.4-1.7L16.8,36.1l-0.3-0.1c-0.1,0.8-0.9,1.3-1.6,1.1c-0.8-0.1-1.3-0.9-1.1-1.6c0.1-0.8,0.9-1.3,1.6-1.1
			c0.8,0.1,1.3,0.9,1.1,1.6L16.8,36.1z"/>
	</g>
	<g>
		<path class="st7" d="M25.5,37.6c0.6-0.7,0.6-1.8-0.1-2.5c-0.7-0.6-1.8-0.6-2.5,0.1s-0.6,1.8,0.1,2.5
			C23.8,38.3,24.9,38.3,25.5,37.6z"/>
		<path class="st8" d="M25.5,37.6l0.2,0.2c0.8-0.8,0.7-2.2-0.1-2.9c-0.8-0.8-2.2-0.7-2.9,0.1c-0.8,0.8-0.7,2.2,0.1,2.9
			c0.8,0.8,2.2,0.7,2.9-0.1L25.5,37.6l-0.2-0.2c-0.5,0.6-1.4,0.6-2,0.1c-0.6-0.5-0.6-1.4-0.1-2c0.5-0.6,1.4-0.6,2-0.1
			c0.6,0.5,0.6,1.4,0.1,2L25.5,37.6z"/>
		<path class="st7" d="M29.5,37.3c0.6-0.7,0.6-1.8-0.1-2.5c-0.7-0.6-1.8-0.6-2.5,0.1c-0.6,0.7-0.6,1.8,0.1,2.5
			C27.8,38,28.9,38,29.5,37.3z"/>
		<path class="st8" d="M29.5,37.3l0.2,0.2c0.8-0.8,0.7-2.2-0.1-2.9c-0.8-0.8-2.2-0.7-2.9,0.1c-0.8,0.8-0.7,2.2,0.1,2.9
			c0.8,0.8,2.2,0.7,2.9-0.1L29.5,37.3l-0.2-0.2c-0.5,0.6-1.4,0.6-2,0.1c-0.6-0.5-0.6-1.4-0.1-2c0.5-0.6,1.4-0.6,2-0.1
			c0.6,0.5,0.6,1.4,0.1,2L29.5,37.3z"/>
		<circle class="st7" cx="26.7" cy="39" r="1.7"/>
		<path class="st8" d="M28,40.2l0.2,0.2c0.8-0.8,0.7-2.2-0.1-2.9c-0.8-0.8-2.2-0.7-2.9,0.1c-0.8,0.8-0.7,2.2,0.1,2.9
			c0.8,0.8,2.2,0.7,2.9-0.1L28,40.2L27.7,40c-0.5,0.6-1.4,0.6-2,0.1c-0.6-0.5-0.6-1.4-0.1-2c0.5-0.6,1.4-0.6,2-0.1
			c0.6,0.5,0.6,1.4,0.1,2L28,40.2z"/>
	</g>
	<g>
		<path class="st7" d="M32.3,34.3c0.2-0.9-0.5-1.8-1.4-2c-0.9-0.2-1.8,0.5-2,1.4c-0.2,0.9,0.5,1.8,1.4,2
			C31.2,35.9,32.1,35.2,32.3,34.3z"/>
		<path class="st8" d="M32.3,34.3l0.3,0.1c0.2-1.1-0.5-2.2-1.7-2.4c-1.1-0.2-2.2,0.5-2.4,1.7c-0.2,1.1,0.5,2.2,1.7,2.4
			c1.1,0.2,2.2-0.5,2.4-1.7L32.3,34.3L32,34.2c-0.1,0.8-0.9,1.3-1.6,1.1c-0.8-0.1-1.3-0.9-1.1-1.6c0.1-0.8,0.9-1.3,1.6-1.1
			c0.8,0.1,1.3,0.9,1.1,1.6L32.3,34.3z"/>
		<path class="st7" d="M35.5,31.9c0.2-0.9-0.5-1.8-1.4-2c-0.9-0.2-1.8,0.5-2,1.4c-0.2,0.9,0.5,1.8,1.4,2
			C34.4,33.5,35.4,32.9,35.5,31.9z"/>
		<path class="st8" d="M35.5,31.9l0.3,0.1c0.2-1.1-0.5-2.2-1.7-2.4c-1.1-0.2-2.2,0.5-2.4,1.7c-0.2,1.1,0.5,2.2,1.7,2.4
			c1.1,0.2,2.2-0.5,2.4-1.7L35.5,31.9l-0.3-0.1c-0.1,0.8-0.9,1.3-1.6,1.1c-0.8-0.1-1.3-0.9-1.1-1.6c0.1-0.8,0.9-1.3,1.6-1.1
			c0.8,0.1,1.3,0.9,1.1,1.6L35.5,31.9z"/>
		<circle class="st7" cx="34.1" cy="34.9" r="1.7"/>
		<path class="st8" d="M35.8,35.2l0.3,0.1c0.2-1.1-0.5-2.2-1.7-2.4c-1.1-0.2-2.2,0.5-2.4,1.7c-0.2,1.1,0.5,2.2,1.7,2.4
			c1.1,0.2,2.2-0.5,2.4-1.7L35.8,35.2l-0.3-0.1c-0.1,0.8-0.9,1.3-1.6,1.1c-0.8-0.1-1.3-0.9-1.1-1.6c0.1-0.8,0.9-1.3,1.6-1.1
			c0.8,0.1,1.3,0.9,1.1,1.6L35.8,35.2z"/>
	</g>
</g>
<g>
	<path class="st0" d="M71.2,59.1c-2.2,1-4.5,1.5-6.8,1.7L71.2,59.1z"/>
	<path class="st1" d="M89.2,38.4c-3.7,10-10.6,17.5-18,20.7l-6.8,1.7c0,0,0,0,0,0l0,0c-2.3,0.1-4.5-0.2-6.7-1
		C46.4,55.5,42,39,48,22.9c6-16.1,20.1-25.7,31.5-21.4l0.9,0.4l0.1,0.1C91.2,6.8,95.1,22.8,89.2,38.4z"/>
	<path class="st0" d="M64.5,60.7L64.5,60.7L64.5,60.7C64.5,60.7,64.5,60.8,64.5,60.7z"/>
	<path class="st2" d="M88.9,37.7c-3.7,10-10.5,17.6-17.9,20.8l-6.3,1.8c0,0-2.9,0.1-4.7-0.6c-11.6-6.5-11.8-18.5-7-31.1
		c5.1-13.7,21.5-20.3,36.8-15C91.8,20.4,92,29.2,88.9,37.7z"/>
	<polygon class="st3" points="85.8,44.3 43.7,53 45.5,55.2 84.3,46.7 	"/>
	<polygon class="st4" points="89.2,38.4 43.5,49.1 45.4,51.6 88.1,41.6 	"/>
	<polygon class="st5" points="91.5,45.4 51,59.8 53,61.7 90.3,48 	"/>
	<polygon class="st6" points="94.1,39.1 50.3,56 52.5,58.2 93.4,42.5 	"/>
	<polygon class="st3" points="90.7,35.2 52.3,45.2 54.2,47.3 89.3,37.7 	"/>
	<polygon class="st3" points="98.1,44.2 54.3,61.1 56.4,63.4 98.1,44.2 	"/>
	<g>
		<path class="st7" d="M65.3,24.4c0.3-0.9-0.1-1.9-1-2.2c-0.9-0.3-1.9,0.1-2.2,1c-0.3,0.9,0.1,1.9,1,2.2C64,25.8,65,25.3,65.3,24.4z
			"/>
		<path class="st8" d="M65.3,24.4l0.3,0.1c0.4-1.1-0.1-2.3-1.2-2.7c-1.1-0.4-2.3,0.1-2.7,1.2c-0.4,1.1,0.1,2.3,1.2,2.7
			c1.1,0.4,2.3-0.1,2.7-1.2L65.3,24.4L65,24.3c-0.3,0.7-1.1,1.1-1.8,0.8c-0.7-0.3-1.1-1.1-0.8-1.8c0.3-0.7,1.1-1.1,1.8-0.8
			c0.7,0.3,1.1,1.1,0.8,1.8L65.3,24.4z"/>
		<path class="st7" d="M68.9,22.7c0.3-0.9-0.1-1.9-1-2.2c-0.9-0.3-1.9,0.1-2.2,1c-0.3,0.9,0.1,1.9,1,2.2
			C67.6,24,68.6,23.6,68.9,22.7z"/>
		<path class="st8" d="M68.9,22.7l0.3,0.1c0.4-1.1-0.1-2.3-1.2-2.7c-1.1-0.4-2.3,0.1-2.7,1.2c-0.4,1.1,0.1,2.3,1.2,2.7
			c1.1,0.4,2.3-0.1,2.7-1.2L68.9,22.7l-0.3-0.1c-0.3,0.7-1.1,1.1-1.8,0.8c-0.7-0.3-1.1-1.1-0.8-1.8c0.3-0.7,1.1-1.1,1.8-0.8
			c0.7,0.3,1.1,1.1,0.8,1.8L68.9,22.7z"/>
		<circle class="st7" cx="67" cy="25.3" r="1.7"/>
		<path class="st8" d="M68.6,25.9l0.3,0.1c0.4-1.1-0.1-2.3-1.2-2.7c-1.1-0.4-2.3,0.1-2.7,1.2c-0.4,1.1,0.1,2.3,1.2,2.7
			c1.1,0.4,2.3-0.1,2.7-1.2L68.6,25.9l-0.3-0.1c-0.3,0.7-1.1,1.1-1.8,0.8c-0.7-0.3-1.1-1.1-0.8-1.8c0.3-0.7,1.1-1.1,1.8-0.8
			c0.7,0.3,1.1,1.1,0.8,1.8L68.6,25.9z"/>
		<path class="st7" d="M72.2,24.2c0.3-0.9-0.1-1.9-1-2.2c-0.9-0.3-1.9,0.1-2.2,1c-0.3,0.9,0.1,1.9,1,2.2
			C70.8,25.6,71.8,25.1,72.2,24.2z"/>
		<path class="st8" d="M72.2,24.2l0.3,0.1c0.4-1.1-0.1-2.3-1.2-2.7c-1.1-0.4-2.3,0.1-2.7,1.2c-0.4,1.1,0.1,2.3,1.2,2.7
			c1.1,0.4,2.3-0.1,2.7-1.2L72.2,24.2l-0.3-0.1c-0.3,0.7-1.1,1.1-1.8,0.8c-0.7-0.3-1.1-1.1-0.8-1.8c0.3-0.7,1.1-1.1,1.8-0.8
			c0.7,0.3,1.1,1.1,0.8,1.8L72.2,24.2z"/>
		<circle class="st7" cx="70.4" cy="20.2" r="1.7"/>
		<path class="st8" d="M72,20.8l0.3,0.1c0.4-1.1-0.1-2.3-1.2-2.7c-1.1-0.4-2.3,0.1-2.7,1.2c-0.4,1.1,0.1,2.3,1.2,2.7
			c1.1,0.4,2.3-0.1,2.7-1.2L72,20.8l-0.3-0.1c-0.3,0.7-1.1,1.1-1.8,0.8c-0.7-0.3-1.1-1.1-0.8-1.8c0.3-0.7,1.1-1.1,1.8-0.8
			c0.7,0.3,1.1,1.1,0.8,1.8L72,20.8z"/>
		<path class="st7" d="M74,26.1c0.3-0.9-0.1-1.9-1-2.2c-0.9-0.3-1.9,0.1-2.2,1c-0.3,0.9,0.1,1.9,1,2.2C72.6,27.5,73.6,27,74,26.1z"
			/>
		<path class="st8" d="M74,26.1l0.3,0.1c0.4-1.1-0.1-2.3-1.2-2.7c-1.1-0.4-2.3,0.1-2.7,1.2c-0.4,1.1,0.1,2.3,1.2,2.7
			c1.1,0.4,2.3-0.1,2.7-1.2L74,26.1L73.7,26c-0.3,0.7-1.1,1.1-1.8,0.8c-0.7-0.3-1.1-1.1-0.8-1.8c0.3-0.7,1.1-1.1,1.8-0.8
			c0.7,0.3,1.1,1.1,0.8,1.8L74,26.1z"/>
		<circle class="st7" cx="73.9" cy="21.7" r="1.7"/>
		<path class="st8" d="M75.5,22.3l0.3,0.1c0.4-1.1-0.1-2.3-1.2-2.7c-1.1-0.4-2.3,0.1-2.7,1.2c-0.4,1.1,0.1,2.3,1.2,2.7
			c1.1,0.4,2.3-0.1,2.7-1.2L75.5,22.3l-0.3-0.1c-0.3,0.7-1.1,1.1-1.8,0.8c-0.7-0.3-1.1-1.1-0.8-1.8c0.3-0.7,1.1-1.1,1.8-0.8
			c0.7,0.3,1.1,1.1,0.8,1.8L75.5,22.3z"/>
		<path class="st7" d="M78.3,24.6c0.3-0.9-0.1-1.9-1-2.2c-0.9-0.3-1.9,0.1-2.2,1c-0.3,0.9,0.1,1.9,1,2.2C77,26,78,25.5,78.3,24.6z"
			/>
		<path class="st8" d="M78.3,24.6l0.3,0.1c0.4-1.1-0.1-2.3-1.2-2.7c-1.1-0.4-2.3,0.1-2.7,1.2c-0.4,1.1,0.1,2.3,1.2,2.7
			c1.1,0.4,2.3-0.1,2.7-1.2L78.3,24.6L78,24.5c-0.3,0.7-1.1,1.1-1.8,0.8c-0.7-0.3-1.1-1.1-0.8-1.8c0.3-0.7,1.1-1.1,1.8-0.8
			c0.7,0.3,1.1,1.1,0.8,1.8L78.3,24.6z"/>
	</g>
	<g>
		<path class="st7" d="M73.6,25c0.5-0.8,0.2-1.9-0.6-2.4c-0.8-0.5-1.9-0.2-2.4,0.6s-0.2,1.9,0.6,2.4C72,26.1,73.1,25.8,73.6,25z"/>
		<path class="st8" d="M73.6,25l0.3,0.2c0.6-1,0.3-2.3-0.7-2.8c-1-0.6-2.3-0.3-2.8,0.7c-0.6,1-0.3,2.3,0.7,2.8
			c1,0.6,2.3,0.3,2.8-0.7L73.6,25l-0.3-0.2c-0.4,0.7-1.3,0.9-1.9,0.5c-0.7-0.4-0.9-1.3-0.5-1.9c0.4-0.7,1.3-0.9,1.9-0.5
			c0.7,0.4,0.9,1.3,0.5,1.9L73.6,25z"/>
		<path class="st7" d="M77.4,23.9c0.5-0.8,0.2-1.9-0.6-2.4c-0.8-0.5-1.9-0.2-2.4,0.6c-0.5,0.8-0.2,1.9,0.6,2.4
			C75.9,25,76.9,24.7,77.4,23.9z"/>
		<path class="st8" d="M77.4,23.9l0.3,0.2c0.6-1,0.3-2.3-0.7-2.8c-1-0.6-2.3-0.3-2.8,0.7c-0.6,1-0.3,2.3,0.7,2.8
			c1,0.6,2.3,0.3,2.8-0.7L77.4,23.9l-0.3-0.2c-0.4,0.7-1.3,0.9-1.9,0.5c-0.7-0.4-0.9-1.3-0.5-1.9c0.4-0.7,1.3-0.9,1.9-0.5
			c0.7,0.4,0.9,1.3,0.5,1.9L77.4,23.9z"/>
		<circle class="st7" cx="75" cy="26.2" r="1.7"/>
		<path class="st8" d="M76.5,27.1l0.3,0.2c0.6-1,0.3-2.3-0.7-2.8c-1-0.6-2.3-0.3-2.8,0.7c-0.6,1-0.3,2.3,0.7,2.8
			c1,0.6,2.3,0.3,2.8-0.7L76.5,27.1l-0.3-0.2c-0.4,0.7-1.3,0.9-1.9,0.5c-0.7-0.4-0.9-1.3-0.5-1.9c0.4-0.7,1.3-0.9,1.9-0.5
			c0.7,0.4,0.9,1.3,0.5,1.9L76.5,27.1z"/>
		<path class="st7" d="M80.4,26c0.5-0.8,0.2-1.9-0.6-2.4c-0.8-0.5-1.9-0.2-2.4,0.6c-0.5,0.8-0.2,1.9,0.6,2.4
			C78.8,27.1,79.9,26.8,80.4,26z"/>
		<path class="st8" d="M80.4,26l0.3,0.2c0.6-1,0.3-2.3-0.7-2.8c-1-0.6-2.3-0.3-2.8,0.7c-0.6,1-0.3,2.3,0.7,2.8
			c1,0.6,2.3,0.3,2.8-0.7L80.4,26l-0.3-0.2c-0.4,0.7-1.3,0.9-1.9,0.5c-0.7-0.4-0.9-1.3-0.5-1.9c0.4-0.7,1.3-0.9,1.9-0.5
			c0.7,0.4,0.9,1.3,0.5,1.9L80.4,26z"/>
		<circle class="st7" cx="79.3" cy="21.7" r="1.7"/>
		<path class="st8" d="M80.8,22.6l0.3,0.2c0.6-1,0.3-2.3-0.7-2.8c-1-0.6-2.3-0.3-2.8,0.7c-0.6,1-0.3,2.3,0.7,2.8
			c1,0.6,2.3,0.3,2.8-0.7L80.8,22.6l-0.3-0.2c-0.4,0.7-1.3,0.9-1.9,0.5c-0.7-0.4-0.9-1.3-0.5-1.9c0.4-0.7,1.3-0.9,1.9-0.5
			c0.7,0.4,0.9,1.3,0.5,1.9L80.8,22.6z"/>
		<path class="st7" d="M81.8,28.2c0.5-0.8,0.2-1.9-0.6-2.4c-0.8-0.5-1.9-0.2-2.4,0.6c-0.5,0.8-0.2,1.9,0.6,2.4
			C80.3,29.3,81.3,29,81.8,28.2z"/>
		<path class="st8" d="M81.8,28.2l0.3,0.2c0.6-1,0.3-2.3-0.7-2.8c-1-0.6-2.3-0.3-2.8,0.7c-0.6,1-0.3,2.3,0.7,2.8
			c1,0.6,2.3,0.3,2.8-0.7L81.8,28.2L81.5,28c-0.4,0.7-1.3,0.9-1.9,0.5c-0.7-0.4-0.9-1.3-0.5-1.9c0.4-0.7,1.3-0.9,1.9-0.5
			c0.7,0.4,0.9,1.3,0.5,1.9L81.8,28.2z"/>
		<circle class="st7" cx="82.5" cy="23.8" r="1.7"/>
		<path class="st8" d="M84,24.7l0.3,0.2c0.6-1,0.3-2.3-0.7-2.8c-1-0.6-2.3-0.3-2.8,0.7c-0.6,1-0.3,2.3,0.7,2.8
			c1,0.6,2.3,0.3,2.8-0.7L84,24.7l-0.3-0.2c-0.4,0.7-1.3,0.9-1.9,0.5c-0.7-0.4-0.9-1.3-0.5-1.9c0.4-0.7,1.3-0.9,1.9-0.5
			c0.7,0.4,0.9,1.3,0.5,1.9L84,24.7z"/>
		<path class="st7" d="M86.4,27.5c0.5-0.8,0.2-1.9-0.6-2.4c-0.8-0.5-1.9-0.2-2.4,0.6c-0.5,0.8-0.2,1.9,0.6,2.4
			C84.8,28.6,85.9,28.3,86.4,27.5z"/>
		<path class="st8" d="M86.4,27.5l0.3,0.2c0.6-1,0.3-2.3-0.7-2.8c-1-0.6-2.3-0.3-2.8,0.7c-0.6,1-0.3,2.3,0.7,2.8
			c1,0.6,2.3,0.3,2.8-0.7L86.4,27.5l-0.3-0.2c-0.4,0.7-1.3,0.9-1.9,0.5c-0.7-0.4-0.9-1.3-0.5-1.9c0.4-0.7,1.3-0.9,1.9-0.5
			c0.7,0.4,0.9,1.3,0.5,1.9L86.4,27.5z"/>
	</g>
	<g>
		<path class="st7" d="M65.8,29.5c0.5-0.8,0.2-1.9-0.6-2.4c-0.8-0.5-1.9-0.2-2.4,0.6s-0.2,1.9,0.6,2.4
			C64.3,30.6,65.3,30.3,65.8,29.5z"/>
		<path class="st8" d="M65.8,29.5l0.3,0.2c0.6-1,0.3-2.3-0.7-2.8c-1-0.6-2.3-0.3-2.8,0.7c-0.6,1-0.3,2.3,0.7,2.8
			c1,0.6,2.3,0.3,2.8-0.7L65.8,29.5l-0.3-0.2c-0.4,0.7-1.3,0.9-1.9,0.5c-0.7-0.4-0.9-1.3-0.5-1.9c0.4-0.7,1.3-0.9,1.9-0.5
			c0.7,0.4,0.9,1.3,0.5,1.9L65.8,29.5z"/>
		<path class="st7" d="M69.7,28.4c0.5-0.8,0.2-1.9-0.6-2.4c-0.8-0.5-1.9-0.2-2.4,0.6c-0.5,0.8-0.2,1.9,0.6,2.4
			C68.1,29.5,69.2,29.2,69.7,28.4z"/>
		<path class="st8" d="M69.7,28.4l0.3,0.2c0.6-1,0.3-2.3-0.7-2.8c-1-0.6-2.3-0.3-2.8,0.7c-0.6,1-0.3,2.3,0.7,2.8
			c1,0.6,2.3,0.3,2.8-0.7L69.7,28.4l-0.3-0.2c-0.4,0.7-1.3,0.9-1.9,0.5c-0.7-0.4-0.9-1.3-0.5-1.9c0.4-0.7,1.3-0.9,1.9-0.5
			c0.7,0.4,0.9,1.3,0.5,1.9L69.7,28.4z"/>
		<circle class="st7" cx="67.3" cy="30.7" r="1.7"/>
		<path class="st8" d="M68.8,31.6l0.3,0.2c0.6-1,0.3-2.3-0.7-2.8c-1-0.6-2.3-0.3-2.8,0.7c-0.6,1-0.3,2.3,0.7,2.8
			c1,0.6,2.3,0.3,2.8-0.7L68.8,31.6l-0.3-0.2c-0.4,0.7-1.3,0.9-1.9,0.5c-0.7-0.4-0.9-1.3-0.5-1.9c0.4-0.7,1.3-0.9,1.9-0.5
			c0.7,0.4,0.9,1.3,0.5,1.9L68.8,31.6z"/>
		<path class="st7" d="M72.6,30.5c0.5-0.8,0.2-1.9-0.6-2.4c-0.8-0.5-1.9-0.2-2.4,0.6c-0.5,0.8-0.2,1.9,0.6,2.4
			C71.1,31.6,72.1,31.3,72.6,30.5z"/>
		<path class="st8" d="M72.6,30.5l0.3,0.2c0.6-1,0.3-2.3-0.7-2.8c-1-0.6-2.3-0.3-2.8,0.7c-0.6,1-0.3,2.3,0.7,2.8
			c1,0.6,2.3,0.3,2.8-0.7L72.6,30.5l-0.3-0.2c-0.4,0.7-1.3,0.9-1.9,0.5c-0.7-0.4-0.9-1.3-0.5-1.9c0.4-0.7,1.3-0.9,1.9-0.5
			c0.7,0.4,0.9,1.3,0.5,1.9L72.6,30.5z"/>
		<circle class="st7" cx="71.5" cy="26.2" r="1.7"/>
		<path class="st8" d="M73,27.1l0.3,0.2c0.6-1,0.3-2.3-0.7-2.8c-1-0.6-2.3-0.3-2.8,0.7c-0.6,1-0.3,2.3,0.7,2.8
			c1,0.6,2.3,0.3,2.8-0.7L73,27.1l-0.3-0.2c-0.4,0.7-1.3,0.9-1.9,0.5c-0.7-0.4-0.9-1.3-0.5-1.9c0.4-0.7,1.3-0.9,1.9-0.5
			c0.7,0.4,0.9,1.3,0.5,1.9L73,27.1z"/>
		<path class="st7" d="M74.1,32.7c0.5-0.8,0.2-1.9-0.6-2.4c-0.8-0.5-1.9-0.2-2.4,0.6c-0.5,0.8-0.2,1.9,0.6,2.4
			C72.5,33.8,73.6,33.5,74.1,32.7z"/>
		<path class="st8" d="M74.1,32.7l0.3,0.2c0.6-1,0.3-2.3-0.7-2.8c-1-0.6-2.3-0.3-2.8,0.7c-0.6,1-0.3,2.3,0.7,2.8
			c1,0.6,2.3,0.3,2.8-0.7L74.1,32.7l-0.3-0.2c-0.4,0.7-1.3,0.9-1.9,0.5c-0.7-0.4-0.9-1.3-0.5-1.9c0.4-0.7,1.3-0.9,1.9-0.5
			c0.7,0.4,0.9,1.3,0.5,1.9L74.1,32.7z"/>
		<circle class="st7" cx="74.7" cy="28.4" r="1.7"/>
		<path class="st8" d="M76.2,29.2l0.3,0.2c0.6-1,0.3-2.3-0.7-2.8c-1-0.6-2.3-0.3-2.8,0.7c-0.6,1-0.3,2.3,0.7,2.8
			c1,0.6,2.3,0.3,2.8-0.7L76.2,29.2l-0.3-0.2c-0.4,0.7-1.3,0.9-1.9,0.5c-0.7-0.4-0.9-1.3-0.5-1.9c0.4-0.7,1.3-0.9,1.9-0.5
			c0.7,0.4,0.9,1.3,0.5,1.9L76.2,29.2z"/>
		<path class="st7" d="M78.6,32c0.5-0.8,0.2-1.9-0.6-2.4c-0.8-0.5-1.9-0.2-2.4,0.6c-0.5,0.8-0.2,1.9,0.6,2.4
			C77.1,33.1,78.1,32.8,78.6,32z"/>
		<path class="st8" d="M78.6,32l0.3,0.2c0.6-1,0.3-2.3-0.7-2.8c-1-0.6-2.3-0.3-2.8,0.7c-0.6,1-0.3,2.3,0.7,2.8
			c1,0.6,2.3,0.3,2.8-0.7L78.6,32l-0.3-0.2c-0.4,0.7-1.3,0.9-1.9,0.5c-0.7-0.4-0.9-1.3-0.5-1.9c0.4-0.7,1.3-0.9,1.9-0.5
			c0.7,0.4,0.9,1.3,0.5,1.9L78.6,32z"/>
	</g>
	<g>
		<path class="st7" d="M79,28.7c0.5-0.8,0.2-1.9-0.6-2.4c-0.8-0.5-1.9-0.2-2.4,0.6s-0.2,1.9,0.6,2.4C77.5,29.8,78.5,29.5,79,28.7z"
			/>
		<path class="st8" d="M79,28.7l0.3,0.2c0.6-1,0.3-2.3-0.7-2.8c-1-0.6-2.3-0.3-2.8,0.7c-0.6,1-0.3,2.3,0.7,2.8
			c1,0.6,2.3,0.3,2.8-0.7L79,28.7l-0.3-0.2c-0.4,0.7-1.3,0.9-1.9,0.5c-0.7-0.4-0.9-1.3-0.5-1.9c0.4-0.7,1.3-0.9,1.9-0.5
			c0.7,0.4,0.9,1.3,0.5,1.9L79,28.7z"/>
		<path class="st7" d="M82.9,27.6c0.5-0.8,0.2-1.9-0.6-2.4c-0.8-0.5-1.9-0.2-2.4,0.6c-0.5,0.8-0.2,1.9,0.6,2.4
			C81.3,28.7,82.4,28.5,82.9,27.6z"/>
		<path class="st8" d="M82.9,27.6l0.3,0.2c0.6-1,0.3-2.3-0.7-2.8c-1-0.6-2.3-0.3-2.8,0.7c-0.6,1-0.3,2.3,0.7,2.8
			c1,0.6,2.3,0.3,2.8-0.7L82.9,27.6l-0.3-0.2c-0.4,0.7-1.3,0.9-1.9,0.5c-0.7-0.4-0.9-1.3-0.5-1.9c0.4-0.7,1.3-0.9,1.9-0.5
			c0.7,0.4,0.9,1.3,0.5,1.9L82.9,27.6z"/>
		<circle class="st7" cx="80.5" cy="29.9" r="1.7"/>
		<path class="st8" d="M82,30.8l0.3,0.2c0.6-1,0.3-2.3-0.7-2.8c-1-0.6-2.3-0.3-2.8,0.7c-0.6,1-0.3,2.3,0.7,2.8
			c1,0.6,2.3,0.3,2.8-0.7L82,30.8l-0.3-0.2c-0.4,0.7-1.3,0.9-1.9,0.5c-0.7-0.4-0.9-1.3-0.5-1.9c0.4-0.7,1.3-0.9,1.9-0.5
			c0.7,0.4,0.9,1.3,0.5,1.9L82,30.8z"/>
		<path class="st7" d="M85.8,29.7c0.5-0.8,0.2-1.9-0.6-2.4c-0.8-0.5-1.9-0.2-2.4,0.6c-0.5,0.8-0.2,1.9,0.6,2.4
			C84.3,30.8,85.4,30.5,85.8,29.7z"/>
		<path class="st8" d="M85.8,29.7l0.3,0.2c0.6-1,0.3-2.3-0.7-2.8c-1-0.6-2.3-0.3-2.8,0.7c-0.6,1-0.3,2.3,0.7,2.8
			c1,0.6,2.3,0.3,2.8-0.7L85.8,29.7l-0.3-0.2c-0.4,0.7-1.3,0.9-1.9,0.5c-0.7-0.4-0.9-1.3-0.5-1.9c0.4-0.7,1.3-0.9,1.9-0.5
			c0.7,0.4,0.9,1.3,0.5,1.9L85.8,29.7z"/>
		<circle class="st7" cx="84.7" cy="25.5" r="1.7"/>
		<path class="st8" d="M86.2,26.3l0.3,0.2c0.6-1,0.3-2.3-0.7-2.8c-1-0.6-2.3-0.3-2.8,0.7c-0.6,1-0.3,2.3,0.7,2.8
			c1,0.6,2.3,0.3,2.8-0.7L86.2,26.3L86,26.2c-0.4,0.7-1.3,0.9-1.9,0.5c-0.7-0.4-0.9-1.3-0.5-1.9c0.4-0.7,1.3-0.9,1.9-0.5
			c0.7,0.4,0.9,1.3,0.5,1.9L86.2,26.3z"/>
		<path class="st7" d="M87.3,31.9c0.5-0.8,0.2-1.9-0.6-2.4c-0.8-0.5-1.9-0.2-2.4,0.6c-0.5,0.8-0.2,1.9,0.6,2.4
			C85.7,33,86.8,32.7,87.3,31.9z"/>
		<path class="st8" d="M87.3,31.9l0.3,0.2c0.6-1,0.3-2.3-0.7-2.8c-1-0.6-2.3-0.3-2.8,0.7c-0.6,1-0.3,2.3,0.7,2.8
			c1,0.6,2.3,0.3,2.8-0.7L87.3,31.9L87,31.7c-0.4,0.7-1.3,0.9-1.9,0.5c-0.7-0.4-0.9-1.3-0.5-1.9c0.4-0.7,1.3-0.9,1.9-0.5
			c0.7,0.4,0.9,1.3,0.5,1.9L87.3,31.9z"/>
		<circle class="st7" cx="87.9" cy="27.6" r="1.7"/>
		<path class="st8" d="M89.4,28.5l0.3,0.2c0.6-1,0.3-2.3-0.7-2.8c-1-0.6-2.3-0.3-2.8,0.7c-0.6,1-0.3,2.3,0.7,2.8
			c1,0.6,2.3,0.3,2.8-0.7L89.4,28.5l-0.3-0.2c-0.4,0.7-1.3,0.9-1.9,0.5c-0.7-0.4-0.9-1.3-0.5-1.9c0.4-0.7,1.3-0.9,1.9-0.5
			c0.7,0.4,0.9,1.3,0.5,1.9L89.4,28.5z"/>
		<path class="st7" d="M91.8,31.2c0.5-0.8,0.2-1.9-0.6-2.4c-0.8-0.5-1.9-0.2-2.4,0.6c-0.5,0.8-0.2,1.9,0.6,2.4
			C90.3,32.3,91.3,32.1,91.8,31.2z"/>
		<path class="st8" d="M91.8,31.2l0.3,0.2c0.6-1,0.3-2.3-0.7-2.8c-1-0.6-2.3-0.3-2.8,0.7c-0.6,1-0.3,2.3,0.7,2.8
			c1,0.6,2.3,0.3,2.8-0.7L91.8,31.2l-0.3-0.2c-0.4,0.7-1.3,0.9-1.9,0.5c-0.7-0.4-0.9-1.3-0.5-1.9c0.4-0.7,1.3-0.9,1.9-0.5
			c0.7,0.4,0.9,1.3,0.5,1.9L91.8,31.2z"/>
	</g>
	<path class="st1" d="M71.2,59.1c7.4-3.2,14.3-10.7,18-20.7c5.8-15.6,2-31.6-8.6-36.4l60.8,19.3L71.2,59.1z"/>
	<polygon class="st9" points="96,11.9 128.7,18.9 97.7,16.7 	"/>
	<g>
		<path class="st7" d="M63.7,34.2c1,0,1.7-0.8,1.7-1.8c0-1-0.8-1.7-1.8-1.7c-1,0-1.7,0.8-1.7,1.8C61.9,33.4,62.7,34.2,63.7,34.2z"/>
		<path class="st8" d="M63.7,34.2l0,0.3c1.1,0,2-1,2-2.1c0-1.1-1-2-2.1-2c-1.1,0-2,1-2,2.1c0,1.1,1,2,2.1,2L63.7,34.2l0-0.3
			c-0.8,0-1.4-0.6-1.5-1.4c0-0.8,0.6-1.4,1.4-1.5c0.8,0,1.4,0.6,1.5,1.4c0,0.8-0.6,1.4-1.4,1.5L63.7,34.2z"/>
		<path class="st7" d="M66.7,36.8c1,0,1.7-0.8,1.7-1.8c0-1-0.8-1.7-1.8-1.7c-1,0-1.7,0.8-1.7,1.8C64.9,36.1,65.7,36.8,66.7,36.8z"/>
		<path class="st8" d="M66.7,36.8l0,0.3c1.1,0,2-1,2-2.1c0-1.1-1-2-2.1-2c-1.1,0-2,1-2,2.1c0,1.1,1,2,2.1,2L66.7,36.8l0-0.3
			c-0.8,0-1.4-0.6-1.5-1.4c0-0.8,0.6-1.4,1.4-1.5c0.8,0,1.4,0.6,1.5,1.4c0,0.8-0.6,1.4-1.4,1.5L66.7,36.8z"/>
		<circle class="st7" cx="63.4" cy="36" r="1.7"/>
		<path class="st8" d="M63.5,37.8l0,0.3c1.1,0,2-1,2-2.1c0-1.1-1-2-2.1-2c-1.1,0-2,1-2,2.1c0,1.1,1,2,2.1,2L63.5,37.8l0-0.3
			c-0.8,0-1.4-0.6-1.5-1.4c0-0.8,0.6-1.4,1.4-1.5c0.8,0,1.4,0.6,1.5,1.4c0,0.8-0.6,1.4-1.4,1.5L63.5,37.8z"/>
	</g>
	<g>
		<path class="st7" d="M59.5,28.9c0.5-0.8,0.2-1.9-0.6-2.4c-0.8-0.5-1.9-0.2-2.4,0.6c-0.5,0.8-0.2,1.9,0.6,2.4
			C58,30,59,29.7,59.5,28.9z"/>
		<path class="st8" d="M59.5,28.9l0.3,0.2c0.6-1,0.3-2.3-0.7-2.8c-1-0.6-2.3-0.3-2.8,0.7c-0.6,1-0.3,2.3,0.7,2.8
			c1,0.6,2.3,0.3,2.8-0.7L59.5,28.9l-0.3-0.2c-0.4,0.7-1.3,0.9-1.9,0.5c-0.7-0.4-0.9-1.3-0.5-1.9c0.4-0.7,1.3-0.9,1.9-0.5
			c0.7,0.4,0.9,1.3,0.5,1.9L59.5,28.9z"/>
		<path class="st7" d="M63.4,27.8c0.5-0.8,0.2-1.9-0.6-2.4c-0.8-0.5-1.9-0.2-2.4,0.6c-0.5,0.8-0.2,1.9,0.6,2.4
			C61.8,28.9,62.9,28.6,63.4,27.8z"/>
		<path class="st8" d="M63.4,27.8l0.3,0.2c0.6-1,0.3-2.3-0.7-2.8c-1-0.6-2.3-0.3-2.8,0.7c-0.6,1-0.3,2.3,0.7,2.8
			c1,0.6,2.3,0.3,2.8-0.7L63.4,27.8l-0.3-0.2c-0.4,0.7-1.3,0.9-1.9,0.5c-0.7-0.4-0.9-1.3-0.5-1.9c0.4-0.7,1.3-0.9,1.9-0.5
			c0.7,0.4,0.9,1.3,0.5,1.9L63.4,27.8z"/>
		<circle class="st7" cx="61" cy="30.1" r="1.7"/>
		<path class="st8" d="M62.5,31l0.3,0.2c0.6-1,0.3-2.3-0.7-2.8c-1-0.6-2.3-0.3-2.8,0.7c-0.6,1-0.3,2.3,0.7,2.8
			c1,0.6,2.3,0.3,2.8-0.7L62.5,31l-0.3-0.2c-0.4,0.7-1.3,0.9-1.9,0.5c-0.7-0.4-0.9-1.3-0.5-1.9c0.4-0.7,1.3-0.9,1.9-0.5
			c0.7,0.4,0.9,1.3,0.5,1.9L62.5,31z"/>
	</g>
	<g>
		<path class="st7" d="M70.1,35.3c0.9-0.4,1.2-1.5,0.8-2.3c-0.4-0.9-1.5-1.2-2.3-0.8c-0.9,0.4-1.2,1.5-0.8,2.3
			C68.2,35.4,69.3,35.8,70.1,35.3z"/>
		<path class="st8" d="M70.1,35.3l0.2,0.3c1-0.5,1.4-1.8,0.9-2.8c-0.5-1-1.8-1.4-2.8-0.9c-1,0.5-1.4,1.8-0.9,2.8
			c0.5,1,1.8,1.4,2.8,0.9L70.1,35.3L70,35c-0.7,0.4-1.5,0.1-1.9-0.6c-0.4-0.7-0.1-1.5,0.6-1.9c0.7-0.4,1.5-0.1,1.9,0.6
			c0.4,0.7,0.1,1.5-0.6,1.9L70.1,35.3z"/>
		<path class="st7" d="M73.9,36.5c0.9-0.4,1.2-1.5,0.8-2.3c-0.4-0.9-1.5-1.2-2.3-0.8c-0.9,0.4-1.2,1.5-0.8,2.3
			C72,36.6,73.1,36.9,73.9,36.5z"/>
		<path class="st8" d="M73.9,36.5l0.2,0.3c1-0.5,1.4-1.8,0.9-2.8c-0.5-1-1.8-1.4-2.8-0.9c-1,0.5-1.4,1.8-0.9,2.8
			c0.5,1,1.8,1.4,2.8,0.9L73.9,36.5l-0.2-0.3c-0.7,0.4-1.5,0.1-1.9-0.6c-0.4-0.7-0.1-1.5,0.6-1.9c0.7-0.4,1.5-0.1,1.9,0.6
			c0.4,0.7,0.1,1.5-0.6,1.9L73.9,36.5z"/>
		<circle class="st7" cx="70.7" cy="37.1" r="1.7"/>
		<path class="st8" d="M71.5,38.7l0.2,0.3c1-0.5,1.4-1.8,0.9-2.8c-0.5-1-1.8-1.4-2.8-0.9c-1,0.5-1.4,1.8-0.9,2.8
			c0.5,1,1.8,1.4,2.8,0.9L71.5,38.7l-0.2-0.3c-0.7,0.4-1.5,0.1-1.9-0.6c-0.4-0.7-0.1-1.5,0.6-1.9c0.7-0.4,1.5-0.1,1.9,0.6
			c0.4,0.7,0.1,1.5-0.6,1.9L71.5,38.7z"/>
	</g>
	<g>
		<path class="st7" d="M77.6,34.7c0.5-0.8,0.2-1.9-0.6-2.4c-0.8-0.5-1.9-0.2-2.4,0.6c-0.5,0.8-0.2,1.9,0.6,2.4
			C76,35.8,77.1,35.5,77.6,34.7z"/>
		<path class="st8" d="M77.6,34.7l0.3,0.2c0.6-1,0.3-2.3-0.7-2.8c-1-0.6-2.3-0.3-2.8,0.7c-0.6,1-0.3,2.3,0.7,2.8
			c1,0.6,2.3,0.3,2.8-0.7L77.6,34.7l-0.3-0.2c-0.4,0.7-1.3,0.9-1.9,0.5c-0.7-0.4-0.9-1.3-0.5-1.9c0.4-0.7,1.3-0.9,1.9-0.5
			c0.7,0.4,0.9,1.3,0.5,1.9L77.6,34.7z"/>
		<path class="st7" d="M81.4,33.6c0.5-0.8,0.2-1.9-0.6-2.4c-0.8-0.5-1.9-0.2-2.4,0.6c-0.5,0.8-0.2,1.9,0.6,2.4
			C79.9,34.7,81,34.4,81.4,33.6z"/>
		<path class="st8" d="M81.4,33.6l0.3,0.2c0.6-1,0.3-2.3-0.7-2.8c-1-0.6-2.3-0.3-2.8,0.7c-0.6,1-0.3,2.3,0.7,2.8
			c1,0.6,2.3,0.3,2.8-0.7L81.4,33.6l-0.3-0.2c-0.4,0.7-1.3,0.9-1.9,0.5c-0.7-0.4-0.9-1.3-0.5-1.9c0.4-0.7,1.3-0.9,1.9-0.5
			c0.7,0.4,0.9,1.3,0.5,1.9L81.4,33.6z"/>
		<circle class="st7" cx="79.1" cy="35.9" r="1.7"/>
		<path class="st8" d="M80.6,36.8l0.3,0.2c0.6-1,0.3-2.3-0.7-2.8c-1-0.6-2.3-0.3-2.8,0.7c-0.6,1-0.3,2.3,0.7,2.8
			c1,0.6,2.3,0.3,2.8-0.7L80.6,36.8l-0.3-0.2c-0.4,0.7-1.3,0.9-1.9,0.5c-0.7-0.4-0.9-1.3-0.5-1.9c0.4-0.7,1.3-0.9,1.9-0.5
			c0.7,0.4,0.9,1.3,0.5,1.9L80.6,36.8z"/>
	</g>
</g>
</svg>
