<?xml version="1.0" encoding="utf-8"?>
<!-- Generator: Adobe Illustrator 22.1.0, SVG Export Plug-In . SVG Version: 6.00 Build 0)  -->
<svg version="1.1" id="Layer_1" xmlns="http://www.w3.org/2000/svg" xmlns:xlink="http://www.w3.org/1999/xlink" x="0px" y="0px"
	 viewBox="0 0 186 60.4" style="enable-background:new 0 0 186 60.4;" xml:space="preserve">
<style type="text/css">
	.st0{fill:#EDEDED;stroke:#28373A;stroke-width:2;stroke-miterlimit:10;}
	.st1{fill:#D8D8D8;}
	.st2{fill:#DAEDF1;}
	.st3{fill:#28373A;}
	.st4{fill:#5C903F;}
	.st5{fill:#F26742;}
	.st6{fill:#77C045;}
</style>
<g id="plate_8_">
	<path class="st0" d="M185,40.1c0,3.2-6.5,6.1-17.6,8.5c-16.7,3.6-43.8,6-74.4,6c-30.6,0-57.7-2.4-74.4-6C7.5,46.3,1,43.3,1,40.1
		c0-8,41.2-14.6,92-14.6S185,32.1,185,40.1z"/>
	<path class="st0" d="M167.4,48.7c-0.1,2.9-1.3,5.5-3.3,7.5c-2,2-4.8,3.3-7.8,3.3H29.6c-6,0-10.9-4.8-11.1-10.7
		c16.7,3.6,43.8,6,74.4,6C123.6,54.7,150.7,52.3,167.4,48.7z"/>
	<ellipse class="st1" cx="93" cy="41.2" rx="56" ry="6"/>
</g>
<g>
	<path class="st2" d="M97.7,15c0,2.5-13.8,4.6-30.8,4.6c-17,0-30.8-2.1-30.8-4.6c0-2.5,13.8-4.6,30.8-4.6
		C83.9,10.4,97.7,12.4,97.7,15z"/>
	<path class="st3" d="M97.7,15H97c0,0,0,0,0,0.1c-0.1,0.1-0.4,0.4-0.9,0.6c-0.9,0.4-2.3,0.9-4.1,1.3c-5.5,1.2-14.7,2-25.1,2
		c-8.5,0-16.1-0.5-21.6-1.3c-2.8-0.4-5-0.9-6.5-1.4c-0.7-0.3-1.3-0.5-1.6-0.8c-0.2-0.1-0.3-0.2-0.3-0.3c0-0.1,0-0.1,0-0.1
		c0,0,0,0,0-0.1c0.1-0.1,0.4-0.4,0.9-0.6c0.9-0.4,2.3-0.9,4.1-1.3c5.5-1.2,14.7-2,25.1-2c8.5,0,16.1,0.5,21.7,1.3
		c2.8,0.4,5,0.9,6.5,1.4c0.7,0.3,1.3,0.5,1.6,0.8c0.2,0.1,0.3,0.2,0.3,0.3c0,0.1,0,0.1,0,0.1H97.7h0.7c0-0.3-0.1-0.6-0.3-0.8
		c-0.3-0.4-0.8-0.8-1.4-1.1c-1-0.5-2.5-1-4.4-1.4c-5.6-1.2-14.9-2-25.4-2c-8.5,0-16.2,0.5-21.8,1.4c-2.8,0.4-5.1,0.9-6.7,1.5
		c-0.8,0.3-1.5,0.6-2,1c-0.2,0.2-0.5,0.4-0.6,0.6c-0.2,0.2-0.3,0.5-0.3,0.8c0,0.3,0.1,0.6,0.3,0.8c0.3,0.4,0.8,0.8,1.4,1.1
		c1,0.5,2.5,1,4.4,1.4c5.6,1.2,14.9,2,25.4,2c8.5,0,16.2-0.5,21.9-1.4c2.8-0.4,5.1-0.9,6.7-1.5c0.8-0.3,1.5-0.6,2-1
		c0.2-0.2,0.5-0.4,0.6-0.6c0.2-0.2,0.3-0.5,0.3-0.8H97.7z"/>
	<path class="st4" d="M97.7,15v23.4c0,2.5-13.8,4.6-30.8,4.6c-17,0-30.8-2.1-30.8-4.6V15c0,2.5,13.8,4.6,30.8,4.6
		C83.9,19.6,97.7,17.5,97.7,15z"/>
	<path class="st3" d="M97.7,15H97v23.4c0,0,0,0,0,0.1c-0.1,0.1-0.4,0.4-0.9,0.6c-0.9,0.4-2.3,0.9-4.1,1.3c-5.5,1.2-14.7,2-25.1,2
		c-8.5,0-16.1-0.5-21.6-1.3c-2.8-0.4-5-0.9-6.5-1.4c-0.7-0.3-1.3-0.5-1.6-0.8c-0.2-0.1-0.3-0.2-0.3-0.3c0-0.1,0-0.1,0-0.1V15h-1.3
		c0,0.3,0.1,0.6,0.3,0.8c0.3,0.4,0.8,0.8,1.4,1.1c1,0.5,2.5,1,4.4,1.4c5.6,1.2,14.9,2,25.4,2c8.5,0,16.2-0.5,21.9-1.4
		c2.8-0.4,5.1-0.9,6.7-1.5c0.8-0.3,1.5-0.6,2-1c0.2-0.2,0.5-0.4,0.6-0.6c0.2-0.2,0.3-0.5,0.3-0.8H97H97.7H97c0,0,0,0,0,0.1
		c-0.1,0.1-0.4,0.4-0.9,0.6c-0.9,0.4-2.3,0.9-4.1,1.3c-5.5,1.2-14.7,2-25.1,2c-8.5,0-16.1-0.5-21.6-1.3c-2.8-0.4-5-0.9-6.5-1.4
		c-0.7-0.3-1.3-0.5-1.6-0.8c-0.2-0.1-0.3-0.2-0.3-0.3c0-0.1,0-0.1,0-0.1h-1.3v23.4c0,0.3,0.1,0.6,0.3,0.8c0.3,0.4,0.8,0.8,1.4,1.1
		c1,0.5,2.5,1,4.4,1.4c5.6,1.2,14.9,2,25.4,2c8.5,0,16.2-0.5,21.9-1.4c2.8-0.4,5.1-0.9,6.7-1.5c0.8-0.3,1.5-0.6,2-1
		c0.2-0.2,0.5-0.4,0.6-0.6c0.2-0.2,0.3-0.5,0.3-0.8V15H97H97.7z"/>
	<path class="st5" d="M97.7,11c0,2.9-2.8,5.2-6.4,5.2c-1,0-1.9-0.2-2.7-0.5c-0.9,1.9-3.2,3.3-5.9,3.3c-1.8,0-3.4-0.6-4.6-1.6
		c-1.2,1-2.8,1.6-4.6,1.6c-2.5,0-4.7-1.2-5.7-2.9c-1,1.7-3.2,2.9-5.7,2.9c-2.6,0-4.8-1.3-5.8-3c-1.1,1.6-3.2,2.7-5.6,2.7
		c-2.3,0-4.3-1-5.4-2.5c-0.3,0-0.6,0.1-0.9,0.1c-3.5,0-6.4-2.3-6.4-5.2s2.8-5.2,6.4-5.2c2.3,0,4.3,1,5.4,2.5l0.1,0
		c-0.3-0.6-0.5-1.3-0.5-2c0-2.9,2.8-5.2,6.4-5.2c2.3,0,4.2,1,5.4,2.4c2.8,0.5,5.8,0.5,5.8,3c0,0.4,2.5-3.1,6-3.1
		c1.3,0,2.6,0.3,3.6,0.9c0.8-2.2,3.2-3.7,6.1-3.7c3.5,0,6.4,2.3,6.4,5.2c0,0.1,0,0.2,0,0.4c0.7-0.2,1.5-0.4,2.3-0.4
		C94.9,5.8,97.7,8.1,97.7,11z"/>
	<path class="st3" d="M97.7,11H97c0,1.2-0.6,2.3-1.6,3.1c-1,0.8-2.5,1.4-4.1,1.4c-0.9,0-1.7-0.2-2.5-0.5l-0.6-0.2L88,15.4
		c-0.8,1.7-2.8,2.9-5.3,2.9c-1.6,0-3.1-0.6-4.1-1.4l-0.4-0.4l-0.4,0.4c-1,0.9-2.5,1.4-4.1,1.4c-2.3,0-4.3-1.1-5.1-2.6l-0.6-0.9
		l-0.6,0.9c-0.9,1.5-2.8,2.6-5.1,2.6c-2.4,0-4.4-1.2-5.2-2.7l-0.5-0.9l-0.6,0.9C54.9,17,53,18,50.8,18c-2.1,0-3.9-0.9-4.9-2.2
		l-0.2-0.3l-0.4,0c-0.3,0-0.5,0.1-0.8,0.1c-1.6,0-3.1-0.5-4.1-1.4c-1-0.8-1.6-1.9-1.6-3.1c0-1.2,0.6-2.3,1.6-3.1
		c1-0.8,2.5-1.4,4.1-1.4c2.1,0,3.9,0.9,4.9,2.2l0.2,0.3L50,9L51,8.9L50.5,8c-0.3-0.5-0.4-1.1-0.4-1.7c0-1.2,0.6-2.3,1.6-3.1
		c1-0.8,2.5-1.4,4.1-1.4c2.1,0,3.9,0.9,4.8,2.1l0.2,0.2l0.2,0c1.5,0.3,2.9,0.4,3.9,0.7c0.5,0.2,0.8,0.4,1,0.6c0.2,0.2,0.3,0.5,0.3,1
		c0,0.1,0,0.2,0.1,0.4c0.1,0.1,0.2,0.2,0.3,0.2c0.1,0.1,0.2,0.1,0.3,0.1c0.2,0,0.3-0.1,0.3-0.1c0.1-0.1,0.2-0.1,0.2-0.1
		c0.1-0.1,0.2-0.2,0.3-0.3c0.4-0.4,1.1-1.1,2-1.6c0.9-0.6,2-1,3.1-1c1.2,0,2.4,0.3,3.3,0.8L77,5.4l0.3-0.8c0.3-0.9,1-1.7,2-2.3
		c1-0.6,2.2-1,3.5-1c1.6,0,3.1,0.5,4.1,1.4c1,0.8,1.6,1.9,1.6,3.1c0,0.1,0,0.2,0,0.2l-0.2,1.1l1.1-0.4c0.6-0.2,1.4-0.3,2.1-0.3
		c1.6,0,3.1,0.5,4.1,1.4c1,0.8,1.6,1.9,1.6,3.1H97.7h0.7c0-1.7-0.8-3.1-2.1-4.2c-1.3-1-3-1.7-4.9-1.7c-0.9,0-1.7,0.1-2.5,0.4L89,6.2
		l0.6,0.1c0-0.2,0-0.4,0-0.5c0-1.7-0.8-3.1-2.1-4.2c-1.3-1-3-1.7-4.9-1.7c-1.6,0-3,0.4-4.2,1.2c-1.2,0.7-2.1,1.8-2.5,3l0.6,0.2
		l0.3-0.6c-1.1-0.6-2.5-1-3.9-1c-1.9,0-3.5,0.9-4.6,1.7c-0.6,0.4-1,0.8-1.3,1.1c-0.2,0.2-0.3,0.3-0.4,0.3l-0.1,0.1l0.2,0.3L66.7,6
		l0,0l0.2,0.3L66.7,6L67,6.6V6C66.8,6,66.7,6,66.7,6L67,6.6V6v0.6L67.2,6C67.1,6,67,6,67,6v0.6L67.2,6L67,6.6l0.6-0.2
		c0-0.1-0.2-0.3-0.3-0.3L67,6.6l0.6-0.2L67,6.6h0.6c0,0,0-0.1,0-0.2L67,6.6h0.6c0-0.7-0.2-1.4-0.7-1.9c-0.3-0.4-0.7-0.6-1.2-0.8
		c-0.6-0.3-1.4-0.5-2.1-0.6c-0.8-0.1-1.6-0.2-2.3-0.4l-0.1,0.7l0.5-0.4c-1.3-1.6-3.4-2.7-5.9-2.7c-1.9,0-3.6,0.6-4.9,1.7
		c-1.3,1-2.1,2.5-2.1,4.2c0,0.8,0.2,1.6,0.6,2.3l0.6-0.3l-0.1-0.7l-0.1,0l0.1,0.7L50.4,8c-1.3-1.7-3.5-2.8-6-2.8
		c-1.9,0-3.6,0.6-4.9,1.7c-1.3,1-2.1,2.5-2.1,4.2c0,1.7,0.8,3.1,2.1,4.2c1.3,1,3,1.7,4.9,1.7c0.3,0,0.7,0,1-0.1l-0.1-0.7l-0.5,0.4
		c1.3,1.7,3.5,2.8,6,2.8c2.6,0,4.9-1.2,6.1-3l-0.5-0.4l-0.6,0.3c1.1,2,3.6,3.4,6.4,3.4c2.7,0,5.1-1.3,6.3-3.2l-0.6-0.3l-0.6,0.3
		c1.2,1.9,3.6,3.2,6.3,3.2c1.9,0,3.7-0.6,5-1.7l-0.4-0.5l-0.4,0.5c1.3,1.1,3,1.7,5,1.7c2.9,0,5.5-1.5,6.5-3.7l-0.6-0.3l-0.2,0.6
		c0.9,0.4,1.9,0.5,3,0.5c1.9,0,3.6-0.6,4.9-1.7c1.3-1,2.1-2.5,2.1-4.2H97.7z"/>
	<path class="st6" d="M93.6,27.5c0.3,0,0.6,0.3,0.6,0.6v7.5c0,1.5-7.9,2.7-17.7,2.7c-0.3,0-0.6-0.3-0.6-0.6c0-0.3,0.3-0.6,0.6-0.6
		c9-0.2,16-1.3,16-2.7v-6.3c0-0.3,0.3-0.6,0.6-0.6H93.6z"/>
</g>
<g>
	<path class="st2" d="M147.2,18.7c0,2.5-13.8,4.6-30.8,4.6c-17,0-30.8-2.1-30.8-4.6c0-2.5,13.8-4.6,30.8-4.6
		C133.4,14.1,147.2,16.2,147.2,18.7z"/>
	<path class="st3" d="M147.2,18.7h-0.7c0,0,0,0,0,0.1c-0.1,0.1-0.4,0.4-0.9,0.6c-0.9,0.4-2.3,0.9-4.1,1.3c-5.5,1.2-14.7,2-25.1,2
		c-8.5,0-16.1-0.5-21.6-1.3c-2.8-0.4-5-0.9-6.5-1.4c-0.7-0.3-1.3-0.5-1.6-0.8c-0.2-0.1-0.3-0.2-0.3-0.3c0-0.1,0-0.1,0-0.1
		c0,0,0,0,0-0.1c0.1-0.1,0.4-0.4,0.9-0.6c0.9-0.4,2.3-0.9,4.1-1.3c5.5-1.2,14.7-2,25.1-2c8.5,0,16.1,0.5,21.7,1.3
		c2.8,0.4,5,0.9,6.5,1.4c0.7,0.3,1.3,0.5,1.6,0.8c0.2,0.1,0.3,0.2,0.3,0.3c0,0.1,0,0.1,0,0.1H147.2h0.7c0-0.3-0.1-0.6-0.3-0.8
		c-0.3-0.4-0.8-0.8-1.4-1.1c-1-0.5-2.5-1-4.4-1.4c-5.6-1.2-14.9-2-25.4-2c-8.5,0-16.2,0.5-21.8,1.4c-2.8,0.4-5.1,0.9-6.7,1.5
		c-0.8,0.3-1.5,0.6-2,1c-0.2,0.2-0.5,0.4-0.6,0.6c-0.2,0.2-0.3,0.5-0.3,0.8c0,0.3,0.1,0.6,0.3,0.8c0.3,0.4,0.8,0.8,1.4,1.1
		c1,0.5,2.5,1,4.4,1.4c5.6,1.2,14.9,2,25.4,2c8.5,0,16.2-0.5,21.9-1.4c2.8-0.4,5.1-0.9,6.7-1.5c0.8-0.3,1.5-0.6,2-1
		c0.2-0.2,0.5-0.4,0.6-0.6c0.2-0.2,0.3-0.5,0.3-0.8H147.2z"/>
	<path class="st4" d="M147.2,18.7v23.4c0,2.5-13.8,4.6-30.8,4.6c-17,0-30.8-2.1-30.8-4.6V18.7c0,2.5,13.8,4.6,30.8,4.6
		C133.4,23.3,147.2,21.3,147.2,18.7z"/>
	<path class="st3" d="M147.2,18.7h-0.7v23.4c0,0,0,0,0,0.1c-0.1,0.1-0.4,0.4-0.9,0.6c-0.9,0.4-2.3,0.9-4.1,1.3
		c-5.5,1.2-14.7,2-25.1,2c-8.5,0-16.1-0.5-21.6-1.3c-2.8-0.4-5-0.9-6.5-1.4c-0.7-0.3-1.3-0.5-1.6-0.8c-0.2-0.1-0.3-0.2-0.3-0.3
		c0-0.1,0-0.1,0-0.1V18.7H85c0,0.3,0.1,0.6,0.3,0.8c0.3,0.4,0.8,0.8,1.4,1.1c1,0.5,2.5,1,4.4,1.4c5.6,1.2,14.9,2,25.4,2
		c8.5,0,16.2-0.5,21.9-1.4c2.8-0.4,5.1-0.9,6.7-1.5c0.8-0.3,1.5-0.6,2-1c0.2-0.2,0.5-0.4,0.6-0.6c0.2-0.2,0.3-0.5,0.3-0.8h-1.3
		H147.2h-0.7c0,0,0,0,0,0.1c-0.1,0.1-0.4,0.4-0.9,0.6c-0.9,0.4-2.3,0.9-4.1,1.3c-5.5,1.2-14.7,2-25.1,2c-8.5,0-16.1-0.5-21.6-1.3
		c-2.8-0.4-5-0.9-6.5-1.4c-0.7-0.3-1.3-0.5-1.6-0.8c-0.2-0.1-0.3-0.2-0.3-0.3c0-0.1,0-0.1,0-0.1H85v23.4c0,0.3,0.1,0.6,0.3,0.8
		c0.3,0.4,0.8,0.8,1.4,1.1c1,0.5,2.5,1,4.4,1.4c5.6,1.2,14.9,2,25.4,2c8.5,0,16.2-0.5,21.9-1.4c2.8-0.4,5.1-0.9,6.7-1.5
		c0.8-0.3,1.5-0.6,2-1c0.2-0.2,0.5-0.4,0.6-0.6c0.2-0.2,0.3-0.5,0.3-0.8V18.7h-1.3H147.2z"/>
	<path class="st5" d="M147.2,14.8c0,2.9-2.8,5.2-6.4,5.2c-1,0-1.9-0.2-2.7-0.5c-0.9,1.9-3.2,3.3-5.9,3.3c-1.8,0-3.4-0.6-4.6-1.6
		c-1.2,1-2.8,1.6-4.6,1.6c-2.5,0-4.7-1.2-5.7-2.9c-1,1.7-3.2,2.9-5.7,2.9c-2.6,0-4.8-1.3-5.8-3c-1.1,1.6-3.2,2.7-5.6,2.7
		c-2.3,0-4.3-1-5.4-2.5c-0.3,0-0.6,0.1-0.9,0.1c-3.5,0-6.4-2.3-6.4-5.2s2.8-5.2,6.4-5.2c2.3,0,4.3,1,5.4,2.5l0.1,0
		c-0.3-0.6-0.5-1.3-0.5-2c0-2.9,2.8-5.2,6.4-5.2c2.3,0,4.2,1,5.4,2.4c2.8,0.5,5.8,0.5,5.8,3c0,0.4,2.5-3.1,6-3.1
		c1.3,0,2.6,0.3,3.6,0.9c0.8-2.2,3.2-3.7,6.1-3.7c3.5,0,6.4,2.3,6.4,5.2c0,0.1,0,0.2,0,0.4c0.7-0.2,1.5-0.4,2.3-0.4
		C144.4,9.6,147.2,11.9,147.2,14.8z"/>
	<path class="st3" d="M147.2,14.8h-0.7c0,1.2-0.6,2.3-1.6,3.1c-1,0.8-2.5,1.4-4.1,1.4c-0.9,0-1.7-0.2-2.5-0.5l-0.6-0.2l-0.3,0.6
		c-0.8,1.7-2.8,2.9-5.3,2.9c-1.6,0-3.1-0.6-4.1-1.4l-0.4-0.4l-0.4,0.4c-1,0.9-2.5,1.4-4.1,1.4c-2.3,0-4.3-1.1-5.1-2.6l-0.6-0.9
		l-0.6,0.9c-0.9,1.5-2.8,2.6-5.1,2.6c-2.4,0-4.4-1.2-5.2-2.7l-0.5-0.9l-0.6,0.9c-0.9,1.4-2.8,2.4-5,2.4c-2.1,0-3.9-0.9-4.9-2.2
		l-0.2-0.3l-0.4,0c-0.3,0-0.5,0.1-0.8,0.1c-1.6,0-3.1-0.5-4.1-1.4c-1-0.8-1.6-1.9-1.6-3.1c0-1.2,0.6-2.3,1.6-3.1
		c1-0.8,2.5-1.4,4.1-1.4c2.1,0,3.9,0.9,4.9,2.2l0.2,0.3l0.5-0.1l0.9-0.1l-0.4-0.8c-0.3-0.5-0.4-1.1-0.4-1.7c0-1.2,0.6-2.3,1.6-3.1
		c1-0.8,2.5-1.4,4.1-1.4c2.1,0,3.9,0.9,4.8,2.1l0.2,0.2l0.2,0c1.5,0.3,2.9,0.4,3.9,0.7c0.5,0.2,0.8,0.4,1,0.6c0.2,0.2,0.3,0.5,0.3,1
		c0,0.1,0,0.2,0.1,0.4c0.1,0.1,0.2,0.2,0.3,0.2c0.1,0.1,0.2,0.1,0.3,0.1c0.2,0,0.3-0.1,0.3-0.1c0.1-0.1,0.2-0.1,0.2-0.1
		c0.1-0.1,0.2-0.2,0.3-0.3c0.4-0.4,1.1-1.1,2-1.6c0.9-0.6,2-1,3.1-1c1.2,0,2.4,0.3,3.3,0.8l0.7,0.4l0.3-0.8c0.3-0.9,1-1.7,2-2.3
		c1-0.6,2.2-1,3.5-1c1.6,0,3.1,0.5,4.1,1.4c1,0.8,1.6,1.9,1.6,3.1c0,0.1,0,0.2,0,0.2l-0.2,1.1l1.1-0.4c0.6-0.2,1.4-0.3,2.1-0.3
		c1.6,0,3.1,0.5,4.1,1.4c1,0.8,1.6,1.9,1.6,3.1H147.2h0.7c0-1.7-0.8-3.1-2.1-4.2c-1.3-1-3-1.7-4.9-1.7c-0.9,0-1.7,0.1-2.5,0.4
		l0.2,0.6l0.6,0.1c0-0.2,0-0.4,0-0.5c0-1.7-0.8-3.1-2.1-4.2c-1.3-1-3-1.7-4.9-1.7c-1.6,0-3,0.4-4.2,1.2c-1.2,0.7-2.1,1.8-2.5,3
		l0.6,0.2l0.3-0.6c-1.1-0.6-2.5-1-3.9-1c-1.9,0-3.5,0.9-4.6,1.7c-0.6,0.4-1,0.8-1.3,1.1c-0.2,0.2-0.3,0.3-0.4,0.3l-0.1,0.1l0.2,0.3
		l-0.2-0.3l0,0l0.2,0.3l-0.2-0.3l0.3,0.5V9.7c-0.2,0-0.2,0.1-0.3,0.1l0.3,0.5V9.7v0.6l0.3-0.6c-0.1,0-0.2-0.1-0.3-0.1v0.6l0.3-0.6
		l-0.3,0.6l0.6-0.2c0-0.1-0.2-0.3-0.3-0.3l-0.3,0.6l0.6-0.2l-0.6,0.2h0.6c0,0,0-0.1,0-0.2l-0.6,0.2h0.6c0-0.7-0.2-1.4-0.7-1.9
		c-0.3-0.4-0.7-0.6-1.2-0.8c-0.6-0.3-1.4-0.5-2.1-0.6c-0.8-0.1-1.6-0.2-2.3-0.4l-0.1,0.7l0.5-0.4c-1.3-1.6-3.4-2.7-5.9-2.7
		c-1.9,0-3.6,0.6-4.9,1.7c-1.3,1-2.1,2.5-2.1,4.2c0,0.8,0.2,1.6,0.6,2.3l0.6-0.3l-0.1-0.7l-0.1,0l0.1,0.7l0.5-0.4
		C98.6,10,96.4,9,93.9,9C92,9,90.3,9.6,89,10.6c-1.3,1-2.1,2.5-2.1,4.2c0,1.7,0.8,3.1,2.1,4.2c1.3,1,3,1.7,4.9,1.7
		c0.3,0,0.7,0,1-0.1l-0.1-0.7l-0.5,0.4c1.3,1.7,3.5,2.8,6,2.8c2.6,0,4.9-1.2,6.1-3l-0.5-0.4l-0.6,0.3c1.1,2,3.6,3.4,6.4,3.4
		c2.7,0,5.1-1.3,6.3-3.2l-0.6-0.3l-0.6,0.3c1.2,1.9,3.6,3.2,6.3,3.2c1.9,0,3.7-0.6,5-1.7l-0.4-0.5l-0.4,0.5c1.3,1.1,3,1.7,5,1.7
		c2.9,0,5.5-1.5,6.5-3.7l-0.6-0.3l-0.2,0.6c0.9,0.4,1.9,0.5,3,0.5c1.9,0,3.6-0.6,4.9-1.7c1.3-1,2.1-2.5,2.1-4.2H147.2z"/>
	<path class="st6" d="M143.1,31.3c0.3,0,0.6,0.3,0.6,0.6v7.5c0,1.5-7.9,2.7-17.7,2.7c-0.3,0-0.6-0.3-0.6-0.6c0-0.3,0.3-0.6,0.6-0.6
		c9-0.2,16-1.3,16-2.7v-6.3c0-0.3,0.3-0.6,0.6-0.6H143.1z"/>
</g>
</svg>
