<?xml version="1.0" encoding="utf-8"?>
<!-- Generator: Adobe Illustrator 22.1.0, SVG Export Plug-In . SVG Version: 6.00 Build 0)  -->
<svg version="1.1" id="Layer_1" xmlns="http://www.w3.org/2000/svg" xmlns:xlink="http://www.w3.org/1999/xlink" x="0px" y="0px"
	 viewBox="0 0 186 69.1" style="enable-background:new 0 0 186 69.1;" xml:space="preserve">
<style type="text/css">
	.st0{fill:#EDEDED;stroke:#28373A;stroke-width:2;stroke-miterlimit:10;}
	.st1{fill:#D8D8D8;}
	.st2{fill:#DAEDF1;}
	.st3{fill:#28373A;}
	.st4{fill:#5C903F;}
	.st5{fill:#77C045;}
	.st6{fill:#D65629;}
	.st7{fill:#FEDE02;stroke:#28373A;stroke-miterlimit:10;}
</style>
<g id="plate_2_">
	<path class="st0" d="M185,48.8c0,3.2-6.5,6.1-17.6,8.5c-16.7,3.6-43.8,6-74.4,6c-30.6,0-57.7-2.4-74.4-6C7.5,54.9,1,52,1,48.8
		c0-8,41.2-14.6,92-14.6S185,40.7,185,48.8z"/>
	<path class="st0" d="M167.4,57.3c-0.1,2.9-1.3,5.5-3.3,7.5c-2,2-4.8,3.3-7.8,3.3H29.6c-6,0-10.9-4.8-11.1-10.7
		c16.7,3.6,43.8,6,74.4,6C123.6,63.3,150.7,61,167.4,57.3z"/>
	<ellipse class="st1" cx="93" cy="49.8" rx="56" ry="6"/>
</g>
<g>
	<path class="st2" d="M102,21.9c0,2.5-13.8,4.6-30.8,4.6c-17,0-30.8-2.1-30.8-4.6c0-2.5,13.8-4.6,30.8-4.6
		C88.2,17.3,102,19.3,102,21.9z"/>
	<path class="st3" d="M102,21.9h-0.7c0,0,0,0,0,0.1c-0.1,0.1-0.4,0.4-0.9,0.6c-0.9,0.4-2.3,0.9-4.1,1.3c-5.5,1.2-14.7,2-25.1,2
		c-8.5,0-16.1-0.5-21.6-1.3c-2.8-0.4-5-0.9-6.5-1.4c-0.7-0.3-1.3-0.5-1.6-0.8c-0.2-0.1-0.3-0.2-0.3-0.3c0-0.1,0-0.1,0-0.1
		c0,0,0,0,0-0.1c0.1-0.1,0.4-0.4,0.9-0.6c0.9-0.4,2.3-0.9,4.1-1.3c5.5-1.2,14.7-2,25.1-2c8.5,0,16.1,0.5,21.7,1.3
		c2.8,0.4,5,0.9,6.5,1.4c0.7,0.3,1.3,0.5,1.6,0.8c0.2,0.1,0.3,0.2,0.3,0.3c0,0.1,0,0.1,0,0.1H102h0.7c0-0.3-0.1-0.6-0.3-0.8
		c-0.3-0.4-0.8-0.8-1.4-1.1c-1-0.5-2.5-1-4.4-1.4c-5.6-1.2-14.9-2-25.4-2c-8.5,0-16.2,0.5-21.8,1.4c-2.8,0.4-5.1,0.9-6.7,1.5
		c-0.8,0.3-1.5,0.6-2,1c-0.2,0.2-0.5,0.4-0.6,0.6c-0.2,0.2-0.3,0.5-0.3,0.8c0,0.3,0.1,0.6,0.3,0.8c0.3,0.4,0.8,0.8,1.4,1.1
		c1,0.5,2.5,1,4.4,1.4c5.6,1.2,14.9,2,25.4,2c8.5,0,16.2-0.5,21.9-1.4c2.8-0.4,5.1-0.9,6.7-1.5c0.8-0.3,1.5-0.6,2-1
		c0.2-0.2,0.5-0.4,0.6-0.6c0.2-0.2,0.3-0.5,0.3-0.8H102z"/>
	<path class="st4" d="M102,21.9v23.4c0,2.5-13.8,4.6-30.8,4.6c-17,0-30.8-2.1-30.8-4.6V21.9c0,2.5,13.8,4.6,30.8,4.6
		C88.2,26.5,102,24.4,102,21.9z"/>
	<path class="st3" d="M102,21.9h-0.7v23.4c0,0,0,0,0,0.1c-0.1,0.1-0.4,0.4-0.9,0.6c-0.9,0.4-2.3,0.9-4.1,1.3c-5.5,1.2-14.7,2-25.1,2
		c-8.5,0-16.1-0.5-21.6-1.3c-2.8-0.4-5-0.9-6.5-1.4c-0.7-0.3-1.3-0.5-1.6-0.8c-0.2-0.1-0.3-0.2-0.3-0.3c0-0.1,0-0.1,0-0.1V21.9h-1.3
		c0,0.3,0.1,0.6,0.3,0.8c0.3,0.4,0.8,0.8,1.4,1.1c1,0.5,2.5,1,4.4,1.4c5.6,1.2,14.9,2,25.4,2c8.5,0,16.2-0.5,21.9-1.4
		c2.8-0.4,5.1-0.9,6.7-1.5c0.8-0.3,1.5-0.6,2-1c0.2-0.2,0.5-0.4,0.6-0.6c0.2-0.2,0.3-0.5,0.3-0.8h-1.3H102h-0.7c0,0,0,0,0,0.1
		c-0.1,0.1-0.4,0.4-0.9,0.6c-0.9,0.4-2.3,0.9-4.1,1.3c-5.5,1.2-14.7,2-25.1,2c-8.5,0-16.1-0.5-21.6-1.3c-2.8-0.4-5-0.9-6.5-1.4
		c-0.7-0.3-1.3-0.5-1.6-0.8c-0.2-0.1-0.3-0.2-0.3-0.3c0-0.1,0-0.1,0-0.1h-1.3v23.4c0,0.3,0.1,0.6,0.3,0.8c0.3,0.4,0.8,0.8,1.4,1.1
		c1,0.5,2.5,1,4.4,1.4c5.6,1.2,14.9,2,25.4,2c8.5,0,16.2-0.5,21.9-1.4c2.8-0.4,5.1-0.9,6.7-1.5c0.8-0.3,1.5-0.6,2-1
		c0.2-0.2,0.5-0.4,0.6-0.6c0.2-0.2,0.3-0.5,0.3-0.8V21.9h-1.3H102z"/>
	<path class="st5" d="M97.8,34.4c0.3,0,0.6,0.3,0.6,0.6v7.5c0,1.5-7.9,2.7-17.7,2.7c-0.3,0-0.6-0.3-0.6-0.6c0-0.3,0.3-0.6,0.6-0.6
		c9-0.2,16-1.3,16-2.7V35c0-0.3,0.3-0.6,0.6-0.6H97.8z"/>
	<g>
		<g>
			<circle class="st6" cx="48.1" cy="15.5" r="6.4"/>
			<path class="st3" d="M54.5,15.5h0.7c0-3.9-3.1-7-7-7c-3.9,0-7,3.1-7,7c0,3.9,3.1,7,7,7c3.9,0,7-3.1,7-7H54.5h-0.7
				c0,1.6-0.6,3-1.7,4c-1,1-2.5,1.7-4,1.7c-1.6,0-3-0.6-4-1.7c-1-1-1.7-2.5-1.7-4c0-1.6,0.6-3,1.7-4c1-1,2.5-1.7,4-1.7
				c1.6,0,3,0.6,4,1.7c1,1,1.7,2.5,1.7,4H54.5z"/>
			<circle class="st6" cx="86.4" cy="9.1" r="6.4"/>
			<path class="st3" d="M92.7,9.1h0.7c0-3.9-3.1-7-7-7c-3.9,0-7,3.1-7,7c0,3.9,3.1,7,7,7c3.9,0,7-3.1,7-7H92.7h-0.7
				c0,1.6-0.6,3-1.7,4c-1,1-2.5,1.7-4,1.7c-1.6,0-3-0.6-4-1.7c-1-1-1.7-2.5-1.7-4c0-1.6,0.6-3,1.7-4c1-1,2.5-1.7,4-1.7
				c1.6,0,3,0.6,4,1.7c1,1,1.7,2.5,1.7,4H92.7z"/>
			<circle class="st6" cx="70.6" cy="7" r="6.4"/>
			<path class="st3" d="M77,7h0.7c0-3.9-3.1-7-7-7c-3.9,0-7,3.1-7,7c0,3.9,3.1,7,7,7c3.9,0,7-3.1,7-7H77h-0.7c0,1.6-0.6,3-1.7,4
				c-1,1-2.5,1.7-4,1.7c-1.6,0-3-0.6-4-1.7c-1-1-1.7-2.5-1.7-4c0-1.6,0.6-3,1.7-4c1-1,2.5-1.7,4-1.7c1.6,0,3,0.6,4,1.7
				c1,1,1.7,2.5,1.7,4H77z"/>
			<circle class="st6" cx="59.5" cy="9.8" r="6.4"/>
			<path class="st3" d="M65.8,9.8h0.7c0-3.9-3.1-7-7-7c-3.9,0-7,3.1-7,7c0,3.9,3.1,7,7,7c3.9,0,7-3.1,7-7H65.8h-0.7
				c0,1.6-0.6,3-1.7,4c-1,1-2.5,1.7-4,1.7c-1.6,0-3-0.6-4-1.7c-1-1-1.7-2.5-1.7-4c0-1.6,0.6-3,1.7-4c1-1,2.5-1.7,4-1.7
				c1.6,0,3,0.6,4,1.7c1,1,1.7,2.5,1.7,4H65.8z"/>
			<circle class="st6" cx="95" cy="15.5" r="6.4"/>
			<path class="st3" d="M101.4,15.5h0.7c0-3.9-3.1-7-7-7c-3.9,0-7,3.1-7,7c0,3.9,3.1,7,7,7c3.9,0,7-3.1,7-7H101.4h-0.7
				c0,1.6-0.6,3-1.7,4c-1,1-2.5,1.7-4,1.7c-1.6,0-3-0.6-4-1.7c-1-1-1.7-2.5-1.7-4c0-1.6,0.6-3,1.7-4c1-1,2.5-1.7,4-1.7
				c1.6,0,3,0.6,4,1.7c1,1,1.7,2.5,1.7,4H101.4z"/>
			<circle class="st6" cx="86.4" cy="19" r="6.4"/>
			<path class="st3" d="M92.7,19h0.7c0-3.9-3.1-7-7-7c-3.9,0-7,3.1-7,7c0,3.9,3.1,7,7,7c3.9,0,7-3.1,7-7H92.7h-0.7
				c0,1.6-0.6,3-1.7,4c-1,1-2.5,1.7-4,1.7c-1.6,0-3-0.6-4-1.7c-1-1-1.7-2.5-1.7-4c0-1.6,0.6-3,1.7-4c1-1,2.5-1.7,4-1.7
				c1.6,0,3,0.6,4,1.7c1,1,1.7,2.5,1.7,4H92.7z"/>
			<circle class="st6" cx="63.4" cy="12.6" r="6.4"/>
			<path class="st3" d="M69.8,12.6h0.7c0-3.9-3.1-7-7-7c-3.9,0-7,3.1-7,7c0,3.9,3.1,7,7,7c3.9,0,7-3.1,7-7H69.8h-0.7
				c0,1.6-0.6,3-1.7,4c-1,1-2.5,1.7-4,1.7c-1.6,0-3-0.6-4-1.7c-1-1-1.7-2.5-1.7-4c0-1.6,0.6-3,1.7-4c1-1,2.5-1.7,4-1.7
				c1.6,0,3,0.6,4,1.7c1,1,1.7,2.5,1.7,4H69.8z"/>
			<circle class="st6" cx="76.7" cy="12.6" r="6.4"/>
			<path class="st3" d="M83,12.6h0.7c0-3.9-3.1-7-7-7c-3.9,0-7,3.1-7,7c0,3.9,3.1,7,7,7c3.9,0,7-3.1,7-7H83h-0.7c0,1.6-0.6,3-1.7,4
				c-1,1-2.5,1.7-4,1.7c-1.6,0-3-0.6-4-1.7c-1-1-1.7-2.5-1.7-4c0-1.6,0.6-3,1.7-4c1-1,2.5-1.7,4-1.7c1.6,0,3,0.6,4,1.7
				c1,1,1.7,2.5,1.7,4H83z"/>
			<circle class="st6" cx="54.5" cy="18.5" r="6.4"/>
			<path class="st3" d="M60.8,18.5h0.7c0-3.9-3.1-7-7-7c-3.9,0-7,3.1-7,7c0,3.9,3.1,7,7,7c3.9,0,7-3.1,7-7H60.8h-0.7
				c0,1.6-0.6,3-1.7,4c-1,1-2.5,1.7-4,1.7c-1.6,0-3-0.6-4-1.7c-1-1-1.7-2.5-1.7-4c0-1.6,0.6-3,1.7-4c1-1,2.5-1.7,4-1.7
				c1.6,0,3,0.6,4,1.7c1,1,1.7,2.5,1.7,4H60.8z"/>
			<circle class="st6" cx="77.3" cy="19" r="6.4"/>
			<path class="st3" d="M83.6,19h0.7c0-3.9-3.1-7-7-7c-3.9,0-7,3.1-7,7c0,3.9,3.1,7,7,7c3.9,0,7-3.1,7-7H83.6h-0.7
				c0,1.6-0.6,3-1.7,4c-1,1-2.5,1.7-4,1.7c-1.6,0-3-0.6-4-1.7c-1-1-1.7-2.5-1.7-4c0-1.6,0.6-3,1.7-4c1-1,2.5-1.7,4-1.7
				c1.6,0,3,0.6,4,1.7c1,1,1.7,2.5,1.7,4H83.6z"/>
			<circle class="st6" cx="65.8" cy="19" r="6.4"/>
			<path class="st3" d="M72.2,19h0.7c0-3.9-3.1-7-7-7c-3.9,0-7,3.1-7,7c0,3.9,3.1,7,7,7c3.9,0,7-3.1,7-7H72.2h-0.7
				c0,1.6-0.6,3-1.7,4c-1,1-2.5,1.7-4,1.7c-1.6,0-3-0.6-4-1.7c-1-1-1.7-2.5-1.7-4c0-1.6,0.6-3,1.7-4c1-1,2.5-1.7,4-1.7
				c1.6,0,3,0.6,4,1.7c1,1,1.7,2.5,1.7,4H72.2z"/>
		</g>
		<ellipse class="st7" cx="57.3" cy="18.5" rx="15.6" ry="8.7"/>
	</g>
</g>
<g>
	<path class="st2" d="M149.1,25.7c0,2.5-13.8,4.6-30.8,4.6c-17,0-30.8-2.1-30.8-4.6c0-2.5,13.8-4.6,30.8-4.6
		C135.3,21.1,149.1,23.2,149.1,25.7z"/>
	<path class="st3" d="M149.1,25.7h-0.7c0,0,0,0,0,0.1c-0.1,0.1-0.4,0.4-0.9,0.6c-0.9,0.4-2.3,0.9-4.1,1.3c-5.5,1.2-14.7,2-25.1,2
		c-8.5,0-16.1-0.5-21.6-1.3c-2.8-0.4-5-0.9-6.5-1.4c-0.7-0.3-1.3-0.5-1.6-0.8c-0.2-0.1-0.3-0.2-0.3-0.3c0-0.1,0-0.1,0-0.1
		c0,0,0,0,0-0.1c0.1-0.1,0.4-0.4,0.9-0.6c0.9-0.4,2.3-0.9,4.1-1.3c5.5-1.2,14.7-2,25.1-2c8.5,0,16.1,0.5,21.7,1.3
		c2.8,0.4,5,0.9,6.5,1.4c0.7,0.3,1.3,0.5,1.6,0.8c0.2,0.1,0.3,0.2,0.3,0.3c0,0.1,0,0.1,0,0.1H149.1h0.7c0-0.3-0.1-0.6-0.3-0.8
		c-0.3-0.4-0.8-0.8-1.4-1.1c-1-0.5-2.5-1-4.4-1.4c-5.6-1.2-14.9-2-25.4-2c-8.5,0-16.2,0.5-21.8,1.4c-2.8,0.4-5.1,0.9-6.7,1.5
		c-0.8,0.3-1.5,0.6-2,1c-0.2,0.2-0.5,0.4-0.6,0.6c-0.2,0.2-0.3,0.5-0.3,0.8c0,0.3,0.1,0.6,0.3,0.8c0.3,0.4,0.8,0.8,1.4,1.1
		c1,0.5,2.5,1,4.4,1.4c5.6,1.2,14.9,2,25.4,2c8.5,0,16.2-0.5,21.9-1.4c2.8-0.4,5.1-0.9,6.7-1.5c0.8-0.3,1.5-0.6,2-1
		c0.2-0.2,0.5-0.4,0.6-0.6c0.2-0.2,0.3-0.5,0.3-0.8H149.1z"/>
	<path class="st4" d="M149.1,25.7v23.4c0,2.5-13.8,4.6-30.8,4.6c-17,0-30.8-2.1-30.8-4.6V25.7c0,2.5,13.8,4.6,30.8,4.6
		C135.3,30.3,149.1,28.3,149.1,25.7z"/>
	<path class="st3" d="M149.1,25.7h-0.7v23.4c0,0,0,0,0,0.1c-0.1,0.1-0.4,0.4-0.9,0.6c-0.9,0.4-2.3,0.9-4.1,1.3
		c-5.5,1.2-14.7,2-25.1,2c-8.5,0-16.1-0.5-21.6-1.3c-2.8-0.4-5-0.9-6.5-1.4c-0.7-0.3-1.3-0.5-1.6-0.8c-0.2-0.1-0.3-0.2-0.3-0.3
		c0-0.1,0-0.1,0-0.1V25.7h-1.3c0,0.3,0.1,0.6,0.3,0.8c0.3,0.4,0.8,0.8,1.4,1.1c1,0.5,2.5,1,4.4,1.4c5.6,1.2,14.9,2,25.4,2
		c8.5,0,16.2-0.5,21.9-1.4c2.8-0.4,5.1-0.9,6.7-1.5c0.8-0.3,1.5-0.6,2-1c0.2-0.2,0.5-0.4,0.6-0.6c0.2-0.2,0.3-0.5,0.3-0.8h-1.3
		H149.1h-0.7c0,0,0,0,0,0.1c-0.1,0.1-0.4,0.4-0.9,0.6c-0.9,0.4-2.3,0.9-4.1,1.3c-5.5,1.2-14.7,2-25.1,2c-8.5,0-16.1-0.5-21.6-1.3
		c-2.8-0.4-5-0.9-6.5-1.4c-0.7-0.3-1.3-0.5-1.6-0.8c-0.2-0.1-0.3-0.2-0.3-0.3c0-0.1,0-0.1,0-0.1h-1.3v23.4c0,0.3,0.1,0.6,0.3,0.8
		c0.3,0.4,0.8,0.8,1.4,1.1c1,0.5,2.5,1,4.4,1.4c5.6,1.2,14.9,2,25.4,2c8.5,0,16.2-0.5,21.9-1.4c2.8-0.4,5.1-0.9,6.7-1.5
		c0.8-0.3,1.5-0.6,2-1c0.2-0.2,0.5-0.4,0.6-0.6c0.2-0.2,0.3-0.5,0.3-0.8V25.7h-1.3H149.1z"/>
	<path class="st5" d="M145,38.3c0.3,0,0.6,0.3,0.6,0.6v7.5c0,1.5-7.9,2.7-17.7,2.7c-0.3,0-0.6-0.3-0.6-0.6c0-0.3,0.3-0.6,0.6-0.6
		c9-0.2,16-1.3,16-2.7v-6.3c0-0.3,0.3-0.6,0.6-0.6H145z"/>
	<g>
		<g>
			<circle class="st6" cx="95.2" cy="19.4" r="6.4"/>
			<path class="st3" d="M101.6,19.4h0.7c0-3.9-3.1-7-7-7c-3.9,0-7,3.1-7,7c0,3.9,3.1,7,7,7c3.9,0,7-3.1,7-7H101.6h-0.7
				c0,1.6-0.6,3-1.7,4c-1,1-2.5,1.7-4,1.7c-1.6,0-3-0.6-4-1.7c-1-1-1.7-2.5-1.7-4c0-1.6,0.6-3,1.7-4c1-1,2.5-1.7,4-1.7
				c1.6,0,3,0.6,4,1.7c1,1,1.7,2.5,1.7,4H101.6z"/>
			<circle class="st6" cx="133.5" cy="13" r="6.4"/>
			<path class="st3" d="M139.9,13h0.7c0-3.9-3.1-7-7-7c-3.9,0-7,3.1-7,7c0,3.9,3.1,7,7,7c3.9,0,7-3.1,7-7H139.9h-0.7
				c0,1.6-0.6,3-1.7,4c-1,1-2.5,1.7-4,1.7c-1.6,0-3-0.6-4-1.7c-1-1-1.7-2.5-1.7-4c0-1.6,0.6-3,1.7-4c1-1,2.5-1.7,4-1.7
				c1.6,0,3,0.6,4,1.7c1,1,1.7,2.5,1.7,4H139.9z"/>
			<circle class="st6" cx="117.8" cy="10.9" r="6.4"/>
			<path class="st3" d="M124.1,10.9h0.7c0-3.9-3.1-7-7-7c-3.9,0-7,3.1-7,7c0,3.9,3.1,7,7,7c3.9,0,7-3.1,7-7H124.1h-0.7
				c0,1.6-0.6,3-1.7,4c-1,1-2.5,1.7-4,1.7c-1.6,0-3-0.6-4-1.7c-1-1-1.7-2.5-1.7-4c0-1.6,0.6-3,1.7-4c1-1,2.5-1.7,4-1.7
				c1.6,0,3,0.6,4,1.7c1,1,1.7,2.5,1.7,4H124.1z"/>
			<circle class="st6" cx="106.6" cy="13.7" r="6.4"/>
			<path class="st3" d="M113,13.7h0.7c0-3.9-3.1-7-7-7c-3.9,0-7,3.1-7,7c0,3.9,3.1,7,7,7c3.9,0,7-3.1,7-7H113h-0.7
				c0,1.6-0.6,3-1.7,4c-1,1-2.5,1.7-4,1.7c-1.6,0-3-0.6-4-1.7c-1-1-1.7-2.5-1.7-4c0-1.6,0.6-3,1.7-4c1-1,2.5-1.7,4-1.7
				c1.6,0,3,0.6,4,1.7c1,1,1.7,2.5,1.7,4H113z"/>
			<circle class="st6" cx="142.2" cy="19.4" r="6.4"/>
			<path class="st3" d="M148.5,19.4h0.7c0-3.9-3.1-7-7-7c-3.9,0-7,3.1-7,7c0,3.9,3.1,7,7,7c3.9,0,7-3.1,7-7H148.5h-0.7
				c0,1.6-0.6,3-1.7,4c-1,1-2.5,1.7-4,1.7c-1.6,0-3-0.6-4-1.7c-1-1-1.7-2.5-1.7-4c0-1.6,0.6-3,1.7-4c1-1,2.5-1.7,4-1.7
				c1.6,0,3,0.6,4,1.7c1,1,1.7,2.5,1.7,4H148.5z"/>
			<circle class="st6" cx="133.5" cy="22.8" r="6.4"/>
			<path class="st3" d="M139.9,22.8h0.7c0-3.9-3.1-7-7-7c-3.9,0-7,3.1-7,7c0,3.9,3.1,7,7,7c3.9,0,7-3.1,7-7H139.9h-0.7
				c0,1.6-0.6,3-1.7,4c-1,1-2.5,1.7-4,1.7c-1.6,0-3-0.6-4-1.7c-1-1-1.7-2.5-1.7-4c0-1.6,0.6-3,1.7-4c1-1,2.5-1.7,4-1.7
				c1.6,0,3,0.6,4,1.7c1,1,1.7,2.5,1.7,4H139.9z"/>
			<circle class="st6" cx="110.6" cy="16.5" r="6.4"/>
			<path class="st3" d="M117,16.5h0.7c0-3.9-3.1-7-7-7c-3.9,0-7,3.1-7,7c0,3.9,3.1,7,7,7c3.9,0,7-3.1,7-7H117h-0.7
				c0,1.6-0.6,3-1.7,4c-1,1-2.5,1.7-4,1.7c-1.6,0-3-0.6-4-1.7c-1-1-1.7-2.5-1.7-4c0-1.6,0.6-3,1.7-4c1-1,2.5-1.7,4-1.7
				c1.6,0,3,0.6,4,1.7c1,1,1.7,2.5,1.7,4H117z"/>
			<circle class="st6" cx="123.8" cy="16.5" r="6.4"/>
			<path class="st3" d="M130.2,16.5h0.7c0-3.9-3.1-7-7-7c-3.9,0-7,3.1-7,7c0,3.9,3.1,7,7,7c3.9,0,7-3.1,7-7H130.2h-0.7
				c0,1.6-0.6,3-1.7,4c-1,1-2.5,1.7-4,1.7c-1.6,0-3-0.6-4-1.7c-1-1-1.7-2.5-1.7-4c0-1.6,0.6-3,1.7-4c1-1,2.5-1.7,4-1.7
				c1.6,0,3,0.6,4,1.7c1,1,1.7,2.5,1.7,4H130.2z"/>
			<circle class="st6" cx="101.6" cy="22.4" r="6.4"/>
			<path class="st3" d="M108,22.4h0.7c0-3.9-3.1-7-7-7c-3.9,0-7,3.1-7,7c0,3.9,3.1,7,7,7c3.9,0,7-3.1,7-7H108h-0.7
				c0,1.6-0.6,3-1.7,4c-1,1-2.5,1.7-4,1.7c-1.6,0-3-0.6-4-1.7c-1-1-1.7-2.5-1.7-4c0-1.6,0.6-3,1.7-4c1-1,2.5-1.7,4-1.7
				c1.6,0,3,0.6,4,1.7c1,1,1.7,2.5,1.7,4H108z"/>
			<circle class="st6" cx="124.4" cy="22.8" r="6.4"/>
			<path class="st3" d="M130.8,22.8h0.7c0-3.9-3.1-7-7-7c-3.9,0-7,3.1-7,7c0,3.9,3.1,7,7,7c3.9,0,7-3.1,7-7H130.8h-0.7
				c0,1.6-0.6,3-1.7,4c-1,1-2.5,1.7-4,1.7c-1.6,0-3-0.6-4-1.7c-1-1-1.7-2.5-1.7-4c0-1.6,0.6-3,1.7-4c1-1,2.5-1.7,4-1.7
				c1.6,0,3,0.6,4,1.7c1,1,1.7,2.5,1.7,4H130.8z"/>
			<circle class="st6" cx="113" cy="22.8" r="6.4"/>
			<path class="st3" d="M119.3,22.8h0.7c0-3.9-3.1-7-7-7c-3.9,0-7,3.1-7,7c0,3.9,3.1,7,7,7c3.9,0,7-3.1,7-7H119.3h-0.7
				c0,1.6-0.6,3-1.7,4c-1,1-2.5,1.7-4,1.7c-1.6,0-3-0.6-4-1.7c-1-1-1.7-2.5-1.7-4c0-1.6,0.6-3,1.7-4c1-1,2.5-1.7,4-1.7
				c1.6,0,3,0.6,4,1.7c1,1,1.7,2.5,1.7,4H119.3z"/>
		</g>
		<ellipse class="st7" cx="104.4" cy="22.4" rx="15.6" ry="8.7"/>
	</g>
</g>
</svg>
