<?xml version="1.0" encoding="utf-8"?>
<!-- Generator: Adobe Illustrator 22.0.1, SVG Export Plug-In . SVG Version: 6.00 Build 0)  -->
<svg version="1.1" id="Layer_1" xmlns="http://www.w3.org/2000/svg" xmlns:xlink="http://www.w3.org/1999/xlink" x="0px" y="0px"
	 viewBox="0 0 186 53.5" style="enable-background:new 0 0 186 53.5;" xml:space="preserve">
<style type="text/css">
	.st0{fill:#EDEDED;stroke:#28373A;stroke-width:2;stroke-miterlimit:10;}
	.st1{fill:#D8D8D8;}
	.st2{fill:#DAEDF1;}
	.st3{fill:#28373A;}
	.st4{fill:#C6DDE5;}
	.st5{fill:#D72C27;}
	.st6{fill:#F15E5E;}
</style>
<g id="plate_7_">
	<path class="st0" d="M185,33.3c0,3.2-6.5,6.1-17.6,8.5c-16.7,3.6-43.8,6-74.4,6c-30.6,0-57.7-2.4-74.4-6C7.5,39.4,1,36.5,1,33.3
		c0-8,41.2-14.6,92-14.6S185,25.2,185,33.3z"/>
	<path class="st0" d="M167.4,41.8c-0.1,2.9-1.3,5.5-3.3,7.5c-2,2-4.8,3.3-7.8,3.3H29.6c-6,0-10.9-4.8-11.1-10.7
		c16.7,3.6,43.8,6,74.4,6C123.6,47.8,150.7,45.4,167.4,41.8z"/>
	<ellipse class="st1" cx="93" cy="34.3" rx="56" ry="6"/>
</g>
<g>
	<path class="st2" d="M88.9,36.2H51.6c-6.8,0-12.3-5.6-12.3-12.3v-1.9c0-6.8,5.6-12.3,12.3-12.3h37.3c6.8,0,12.3,5.6,12.3,12.3v1.9
		C101.2,30.7,95.7,36.2,88.9,36.2z"/>
	<path class="st3" d="M88.9,36.2v-0.7H51.6c-3.2,0-6.1-1.3-8.2-3.4c-2.1-2.1-3.4-5-3.4-8.2v-1.9c0-3.2,1.3-6.1,3.4-8.2
		c2.1-2.1,5-3.4,8.2-3.4h37.3c3.2,0,6.1,1.3,8.2,3.4c2.1,2.1,3.4,5,3.4,8.2v1.9c0,3.2-1.3,6.1-3.4,8.2c-2.1,2.1-5,3.4-8.2,3.4V36.2
		v0.7c7.2,0,13-5.8,13-13v-1.9c0-7.2-5.8-13-13-13H51.6c-7.2,0-13,5.8-13,13v1.9c0,7.2,5.8,13,13,13h37.3V36.2z"/>
	<path class="st4" d="M97.3,21.2c0.6,0,1.1,0.5,1,1.2c-0.7,6.2-5.9,11-12.3,11H71.3c-0.6,0-1-0.5-1-1c0-0.6,0.5-1,1-1H84
		c5.8,0,10.6-4,12-9.3c0.1-0.5,0.5-0.8,1-0.8H97.3z"/>
	<path class="st5" d="M100.5,14.6C93.9,23.8,85,13,66.2,20.3C48.7,27.1,46.5,38.8,39.7,36c-3-1.3-3.7-7.9-3.7-7.9
		c0.5-8.6,4.9-14.4,11-18.5c0.7-0.5,1.5-1,2.3-1.4c1.4-0.8,2.9-1.5,4.4-2.2h0c1-0.4,2-0.8,3.1-1.2h0c1.6-0.6,3.3-1,4.9-1.4
		c1.3-0.3,2.7-0.6,4-0.9h0c2.7-0.5,5.2-0.9,7.6-1.2h0c1.9-0.2,3.8-0.4,5.4-0.5c3.7-0.2,6.6-0.2,7.8-0.2
		C92.3,0.7,107.2,5.3,100.5,14.6z"/>
	<path class="st3" d="M100.5,14.6l-0.5-0.4c-1.1,1.5-2.2,2.4-3.4,3c-1.2,0.5-2.5,0.7-4,0.7c-3.2,0-7.2-0.9-12.3-0.9
		c-4.1,0-8.8,0.6-14.4,2.8l0,0c-7.9,3.1-12.8,7.2-16.3,10.4c-1.8,1.6-3.2,3.1-4.4,4.1c-0.6,0.5-1.2,0.9-1.8,1.1
		c-0.6,0.3-1.1,0.4-1.7,0.4c-0.5,0-1.1-0.1-1.7-0.4l-0.2-0.1l0.2,0.1c-0.6-0.2-1.1-0.8-1.6-1.5c-0.7-1.1-1.1-2.6-1.4-3.8
		c-0.1-0.6-0.2-1.1-0.3-1.5c0-0.2,0-0.3-0.1-0.4l0-0.1l0,0L36,28.1l0.7,0c0.2-4.2,1.4-7.7,3.3-10.6c1.9-3,4.4-5.4,7.4-7.3l0,0
		c0.7-0.5,1.5-1,2.3-1.4l0,0l0,0C51,8,52.4,7.3,53.9,6.6L53.7,6v0.7h0h0.1l0.1,0c1-0.4,2-0.8,3.1-1.2l-0.2-0.6v0.7h0h0.1l0.1,0
		c1.6-0.5,3.2-1,4.8-1.4l0,0c1.3-0.3,2.7-0.6,4-0.9l-0.1-0.6v0.7h0h0.1l0.1,0C68.5,2.6,71,2.3,73.4,2l-0.1-0.7V2h0h0l0,0
		c1.9-0.2,3.7-0.4,5.4-0.5l0,0c3.4-0.2,6-0.2,7.4-0.2c0.1,0,0.3,0,0.4,0c1.1,0,2.7,0.2,4.3,0.6c2.5,0.6,5.2,1.6,7.3,3
		c1,0.7,1.9,1.5,2.5,2.4c0.6,0.9,0.9,1.8,0.9,2.8c0,1.2-0.4,2.5-1.6,4.1l0,0L100.5,14.6l0.5,0.4c1.2-1.7,1.8-3.4,1.8-4.9
		c0-1.8-0.8-3.3-2-4.6c-1.8-1.9-4.4-3.2-7.1-4.1C91.1,0.5,88.4,0,86.5,0c-0.1,0-0.2,0-0.4,0c-1.4,0-4,0-7.4,0.2l0,0l0,0
		c-1.7,0.1-3.5,0.2-5.4,0.5l0.1,0.7V0.7h0h0l0,0c-2.4,0.3-5,0.6-7.7,1.2l0.1,0.6V1.8h0h-0.1l-0.1,0c-1.3,0.3-2.7,0.6-4,0.9l0,0
		c-1.7,0.4-3.3,0.9-5,1.5l0.2,0.6V4.2h0h-0.1l-0.1,0c-1.1,0.4-2.1,0.8-3.1,1.2L53.7,6V5.3h0h-0.1l-0.1,0.1c-1.6,0.7-3.1,1.4-4.5,2.2
		l0,0l0,0C48.1,8,47.3,8.5,46.6,9l0,0l0,0c-3.1,2.1-5.8,4.6-7.8,7.7c-2,3.1-3.2,6.9-3.5,11.3l0,0.1l0,0.1c0,0,0.2,1.7,0.7,3.6
		c0.3,0.9,0.7,1.9,1.2,2.8c0.5,0.9,1.2,1.6,2.2,2l0.2,0.1l-0.2-0.1c0.8,0.3,1.5,0.5,2.2,0.5c0.8,0,1.5-0.2,2.2-0.5
		c1.2-0.6,2.4-1.5,3.7-2.6c3.8-3.5,8.7-9,18.8-13l0,0c5.4-2.1,10-2.7,13.9-2.7c4.9,0,8.9,0.9,12.3,0.9c1.6,0,3.1-0.2,4.6-0.9
		c1.4-0.7,2.7-1.7,3.9-3.4l0,0L100.5,14.6z"/>
	<path class="st6" d="M63.1,7.5v0.9c0,0.6-0.5,1.2-1.1,1.3c-0.6,0.1-1.2,0.2-1.8,0.3h0c-0.7,0.1-1.5,0.3-2.3,0.5
		c-0.9,0.2-1.9,0.5-2.8,0.8h0c-0.6,0.2-1.2,0.4-1.8,0.7h0c-0.9,0.4-1.7,0.8-2.5,1.2c-0.4,0.3-0.9,0.5-1.3,0.8
		c-2.4,1.6-4.4,3.7-5.4,6.5c-0.2,0.5-0.7,0.8-1.2,0.8c-0.9,0-1.5-0.8-1.3-1.6c0.9-3.2,3-5.6,5.7-7.4c0.4-0.3,0.9-0.6,1.3-0.8
		c0.8-0.5,1.7-0.9,2.5-1.2h0c0.6-0.2,1.2-0.5,1.8-0.7h0c0.9-0.3,1.8-0.6,2.8-0.8c0.8-0.2,1.5-0.4,2.3-0.5h0c1.5-0.3,3-0.5,4.3-0.7h0
		C62.6,7.6,62.8,7.6,63.1,7.5z"/>
</g>
<g>
	<path class="st2" d="M135.2,40.3H97.9c-6.8,0-12.3-5.6-12.3-12.3V26c0-6.8,5.6-12.3,12.3-12.3h37.3c6.8,0,12.3,5.6,12.3,12.3v1.9
		C147.5,34.7,141.9,40.3,135.2,40.3z"/>
	<path class="st3" d="M135.2,40.3v-0.7H97.9c-3.2,0-6.1-1.3-8.2-3.4c-2.1-2.1-3.4-5-3.4-8.2V26c0-3.2,1.3-6.1,3.4-8.2
		c2.1-2.1,5-3.4,8.2-3.4h37.3c3.2,0,6.1,1.3,8.2,3.4c2.1,2.1,3.4,5,3.4,8.2v1.9c0,3.2-1.3,6.1-3.4,8.2c-2.1,2.1-5,3.4-8.2,3.4V40.3
		V41c7.2,0,13-5.8,13-13V26c0-7.2-5.8-13-13-13H97.9c-7.2,0-13,5.8-13,13v1.9c0,7.2,5.8,13,13,13h37.3V40.3z"/>
	<path class="st4" d="M143.5,25.2c0.6,0,1.1,0.5,1,1.2c-0.7,6.2-5.9,11-12.3,11h-14.7c-0.6,0-1-0.5-1-1s0.5-1,1-1h12.8
		c5.8,0,10.6-4,12-9.3c0.1-0.5,0.5-0.8,1-0.8H143.5z"/>
	<path class="st5" d="M146.8,18.6c-6.7,9.3-15.6-1.5-34.4,5.8C94.9,31.2,92.7,42.8,86,40.1c-3-1.3-3.7-7.9-3.7-7.9
		c0.5-8.6,4.9-14.4,11-18.5c0.7-0.5,1.5-1,2.3-1.4c1.4-0.8,2.9-1.5,4.4-2.2h0c1-0.4,2-0.8,3.1-1.2h0c1.6-0.6,3.3-1,4.9-1.4
		c1.3-0.3,2.7-0.6,4-0.9h0c2.7-0.5,5.2-0.9,7.6-1.2h0c1.9-0.2,3.8-0.4,5.4-0.5c3.7-0.2,6.6-0.2,7.8-0.2
		C138.6,4.7,153.5,9.4,146.8,18.6z"/>
	<path class="st3" d="M146.8,18.6l-0.5-0.4c-1.1,1.5-2.2,2.4-3.4,3c-1.2,0.5-2.5,0.7-4,0.7c-3.2,0-7.2-0.9-12.3-0.9
		c-4.1,0-8.8,0.6-14.4,2.8l0,0c-7.9,3.1-12.8,7.2-16.3,10.4c-1.8,1.6-3.2,3.1-4.4,4.1c-0.6,0.5-1.2,0.9-1.8,1.1
		c-0.6,0.3-1.1,0.4-1.7,0.4c-0.5,0-1.1-0.1-1.7-0.4l-0.2-0.1l0.2,0.1c-0.6-0.2-1.1-0.8-1.6-1.5c-0.7-1.1-1.1-2.6-1.4-3.8
		C83.1,33.6,83,33,83,32.7c0-0.2,0-0.3-0.1-0.4l0-0.1l0,0l-0.7,0.1l0.7,0c0.2-4.2,1.4-7.7,3.3-10.6c1.9-3,4.4-5.4,7.4-7.3l0,0
		c0.7-0.5,1.5-1,2.3-1.4l0,0l0,0c1.4-0.8,2.9-1.5,4.4-2.1l-0.3-0.6v0.7h0h0.1l0.1,0c1-0.4,2-0.8,3.1-1.2l-0.2-0.6v0.7h0h0.1l0.1,0
		c1.6-0.5,3.2-1,4.8-1.4l0,0c1.3-0.3,2.7-0.6,4-0.9L112,6.6v0.7h0h0.1l0.1,0c2.6-0.5,5.2-0.9,7.6-1.2l-0.1-0.7v0.7h0h0l0,0
		c1.9-0.2,3.7-0.4,5.4-0.5l0,0c3.4-0.2,6-0.2,7.4-0.2c0.1,0,0.3,0,0.4,0c1.1,0,2.7,0.2,4.3,0.6c2.5,0.6,5.2,1.6,7.3,3
		c1,0.7,1.9,1.5,2.5,2.4c0.6,0.9,0.9,1.8,0.9,2.8c0,1.2-0.4,2.5-1.6,4.1l0,0L146.8,18.6l0.5,0.4c1.2-1.7,1.8-3.4,1.8-4.9
		c0-1.8-0.8-3.3-2-4.6c-1.8-1.9-4.4-3.2-7.1-4.1c-2.7-0.9-5.4-1.4-7.3-1.4c-0.1,0-0.2,0-0.4,0c-1.4,0-4,0-7.4,0.2l0,0l0,0
		c-1.7,0.1-3.5,0.2-5.4,0.5l0.1,0.7V4.7h0h0l0,0c-2.4,0.3-5,0.6-7.7,1.2l0.1,0.6V5.9h0h-0.1l-0.1,0c-1.3,0.3-2.7,0.6-4,0.9l0,0
		c-1.7,0.4-3.3,0.9-5,1.5l0.2,0.6V8.3h0h-0.1l-0.1,0c-1.1,0.4-2.1,0.8-3.1,1.2l0.3,0.6V9.4h0h-0.1l-0.1,0.1
		c-1.6,0.7-3.1,1.4-4.5,2.2l0,0l0,0c-0.8,0.4-1.6,0.9-2.4,1.4l0,0l0,0c-3.1,2.1-5.8,4.6-7.8,7.7c-2,3.1-3.2,6.9-3.5,11.3l0,0.1
		l0,0.1c0,0,0.2,1.7,0.7,3.6c0.3,0.9,0.7,1.9,1.2,2.8c0.5,0.9,1.2,1.6,2.2,2l0.2,0.1l-0.2-0.1c0.8,0.3,1.5,0.5,2.2,0.5
		c0.8,0,1.5-0.2,2.2-0.5c1.2-0.6,2.4-1.5,3.7-2.6c3.8-3.5,8.7-9,18.8-13l0,0c5.4-2.1,10-2.7,13.9-2.7c4.9,0,8.9,0.9,12.3,0.9
		c1.6,0,3.1-0.2,4.6-0.9c1.4-0.7,2.7-1.7,3.9-3.4l0,0L146.8,18.6z"/>
	<path class="st6" d="M109.3,11.6v0.9c0,0.6-0.5,1.2-1.1,1.3c-0.6,0.1-1.2,0.2-1.8,0.3h0c-0.7,0.1-1.5,0.3-2.3,0.5
		c-0.9,0.2-1.9,0.5-2.8,0.8h0c-0.6,0.2-1.2,0.4-1.8,0.7h0c-0.9,0.4-1.7,0.8-2.5,1.2c-0.4,0.3-0.9,0.5-1.3,0.8
		c-2.4,1.6-4.4,3.7-5.4,6.5c-0.2,0.5-0.7,0.8-1.2,0.8c-0.9,0-1.5-0.8-1.3-1.6c0.9-3.2,3-5.6,5.7-7.4c0.4-0.3,0.9-0.6,1.3-0.8
		c0.8-0.5,1.7-0.9,2.5-1.2h0c0.6-0.2,1.2-0.5,1.8-0.7h0c0.9-0.3,1.8-0.6,2.8-0.8c0.8-0.2,1.5-0.4,2.3-0.5h0c1.5-0.3,3-0.5,4.3-0.7h0
		C108.9,11.7,109.1,11.6,109.3,11.6z"/>
</g>
</svg>
