<?xml version="1.0" encoding="utf-8"?>
<!-- Generator: Adobe Illustrator 22.0.1, SVG Export Plug-In . SVG Version: 6.00 Build 0)  -->
<svg version="1.1" id="Layer_1" xmlns="http://www.w3.org/2000/svg" xmlns:xlink="http://www.w3.org/1999/xlink" x="0px" y="0px"
	 viewBox="0 0 186 56.2" style="enable-background:new 0 0 186 56.2;" xml:space="preserve">
<style type="text/css">
	.st0{fill:#EDEDED;stroke:#28373A;stroke-width:2;stroke-miterlimit:10;}
	.st1{fill:#D8D8D8;}
	.st2{fill:#DAEDF1;}
	.st3{fill:#28373A;}
	.st4{fill:#C6DDE5;}
	.st5{fill:#F7A7A9;}
	.st6{fill:#FCDCDC;}
	.st7{fill:#EF4856;}
</style>
<g id="plate_9_">
	<path class="st0" d="M185,35.9c0,3.2-6.5,6.1-17.6,8.5c-16.7,3.6-43.8,6-74.4,6c-30.6,0-57.7-2.4-74.4-6C7.5,42.1,1,39.1,1,35.9
		c0-8,41.2-14.6,92-14.6S185,27.9,185,35.9z"/>
	<path class="st0" d="M167.4,44.5c-0.1,2.9-1.3,5.5-3.3,7.5c-2,2-4.8,3.3-7.8,3.3H29.6c-6,0-10.9-4.8-11.1-10.7
		c16.7,3.6,43.8,6,74.4,6C123.6,50.5,150.7,48.1,167.4,44.5z"/>
	<ellipse class="st1" cx="93" cy="37" rx="56" ry="6"/>
</g>
<g>
	<path class="st2" d="M93.6,36.2H56.3c-6.8,0-12.3-5.6-12.3-12.3v-1.9c0-6.8,5.6-12.3,12.3-12.3h37.3c6.8,0,12.3,5.6,12.3,12.3v1.9
		C105.9,30.7,100.4,36.2,93.6,36.2z"/>
	<path class="st3" d="M93.6,36.2v-0.7H56.3c-3.2,0-6.1-1.3-8.2-3.4c-2.1-2.1-3.4-5-3.4-8.2v-1.9c0-3.2,1.3-6.1,3.4-8.2
		c2.1-2.1,5-3.4,8.2-3.4h37.3c3.2,0,6.1,1.3,8.2,3.4c2.1,2.1,3.4,5,3.4,8.2v1.9c0,3.2-1.3,6.1-3.4,8.2c-2.1,2.1-5,3.4-8.2,3.4V36.2
		v0.7c7.2,0,13-5.8,13-13v-1.9c0-7.2-5.8-13-13-13H56.3c-7.2,0-13,5.8-13,13v1.9c0,7.2,5.8,13,13,13h37.3V36.2z"/>
	<path class="st4" d="M102,21.2c0.6,0,1.1,0.5,1,1.2c-0.7,6.2-5.9,11-12.3,11H76c-0.6,0-1-0.5-1-1c0-0.6,0.5-1,1-1h12.8
		c5.8,0,10.6-4,12-9.3c0.1-0.5,0.5-0.8,1-0.8H102z"/>
	<path class="st5" d="M105.3,14.6c-6.7,9.3-15.6-1.5-34.4,5.8C53.4,27.1,51.2,38.8,44.4,36c-3-1.3-3.7-7.9-3.7-7.9
		c0.5-8.6,4.9-14.4,11-18.5c0.7-0.5,1.5-1,2.3-1.4c1.4-0.8,2.9-1.5,4.4-2.2h0c1-0.4,2-0.8,3.1-1.2h0c1.6-0.6,3.3-1,4.9-1.4
		c1.3-0.3,2.7-0.6,4-0.9h0C73.1,2,75.6,1.6,78,1.3h0C80,1.1,81.8,1,83.5,0.9c3.7-0.2,6.6-0.2,7.8-0.2C97,0.7,111.9,5.3,105.3,14.6z"
		/>
	<path class="st3" d="M105.3,14.6l-0.5-0.4c-1.1,1.5-2.2,2.4-3.4,3c-1.2,0.5-2.5,0.7-4,0.7c-3.2,0-7.2-0.9-12.3-0.9
		c-4.1,0-8.8,0.6-14.4,2.8c-7.9,3.1-12.8,7.2-16.3,10.4c-1.8,1.6-3.2,3.1-4.4,4.1c-0.6,0.5-1.2,0.9-1.8,1.1
		c-0.6,0.3-1.1,0.4-1.7,0.4c-0.5,0-1.1-0.1-1.7-0.4l0,0c-0.6-0.2-1.1-0.8-1.6-1.5c-0.7-1.1-1.1-2.6-1.4-3.8
		c-0.1-0.6-0.2-1.1-0.3-1.5c0-0.2,0-0.3-0.1-0.4l0-0.1l0,0l-0.7,0.1l0.7,0c0.2-4.2,1.4-7.7,3.3-10.6c1.9-3,4.4-5.4,7.4-7.3l0,0l0,0
		c0.7-0.5,1.5-1,2.3-1.4l0,0c1.4-0.8,2.9-1.5,4.4-2.1L58.4,6v0.7h0h0.1l0.1,0c1-0.4,2-0.8,3.1-1.2l-0.2-0.6v0.7h0h0.1l0.1,0
		c1.6-0.5,3.2-1,4.8-1.4l0,0l0,0c1.3-0.3,2.7-0.6,4-0.9l-0.1-0.6v0.7h0h0.1l0.1,0c2.6-0.5,5.2-0.9,7.6-1.2L78,1.3V2h0h0l0,0
		c1.9-0.2,3.7-0.4,5.4-0.5l0,0c3.4-0.2,6-0.2,7.4-0.2c0.1,0,0.3,0,0.4,0c1.1,0,2.7,0.2,4.3,0.6c2.5,0.6,5.2,1.6,7.3,3
		c1,0.7,1.9,1.5,2.5,2.4c0.6,0.9,0.9,1.8,0.9,2.8c0,1.2-0.4,2.5-1.6,4.1l0,0L105.3,14.6l0.5,0.4c1.2-1.7,1.8-3.4,1.8-4.9
		c0-1.8-0.8-3.3-2-4.6c-1.8-1.9-4.4-3.2-7.1-4.1C95.8,0.5,93.1,0,91.2,0c-0.1,0-0.2,0-0.4,0c-1.4,0-4,0-7.4,0.2l0,0
		c-1.7,0.1-3.5,0.2-5.4,0.5l0.1,0.7V0.7h0h0l0,0c-2.4,0.3-5,0.6-7.7,1.2l0.1,0.6V1.8h0h-0.1l-0.1,0c-1.3,0.3-2.7,0.6-4,0.9l0,0
		c-1.7,0.4-3.3,0.9-4.9,1.5l0.2,0.6V4.2h0h-0.1l-0.1,0c-1.1,0.4-2.1,0.8-3.1,1.2L58.4,6V5.3h0h-0.1l-0.1,0.1
		c-1.6,0.7-3.1,1.4-4.5,2.2l0,0C52.8,8,52,8.5,51.3,9l0,0c-3.1,2.1-5.8,4.6-7.8,7.7c-2,3.1-3.2,6.9-3.5,11.3l0,0.1l0,0.1
		c0,0,0.2,1.7,0.7,3.6c0.3,0.9,0.7,1.9,1.2,2.8c0.5,0.9,1.2,1.6,2.2,2l0.1,0l-0.1,0c0.8,0.3,1.5,0.5,2.2,0.5c0.8,0,1.5-0.2,2.2-0.5
		c1.2-0.6,2.4-1.5,3.7-2.6c3.8-3.5,8.7-9,18.8-13c5.4-2.1,10-2.7,13.9-2.7c4.9,0,8.9,0.9,12.3,0.9c1.6,0,3.1-0.2,4.6-0.9
		c1.4-0.7,2.7-1.7,3.9-3.4l0.1-0.1l-0.1,0.1L105.3,14.6z"/>
	<path class="st6" d="M67.8,7.5v0.9c0,0.6-0.5,1.2-1.1,1.3c-0.6,0.1-1.2,0.2-1.7,0.3h0c-0.8,0.1-1.5,0.3-2.3,0.5
		c-0.9,0.2-1.9,0.5-2.8,0.8h0c-0.6,0.2-1.2,0.4-1.8,0.7h0c-0.9,0.4-1.7,0.8-2.5,1.2c-0.4,0.3-0.9,0.5-1.3,0.8
		c-2.4,1.6-4.4,3.7-5.4,6.5c-0.2,0.5-0.7,0.8-1.2,0.8c-0.9,0-1.5-0.8-1.3-1.6c0.9-3.2,3-5.6,5.7-7.4c0.4-0.3,0.9-0.6,1.3-0.8
		c0.8-0.5,1.7-0.9,2.5-1.2h0c0.6-0.2,1.2-0.5,1.8-0.7h0c0.9-0.3,1.8-0.6,2.8-0.8c0.8-0.2,1.5-0.4,2.3-0.5h0c1.5-0.3,3-0.5,4.3-0.7h0
		C67.3,7.6,67.6,7.6,67.8,7.5z"/>
	<path class="st7" d="M104.2,14.4c-6.6,8.8-15.3-1.5-33.8,5.5c-17.2,6.5-19.3,17.6-26,14.9c-1.1-0.4-1.3-2.3-1.8-3.5
		c0.3,0.3,1,1,1.4,1.2c6.7,2.7,7.8-8.2,25-14.7c18.5-7,27.2,3.3,33.8-5.5c1.8-2.4,1.9-4.2,1.2-5.9C106.1,8.3,106.7,11,104.2,14.4z"
		/>
</g>
<g>
	<path class="st2" d="M134.4,41H97.1c-6.8,0-12.3-5.6-12.3-12.3v-1.9c0-6.8,5.6-12.3,12.3-12.3h37.3c6.8,0,12.3,5.6,12.3,12.3v1.9
		C146.7,35.4,141.1,41,134.4,41z"/>
	<path class="st3" d="M134.4,41v-0.7H97.1c-3.2,0-6.1-1.3-8.2-3.4c-2.1-2.1-3.4-5-3.4-8.2v-1.9c0-3.2,1.3-6.1,3.4-8.2
		c2.1-2.1,5-3.4,8.2-3.4h37.3c3.2,0,6.1,1.3,8.2,3.4c2.1,2.1,3.4,5,3.4,8.2v1.9c0,3.2-1.3,6.1-3.4,8.2c-2.1,2.1-5,3.4-8.2,3.4V41
		v0.7c7.2,0,13-5.8,13-13v-1.9c0-7.2-5.8-13-13-13H97.1c-7.2,0-13,5.8-13,13v1.9c0,7.2,5.8,13,13,13h37.3V41z"/>
	<path class="st4" d="M142.7,25.9c0.6,0,1.1,0.5,1,1.2c-0.7,6.2-5.9,11-12.3,11h-14.7c-0.6,0-1-0.5-1-1c0-0.6,0.5-1,1-1h12.8
		c5.8,0,10.6-4,12-9.3c0.1-0.5,0.5-0.8,1-0.8H142.7z"/>
	<path class="st5" d="M146,19.3c-6.7,9.3-15.6-1.5-34.4,5.8c-17.5,6.8-19.7,18.4-26.5,15.6c-3-1.3-3.7-7.9-3.7-7.9
		c0.5-8.6,4.9-14.4,11-18.5c0.7-0.5,1.5-1,2.3-1.4c1.4-0.8,2.9-1.5,4.4-2.2h0c1-0.4,2-0.8,3.1-1.2h0c1.6-0.6,3.3-1,4.9-1.4
		c1.3-0.3,2.7-0.6,4-0.9h0c2.7-0.5,5.2-0.9,7.6-1.2h0c1.9-0.2,3.8-0.4,5.4-0.5c3.7-0.2,6.6-0.2,7.8-0.2
		C137.8,5.4,152.7,10.1,146,19.3z"/>
	<path class="st3" d="M146,19.3l-0.5-0.4c-1.1,1.5-2.2,2.4-3.4,3c-1.2,0.5-2.5,0.7-4,0.7c-3.2,0-7.2-0.9-12.3-0.9
		c-4.1,0-8.8,0.6-14.4,2.8c-7.9,3.1-12.8,7.2-16.3,10.4c-1.8,1.6-3.2,3.1-4.4,4.1c-0.6,0.5-1.2,0.9-1.8,1.1
		c-0.6,0.3-1.1,0.4-1.7,0.4c-0.5,0-1.1-0.1-1.7-0.4l0,0c-0.6-0.2-1.1-0.8-1.6-1.5c-0.7-1.1-1.1-2.6-1.4-3.8
		c-0.1-0.6-0.2-1.1-0.3-1.5c0-0.2,0-0.3-0.1-0.4l0-0.1l0,0l-0.7,0.1l0.7,0c0.2-4.2,1.4-7.7,3.3-10.6c1.9-3,4.4-5.4,7.4-7.3l0,0l0,0
		c0.7-0.5,1.5-1,2.3-1.4l0,0c1.4-0.8,2.9-1.5,4.4-2.1l-0.3-0.6v0.7h0h0.1l0.1,0c1-0.4,2-0.8,3.1-1.2l-0.2-0.6v0.7h0h0.1l0.1,0
		c1.6-0.5,3.2-1,4.8-1.4l0,0l0,0c1.3-0.3,2.7-0.6,4-0.9l-0.1-0.6v0.7h0h0.1l0.1,0c2.6-0.5,5.2-0.9,7.6-1.2l-0.1-0.7v0.7h0h0l0,0
		c1.9-0.2,3.7-0.4,5.4-0.5l0,0c3.4-0.2,6-0.2,7.4-0.2c0.1,0,0.3,0,0.4,0c1.1,0,2.7,0.2,4.3,0.6c2.5,0.6,5.2,1.6,7.3,3
		c1,0.7,1.9,1.5,2.5,2.4c0.6,0.9,0.9,1.8,0.9,2.8c0,1.2-0.4,2.5-1.6,4.1l0,0L146,19.3l0.5,0.4c1.2-1.7,1.8-3.4,1.8-4.9
		c0-1.8-0.8-3.3-2-4.6c-1.8-1.9-4.4-3.2-7.1-4.1c-2.7-0.9-5.4-1.4-7.3-1.4c-0.1,0-0.2,0-0.4,0c-1.4,0-4,0-7.4,0.2l0,0
		c-1.7,0.1-3.5,0.2-5.4,0.5l0.1,0.7V5.4h0h0l0,0c-2.4,0.3-5,0.6-7.7,1.2l0.1,0.6V6.6h0h-0.1l-0.1,0c-1.3,0.3-2.7,0.6-4,0.9l0,0
		c-1.7,0.4-3.3,0.9-4.9,1.5l0.2,0.6V8.9h0h-0.1L102,9c-1.1,0.4-2.1,0.8-3.1,1.2l0.3,0.6v-0.7h0H99l-0.1,0.1
		c-1.6,0.7-3.1,1.4-4.5,2.2l0,0c-0.8,0.4-1.6,0.9-2.4,1.4l0,0c-3.1,2.1-5.8,4.6-7.8,7.7c-2,3.1-3.2,6.9-3.5,11.3l0,0.1l0,0.1
		c0,0,0.2,1.7,0.7,3.6c0.3,0.9,0.7,1.9,1.2,2.8c0.5,0.9,1.2,1.6,2.2,2l0.1,0l-0.1,0c0.8,0.3,1.5,0.5,2.2,0.5c0.8,0,1.5-0.2,2.2-0.5
		c1.2-0.6,2.4-1.5,3.7-2.6c3.8-3.5,8.7-9,18.8-13c5.4-2.1,10-2.7,13.9-2.7c4.9,0,8.9,0.9,12.3,0.9c1.6,0,3.1-0.2,4.6-0.9
		c1.4-0.7,2.7-1.7,3.9-3.4l0.1-0.1l-0.1,0.1L146,19.3z"/>
	<path class="st6" d="M108.5,12.3v0.9c0,0.6-0.5,1.2-1.1,1.3c-0.6,0.1-1.2,0.2-1.7,0.3h0c-0.8,0.1-1.5,0.3-2.3,0.5
		c-0.9,0.2-1.9,0.5-2.8,0.8h0c-0.6,0.2-1.2,0.4-1.8,0.7h0c-0.9,0.4-1.7,0.8-2.5,1.2c-0.4,0.3-0.9,0.5-1.3,0.8
		c-2.4,1.6-4.4,3.7-5.4,6.5c-0.2,0.5-0.7,0.8-1.2,0.8c-0.9,0-1.5-0.8-1.3-1.6c0.9-3.2,3-5.6,5.7-7.4c0.4-0.3,0.9-0.6,1.3-0.8
		c0.8-0.5,1.7-0.9,2.5-1.2h0c0.6-0.2,1.2-0.5,1.8-0.7h0c0.9-0.3,1.8-0.6,2.8-0.8c0.8-0.2,1.5-0.4,2.3-0.5h0c1.5-0.3,3-0.5,4.3-0.7h0
		C108.1,12.4,108.3,12.3,108.5,12.3z"/>
	<path class="st7" d="M144.9,19.1c-6.6,8.8-15.3-1.5-33.8,5.5c-17.2,6.5-19.3,17.6-26,14.9c-1.1-0.4-1.3-2.3-1.8-3.5
		c0.3,0.3,1,1,1.4,1.2c6.7,2.7,7.8-8.2,25-14.7c18.5-7,27.2,3.3,33.8-5.5c1.8-2.4,1.9-4.2,1.2-5.9C146.9,13,147.5,15.7,144.9,19.1z"
		/>
</g>
</svg>
