<?xml version="1.0" encoding="utf-8"?>
<!-- Generator: Adobe Illustrator 22.0.1, SVG Export Plug-In . SVG Version: 6.00 Build 0)  -->
<svg version="1.1" id="Layer_1" xmlns="http://www.w3.org/2000/svg" xmlns:xlink="http://www.w3.org/1999/xlink" x="0px" y="0px"
	 viewBox="0 0 186 53.6" style="enable-background:new 0 0 186 53.6;" xml:space="preserve">
<style type="text/css">
	.st0{fill:#EDEDED;stroke:#28373A;stroke-width:2;stroke-miterlimit:10;}
	.st1{fill:#D8D8D8;}
	.st2{fill:#DAEDF1;}
	.st3{fill:#28373A;}
	.st4{fill:#C6DDE5;}
	.st5{fill:#EF4923;}
	.st6{fill:#F26235;}
</style>
<g id="plate_1_">
	<path class="st0" d="M185,33.3c0,3.2-6.5,6.1-17.6,8.5c-16.7,3.6-43.8,6-74.4,6c-30.6,0-57.7-2.4-74.4-6C7.5,39.4,1,36.5,1,33.3
		c0-8,41.2-14.6,92-14.6S185,25.2,185,33.3z"/>
	<path class="st0" d="M167.4,41.8c-0.1,2.9-1.3,5.5-3.3,7.5c-2,2-4.8,3.3-7.8,3.3H29.6c-6,0-10.9-4.8-11.1-10.7
		c16.7,3.6,43.8,6,74.4,6C123.6,47.8,150.7,45.5,167.4,41.8z"/>
	<ellipse class="st1" cx="93" cy="34.4" rx="56" ry="6"/>
</g>
<g>
	<path class="st2" d="M95,36.2H57.7c-6.8,0-12.3-5.6-12.3-12.3v-1.9c0-6.8,5.6-12.3,12.3-12.3H95c6.8,0,12.3,5.6,12.3,12.3v1.9
		C107.3,30.7,101.7,36.2,95,36.2z"/>
	<path class="st3" d="M95,36.2v-0.7H57.7c-3.2,0-6.1-1.3-8.2-3.4c-2.1-2.1-3.4-5-3.4-8.2v-1.9c0-3.2,1.3-6.1,3.4-8.2
		c2.1-2.1,5-3.4,8.2-3.4H95c3.2,0,6.1,1.3,8.2,3.4c2.1,2.1,3.4,5,3.4,8.2v1.9c0,3.2-1.3,6.1-3.4,8.2c-2.1,2.1-5,3.4-8.2,3.4V36.2
		v0.7c7.2,0,13-5.8,13-13v-1.9c0-7.2-5.8-13-13-13H57.7c-7.2,0-13,5.8-13,13v1.9c0,7.2,5.8,13,13,13H95V36.2z"/>
	<path class="st4" d="M103.3,21.2c0.6,0,1.1,0.5,1,1.2c-0.7,6.2-5.9,11-12.3,11H77.3c-0.6,0-1-0.5-1-1c0-0.6,0.5-1,1-1h12.8
		c5.8,0,10.6-4,12-9.3c0.1-0.5,0.5-0.8,1-0.8H103.3z"/>
	<path class="st5" d="M106.6,14.6c-6.7,9.3-15.6-1.5-34.4,5.8C54.8,27.1,52.5,38.8,45.8,36c-3-1.3-3.7-7.9-3.7-7.9
		c0.5-8.6,4.9-14.4,11-18.5c0.7-0.5,1.5-1,2.3-1.4c1.4-0.8,2.9-1.5,4.4-2.2h0c1-0.4,2-0.8,3.1-1.2h0c1.6-0.6,3.3-1,4.9-1.4
		c1.3-0.3,2.7-0.6,4-0.9h0C74.4,2,77,1.6,79.4,1.3h0c1.9-0.2,3.8-0.4,5.4-0.5c3.7-0.2,6.6-0.2,7.8-0.2
		C98.4,0.7,113.3,5.3,106.6,14.6z"/>
	<path class="st3" d="M106.6,14.6l-0.5-0.4c-1.1,1.5-2.2,2.4-3.4,3c-1.2,0.5-2.5,0.7-4,0.7c-3.2,0-7.2-0.9-12.3-0.9
		c-4.1,0-8.8,0.6-14.4,2.8l0,0c-7.9,3.1-12.8,7.2-16.3,10.4c-1.8,1.6-3.2,3.1-4.4,4.1c-0.6,0.5-1.2,0.9-1.8,1.1
		c-0.6,0.3-1.1,0.4-1.7,0.4c-0.5,0-1.1-0.1-1.7-0.4l0,0c-0.6-0.2-1.1-0.8-1.6-1.5c-0.7-1.1-1.1-2.6-1.4-3.8
		c-0.1-0.6-0.2-1.1-0.3-1.5c0-0.2,0-0.3-0.1-0.4l0-0.1l0,0L42,28.1l0.7,0c0.2-4.2,1.4-7.7,3.3-10.6c1.9-3,4.4-5.4,7.4-7.3l0,0
		c0.7-0.5,1.5-1,2.3-1.4l0,0C57,8,58.5,7.3,60,6.6L59.8,6v0.7h0h0.1l0.1,0c1-0.4,2-0.8,3.1-1.2l-0.2-0.6v0.7h0H63l0.1,0
		c1.6-0.5,3.2-1,4.8-1.4l0,0c1.3-0.3,2.7-0.6,4-0.9l-0.1-0.6v0.7h0h0.1l0.1,0c2.6-0.5,5.2-0.9,7.6-1.2l-0.1-0.7V2h0h0l0,0
		c1.9-0.2,3.7-0.4,5.4-0.5l0,0c3.4-0.2,6-0.2,7.4-0.2c0.1,0,0.3,0,0.4,0c1.1,0,2.7,0.2,4.3,0.6c2.5,0.6,5.2,1.6,7.3,3
		c1,0.7,1.9,1.5,2.5,2.4c0.6,0.9,0.9,1.8,0.9,2.8c0,1.2-0.4,2.5-1.6,4.1l-0.1,0.1l0.1-0.1L106.6,14.6l0.5,0.4
		c1.2-1.7,1.8-3.4,1.8-4.9c0-1.8-0.8-3.3-2-4.6c-1.8-1.9-4.4-3.2-7.1-4.1C97.2,0.5,94.5,0,92.6,0c-0.1,0-0.2,0-0.4,0
		c-1.4,0-4,0-7.4,0.2l0,0l0,0c-1.7,0.1-3.5,0.2-5.4,0.5l0.1,0.7V0.7h0h0l0,0c-2.4,0.3-5,0.6-7.7,1.2l0.1,0.6V1.8h0h-0.1l-0.1,0
		c-1.3,0.3-2.7,0.6-4,0.9l0,0c-1.7,0.4-3.3,0.9-5,1.5l0.2,0.6V4.2h0h-0.1l-0.1,0c-1.1,0.4-2.1,0.8-3.1,1.2L59.8,6V5.3h0h-0.1
		l-0.1,0.1c-1.6,0.7-3.1,1.4-4.5,2.2l0,0C54.2,8,53.4,8.5,52.6,9l0,0c-3.1,2.1-5.8,4.6-7.8,7.7c-2,3.1-3.2,6.9-3.5,11.3l0,0.1l0,0.1
		c0,0,0.2,1.7,0.7,3.6c0.3,0.9,0.7,1.9,1.2,2.8c0.5,0.9,1.2,1.6,2.2,2l0,0c0.8,0.3,1.5,0.5,2.2,0.5c0.8,0,1.5-0.2,2.2-0.5
		c1.2-0.6,2.4-1.5,3.7-2.6c3.8-3.5,8.7-9,18.8-13l0.2-0.1L72.5,21c5.4-2.1,10-2.7,13.9-2.7c4.9,0,8.9,0.9,12.3,0.9
		c1.6,0,3.1-0.2,4.6-0.9c1.4-0.7,2.7-1.7,3.9-3.4l0,0L106.6,14.6z"/>
	<path class="st6" d="M63.7,13.3c-0.1,0.4-0.5,0.7-1,0.7c-0.1,0-0.2,0-0.3,0l-9.8-3c0.7-0.5,1.5-1,2.3-1.4l8.1,2.5
		C63.6,12.2,63.9,12.8,63.7,13.3z"/>
	<path class="st6" d="M72.6,10.4c-0.1,0.4-0.5,0.7-1,0.7c-0.1,0-0.2,0-0.3,0l-12-3.7c1-0.4,2-0.8,3.1-1.2h0L72,9.2
		C72.5,9.3,72.8,9.9,72.6,10.4z"/>
	<path class="st6" d="M79.8,7.5c-0.1,0.4-0.5,0.7-1,0.7c-0.1,0-0.2,0-0.3,0L67.4,4.8c1.3-0.3,2.7-0.6,4-0.9h0l7.7,2.4
		C79.6,6.4,79.9,7,79.8,7.5z"/>
	<path class="st6" d="M90.8,5.3c-0.1,0.4-0.5,0.7-1,0.7c-0.1,0-0.2,0-0.3,0L79.1,2.7c1.9-0.2,3.8-0.4,5.4-0.5L90.2,4
		C90.7,4.2,91,4.8,90.8,5.3z"/>
	<path class="st3" d="M65.6,12.5c-0.1,0.4-0.5,0.7-1,0.7c-0.1,0-0.2,0-0.3,0l-9.8-3c0.7-0.5,1.5-1,2.3-1.4l8.1,2.5
		C65.5,11.4,65.8,11.9,65.6,12.5z"/>
	<path class="st3" d="M74.5,9.6c-0.1,0.4-0.5,0.7-1,0.7c-0.1,0-0.2,0-0.3,0l-12-3.7c1-0.4,2-0.8,3.1-1.2h0l9.4,2.9
		C74.4,8.5,74.7,9,74.5,9.6z"/>
	<path class="st3" d="M81.6,6.7c-0.1,0.4-0.5,0.7-1,0.7c-0.1,0-0.2,0-0.3,0L69.3,3.9c1.3-0.3,2.7-0.6,4-0.9h0l7.7,2.4
		C81.5,5.6,81.8,6.1,81.6,6.7z"/>
	<path class="st3" d="M92.7,4.4c-0.1,0.4-0.5,0.7-1,0.7c-0.1,0-0.2,0-0.3,0L80.9,1.9c1.9-0.2,3.8-0.4,5.4-0.5L92,3.2
		C92.5,3.3,92.8,3.9,92.7,4.4z"/>
</g>
<g>
	<path class="st2" d="M141,39.7h-37.3c-6.8,0-12.3-5.6-12.3-12.3v-1.9c0-6.8,5.6-12.3,12.3-12.3H141c6.8,0,12.3,5.6,12.3,12.3v1.9
		C153.3,34.2,147.8,39.7,141,39.7z"/>
	<path class="st3" d="M141,39.7v-0.7h-37.3c-3.2,0-6.1-1.3-8.2-3.4c-2.1-2.1-3.4-5-3.4-8.2v-1.9c0-3.2,1.3-6.1,3.4-8.2
		c2.1-2.1,5-3.4,8.2-3.4H141c3.2,0,6.1,1.3,8.2,3.4c2.1,2.1,3.4,5,3.4,8.2v1.9c0,3.2-1.3,6.1-3.4,8.2c-2.1,2.1-5,3.4-8.2,3.4V39.7
		v0.7c7.2,0,13-5.8,13-13v-1.9c0-7.2-5.8-13-13-13h-37.3c-7.2,0-13,5.8-13,13v1.9c0,7.2,5.8,13,13,13H141V39.7z"/>
	<path class="st4" d="M149.3,24.7c0.6,0,1.1,0.5,1,1.2c-0.7,6.2-5.9,11-12.3,11h-14.7c-0.6,0-1-0.5-1-1s0.5-1,1-1h12.8
		c5.8,0,10.6-4,12-9.3c0.1-0.5,0.5-0.8,1-0.8H149.3z"/>
	<path class="st5" d="M152.6,18.1c-6.7,9.3-15.6-1.5-34.4,5.8c-17.5,6.8-19.7,18.4-26.5,15.6c-3-1.3-3.7-7.9-3.7-7.9
		C88.5,23,93,17.2,99,13.1c0.7-0.5,1.5-1,2.3-1.4c1.4-0.8,2.9-1.5,4.4-2.2h0c1-0.4,2-0.8,3.1-1.2h0c1.6-0.6,3.3-1,4.9-1.4
		c1.3-0.3,2.7-0.6,4-0.9h0c2.7-0.5,5.2-0.9,7.6-1.2h0c1.9-0.2,3.8-0.4,5.4-0.5c3.7-0.2,6.6-0.2,7.8-0.2
		C144.4,4.2,159.3,8.8,152.6,18.1z"/>
	<path class="st3" d="M152.6,18.1l-0.5-0.4c-1.1,1.5-2.2,2.4-3.4,3c-1.2,0.5-2.5,0.7-4,0.7c-3.2,0-7.2-0.9-12.3-0.9
		c-4.1,0-8.8,0.6-14.4,2.8l0,0c-7.9,3.1-12.8,7.2-16.3,10.4c-1.8,1.6-3.2,3.1-4.4,4.1c-0.6,0.5-1.2,0.9-1.8,1.1
		c-0.6,0.3-1.1,0.4-1.7,0.4c-0.5,0-1.1-0.1-1.7-0.4l0,0c-0.6-0.2-1.1-0.8-1.6-1.5c-0.7-1.1-1.1-2.6-1.4-3.8
		c-0.1-0.6-0.2-1.1-0.3-1.5c0-0.2,0-0.3-0.1-0.4l0-0.1l0,0l-0.7,0.1l0.7,0C89,27.5,90.1,24,92,21c1.9-3,4.4-5.4,7.4-7.3l0,0
		c0.7-0.5,1.5-1,2.3-1.4l0,0c1.4-0.8,2.9-1.5,4.4-2.1l-0.3-0.6v0.7h0h0.1l0.1,0c1-0.4,2-0.8,3.1-1.2l-0.2-0.6V9h0h0.1l0.1,0
		c1.6-0.5,3.2-1,4.8-1.4l0,0c1.3-0.3,2.7-0.6,4-0.9L117.8,6v0.7h0h0.1l0.1,0c2.6-0.5,5.2-0.9,7.6-1.2l-0.1-0.7v0.7h0h0l0,0
		c1.9-0.2,3.7-0.4,5.4-0.5l0,0c3.4-0.2,6-0.2,7.4-0.2c0.1,0,0.3,0,0.4,0c1.1,0,2.7,0.2,4.3,0.6c2.5,0.6,5.2,1.6,7.3,3
		c1,0.7,1.9,1.5,2.5,2.4c0.6,0.9,0.9,1.8,0.9,2.8c0,1.2-0.4,2.5-1.6,4.1l-0.1,0.1l0.1-0.1L152.6,18.1l0.5,0.4
		c1.2-1.7,1.8-3.4,1.8-4.9c0-1.8-0.8-3.3-2-4.6c-1.8-1.9-4.4-3.2-7.1-4.1c-2.7-0.9-5.4-1.4-7.3-1.4c-0.1,0-0.2,0-0.4,0
		c-1.4,0-4,0-7.4,0.2l0,0l0,0c-1.7,0.1-3.5,0.2-5.4,0.5l0.1,0.7V4.2h0h0l0,0c-2.4,0.3-5,0.6-7.7,1.2l0.1,0.6V5.4h0h-0.1l-0.1,0
		c-1.3,0.3-2.7,0.6-4,0.9l0,0c-1.7,0.4-3.3,0.9-5,1.5l0.2,0.6V7.7h0h-0.1l-0.1,0c-1.1,0.4-2.1,0.8-3.1,1.2l0.3,0.6V8.9h0h-0.1
		l-0.1,0.1c-1.6,0.7-3.1,1.4-4.5,2.2l0,0c-0.8,0.4-1.6,0.9-2.4,1.4l0,0c-3.1,2.1-5.8,4.6-7.8,7.7c-2,3.1-3.2,6.9-3.5,11.3l0,0.1
		l0,0.1c0,0,0.2,1.7,0.7,3.6c0.3,0.9,0.7,1.9,1.2,2.8c0.5,0.9,1.2,1.6,2.2,2l0,0c0.8,0.3,1.5,0.5,2.2,0.5c0.8,0,1.5-0.2,2.2-0.5
		c1.2-0.6,2.4-1.5,3.7-2.6c3.8-3.5,8.7-9,18.8-13l0.2-0.1l-0.2,0.1c5.4-2.1,10-2.7,13.9-2.7c4.9,0,8.9,0.9,12.3,0.9
		c1.6,0,3.1-0.2,4.6-0.9c1.4-0.7,2.7-1.7,3.9-3.4l0,0L152.6,18.1z"/>
	<path class="st6" d="M109.8,16.9c-0.1,0.4-0.5,0.7-1,0.7c-0.1,0-0.2,0-0.3,0l-9.8-3c0.7-0.5,1.5-1,2.3-1.4l8.1,2.5
		C109.6,15.8,109.9,16.3,109.8,16.9z"/>
	<path class="st6" d="M118.7,14c-0.1,0.4-0.5,0.7-1,0.7c-0.1,0-0.2,0-0.3,0l-12-3.7c1-0.4,2-0.8,3.1-1.2h0l9.4,2.9
		C118.5,12.9,118.8,13.4,118.7,14z"/>
	<path class="st6" d="M125.8,11.1c-0.1,0.4-0.5,0.7-1,0.7c-0.1,0-0.2,0-0.3,0l-11.1-3.4c1.3-0.3,2.7-0.6,4-0.9h0l7.7,2.4
		C125.7,10,126,10.5,125.8,11.1z"/>
	<path class="st6" d="M136.9,8.8c-0.1,0.4-0.5,0.7-1,0.7c-0.1,0-0.2,0-0.3,0l-10.5-3.2c1.9-0.2,3.8-0.4,5.4-0.5l5.7,1.7
		C136.7,7.7,137,8.3,136.9,8.8z"/>
	<path class="st3" d="M111.6,16c-0.1,0.4-0.5,0.7-1,0.7c-0.1,0-0.2,0-0.3,0l-9.8-3c0.7-0.5,1.5-1,2.3-1.4l8.1,2.5
		C111.5,14.9,111.8,15.5,111.6,16z"/>
	<path class="st3" d="M120.5,13.1c-0.1,0.4-0.5,0.7-1,0.7c-0.1,0-0.2,0-0.3,0l-12-3.7c1-0.4,2-0.8,3.1-1.2h0l9.4,2.9
		C120.4,12,120.7,12.6,120.5,13.1z"/>
	<path class="st3" d="M127.6,10.2c-0.1,0.4-0.5,0.7-1,0.7c-0.1,0-0.2,0-0.3,0l-11.1-3.4c1.3-0.3,2.7-0.6,4-0.9h0l7.7,2.4
		C127.5,9.1,127.8,9.7,127.6,10.2z"/>
	<path class="st3" d="M138.7,8c-0.1,0.4-0.5,0.7-1,0.7c-0.1,0-0.2,0-0.3,0l-10.5-3.2c1.9-0.2,3.8-0.4,5.4-0.5l5.7,1.7
		C138.6,6.8,138.9,7.4,138.7,8z"/>
</g>
</svg>
