<?xml version="1.0" encoding="utf-8"?>
<!-- Generator: Adobe Illustrator 22.0.1, SVG Export Plug-In . SVG Version: 6.00 Build 0)  -->
<svg version="1.1" id="Layer_1" xmlns="http://www.w3.org/2000/svg" xmlns:xlink="http://www.w3.org/1999/xlink" x="0px" y="0px"
	 viewBox="0 0 186 53.4" style="enable-background:new 0 0 186 53.4;" xml:space="preserve">
<style type="text/css">
	.st0{fill:#EDEDED;stroke:#28373A;stroke-width:2;stroke-miterlimit:10;}
	.st1{fill:#D8D8D8;}
	.st2{fill:#DAEDF1;}
	.st3{fill:#28373A;}
	.st4{fill:#C6DDE5;}
	.st5{fill:#FAC903;}
	.st6{fill:#5C903F;}
	.st7{fill:#FEE165;}
</style>
<g id="plate_4_">
	<path class="st0" d="M185,33.1c0,3.2-6.5,6.1-17.6,8.5c-16.7,3.6-43.8,6-74.4,6c-30.6,0-57.7-2.4-74.4-6C7.5,39.3,1,36.3,1,33.1
		c0-8,41.2-14.6,92-14.6S185,25.1,185,33.1z"/>
	<path class="st0" d="M167.4,41.7c-0.1,2.9-1.3,5.5-3.3,7.5c-2,2-4.8,3.3-7.8,3.3H29.6c-6,0-10.9-4.8-11.1-10.7
		c16.7,3.6,43.8,6,74.4,6C123.6,47.7,150.7,45.3,167.4,41.7z"/>
	<ellipse class="st1" cx="93" cy="34.2" rx="56" ry="6"/>
</g>
<g>
	<path class="st2" d="M93.2,38.1H55.9c-6.8,0-12.3-5.6-12.3-12.3v-1.9c0-6.8,5.6-12.3,12.3-12.3h37.3c6.8,0,12.3,5.6,12.3,12.3v1.9
		C105.5,32.6,100,38.1,93.2,38.1z"/>
	<path class="st3" d="M93.2,38.1v-0.7H55.9c-3.2,0-6.1-1.3-8.2-3.4c-2.1-2.1-3.4-5-3.4-8.2v-1.9c0-3.2,1.3-6.1,3.4-8.2
		c2.1-2.1,5-3.4,8.2-3.4h37.3c3.2,0,6.1,1.3,8.2,3.4c2.1,2.1,3.4,5,3.4,8.2v1.9c0,3.2-1.3,6.1-3.4,8.2c-2.1,2.1-5,3.4-8.2,3.4V38.1
		v0.7c7.2,0,13-5.8,13-13v-1.9c0-7.2-5.8-13-13-13H55.9c-7.2,0-13,5.8-13,13v1.9c0,7.2,5.8,13,13,13h37.3V38.1z"/>
	<path class="st4" d="M101.5,23.1c0.6,0,1.1,0.5,1,1.2c-0.7,6.2-5.9,11-12.3,11H75.6c-0.6,0-1-0.5-1-1c0-0.6,0.5-1,1-1h12.8
		c5.8,0,10.6-4,12-9.3c0.1-0.5,0.5-0.8,1-0.8H101.5z"/>
	<path class="st5" d="M97.7,0.7H50.8c-4.8,0-8.6,3.9-8.6,8.6V17c0,2.5,2,4.6,4.6,4.6h55c2.5,0,4.6-2,4.6-4.6V9.3
		C106.3,4.5,102.4,0.7,97.7,0.7z"/>
	<path class="st3" d="M97.7,0.7V0H50.8c-5.1,0-9.3,4.1-9.3,9.3V17c0,2.9,2.3,5.2,5.2,5.2h55c2.9,0,5.2-2.3,5.2-5.2V9.3
		c0-5.1-4.1-9.3-9.3-9.3V0.7v0.7c2.2,0,4.2,0.9,5.6,2.3c1.4,1.4,2.3,3.4,2.3,5.6V17c0,1.1-0.4,2-1.1,2.8c-0.7,0.7-1.7,1.1-2.8,1.1
		h-55c-1.1,0-2-0.4-2.8-1.1C43.2,19,42.8,18,42.8,17V9.3c0-2.2,0.9-4.2,2.3-5.6c1.4-1.4,3.4-2.3,5.6-2.3h46.9V0.7z"/>
	<polygon class="st6" points="81,17.6 81,38.1 67.4,38.1 67.4,17.6 67.4,0.7 81,0.7 	"/>
	<polygon class="st3" points="81,17.6 80.3,17.6 80.3,37.5 68.1,37.5 68.1,17.6 68.1,1.3 80.3,1.3 80.3,17.6 81,17.6 81.7,17.6 
		81.7,0 66.8,0 66.8,17.6 66.8,38.8 81.7,38.8 81.7,17.6 	"/>
	<path class="st7" d="M61,3.5L61,3.5c0,0.3-0.2,0.6-0.6,0.6h-7.1c-3.2,0-5.8,2.6-5.8,5.8v1.9c0,0.5-0.4,0.8-0.8,0.8
		s-0.8-0.4-0.8-0.8v-3c0-3.2,2.6-5.8,5.8-5.8h8.8C60.7,3,61,3.2,61,3.5z"/>
</g>
<g>
	<path class="st2" d="M140.2,41.8H103c-6.8,0-12.3-5.6-12.3-12.3v-1.9c0-6.8,5.6-12.3,12.3-12.3h37.3c6.8,0,12.3,5.6,12.3,12.3v1.9
		C152.6,36.2,147,41.8,140.2,41.8z"/>
	<path class="st3" d="M140.2,41.8v-0.7H103c-3.2,0-6.1-1.3-8.2-3.4c-2.1-2.1-3.4-5-3.4-8.2v-1.9c0-3.2,1.3-6.1,3.4-8.2
		c2.1-2.1,5-3.4,8.2-3.4h37.3c3.2,0,6.1,1.3,8.2,3.4c2.1,2.1,3.4,5,3.4,8.2v1.9c0,3.2-1.3,6.1-3.4,8.2c-2.1,2.1-5,3.4-8.2,3.4V41.8
		v0.7c7.2,0,13-5.8,13-13v-1.9c0-7.2-5.8-13-13-13H103c-7.2,0-13,5.8-13,13v1.9c0,7.2,5.8,13,13,13h37.3V41.8z"/>
	<path class="st4" d="M148.6,26.7c0.6,0,1.1,0.5,1,1.2c-0.7,6.2-5.9,11-12.3,11h-14.7c-0.6,0-1-0.5-1-1c0-0.6,0.5-1,1-1h12.8
		c5.8,0,10.6-4,12-9.3c0.1-0.5,0.5-0.8,1-0.8H148.6z"/>
	<path class="st5" d="M144.7,4.3H97.8c-4.8,0-8.6,3.9-8.6,8.6v7.7c0,2.5,2,4.6,4.6,4.6h55c2.5,0,4.6-2,4.6-4.6v-7.7
		C153.3,8.2,149.5,4.3,144.7,4.3z"/>
	<path class="st3" d="M144.7,4.3V3.7H97.8c-5.1,0-9.3,4.1-9.3,9.3v7.7c0,2.9,2.3,5.2,5.2,5.2h55c2.9,0,5.2-2.3,5.2-5.2v-7.7
		c0-5.1-4.1-9.3-9.3-9.3V4.3V5c2.2,0,4.2,0.9,5.6,2.3c1.4,1.4,2.3,3.4,2.3,5.6v7.7c0,1.1-0.4,2-1.1,2.8c-0.7,0.7-1.7,1.1-2.8,1.1
		h-55c-1.1,0-2-0.4-2.8-1.1c-0.7-0.7-1.1-1.7-1.1-2.8v-7.7c0-2.2,0.9-4.2,2.3-5.6C93.6,5.9,95.6,5,97.8,5h46.9V4.3z"/>
	<polygon class="st6" points="128.1,21.3 128.1,41.8 114.5,41.8 114.5,21.3 114.5,4.3 128.1,4.3 	"/>
	<polygon class="st3" points="128.1,21.3 127.4,21.3 127.4,41.1 115.2,41.1 115.2,21.3 115.2,5 127.4,5 127.4,21.3 128.1,21.3 
		128.7,21.3 128.7,3.7 113.8,3.7 113.8,21.3 113.8,42.4 128.7,42.4 128.7,21.3 	"/>
	<path class="st7" d="M108,7.2L108,7.2c0,0.3-0.2,0.6-0.6,0.6h-7.1c-3.2,0-5.8,2.6-5.8,5.8v1.9c0,0.5-0.4,0.8-0.8,0.8
		s-0.8-0.4-0.8-0.8v-3c0-3.2,2.6-5.8,5.8-5.8h8.8C107.8,6.6,108,6.9,108,7.2z"/>
</g>
</svg>
