<?xml version="1.0" encoding="utf-8"?>
<!-- Generator: Adobe Illustrator 22.0.1, SVG Export Plug-In . SVG Version: 6.00 Build 0)  -->
<svg version="1.1" id="Layer_1" xmlns="http://www.w3.org/2000/svg" xmlns:xlink="http://www.w3.org/1999/xlink" x="0px" y="0px"
	 viewBox="0 0 186 56.2" style="enable-background:new 0 0 186 56.2;" xml:space="preserve">
<style type="text/css">
	.st0{fill:#EDEDED;stroke:#28373A;stroke-width:2;stroke-miterlimit:10;}
	.st1{fill:#D8D8D8;}
	.st2{fill:#DAEDF1;}
	.st3{fill:#28373A;}
	.st4{fill:#C6DDE5;}
	.st5{fill:#F4C281;}
	.st6{fill:#E26E3D;}
	.st7{fill:#E26E3C;}
</style>
<g id="plate_3_">
	<path class="st0" d="M185,35.9c0,3.2-6.5,6.1-17.6,8.5c-16.7,3.6-43.8,6-74.4,6c-30.6,0-57.7-2.4-74.4-6C7.5,42,1,39.1,1,35.9
		c0-8,41.2-14.6,92-14.6S185,27.8,185,35.9z"/>
	<path class="st0" d="M167.4,44.4c-0.1,2.9-1.3,5.5-3.3,7.5c-2,2-4.8,3.3-7.8,3.3H29.6c-6,0-10.9-4.8-11.1-10.7
		c16.7,3.6,43.8,6,74.4,6C123.6,50.4,150.7,48.1,167.4,44.4z"/>
	<ellipse class="st1" cx="93" cy="37" rx="56" ry="6"/>
</g>
<g>
	<path class="st2" d="M87.6,35.6H50.3c-6.8,0-12.3-5.6-12.3-12.3v-1.9C37.9,14.5,43.5,9,50.3,9h37.3c6.8,0,12.3,5.6,12.3,12.3v1.9
		C99.9,30.1,94.4,35.6,87.6,35.6z"/>
	<path class="st3" d="M87.6,35.6V35H50.3c-3.2,0-6.1-1.3-8.2-3.4c-2.1-2.1-3.4-5-3.4-8.2v-1.9c0-3.2,1.3-6.1,3.4-8.2
		c2.1-2.1,5-3.4,8.2-3.4h37.3c3.2,0,6.1,1.3,8.2,3.4c2.1,2.1,3.4,5,3.4,8.2v1.9c0,3.2-1.3,6.1-3.4,8.2c-2.1,2.1-5,3.4-8.2,3.4V35.6
		v0.7c7.2,0,13-5.8,13-13v-1.9c0-7.2-5.8-13-13-13H50.3c-7.2,0-13,5.8-13,13v1.9c0,7.2,5.8,13,13,13h37.3V35.6z"/>
	<path class="st4" d="M95.9,20.6c0.6,0,1.1,0.5,1,1.2c-0.7,6.2-5.9,11-12.3,11H69.9c-0.6,0-1-0.5-1-1c0-0.6,0.5-1,1-1h12.8
		c5.8,0,10.6-4,12-9.3c0.1-0.5,0.5-0.8,1-0.8H95.9z"/>
	<path class="st5" d="M31.9,18c9.6-18.1,48.7-22,64.9-12s-1.5,12-1.5,12c-34.9-12-50.2,4.3-50.2,4.3C35.4,30.8,31.9,18,31.9,18z"/>
	<path class="st3" d="M31.9,18l0.6,0.3c3-5.6,8.9-9.9,16.3-12.7c7.3-2.9,16-4.3,24.2-4.3c9.2,0,17.9,1.8,23.5,5.3
		c2.5,1.6,4.2,2.9,5.2,4c0.5,0.6,0.8,1.1,1,1.5c0.2,0.4,0.3,0.8,0.3,1.1c0,0.4-0.1,0.7-0.3,1c-0.3,0.5-0.9,1-1.7,1.4
		c-1.1,0.6-2.6,1-3.8,1.3c-0.6,0.1-1.1,0.2-1.5,0.3c-0.2,0-0.3,0-0.4,0.1l-0.1,0l0,0l0.1,0.7l0.2-0.6C86.1,14.2,78.1,13,71.3,13
		c-18.2,0-26.6,8.8-26.7,8.9l0.5,0.5l-0.4-0.5c-2.4,2.1-4.2,2.7-5.7,2.7c-1.1,0-2-0.4-2.8-1c-1.2-0.9-2.1-2.3-2.7-3.5
		c-0.3-0.6-0.5-1.1-0.6-1.5c-0.1-0.2-0.1-0.4-0.2-0.5l0-0.1l0,0L31.9,18l0.6,0.3L31.9,18l-0.6,0.2c0,0,0.5,1.9,1.7,3.8
		c0.6,0.9,1.4,1.9,2.3,2.6c1,0.7,2.2,1.3,3.6,1.3c1.9,0,4.1-0.9,6.6-3.1l0,0l0,0l0,0c0.2-0.2,8.2-8.5,25.7-8.5
		c6.6,0,14.5,1.2,23.8,4.4l0.1,0l0.1,0c0,0,2.1-0.2,4.3-1c1.1-0.4,2.2-0.9,3.1-1.6c0.4-0.3,0.8-0.8,1.1-1.2c0.3-0.5,0.4-1,0.4-1.6
		c0-0.5-0.1-1.1-0.4-1.7c-0.4-0.9-1.1-1.8-2.2-2.8c-1.1-1-2.6-2.1-4.5-3.3C91.2,1.8,82.3,0,72.9,0c-8.4,0-17.1,1.4-24.6,4.4
		c-7.5,2.9-13.8,7.3-17,13.4L31.2,18l0.1,0.3L31.9,18z"/>
	<path class="st6" d="M62.8,7l0.1,6.2c-6.3,1.2-11.3,3.3-13.5,4.7l2-9.1l-5.7-1.4c2.5-1.4,6-2.4,9.1-3.2L62.8,7z"/>
	<path class="st6" d="M78.8,8.4l-0.7,4.5c-4.1-0.5-8-0.4-11.1-0.2l3.5-5.6l-6-4.8c3.1-0.4,5.7-0.5,8.7-0.4L78.8,8.4z"/>
	<path class="st6" d="M91.4,7.7l-1.1,7.6c-2.8-0.8-5.6-1.3-8-1.9l3-8l-1.7-2.8c1.5,0.3,3.6,0.4,7.3,1.9L91.4,7.7z"/>
	<path class="st7" d="M100.2,8.2c14.1-9.5,17.9,1.5,17.9,1.5C111.2,16.5,100.2,8.2,100.2,8.2z"/>
	<path class="st3" d="M100.2,8.2l0.4,0.5C104.8,6,108,5,110.4,5c1.4,0,2.5,0.3,3.4,0.8c1.4,0.7,2.3,1.7,2.9,2.6
		c0.3,0.4,0.5,0.8,0.6,1.1c0.1,0.1,0.1,0.3,0.1,0.3l0,0.1l0,0l0,0l0.6-0.2l-0.5-0.5c-1.9,1.8-4,2.5-6.2,2.5c-2.7,0-5.4-1-7.4-2
		c-1-0.5-1.9-1-2.5-1.4c-0.3-0.2-0.5-0.3-0.7-0.5c-0.1-0.1-0.1-0.1-0.2-0.1l0,0l0,0L100.2,8.2l0.4,0.5L100.2,8.2l-0.4,0.5
		c0,0,1.4,1.1,3.6,2.1c2.1,1.1,5,2.2,8,2.2c2.5,0,5-0.8,7.2-2.9l0.3-0.3l-0.1-0.4c0-0.1-0.5-1.5-1.8-2.9c-0.6-0.7-1.5-1.4-2.6-2
		c-1.1-0.5-2.4-0.9-4-0.9c-2.7,0-6.2,1.1-10.5,4l-0.8,0.5l0.7,0.6L100.2,8.2z"/>
	<path class="st7" d="M103.2,11c17,1,13.3,12,13.3,12C106.9,24.3,103.2,11,103.2,11z"/>
	<path class="st3" d="M103.2,11l0,0.7c5.8,0.4,9.1,1.9,10.9,3.7c0.9,0.9,1.4,1.8,1.8,2.7c0.3,0.9,0.4,1.8,0.4,2.6
		c0,0.7-0.1,1.2-0.2,1.6c0,0.2-0.1,0.4-0.1,0.5l0,0.1l0,0l0,0l0.2,0.1l-0.2-0.1l0,0l0.2,0.1l-0.2-0.1l0.6,0.2l-0.1-0.7
		c-0.4,0-0.8,0.1-1.1,0.1c-2,0-3.7-0.7-5.2-1.8c-2.2-1.6-3.8-4.1-4.8-6.2c-0.5-1-0.9-2-1.1-2.6c-0.1-0.3-0.2-0.6-0.3-0.8
		c0-0.1-0.1-0.2-0.1-0.2l0-0.1l0,0L103.2,11l0,0.7L103.2,11l-0.6,0.2c0,0,0.9,3.1,2.9,6.2c1,1.6,2.3,3.1,3.9,4.3c1.6,1.2,3.6,2,6,2
		c0.4,0,0.8,0,1.3-0.1l0.4-0.1l0.1-0.4c0,0,0.4-1.1,0.4-2.6c0-0.9-0.1-1.9-0.5-3c-0.6-1.6-1.8-3.3-3.9-4.7c-2.2-1.3-5.3-2.3-9.8-2.6
		l-0.9-0.1l0.2,0.9L103.2,11z"/>
</g>
<g>
	<path class="st2" d="M138.1,43.6h-37.3c-6.8,0-12.3-5.6-12.3-12.3v-1.9c0-6.8,5.6-12.3,12.3-12.3h37.3c6.8,0,12.3,5.6,12.3,12.3
		v1.9C150.5,38.1,144.9,43.6,138.1,43.6z"/>
	<path class="st3" d="M138.1,43.6V43h-37.3c-3.2,0-6.1-1.3-8.2-3.4c-2.1-2.1-3.4-5-3.4-8.2v-1.9c0-3.2,1.3-6.1,3.4-8.2
		c2.1-2.1,5-3.4,8.2-3.4h37.3c3.2,0,6.1,1.3,8.2,3.4c2.1,2.1,3.4,5,3.4,8.2v1.9c0,3.2-1.3,6.1-3.4,8.2c-2.1,2.1-5,3.4-8.2,3.4V43.6
		v0.7c7.2,0,13-5.8,13-13v-1.9c0-7.2-5.8-13-13-13h-37.3c-7.2,0-13,5.8-13,13v1.9c0,7.2,5.8,13,13,13h37.3V43.6z"/>
	<path class="st4" d="M146.5,28.6c0.6,0,1.1,0.5,1,1.2c-0.7,6.2-5.9,11-12.3,11h-14.7c-0.6,0-1-0.5-1-1c0-0.6,0.5-1,1-1h12.8
		c5.8,0,10.6-4,12-9.3c0.1-0.5,0.5-0.8,1-0.8H146.5z"/>
	<path class="st5" d="M82.5,26.1c9.6-18.1,48.7-22,64.9-12s-1.5,12-1.5,12c-34.9-12-50.2,4.3-50.2,4.3C86,38.8,82.5,26.1,82.5,26.1z
		"/>
	<path class="st3" d="M82.5,26.1l0.6,0.3c3-5.6,8.9-9.9,16.3-12.7c7.3-2.9,16-4.3,24.2-4.3c9.2,0,17.9,1.8,23.5,5.3
		c2.5,1.6,4.2,2.9,5.2,4c0.5,0.6,0.8,1.1,1,1.5c0.2,0.4,0.3,0.8,0.3,1.1c0,0.4-0.1,0.7-0.3,1c-0.3,0.5-0.9,1-1.7,1.4
		c-1.1,0.6-2.6,1-3.8,1.3c-0.6,0.1-1.1,0.2-1.5,0.3c-0.2,0-0.3,0-0.4,0.1l-0.1,0l0,0l0.1,0.7l0.2-0.6c-9.5-3.2-17.5-4.4-24.2-4.4
		c-18.2,0-26.6,8.8-26.7,8.9l0.5,0.5l-0.4-0.5c-2.4,2.1-4.2,2.7-5.7,2.7c-1.1,0-2-0.4-2.8-1c-1.2-0.9-2.1-2.3-2.7-3.5
		c-0.3-0.6-0.5-1.1-0.6-1.5c-0.1-0.2-0.1-0.4-0.2-0.5l0-0.1l0,0L82.5,26.1l0.6,0.3L82.5,26.1l-0.6,0.2c0,0,0.5,1.9,1.7,3.8
		c0.6,0.9,1.4,1.9,2.3,2.6c1,0.7,2.2,1.3,3.6,1.3c1.9,0,4.1-0.9,6.6-3.1l0,0l0,0l0,0c0.2-0.2,8.2-8.5,25.7-8.5
		c6.6,0,14.5,1.2,23.8,4.4l0.1,0l0.1,0c0,0,2.1-0.2,4.3-1c1.1-0.4,2.2-0.9,3.1-1.6c0.4-0.3,0.8-0.8,1.1-1.2c0.3-0.5,0.4-1,0.4-1.6
		c0-0.5-0.1-1.1-0.4-1.7c-0.4-0.9-1.1-1.8-2.2-2.8c-1.1-1-2.6-2.1-4.5-3.3c-6-3.7-14.8-5.5-24.2-5.5c-8.4,0-17.1,1.4-24.6,4.4
		c-7.5,2.9-13.8,7.3-17,13.4L81.8,26l0.1,0.3L82.5,26.1z"/>
	<path class="st6" d="M113.4,15l0.1,6.2c-6.3,1.2-11.3,3.3-13.5,4.7l2-9.1l-5.7-1.4c2.5-1.4,6-2.4,9.1-3.2L113.4,15z"/>
	<path class="st6" d="M129.3,16.4l-0.7,4.5c-4.1-0.5-8-0.4-11.1-0.2l3.5-5.6l-6-4.8c3.1-0.4,5.7-0.5,8.7-0.4L129.3,16.4z"/>
	<path class="st6" d="M142,15.7l-1.1,7.6c-2.8-0.8-5.6-1.3-8-1.9l3-8l-1.7-2.8c1.5,0.3,3.6,0.4,7.3,1.9L142,15.7z"/>
	<path class="st7" d="M150.8,16.2c14.1-9.5,17.9,1.5,17.9,1.5C161.7,24.5,150.8,16.2,150.8,16.2z"/>
	<path class="st3" d="M150.8,16.2l0.4,0.5c4.2-2.8,7.4-3.7,9.8-3.7c1.4,0,2.5,0.3,3.4,0.8c1.4,0.7,2.3,1.7,2.9,2.6
		c0.3,0.4,0.5,0.8,0.6,1.1c0.1,0.1,0.1,0.3,0.1,0.3l0,0.1l0,0l0,0l0.6-0.2l-0.5-0.5c-1.9,1.8-4,2.5-6.2,2.5c-2.7,0-5.4-1-7.4-2
		c-1-0.5-1.9-1-2.5-1.4c-0.3-0.2-0.5-0.3-0.7-0.5c-0.1-0.1-0.1-0.1-0.2-0.1l0,0l0,0L150.8,16.2l0.4,0.5L150.8,16.2l-0.4,0.5
		c0,0,1.4,1.1,3.6,2.1c2.1,1.1,5,2.2,8,2.2c2.5,0,5-0.8,7.2-2.9l0.3-0.3l-0.1-0.4c0-0.1-0.5-1.5-1.8-2.9c-0.6-0.7-1.5-1.4-2.6-2
		c-1.1-0.5-2.4-0.9-4-0.9c-2.7,0-6.2,1.1-10.5,4l-0.8,0.5l0.7,0.6L150.8,16.2z"/>
	<path class="st7" d="M153.8,19.1c17,1,13.3,12,13.3,12C157.5,32.3,153.8,19.1,153.8,19.1z"/>
	<path class="st3" d="M153.8,19.1l0,0.7c5.8,0.4,9.1,1.9,10.9,3.7c0.9,0.9,1.4,1.8,1.8,2.7c0.3,0.9,0.4,1.8,0.4,2.6
		c0,0.7-0.1,1.2-0.2,1.6c0,0.2-0.1,0.4-0.1,0.5l0,0.1l0,0l0,0l0.2,0.1l-0.2-0.1l0,0l0.2,0.1l-0.2-0.1l0.6,0.2l-0.1-0.7
		c-0.4,0-0.8,0.1-1.1,0.1c-2,0-3.7-0.7-5.2-1.8c-2.2-1.6-3.8-4.1-4.8-6.2c-0.5-1-0.9-2-1.1-2.6c-0.1-0.3-0.2-0.6-0.3-0.8
		c0-0.1-0.1-0.2-0.1-0.2l0-0.1l0,0L153.8,19.1l0,0.7L153.8,19.1l-0.6,0.2c0,0,0.9,3.1,2.9,6.2c1,1.6,2.3,3.1,3.9,4.3
		c1.6,1.2,3.6,2,6,2c0.4,0,0.8,0,1.3-0.1l0.4-0.1l0.1-0.4c0,0,0.4-1.1,0.4-2.6c0-0.9-0.1-1.9-0.5-3c-0.6-1.6-1.8-3.3-3.9-4.7
		c-2.2-1.3-5.3-2.3-9.8-2.6l-0.9-0.1l0.2,0.9L153.8,19.1z"/>
</g>
</svg>
